<svg width="16" height="16" viewBox="0 0 16 16" fill="none" xmlns="http://www.w3.org/2000/svg">
<path fill-rule="evenodd" clip-rule="evenodd" d="M1.18476 7.50002H3.18128C3.34612 4.68 4.88205 2.63605 6.21826 1.40132C3.46332 2.1434 1.39703 4.56476 1.18476 7.50002ZM7.50008 1.62114C6.22031 2.62026 4.37732 4.60843 4.18342 7.50002H7.50008V1.62114ZM7.50008 8.50002H4.19564C4.34572 9.90464 5.12296 12.4037 7.50008 14.3436V8.50002ZM6.29863 14.6198C4.07522 12.5264 3.32788 9.99362 3.19111 8.50002H1.18476C1.39909 11.4638 3.50359 13.9036 6.29863 14.6198ZM9.72532 14.6137C12.5085 13.8897 14.6017 11.4553 14.8154 8.50002H12.8078C12.7216 9.39006 12.4146 10.5568 11.8245 11.7442C11.3385 12.7222 10.6534 13.7284 9.72532 14.6137ZM11.8022 8.50002H8.50008V14.3597C9.60827 13.4658 10.3967 12.3703 10.929 11.2992C11.4509 10.2489 11.717 9.24156 11.8022 8.50002ZM11.8167 7.50002H8.50008V1.62114C9.77985 2.62026 11.6228 4.60843 11.8167 7.50002ZM12.8189 7.50002H14.8154C14.6031 4.56476 12.5368 2.1434 9.7819 1.40132C11.1181 2.63605 12.654 4.68 12.8189 7.50002ZM0.166748 8.00002C0.166748 3.67379 3.67385 0.166687 8.00008 0.166687C12.3263 0.166687 15.8334 3.67379 15.8334 8.00002C15.8334 12.3263 12.3263 15.8334 8.00008 15.8334C3.67385 15.8334 0.166748 12.3263 0.166748 8.00002Z" fill="currentColor"/>
</svg>
