<svg width="24" height="24" viewBox="0 0 24 24" fill="none" xmlns="http://www.w3.org/2000/svg">
<g clip-path="url(#clip0)">
<path fill-rule="evenodd" clip-rule="evenodd" d="M4.78087 22.6244L20.7809 2.62439L19.2191 1.375L16.4127 4.88299C15.4343 4.48089 14.3622 4.18626 13.2025 4.06318C12.811 4.02162 12.41 3.99969 12 3.99969C8.15036 3.99969 5.16775 5.92524 3.19268 7.76864C2.20014 8.69501 1.44132 9.61907 0.929801 10.3121C0.673483 10.6594 0.477733 10.9507 0.344368 11.1582C0.277649 11.2619 0.226429 11.3449 0.190941 11.4036C0.173194 11.4329 0.15937 11.4562 0.149499 11.473L0.137656 11.4933L0.133963 11.4997L0.132674 11.502L0.132169 11.5028C0.131955 11.5032 0.131757 11.5036 1 11.9997L0.131757 11.5036C-0.043919 11.811 -0.043919 12.1884 0.131757 12.4958L1 11.9997C0.131757 12.4958 0.131854 12.496 0.131956 12.4962L0.132179 12.4966L0.132698 12.4975L0.134028 12.4998L0.137853 12.5064L0.150156 12.5275C0.160422 12.5449 0.174815 12.5692 0.193306 12.5997C0.23028 12.6608 0.283682 12.7471 0.353265 12.8551C0.49235 13.0708 0.696573 13.3736 0.963997 13.7335C1.49762 14.4517 2.28953 15.4064 3.32529 16.3532C4.0239 16.9919 4.83848 17.6315 5.76479 18.1929L3.21913 21.375L4.78087 22.6244ZM7.02631 16.616C7.01816 16.611 7.00992 16.606 7.00158 16.6012C6.12418 16.0925 5.34602 15.4907 4.67471 14.8771C3.75495 14.0363 3.04686 13.1833 2.56936 12.5407C2.41691 12.3355 2.28864 12.1527 2.18515 11.9997C2.28168 11.857 2.39977 11.6884 2.53895 11.4998C2.99618 10.8803 3.67486 10.0544 4.55732 9.23075C6.33225 7.57415 8.84964 5.99969 12 5.99969C12.3386 5.99969 12.6691 6.01779 12.9915 6.05201C13.7342 6.13084 14.4373 6.29558 15.0999 6.52408L13.639 8.35011C13.1378 8.12474 12.5823 7.9997 12 7.9997C9.79086 7.9997 8 9.79056 8 11.9997C8 12.8993 8.298 13.7312 8.79959 14.3994L7.02631 16.616ZM10.1365 12.7282C10.0483 12.5027 10 12.2571 10 11.9997C10 10.8951 10.8954 9.99969 12 9.99969C12.1027 9.99969 12.2033 10.0074 12.3014 10.0221L10.1365 12.7282ZM19.5537 6.66935L20.3107 7.32275C21.4651 8.31917 22.3479 9.35512 22.9422 10.1408C23.2401 10.5346 23.4676 10.8683 23.6223 11.1066C23.6998 11.2259 23.7592 11.3215 23.8002 11.389C23.8207 11.4228 23.8367 11.4496 23.8481 11.4689L23.8616 11.4921L23.8658 11.4993L23.8672 11.5018L23.8678 11.5028L23.868 11.5032C23.8681 11.5034 23.8682 11.5036 23 11.9997C23.8682 12.4958 23.868 12.4962 23.8678 12.4966L23.8673 12.4974L23.866 12.4997L23.8623 12.5061L23.8505 12.5264C23.8406 12.5432 23.8268 12.5665 23.8091 12.5958C23.7736 12.6545 23.7224 12.7374 23.6556 12.8412C23.5223 13.0487 23.3265 13.34 23.0702 13.6873C22.5587 14.3803 21.7999 15.3044 20.8073 16.2308C18.8323 18.0741 15.8496 19.9997 12 19.9997C11.6271 19.9997 11.2616 19.9816 10.9038 19.947L9.90848 19.8508L10.1008 17.8601L11.0962 17.9563C11.3907 17.9847 11.692 17.9997 12 17.9997C15.1504 17.9997 17.6677 16.4252 19.4427 14.7686C20.3251 13.945 21.0038 13.1191 21.4611 12.4996C21.6002 12.311 21.7183 12.1424 21.8148 11.9997C21.6929 11.8195 21.5367 11.598 21.3471 11.3473C20.814 10.6425 20.0254 9.71848 19.0039 8.83677L18.2469 8.18337L19.5537 6.66935ZM23 11.9997L23.8682 11.5036C24.0439 11.811 24.0439 12.1884 23.8682 12.4958L23 11.9997Z" fill="#94A0B1"/>
</g>
<defs>
<clipPath id="clip0">
<rect width="24" height="24" fill="white"/>
</clipPath>
</defs>
</svg>
