<svg width="56" height="56" viewBox="0 0 56 56" fill="none" xmlns="http://www.w3.org/2000/svg">
	<path fill-rule="evenodd" clip-rule="evenodd" d="M8.33325 2.33331C8.33325 1.78103 8.78097 1.33331 9.33325 1.33331H30.3332C30.5985 1.33331 30.8528 1.43867 31.0404 1.62621L47.3737 17.9595C47.5612 18.1471 47.6666 18.4014 47.6666 18.6666V53.6666C47.6666 54.2189 47.2189 54.6666 46.6666 54.6666H9.33325C8.78097 54.6666 8.33325 54.2189 8.33325 53.6666V2.33331ZM10.3333 3.33331V52.6666H45.6666V19.6666H30.3332C29.781 19.6666 29.3332 19.2189 29.3332 18.6666V3.33331H10.3333ZM31.3332 4.74753L44.2524 17.6666H31.3332V4.74753ZM17.6666 31.6666H18.6666H37.3333H38.3333V33.6666H37.3333H18.6666H17.6666V31.6666ZM18.6666 41H17.6666V43H18.6666H30.3333H31.3333V41H30.3333H18.6666Z" fill="currentColor"/>
</svg>
