<svg width="16" height="16" viewBox="0 0 16 16" fill="none" xmlns="http://www.w3.org/2000/svg">
<path fill-rule="evenodd" clip-rule="evenodd" d="M3.16675 6.00002C3.16675 3.58739 5.00248 1.16669 8.00008 1.16669C10.9977 1.16669 12.8334 3.58739 12.8334 6.00002C12.8334 6.89649 12.5322 7.90327 12.0477 8.93295C11.5656 9.9574 10.918 10.9712 10.2624 11.8726C9.60782 12.7726 8.95215 13.5513 8.45971 14.1053C8.28243 14.3048 8.12664 14.4747 8.00008 14.6103C7.87352 14.4747 7.71773 14.3048 7.54045 14.1053C7.04801 13.5513 6.39234 12.7726 5.73778 11.8726C5.0822 10.9712 4.43458 9.9574 3.95249 8.93295C3.46794 7.90327 3.16675 6.89649 3.16675 6.00002ZM7.64634 15.6867C7.64644 15.6868 7.64653 15.6869 8.00008 15.3334L7.64653 15.6869C7.74029 15.7807 7.86747 15.8334 8.00008 15.8334C8.13269 15.8334 8.25987 15.7807 8.35363 15.6869L8.00008 15.3334C8.35363 15.6869 8.35372 15.6868 8.35382 15.6867L8.35414 15.6864L8.35513 15.6854L8.35855 15.682L8.37105 15.6694L8.41787 15.6216C8.45844 15.5801 8.51732 15.5192 8.5919 15.4406C8.74102 15.2835 8.95308 15.0555 9.20712 14.7697C9.71468 14.1987 10.3923 13.3941 11.0711 12.4608C11.7489 11.5289 12.4346 10.4593 12.9525 9.35875C13.4679 8.26343 13.8334 7.10355 13.8334 6.00002C13.8334 3.11857 11.6299 0.166687 8.00008 0.166687C4.37027 0.166687 2.16675 3.11857 2.16675 6.00002C2.16675 7.10355 2.53223 8.26343 3.04767 9.35875C3.56558 10.4593 4.2513 11.5289 4.92905 12.4608C5.60782 13.3941 6.28548 14.1987 6.79304 14.7697C7.04708 15.0555 7.25914 15.2835 7.40826 15.4406C7.48284 15.5192 7.54172 15.5801 7.58229 15.6216L7.62911 15.6694L7.64161 15.682L7.64503 15.6854L7.64602 15.6864L7.64634 15.6867ZM8.00008 7.33335C8.73646 7.33335 9.33341 6.7364 9.33341 6.00002C9.33341 5.26364 8.73646 4.66669 8.00008 4.66669C7.2637 4.66669 6.66675 5.26364 6.66675 6.00002C6.66675 6.7364 7.2637 7.33335 8.00008 7.33335Z" fill="currentColor"/>
</svg>
