<svg width="16" height="16" viewBox="0 0 16 16" fill="none" xmlns="http://www.w3.org/2000/svg">
<path fill-rule="evenodd" clip-rule="evenodd" d="M4 1.5C2.61929 1.5 1.5 2.61929 1.5 4L1.5 9.33333C1.5 10.714 2.61929 11.8333 4 11.8333H4.16667L4.16667 14C4.16667 14.1844 4.26816 14.3538 4.43074 14.4408C4.59332 14.5278 4.79059 14.5183 4.94402 14.416L8.81805 11.8333H12C13.3807 11.8333 14.5 10.714 14.5 9.33333V4C14.5 2.61929 13.3807 1.5 12 1.5L4 1.5ZM2.5 4C2.5 3.17157 3.17157 2.5 4 2.5L12 2.5C12.8284 2.5 13.5 3.17157 13.5 4V9.33333C13.5 10.1618 12.8284 10.8333 12 10.8333H8.66667H8.51528L8.38932 10.9173L5.16667 13.0657L5.16667 11.3333V10.8333H4.66667H4C3.17157 10.8333 2.5 10.1618 2.5 9.33333L2.5 4ZM5.33333 7.33333C5.70152 7.33333 6 7.03486 6 6.66667C6 6.29848 5.70152 6 5.33333 6C4.96514 6 4.66667 6.29848 4.66667 6.66667C4.66667 7.03486 4.96514 7.33333 5.33333 7.33333ZM8.66667 6.66667C8.66667 7.03486 8.36819 7.33333 8 7.33333C7.63181 7.33333 7.33333 7.03486 7.33333 6.66667C7.33333 6.29848 7.63181 6 8 6C8.36819 6 8.66667 6.29848 8.66667 6.66667ZM10.6667 7.33333C11.0349 7.33333 11.3333 7.03486 11.3333 6.66667C11.3333 6.29848 11.0349 6 10.6667 6C10.2985 6 10 6.29848 10 6.66667C10 7.03486 10.2985 7.33333 10.6667 7.33333Z" fill="#151515"/>
</svg>
