<svg width="95" height="56" viewBox="0 0 95 56" fill="none" xmlns="http://www.w3.org/2000/svg">
<path fill-rule="evenodd" clip-rule="evenodd" d="M45.7465 2.04726C37.4465 2.04726 30.0537 5.9503 25.3019 12.0193H20.8526C13.871 12.0193 8.18988 17.6968 8.18988 24.6784V32.3115C8.18988 39.2932 13.871 44.9743 20.8526 44.9743H26.1178C30.8777 50.473 37.9081 53.9527 45.7465 53.9527C53.5849 53.9527 60.6152 50.473 65.3751 44.9743H70.4446C77.4289 44.9742 83.1109 39.2932 83.1109 32.3115V24.6784C83.1109 17.6968 77.4289 12.0193 70.4446 12.0193H66.191C61.4393 5.9503 54.0465 2.04726 45.7465 2.04726Z" fill="black"/>
<path d="M47.3787 32.3108V24.68C47.3787 19.0428 51.9664 14.4551 57.6036 14.4551H70.4443C76.0815 14.4551 80.6719 19.0428 80.6719 24.68V32.3108C80.6719 37.9481 76.0815 42.5357 70.4443 42.5357C70.4443 42.5357 51.5796 42.5357 42.1716 42.5357C45.3256 40.2311 47.3787 36.5063 47.3787 32.3108Z" fill="white"/>
<path d="M30.6889 36.271H26.4745L25.7198 32.6923C25.1815 30.1523 24.6865 27.0658 24.5918 25.8675C24.4944 27.0658 24.0021 30.1523 23.4638 32.6923L22.7064 36.271H18.5407L14.6104 19.7894H19.317L19.7634 22.5458C20.1421 24.8775 20.5911 27.7502 20.7534 29.7032C20.9428 27.7719 21.4594 24.9208 21.9788 22.5647L22.5414 19.7894H26.7342L27.2995 22.5647C27.8162 24.9208 28.3328 27.7719 28.5249 29.7032C28.6872 27.7502 29.1362 24.8775 29.5122 22.5458L29.9585 19.7894H34.6219L30.6889 36.271Z" fill="white"/>
<path d="M38.7525 23.0165C37.3621 23.0165 36.3261 22.2131 36.3261 20.9228C36.3261 19.7191 37.3621 18.8724 38.7525 18.8724C40.2105 18.8724 41.2221 19.7191 41.2221 20.9228C41.2221 22.2131 40.2105 23.0165 38.7525 23.0165ZM36.6317 36.271V24.2986H40.8705V36.271H36.6317Z" fill="white"/>
<path d="M57.6767 23.6738V27.358H66.4463V31.2234H57.6767V36.271H53.1323V19.7894H67.3795V23.6738H57.6767Z" fill="black"/>
<path d="M72.1376 23.0165C70.7499 23.0165 69.7112 22.2131 69.7112 20.9228C69.7112 19.7191 70.7499 18.8724 72.1376 18.8724C73.5956 18.8724 74.6073 19.7191 74.6073 20.9228C74.6073 22.2131 73.5956 23.0165 72.1376 23.0165ZM70.0195 36.271V24.2986H74.2556V36.271H70.0195Z" fill="black"/>
<path d="M84.8781 16.6949V13.7951H83.8475V13.2027H86.6121V13.7951H85.5787V16.6949H84.8781Z" fill="#231F20"/>
<path d="M87.0583 16.6949V13.2027H88.1187L88.7435 15.5858L89.3603 13.2027H90.4206V16.6949H89.7714L89.766 13.9466L89.0817 16.6949H88.4L87.7129 13.9466L87.7075 16.6949H87.0583Z" fill="#231F20"/>
</svg>
