<svg width="32" height="32" viewBox="0 0 32 32" fill="none" xmlns="http://www.w3.org/2000/svg">
<path fill-rule="evenodd" clip-rule="evenodd" d="M6.90323 13.7903L8.37097 18.0322H3.8871L5.33871 13.758C5.64516 12.8709 5.87097 11.9516 6.08065 11.0967H6.12903L6.16724 11.2415C6.38061 12.0501 6.59883 12.8771 6.90323 13.7903ZM1.96774 24.1613L3.5 19.5161H8.74194L10.3065 24.1613H12.3387L7.30645 9.4032H5.03226L0 24.1613H1.96774ZM16.468 16.8065V14.2258H15.7745V16.8065H13.2906V17.4677H15.7745V20.0484H16.468V17.4677H18.9519V16.8065H16.468ZM23.0001 14.2258V16.8065H25.4678V17.4677H23.0001V20.0484H22.3065V17.4677H19.8227V16.8065H22.3065V14.2258H23.0001ZM28.8224 16.8065V14.2258H29.5321V16.8065H31.9998V17.4677H29.5321V20.0484H28.8224V17.4677H26.3547V16.8065H28.8224Z" fill="#151515"/>
</svg>
