<svg width="32" height="32" viewBox="0 0 32 32" fill="none" xmlns="http://www.w3.org/2000/svg">
<path fill-rule="evenodd" clip-rule="evenodd" d="M16.5001 4.40005V0.800049H15.5001V4.40005H16.5001ZM7.5761 3.46505L9.5761 6.66505L10.4241 6.13505L8.4241 2.93505L7.5761 3.46505ZM23.5761 2.93505L21.5761 6.13505L22.4241 6.66505L24.4241 3.46505L23.5761 2.93505ZM16.0001 5.90005C13.1924 5.90005 10.6676 7.10489 8.84211 8.93037C7.01119 10.7613 5.90211 13.2157 5.90211 16H6.90211C6.90211 13.4941 7.89627 11.2904 9.54922 9.63748C11.2076 7.9791 13.4852 6.90005 16.0001 6.90005C18.5152 6.90005 20.7968 7.97927 22.455 9.63748L22.4567 9.63912C24.1069 11.2741 25.1001 13.4925 25.1001 16H26.1001C26.1001 13.2178 24.9945 10.7463 23.1615 8.92976C21.3359 7.10445 18.8072 5.90005 16.0001 5.90005ZM5.84817 10.3659L3.04817 8.76593L2.55203 9.63417L5.35203 11.2342L5.84817 10.3659ZM28.952 8.76593L26.152 10.3659L26.6482 11.2342L29.4482 9.63417L28.952 8.76593ZM16.0001 17.5H1.6001V18.5H6.82799L3.88128 21.5733L4.60309 22.2654L8.21339 18.5H15.1316L11.7217 24.3727L6.54405 25.8085L6.81128 26.7722L11.0035 25.6096L8.3677 30.149L9.23249 30.6511L11.8672 26.1136L12.9509 30.4126L13.9206 30.1681L12.5863 24.8751L15.9877 19.0172L19.1979 24.8711L17.9173 30.2059L18.8897 30.4393L19.9132 26.1755L22.3617 30.6405L23.2385 30.1596L20.7486 25.6192L25.0695 26.8831L25.3503 25.9234L20.0681 24.3782L16.8445 18.5H23.7802L27.3575 22.4024L28.0946 21.7267L25.1368 18.5H30.4001V17.5H16.0001Z" fill="#151515"/>
</svg>
