<svg width="32" height="32" viewBox="0 0 32 32" fill="none" xmlns="http://www.w3.org/2000/svg">
<path fill-rule="evenodd" clip-rule="evenodd" d="M11.7683 8.79994L15.1385 14.7H8.20002L4.26061 10.9464L3.57078 11.6703L6.75038 14.7H1.19995V15.7H16H30.7999V14.7H25.3004L28.4674 11.8421L27.7974 11.0997L23.8077 14.7H16.8751L20.3227 8.85191L25.7374 7.4188L25.4816 6.45209L21.0453 7.62624L23.9191 2.75144L23.0576 2.24359L20.2429 7.01811L19.1196 2.64936L18.1511 2.89838L19.524 8.23765L16.0068 14.2039L12.5743 8.19479L14.008 2.87139L13.0425 2.61132L11.8705 6.9627L9.12249 2.15198L8.25417 2.64798L11.062 7.56355L6.63778 6.32394L6.36799 7.28686L11.7683 8.79994ZM15.8707 24.0482C15.8707 20.8386 17.7255 18.774 20.5965 18.774C22.7094 18.774 24.3061 19.9998 24.7739 21.9837H23.661C23.2578 20.5482 22.0965 19.6934 20.5158 19.6934C18.4029 19.6934 17.0481 21.3869 17.0481 24.0321C17.0481 26.6934 18.4352 28.4192 20.5642 28.4192C22.1771 28.4192 23.3223 27.5966 23.7255 26.1289H24.8384C24.3545 28.1611 22.7416 29.3547 20.4836 29.3547C17.6771 29.3547 15.8707 27.274 15.8707 24.0482ZM4.83862 24.887H9.12895V25.8064H4.83862V24.887ZM12.4355 18.774C11.3549 18.774 10.4839 19.6611 10.4839 20.7418C10.4839 21.8224 11.3549 22.7095 12.4355 22.7095C13.5323 22.7095 14.4194 21.8224 14.4194 20.7418C14.4194 19.6289 13.5485 18.774 12.4355 18.774ZM12.4355 22.0482C11.7581 22.0482 11.2097 21.4676 11.2097 20.7418C11.2097 19.9998 11.742 19.4353 12.4355 19.4353C13.1614 19.4353 13.7097 19.9998 13.7097 20.7418C13.7097 21.4676 13.1452 22.0482 12.4355 22.0482Z" fill="#151515"/>
</svg>
