<svg width="32" height="32" viewBox="0 0 32 32" fill="none" xmlns="http://www.w3.org/2000/svg">
<path fill-rule="evenodd" clip-rule="evenodd" d="M29.7 2.80005V2.30005L29.2 2.30005L2.80003 2.30005H2.30003L2.30003 2.80005L2.29981 29.2L2.2998 29.7001H2.79981H29.2H29.7V29.2001V2.80005ZM3.29981 28.7001L3.30002 3.30005L28.7 3.30005V28.7001H3.29981ZM6.5002 10C6.5002 8.05952 8.05967 6.50005 10.0002 6.50005C11.9407 6.50005 13.5002 8.05952 13.5002 10C13.5002 11.9406 11.9407 13.5 10.0002 13.5C8.05967 13.5 6.5002 11.9406 6.5002 10ZM10.0002 5.50005C7.50739 5.50005 5.5002 7.50724 5.5002 10C5.5002 12.4929 7.50739 14.5 10.0002 14.5C12.493 14.5 14.5002 12.4929 14.5002 10C14.5002 7.50724 12.493 5.50005 10.0002 5.50005Z" fill="#151515"/>
</svg>
