<svg width="40" height="41" viewBox="0 0 40 41" fill="none" xmlns="http://www.w3.org/2000/svg">
<path fill-rule="evenodd" clip-rule="evenodd" d="M32.4307 10.5837C30.1293 9.24927 27.3446 8.68886 24.5614 9.17206L24.3904 8.1868C27.4133 7.66198 30.4348 8.27075 32.9316 9.7182C35.4498 11.1664 37.4637 13.4746 38.5332 16.3477L37.596 16.6966C36.6092 14.0458 34.7525 11.9187 32.4323 10.5847L32.4307 10.5837ZM30.1909 14.4939C28.874 13.7226 27.29 13.3823 25.7044 13.5711L25.5862 12.5781C27.3876 12.3636 29.1907 12.7492 30.6964 13.6311C32.1926 14.5074 33.4393 15.8369 34.1501 17.5169L33.2291 17.9065C32.6092 16.4413 31.5173 15.2708 30.1909 14.4939ZM9.85124 15.4815C11.4519 14.0729 13.5644 13.2198 15.867 13.2198C17.3642 13.2198 18.7922 13.6047 20.0453 14.2418L20.0509 14.2447L20.0509 14.2447C21.3222 14.9116 22.432 15.865 23.2599 17.0082C23.5265 16.931 23.8061 16.8732 24.0826 16.8336C24.3881 16.79 24.6939 16.7681 25.0001 16.7681C26.4015 16.7681 27.6908 17.2282 28.7367 17.969L28.7383 17.9701C29.7907 18.7218 30.6113 19.7902 31.0548 21.0512C32.6534 21.2378 34.0746 22.0205 35.0888 23.1425L35.0924 23.1465L35.0923 23.1465C36.0949 24.2799 36.7299 25.787 36.7299 27.4294C36.7299 29.2016 36.0072 30.7988 34.8496 31.9564C33.719 33.087 32.3046 33.9172 30.5 33.9172H8C5.83827 33.9172 4.4554 33.0757 3.3159 31.9362C2.14887 30.7692 1.5 29.176 1.5 27.4172C1.5 25.8387 2.01483 24.3402 2.98846 23.2117L2.98895 23.2111C3.95315 22.0969 5.2948 21.3196 6.82669 21.0631C7.03798 18.6768 8.12259 17.0853 9.84145 15.4903L9.85112 15.4814L9.85124 15.4815ZM10.5168 16.2279C8.89394 17.7349 7.98491 19.1258 7.81705 21.2194L7.81644 21.227L7.81559 21.2346C7.7727 21.6206 7.50245 21.942 7.10453 22.0304L7.08816 22.0341L7.07158 22.0366C5.73935 22.2401 4.57591 22.9055 3.74524 23.8653C2.94492 24.7932 2.5 26.0523 2.5 27.4172C2.5 28.9245 3.05294 30.259 4.02301 31.2291C5.02061 32.2267 6.16173 32.9172 8 32.9172H30.5C31.9616 32.9172 33.1361 32.2557 34.1425 31.2493C35.122 30.2698 35.7299 28.9233 35.7299 27.4294C35.7299 26.0487 35.1964 24.7744 34.3452 23.8112C33.4756 22.85 32.2566 22.1867 30.8939 22.0394L30.8854 22.0385L30.877 22.0373C30.6038 21.9983 30.2771 21.8299 30.1368 21.4558L30.134 21.4483L30.1314 21.4408C29.7627 20.3529 29.0619 19.4305 28.1579 18.7845C27.2684 18.1546 26.179 17.7681 25.0001 17.7681C24.7417 17.7681 24.4831 17.7866 24.224 17.8236C23.9639 17.8608 23.7076 17.916 23.4738 17.988L23.461 17.9919L23.448 17.9951C23.1295 18.0748 22.74 18.0006 22.4965 17.6596L22.4955 17.6582C21.7566 16.6162 20.75 15.7412 19.5892 15.1317C18.4639 14.5601 17.1913 14.2198 15.867 14.2198C13.8172 14.2198 11.9398 14.9777 10.5168 16.2279Z" fill="#151515"/>
</svg>
