<svg width="32" height="32" viewBox="0 0 32 32" fill="none" xmlns="http://www.w3.org/2000/svg">
<path fill-rule="evenodd" clip-rule="evenodd" d="M1.90002 1.5H2.40002H30H30.5V2V29.6V30.1H30H2.40002H1.90002V29.6V2V1.5ZM2.90002 11.7V19.9L11.1 19.9V11.7L2.90002 11.7ZM2.90002 10.7L11.1 10.7V2.5H2.90002V10.7ZM12.1 11.7V19.9H20.3V11.7H16.2L12.1 11.7ZM20.3 10.7H16.2L12.1 10.7V2.5H20.3V10.7ZM21.3 11.7V19.9H29.5V11.7L21.3 11.7ZM29.5 10.7L21.3 10.7V2.5H29.5V10.7ZM2.90002 29.1V20.9L11.1 20.9V29.1H2.90002ZM12.1 29.1V20.9H20.3V29.1H12.1ZM21.3 29.1V20.9L29.5 20.9V29.1H21.3Z" fill="#151515"/>
</svg>
