<svg width="32" height="32" viewBox="0 0 32 32" fill="none" xmlns="http://www.w3.org/2000/svg">
<path fill-rule="evenodd" clip-rule="evenodd" d="M9.26289 11.4629C9.26289 6.51627 13.3314 2.5 18.3814 2.5C23.4314 2.5 27.4999 6.51627 27.4999 11.4629C27.4999 16.4094 23.4314 20.4257 18.3814 20.4257C13.3314 20.4257 9.26289 16.4094 9.26289 11.4629ZM18.3814 1.5C12.7944 1.5 8.26289 5.94881 8.26289 11.4629C8.26289 14.0621 9.26983 16.4247 10.9196 18.1961L3.20702 27.9937L2.90918 28.3721L3.27606 28.684L4.80181 29.981L5.19259 30.3131L5.51472 29.914L13.4031 20.1406C14.8731 20.959 16.5719 21.4257 18.3814 21.4257C23.9683 21.4257 28.4999 16.9769 28.4999 11.4629C28.4999 5.94881 23.9684 1.5 18.3814 1.5ZM4.29061 28.2339L11.6407 18.8968C11.9289 19.1502 12.2319 19.3876 12.5483 19.6075L5.0587 28.8869L4.29061 28.2339ZM24.6999 11.6C24.6999 14.8584 22.0616 17.5 18.7999 17.5V18.5C22.6143 18.5 25.6999 15.4103 25.6999 11.6H24.6999Z" fill="#151515"/>
</svg>
