<svg width="152" height="41" viewBox="0 0 152 41" fill="none" xmlns="http://www.w3.org/2000/svg">
<path d="M25.8096 20.2915L25.8095 20.2915L25.8095 20.2986C25.8114 22.044 26.3345 23.7497 27.3127 25.203C28.2051 26.5288 29.4401 27.5907 30.8854 28.2819C30.2997 30.011 29.4604 31.6475 28.3935 33.139L28.3934 33.1389L28.3864 33.1493C27.5881 34.3265 26.8034 35.4384 25.9057 36.2649C25.0184 37.0817 24.0522 37.5899 22.8883 37.6085L22.885 37.6086C21.7336 37.6348 20.9685 37.3136 20.0793 36.9403L20.0392 36.9235C19.1187 36.5372 18.0895 36.1166 16.5116 36.1166C14.9269 36.1166 13.8813 36.5072 12.9476 36.8917C12.8833 36.9181 12.8198 36.9445 12.7568 36.9705C11.9148 37.3194 11.1791 37.6242 10.128 37.6674C9.05751 37.706 8.06993 37.1783 7.11276 36.2926C6.15462 35.4061 5.28954 34.2196 4.46237 33.0536C2.85658 30.74 1.42063 27.4656 0.810471 24.0549C0.199492 20.6397 0.426385 17.1498 2.06431 14.3541L2.06437 14.3542L2.06832 14.3472C2.81934 13.0167 3.90765 11.8998 5.22787 11.106C6.54731 10.3127 8.05311 9.86938 9.59872 9.81966C10.751 9.79696 11.8847 10.1812 12.9766 10.6063C13.1156 10.6604 13.2551 10.7157 13.3941 10.7707C13.7872 10.9264 14.1763 11.0805 14.5393 11.2033C15.0306 11.3695 15.5304 11.4993 16.0016 11.4993C16.4757 11.4993 17.0132 11.3419 17.5477 11.1517C17.8417 11.0471 18.1746 10.917 18.5172 10.7832C18.7861 10.6781 19.0609 10.5707 19.3277 10.4714C20.6036 9.99656 21.981 9.59348 23.3518 9.73532L23.3697 9.73718L23.3878 9.73774C24.7109 9.77855 26.0059 10.123 27.1697 10.7432C28.1784 11.2809 29.0643 12.0127 29.776 12.8931C28.6471 13.6726 27.7054 14.6916 27.0221 15.8785C26.2471 17.2247 25.8298 18.7428 25.8096 20.2915Z" fill="#D1D8E1" stroke="#D1D8E1"/>
<path d="M21.0703 5.79585L21.0702 5.7958L21.0647 5.80255C20.4217 6.59095 19.6052 7.22582 18.6762 7.65883C17.8914 8.02464 17.0439 8.23822 16.1798 8.2894C16.178 7.45026 16.3169 6.61537 16.5918 5.81868C16.9191 4.87053 17.4328 3.99481 18.104 3.24174L18.1041 3.24158C19.3657 1.82493 21.0815 0.883524 22.9586 0.568693C22.9787 2.47004 22.3135 4.32446 21.0703 5.79585Z" fill="#D1D8E1" stroke="#D1D8E1"/>
<path d="M54.5205 31.752L54.4046 31.4143H54.0476H47.1803H46.8234L46.7074 31.7519L45.1742 36.2151H43.338L49.4764 19.4536H51.7997L57.938 36.2151H56.0523L54.5205 31.752ZM47.4188 29.5362L47.1904 30.1991H47.8915H53.335H54.036L53.8077 29.5362L51.1243 21.745L51.0082 21.4078H50.6516H50.5765H50.2199L50.1037 21.7449L47.4188 29.5362Z" fill="#D1D8E1" stroke="#D1D8E1"/>
<path d="M67.2201 36.3513H67.2073L67.1944 36.352C66.4515 36.3903 65.7131 36.2215 65.0638 35.8656C64.4146 35.5097 63.8812 34.9813 63.5238 34.3418L63.3807 34.0857H63.0873H63.0249H62.5249V34.5857V40.4997H60.8287V24.2663H62.4385V25.9201V26.4201H62.9385H62.9881H63.2743L63.4193 26.1734C63.7953 25.5332 64.3408 25.0046 64.9987 24.6445C65.6565 24.2844 66.4017 24.1066 67.1547 24.1306L67.1626 24.1308L67.1705 24.1308C68.6972 24.1308 69.937 24.7206 70.8033 25.7529C71.6766 26.7935 72.2018 28.323 72.2018 30.2418C72.2018 32.167 71.6793 33.6967 70.8133 34.7354C69.9544 35.7655 68.7273 36.3513 67.2201 36.3513ZM70.4305 30.2418C70.4305 28.8482 70.0654 27.6425 69.372 26.774C68.6702 25.895 67.6579 25.3964 66.4593 25.3964C65.2731 25.3964 64.2685 25.9089 63.5719 26.7893C62.8827 27.6602 62.5136 28.864 62.5136 30.2418C62.5136 31.6304 62.8822 32.8374 63.5719 33.7088C64.2692 34.5898 65.2742 35.0983 66.4593 35.0983C67.6568 35.0983 68.6695 34.6037 69.3719 33.7241C70.0659 32.8551 70.4305 31.6463 70.4305 30.2418Z" fill="#D1D8E1" stroke="#D1D8E1"/>
<path d="M81.6768 36.3513H81.6639L81.6511 36.352C80.9082 36.3903 80.1698 36.2215 79.5205 35.8656C78.8713 35.5097 78.3378 34.9813 77.9804 34.3418L77.8373 34.0857H77.544H77.4816H76.9816V34.5857V40.4997H75.2854V24.2663H76.8952V25.9201V26.4201H77.3952H77.4447H77.7309L77.8759 26.1733C78.2519 25.5332 78.7974 25.0046 79.4553 24.6445C80.1131 24.2844 80.8583 24.1066 81.6113 24.1306L81.6192 24.1308H81.6272C83.1539 24.1308 84.3937 24.7206 85.26 25.7529C86.1333 26.7934 86.6584 28.323 86.6584 30.2418C86.6584 32.167 86.136 33.6966 85.2699 34.7354C84.4111 35.7655 83.184 36.3513 81.6768 36.3513ZM84.8872 29.7418H84.871C84.7935 28.5598 84.4377 27.5368 83.8286 26.7739C83.1269 25.895 82.1146 25.3964 80.916 25.3964C79.7298 25.3964 78.7252 25.9089 78.0285 26.7893C77.3393 27.6602 76.9703 28.864 76.9703 30.2418C76.9703 31.6304 77.3389 32.8374 78.0286 33.7088C78.7259 34.5898 79.7309 35.0983 80.916 35.0983C82.1134 35.0983 83.1262 34.6037 83.8286 33.7241C84.5225 32.8551 84.8872 31.6462 84.8872 30.2418V29.7418Z" fill="#D1D8E1" stroke="#D1D8E1"/>
<path d="M96.256 35.1971C95.3105 34.4778 94.697 33.4856 94.5067 32.2679L96.2953 32.268C96.7556 34.1205 98.7028 35.1858 101.02 35.1858C102.235 35.1858 103.319 34.8771 104.113 34.3179C104.915 33.7539 105.427 32.9258 105.427 31.9411C105.427 31.1082 105.118 30.4149 104.463 29.8676C103.836 29.3444 102.916 28.9743 101.724 28.6854L101.722 28.6849L99.3871 28.1304C97.7779 27.7472 96.6666 27.199 95.9603 26.5001C95.27 25.8169 94.9272 24.9509 94.9272 23.8287C94.9272 22.4579 95.5275 21.3076 96.5713 20.488C97.6235 19.6617 99.1466 19.1592 100.983 19.1592C102.797 19.1592 104.284 19.6606 105.318 20.4855C106.214 21.201 106.788 22.173 106.946 23.3287H105.194C105.015 22.507 104.566 21.8278 103.905 21.3403C103.135 20.7726 102.108 20.4862 100.944 20.4862C99.7811 20.4862 98.7557 20.7755 98.0068 21.32C97.2475 21.8721 96.7863 22.6809 96.7863 23.6443C96.7863 24.4286 97.0965 25.0715 97.7433 25.5771C98.3568 26.0567 99.2598 26.403 100.439 26.6903L100.44 26.6905L102.425 27.171L102.425 27.171L102.429 27.172C104.244 27.5951 105.45 28.1503 106.202 28.8594C106.93 29.5469 107.275 30.4213 107.275 31.6087C107.275 33.1211 106.671 34.3242 105.592 35.1619C104.5 36.0102 102.88 36.5128 100.82 36.5128C98.9026 36.5128 97.3441 36.025 96.256 35.1971Z" fill="#D1D8E1" stroke="#D1D8E1"/>
<path d="M110.886 25.3711H109.476V24.2662H110.886H111.386V23.7662V21.2017H113.095V23.7662V24.2662H113.595H115.593V25.3711H113.595H113.095V25.8711V33.0101C113.095 33.6289 113.233 34.1888 113.625 34.5887C114.019 34.9908 114.575 35.1359 115.193 35.1359V35.136L115.202 35.1358C115.328 35.1337 115.454 35.1289 115.58 35.1214V36.238C115.252 36.2785 114.922 36.2958 114.592 36.2898L114.592 36.2897H114.582C113.294 36.2897 112.532 36.047 112.081 35.6203C111.637 35.2003 111.386 34.4967 111.386 33.2936V25.8711V25.3711H110.886Z" fill="#D1D8E1" stroke="#D1D8E1"/>
<path d="M127.739 30.7421H127.753V30.2421C127.753 28.7748 127.413 27.5411 126.724 26.663C126.022 25.7693 125 25.2976 123.769 25.2976C122.537 25.2976 121.515 25.7734 120.815 26.6682C120.127 27.5475 119.787 28.7808 119.787 30.2421C119.787 31.7144 120.126 32.9483 120.816 33.825C121.517 34.7176 122.539 35.1853 123.769 35.1853C124.999 35.1853 126.021 34.7176 126.723 33.8251C127.333 33.0496 127.67 31.9945 127.739 30.7421ZM118.039 30.2421C118.039 28.3039 118.617 26.7775 119.595 25.7398C120.57 24.7051 121.988 24.1074 123.769 24.1074C125.557 24.1074 126.975 24.7053 127.949 25.7395C128.925 26.777 129.5 28.3032 129.5 30.2421C129.5 32.1875 128.928 33.7134 127.953 34.7489C126.982 35.781 125.565 36.3768 123.769 36.3768C121.974 36.3768 120.557 35.7811 119.586 34.7489C118.612 33.7134 118.039 32.1875 118.039 30.2421Z" fill="#D1D8E1" stroke="#D1D8E1"/>
<path d="M134.42 29.0623V36.2157H132.723L132.723 24.2662H134.295V25.9703V26.4703H134.795H134.857H135.247L135.342 26.0928C135.487 25.5173 135.83 25.0073 136.313 24.6493C136.797 24.2912 137.392 24.1075 137.998 24.1303L138.008 24.1307L138.018 24.1307C138.16 24.1302 138.301 24.1377 138.441 24.1532V25.596C138.206 25.563 137.969 25.5493 137.732 25.5552C137.275 25.5394 136.82 25.62 136.396 25.7918C135.968 25.9658 135.582 26.2294 135.265 26.565C134.949 26.9006 134.709 27.3002 134.564 27.7366C134.421 28.1634 134.372 28.6153 134.42 29.0623Z" fill="#D1D8E1" stroke="#D1D8E1"/>
<path d="M150.737 33.4127C150.161 35.1432 148.257 36.3768 145.715 36.3768C143.918 36.3768 142.511 35.7865 141.55 34.7659C140.586 33.7418 140.022 32.2317 140.022 30.3036C140.022 28.369 140.589 26.8238 141.547 25.7683C142.5 24.7177 143.879 24.1074 145.602 24.1074C147.301 24.1074 148.64 24.6795 149.557 25.6687C150.479 26.6622 151.021 28.1273 151.021 29.9949V30.4056H142.244H141.744V30.9056V31.0446C141.699 31.5853 141.769 32.1293 141.95 32.6414C142.134 33.1608 142.427 33.6352 142.811 34.0332C143.194 34.4313 143.659 34.7438 144.173 34.9507C144.678 35.1535 145.219 35.2502 145.763 35.2348C146.495 35.2957 147.229 35.1256 147.858 34.748C148.397 34.4242 148.836 33.9621 149.128 33.4127L150.737 33.4127ZM141.789 28.5479H141.757V29.0304C141.757 29.0366 141.757 29.0429 141.757 29.0492L142.257 29.0485V29.5479H148.823H149.296L149.323 29.0761C149.351 28.5777 149.274 28.0791 149.098 27.6117C148.921 27.1443 148.649 26.7184 148.298 26.3606C147.947 26.0027 147.526 25.7207 147.06 25.5317C146.596 25.3435 146.099 25.2515 145.598 25.2612C145.096 25.2591 144.599 25.3546 144.134 25.5423C143.667 25.7309 143.242 26.009 142.884 26.3608C142.526 26.7126 142.242 27.1313 142.048 27.5928C141.919 27.8992 141.833 28.2203 141.789 28.5479Z" fill="#D1D8E1" stroke="#D1D8E1"/>
<path d="M51.2945 4.3862L51.295 4.37526V4.36431C51.295 3.78262 51.0671 3.27045 50.6285 2.91404C50.2088 2.57307 49.6418 2.41048 49.004 2.40502C48.72 2.37041 48.4319 2.38993 48.1551 2.46269C47.867 2.53844 47.5967 2.67044 47.3605 2.85123C47.1242 3.03204 46.9266 3.25804 46.7796 3.51619L47.2142 3.76351L46.7796 3.51619C46.708 3.642 46.6492 3.77416 46.6038 3.91073H46.1602C46.2049 3.75347 46.2653 3.60041 46.3406 3.45381C46.4987 3.14638 46.7195 2.87379 46.9897 2.65328C47.2599 2.43277 47.5738 2.26912 47.9118 2.17291C48.2497 2.0767 48.6043 2.05009 48.9534 2.09481L48.985 2.09886H49.0169C49.8888 2.09886 50.5909 2.33961 51.0634 2.7121C51.528 3.07827 51.789 3.58298 51.7889 4.18414L51.789 4.18854C51.7925 4.58327 51.6586 4.96813 51.4082 5.27883C51.2043 5.53191 50.933 5.72347 50.6256 5.83293C50.8108 5.66012 50.9638 5.45553 51.0768 5.22847C51.2074 4.96584 51.2817 4.67904 51.2945 4.3862ZM51.7229 7.55867C52.0353 7.89355 52.2011 8.33408 52.1873 8.78568C52.1483 9.13795 52.0395 9.47956 51.8666 9.7911C51.6911 10.1075 51.453 10.3866 51.166 10.6119L51.4747 11.0052L51.166 10.6119C50.8789 10.8371 50.5487 11.0039 50.1947 11.1022C49.8406 11.2004 49.4701 11.228 49.1049 11.1833L49.0412 11.1755L48.9775 11.184C48.6119 11.2332 48.24 11.2092 47.8841 11.1137C47.5282 11.0181 47.1959 10.853 46.9069 10.6286L46.6002 11.0234L46.9069 10.6286C46.6179 10.4041 46.3782 10.1249 46.2017 9.808C46.1173 9.65664 46.0483 9.49811 45.9951 9.33466H46.4313C46.7604 10.3288 47.8265 10.8477 49.0441 10.8477C49.7597 10.8477 50.3984 10.6592 50.8702 10.2914C51.3509 9.91657 51.6334 9.37202 51.6334 8.74189C51.6334 8.11202 51.3677 7.57446 50.8698 7.21093C50.7577 7.12915 50.6363 7.05779 50.5065 6.99645C50.9724 7.01969 51.409 7.22231 51.7229 7.55867ZM48.9978 6.7022H48.1523V6.39691H48.9277C49.2093 6.42717 49.4942 6.40182 49.7661 6.32214C49.8518 6.29701 49.9357 6.26663 50.0173 6.23125V6.38312V6.49641V6.82147C49.706 6.74071 49.3629 6.7022 48.9978 6.7022Z" fill="#D1D8E1" stroke="#D1D8E1"/>
<path d="M55.7145 5.59683H55.3003C55.6415 4.98559 56.4316 4.55127 57.6311 4.55127C58.4783 4.55127 59.0697 4.75948 59.4417 5.07628C59.8024 5.38346 60.0168 5.8434 60.0168 6.48942V10.9468H59.617V10.4271V9.92713H59.169C59.229 9.84229 59.2832 9.75315 59.3308 9.6603C59.4669 9.39544 59.5476 9.10599 59.568 8.8092L59.5692 8.79209V8.77493V8.16835V7.63584L59.0377 7.66934L57.2404 7.78263L57.2404 7.78263L57.239 7.78273C56.6974 7.81846 56.2178 7.9299 55.8638 8.18374C55.4752 8.46244 55.2987 8.86788 55.2987 9.32802C55.2987 9.82069 55.524 10.2266 55.8903 10.4935C56.2353 10.7449 56.6796 10.8571 57.1389 10.8609C57.4017 10.8842 57.6664 10.8613 57.9209 10.7933C57.8892 10.812 57.8568 10.8298 57.8239 10.8467C57.5135 11.0067 57.1651 11.0828 56.8143 11.0668L56.7774 11.0651L56.7406 11.0689C56.5001 11.0936 56.2571 11.0683 56.0274 10.9947C55.7977 10.9212 55.5866 10.8012 55.4077 10.6428C55.2288 10.4844 55.086 10.2913 54.9881 10.0761C54.8904 9.86122 54.8395 9.62886 54.8384 9.3939C54.8386 8.88396 55.0234 8.51913 55.3594 8.25588C55.7156 7.97677 56.2869 7.77829 57.1051 7.7281C57.1054 7.72807 57.1058 7.72805 57.1062 7.72803L59.0975 7.61487L59.5692 7.58807V7.11567V6.48942C59.5692 5.98655 59.3952 5.53063 59.003 5.21367C58.6282 4.91081 58.1221 4.7904 57.5625 4.7904C56.8068 4.7904 56.0798 5.02608 55.7145 5.59683Z" fill="#D1D8E1" stroke="#D1D8E1"/>
<path d="M73.5095 11.066L73.4927 11.0671C73.1302 11.0915 72.7685 11.0132 72.4504 10.8421C72.3043 10.7634 72.1702 10.6667 72.0511 10.555C72.3649 10.7033 72.7185 10.7804 73.1001 10.7804C73.8553 10.7804 74.4984 10.4912 74.941 9.93708C75.3722 9.3973 75.5729 8.65761 75.5729 7.8155C75.5729 6.97608 75.372 6.23821 74.9419 5.69951C74.5005 5.14663 73.8593 4.85689 73.1065 4.85689C72.7461 4.85689 72.4105 4.9251 72.1098 5.05686C72.2044 4.97708 72.3067 4.90554 72.4156 4.84338C72.7441 4.65586 73.1193 4.56121 73.4998 4.57044L73.4998 4.57059L73.5119 4.57059C74.3086 4.57057 74.9261 4.87091 75.3543 5.39473C75.7916 5.92962 76.0668 6.74284 76.0668 7.8155C76.0668 8.8877 75.7916 9.70299 75.3552 10.2398C74.9279 10.7655 74.3138 11.066 73.5263 11.066H73.5095ZM70.6194 7.8218C70.6194 8.61367 70.809 9.31725 71.1992 9.84728H71.1465H70.6465V10.3473V13.3586H70.1941V4.69092H70.5923V5.38998V5.88998H71.0923H71.1304C70.7864 6.4083 70.6194 7.07567 70.6194 7.8218Z" fill="#D1D8E1" stroke="#D1D8E1"/>
<path d="M64.3714 4.89672L63.8715 4.89673V5.39672V10.9469H63.4185V4.69141H67.2661V4.89665L64.3714 4.89672Z" fill="#D1D8E1" stroke="#D1D8E1"/>
<path d="M83.4979 4.69141L81.7703 10.1064L81.6593 10.4544H81.2939H81.179H80.8141L80.7028 10.1068L78.969 4.69141H78.4675L80.8856 11.3018L80.9434 11.4597L80.894 11.6205L80.7931 11.949C80.7084 12.3606 80.4765 12.7272 80.1412 12.9822C79.8146 13.2307 79.4115 13.357 79.0024 13.3416V13.5767C79.0432 13.5779 79.0786 13.5786 79.1042 13.5786L83.4979 4.69141ZM83.4979 4.69141H83.9593L81.4592 11.576L81.4592 11.576L81.4582 11.5789C81.1527 12.4366 80.8591 12.9142 80.5257 13.1886C80.2094 13.449 79.7923 13.5786 79.1042 13.5786L83.4979 4.69141Z" fill="#D1D8E1" stroke="#D1D8E1"/>
<path d="M90.3812 8.15369C90.7383 8.42714 90.9118 8.82532 90.9118 9.2868C90.9118 9.78641 90.6753 10.2044 90.2789 10.4792C89.8995 10.7421 89.3987 10.8599 88.8509 10.8599C88.0371 10.8599 87.2485 10.5767 86.9002 9.8867H86.4349C86.5642 10.1909 86.7768 10.4316 87.0534 10.617C87.4928 10.9116 88.1156 11.0786 88.8509 11.0786L90.3812 8.15369ZM90.3812 8.15369C90.6532 8.19409 90.9006 8.3285 91.0795 8.53138C91.2636 8.74014 91.3626 9.00699 91.3595 9.28114H91.3595V9.28683C91.3595 9.81688 91.1375 10.2443 90.7336 10.5525C90.3179 10.8697 89.6817 11.0786 88.8509 11.0786L90.3812 8.15369ZM86.9735 5.67522H86.6101C86.754 5.38472 86.9675 5.12882 87.2366 4.93163C87.674 4.61118 88.2226 4.47202 88.7644 4.54563L88.7979 4.55019H88.8317C89.6402 4.55019 90.2101 4.73139 90.5646 4.99468C90.902 5.24516 91.0818 5.59528 91.0818 6.05563H91.0816L91.0819 6.06759C91.0873 6.29252 91.0143 6.51331 90.8737 6.69303C90.7526 6.84779 90.5875 6.96422 90.3992 7.02761C90.5734 6.79354 90.6565 6.50891 90.6565 6.20195C90.6565 5.78706 90.4814 5.40266 90.1327 5.13559C89.798 4.87922 89.3467 4.76258 88.8317 4.76258C88.0792 4.76258 87.2992 5.03491 86.9735 5.67522ZM88.8317 7.64132C89.2327 7.64132 89.6089 7.58048 89.9198 7.42323V7.54103V7.65432V7.90865C89.6045 7.79664 89.239 7.7538 88.8509 7.7538H88.2496V7.64132H88.8317Z" fill="#D1D8E1" stroke="#D1D8E1"/>
<path d="M94.4513 10.9469V4.69141H94.891V9.18181V9.68181H95.391H95.5059H95.7706L95.9194 9.46287L99.1623 4.69142H99.8372V10.9469H99.3975V6.42976V5.92976H98.8975H98.789H98.5238L98.375 6.14937L95.1257 10.9469L94.4513 10.9469Z" fill="#D1D8E1" stroke="#D1D8E1"/>
<path d="M104.496 4.89664H102.679V4.69141H107.768V4.89664H105.95H105.45V5.39664V10.9468H104.996V5.39664V4.89664H104.496Z" fill="#D1D8E1" stroke="#D1D8E1"/>
<path d="M111.96 10.6732C112.263 10.8012 112.588 10.8672 112.917 10.8676C113.351 10.9124 113.789 10.8325 114.178 10.6367C114.487 10.4818 114.754 10.2595 114.961 9.98784L115.313 9.98786C115.131 10.2643 114.892 10.504 114.609 10.6904C114.123 11.0101 113.537 11.1518 112.955 11.0898L112.922 11.0862L112.889 11.0871C112.476 11.0979 112.065 11.0198 111.686 10.8585C111.306 10.6972 110.968 10.4567 110.693 10.1542C110.418 9.85172 110.214 9.4944 110.094 9.10725C109.974 8.72012 109.941 8.31207 109.998 7.9113L110.007 7.843L109.998 7.77466C109.943 7.37154 109.977 6.96149 110.097 6.57213C110.217 6.18275 110.42 5.82282 110.694 5.51686C110.968 5.21088 111.306 4.966 111.685 4.79925C112.064 4.63249 112.476 4.54788 112.891 4.55137V4.55139H112.896C113.802 4.55139 114.478 4.85263 114.934 5.35982C115.395 5.87377 115.68 6.65662 115.68 7.70864H110.984H110.484V8.20864V8.26859C110.458 8.59795 110.501 8.92891 110.611 9.24103C110.722 9.56033 110.9 9.85256 111.133 10.0991C111.365 10.3457 111.647 10.5411 111.96 10.6732ZM114.699 7.64965H115.163L115.198 7.18724C115.221 6.87328 115.178 6.55802 115.071 6.26181C114.964 5.96562 114.795 5.6953 114.576 5.46804L114.216 5.81486L114.576 5.46804C114.358 5.24079 114.093 5.06162 113.801 4.9416C113.511 4.82272 113.2 4.76438 112.887 4.77004C112.573 4.76697 112.261 4.82542 111.97 4.94218C111.676 5.06004 111.408 5.23503 111.183 5.45716C110.957 5.67931 110.779 5.94411 110.659 6.23612C110.539 6.52813 110.479 6.84121 110.484 7.15677L110.983 7.14965V7.64965H110.984H111.491H114.699Z" fill="#D1D8E1" stroke="#D1D8E1"/>
<path d="M122.75 4.69141V4.19141H125.568C127.008 4.19141 127.852 4.9105 127.852 6.03632C127.854 6.39355 127.732 6.7407 127.506 7.01969C127.42 7.12477 127.322 7.21779 127.214 7.297C127.03 7.23412 126.837 7.19546 126.64 7.18317L126.616 7.56735C126.614 7.56788 126.611 7.5684 126.609 7.56891V7.6822C126.617 7.68272 126.625 7.68329 126.634 7.68393L126.714 8.05767C126.906 8.01626 127.09 7.94843 127.261 7.85709C127.437 7.94492 127.598 8.06346 127.734 8.20875C128.027 8.52003 128.188 8.93031 128.182 9.35485C128.182 10.6207 127.217 11.4468 125.602 11.4468H122.75V10.9468M122.75 4.69141H122.25V10.9468H122.75M122.75 4.69141V10.9468M122.75 4.69141H125.568C126.21 4.69141 126.657 4.85206 126.933 5.07839C127.198 5.29522 127.352 5.60894 127.352 6.03632L127.352 6.03945C127.354 6.28019 127.271 6.51505 127.117 6.70468C127.007 6.84077 126.864 6.94775 126.703 7.01676M122.75 10.9468H125.602C126.329 10.9468 126.85 10.7607 127.18 10.4894C127.499 10.2269 127.682 9.85005 127.682 9.35485V9.34875L127.683 9.34875C127.686 9.05461 127.575 8.76907 127.37 8.55137C127.219 8.39066 127.025 8.27598 126.812 8.21925M126.812 8.21925C127.097 8.49594 127.23 8.86842 127.23 9.28803C127.23 9.75127 127.069 10.1724 126.707 10.4644C126.362 10.7421 125.904 10.8478 125.412 10.8478H123.69H123.19V10.3478V8.22196V7.72196L123.69 7.72196L125.23 7.72198C125.541 7.72198 125.839 7.75252 126.109 7.82994M126.812 8.21925C126.736 8.19906 126.657 8.18621 126.578 8.18124L126.109 8.15203V7.82994M126.812 8.21925C126.758 8.16669 126.698 8.11758 126.633 8.07226C126.618 8.06159 126.602 8.0512 126.586 8.04109C126.442 7.94855 126.282 7.8796 126.109 7.82994M126.703 7.01676C126.857 6.78564 126.927 6.51163 126.927 6.22279C126.927 5.82756 126.795 5.44321 126.475 5.16633C126.165 4.89878 125.748 4.79049 125.29 4.79049H125.29L123.69 4.79051L123.19 4.79051V5.29051V7.16925V7.66925H123.69H125.129C125.486 7.66925 125.822 7.62122 126.109 7.4973M126.703 7.01676C126.655 7.08865 126.598 7.15638 126.533 7.21913C126.494 7.25701 126.452 7.29307 126.406 7.32713C126.315 7.39518 126.215 7.45144 126.109 7.4973M126.703 7.01676C126.639 7.04398 126.572 7.06529 126.503 7.08015L126.109 7.16526V7.4973M126.109 7.4973V7.56891V7.6822V7.82994" fill="#D1D8E1" stroke="#D1D8E1"/>
</svg>
