<svg width="160" height="160" viewBox="0 0 160 160" fill="none" xmlns="http://www.w3.org/2000/svg">
<path d="M115.856 83.9028H44.1472C41.9206 83.8997 39.7836 84.78 38.2052 86.3506C36.6268 87.9212 35.7359 90.0538 35.728 92.2805V117.109C35.7362 119.336 36.6272 121.468 38.2055 123.039C39.7838 124.609 41.9206 125.49 44.1472 125.487H115.86C118.086 125.49 120.223 124.61 121.801 123.04C123.379 121.47 124.27 119.338 124.278 117.112V92.2805C124.271 90.0531 123.38 87.9197 121.801 86.3489C120.222 84.7781 118.083 83.8983 115.856 83.9028ZM48.0374 122.443V119.866H101.097C101.247 119.857 101.387 119.79 101.489 119.678C101.59 119.567 101.643 119.42 101.637 119.27C101.631 119.12 101.567 118.978 101.457 118.875C101.348 118.772 101.202 118.716 101.052 118.719H48.0384V115.85H112.178V118.719H105.968C105.818 118.727 105.677 118.795 105.576 118.906C105.475 119.017 105.422 119.164 105.427 119.314C105.433 119.464 105.498 119.606 105.607 119.71C105.717 119.813 105.862 119.869 106.013 119.866H112.178V122.443H48.0374ZM121.222 117.117C121.216 118.534 120.647 119.891 119.641 120.889C118.635 121.888 117.274 122.446 115.857 122.443H115.23V112.799H44.9888V122.443H44.1472C42.73 122.446 41.3693 121.887 40.3635 120.889C39.3577 119.89 38.789 118.534 38.7819 117.117V92.2805C38.7887 90.8633 39.3574 89.5067 40.3633 88.5084C41.3692 87.5101 42.7301 86.9517 44.1472 86.9557H115.86C117.277 86.9517 118.638 87.5101 119.644 88.5084C120.65 89.5067 121.219 90.8633 121.226 92.2805L121.222 117.117Z" fill="#191717"/>
<path d="M103.682 93.7697H78.3371C78.1869 93.7783 78.0462 93.8455 77.9451 93.9569C77.844 94.0682 77.7906 94.2148 77.7965 94.365C77.8024 94.5153 77.867 94.6573 77.9765 94.7604C78.0859 94.8635 78.2315 94.9195 78.3819 94.9164H103.733C103.884 94.9079 104.025 94.8407 104.126 94.7292C104.227 94.6177 104.281 94.4709 104.275 94.3205C104.269 94.17 104.204 94.0279 104.094 93.9249C103.984 93.8218 103.838 93.7661 103.687 93.7697H103.682ZM113.788 93.7697H108.613C108.463 93.7783 108.322 93.8455 108.221 93.9569C108.12 94.0682 108.067 94.2148 108.073 94.365C108.079 94.5153 108.143 94.6573 108.253 94.7604C108.362 94.8635 108.508 94.9195 108.658 94.9164H113.836C113.986 94.9077 114.127 94.8405 114.228 94.7292C114.329 94.6179 114.382 94.4713 114.376 94.321C114.37 94.1708 114.306 94.0288 114.196 93.9257C114.087 93.8226 113.941 93.7666 113.791 93.7697H113.788Z" fill="#191717"/>
<path d="M79.6864 22.2486C75.3469 22.2433 71.1034 23.5253 67.4927 25.9323C63.8821 28.3393 61.0665 31.7632 59.4022 35.7709C57.7379 39.7785 57.2997 44.1897 58.143 48.4464C58.9864 52.7031 61.0734 56.614 64.14 59.6844C67.2066 62.7547 71.1149 64.8464 75.3706 65.695C79.6263 66.5435 84.0381 66.1107 88.0477 64.4513C92.0573 62.7918 95.4847 59.9804 97.8961 56.3726C100.308 52.7649 101.595 48.5229 101.595 44.1835C101.598 38.3696 99.2918 32.7924 95.1832 28.6788C91.0747 24.5653 85.5003 22.2522 79.6864 22.2486ZM79.6864 63.6256C75.8399 63.6303 72.0784 62.4939 68.8778 60.3602C65.6773 58.2265 63.1816 55.1915 61.7064 51.639C60.2312 48.0866 59.8429 44.1764 60.5906 40.4032C61.3382 36.6301 63.1882 33.1634 65.9066 30.4419C68.6249 27.7205 72.0894 25.8664 75.8618 25.1144C79.6341 24.3624 83.5447 24.7462 87.0988 26.2173C90.653 27.6884 93.6909 30.1806 95.8282 33.3787C97.9656 36.5768 99.1063 40.3369 99.1061 44.1835C99.109 49.3368 97.0646 54.2803 93.4227 57.9263C89.7808 61.5724 84.8398 63.6225 79.6864 63.6256Z" fill="#FF0000"/>
<path d="M88.0832 35.0828L79.6853 43.4913L71.2875 35.0828L70.5963 35.774L78.9941 44.1825L70.5963 52.591L71.2875 53.2822L79.6853 44.8737L88.0832 53.2822L88.7744 52.591L80.3765 44.1825L88.7744 35.774L88.0832 35.0828Z" fill="#FF0000"/>
</svg>
