<svg width="64" height="64" viewBox="0 0 64 64" fill="none" xmlns="http://www.w3.org/2000/svg">
<path d="M50.9388 0H13.0612C5.84773 0 0 5.84773 0 13.0612V50.9388C0 58.1525 5.84773 64 13.0612 64H50.9388C58.1525 64 64 58.1525 64 50.9388V13.0612C64 5.84773 58.1525 0 50.9388 0Z" fill="url(#paint0_linear)"/>
<path d="M12.803 30.1767C12.9875 30.4044 13.2545 30.5499 13.5458 30.5817C13.8372 30.6135 14.1293 30.529 14.3586 30.3465L15.3839 29.5223V46.7357C15.3849 47.268 15.5966 47.7783 15.9728 48.155C16.349 48.5317 16.859 48.7441 17.3914 48.7458H45.9419C46.4746 48.7444 46.9851 48.5322 47.3618 48.1556C47.7384 47.7789 47.9507 47.2684 47.9521 46.7357V29.5576L48.946 30.357C49.1431 30.5128 49.3869 30.5979 49.6382 30.5986C49.8047 30.5988 49.9692 30.5608 50.1188 30.4877C50.2684 30.4146 50.3994 30.3082 50.5016 30.1767C50.6845 29.9471 50.7694 29.6545 50.7376 29.3626C50.7058 29.0708 50.5599 28.8033 50.3318 28.6185L32.8572 14.5685L32.4562 14.3687C32.2059 14.2588 31.9355 14.202 31.6621 14.202C31.3886 14.202 31.1183 14.2588 30.8679 14.3687L30.4474 14.5633L12.9741 28.6146C12.7464 28.7991 12.6008 29.0661 12.5691 29.3574C12.5373 29.6487 12.6218 29.9408 12.8043 30.1701" fill="white"/>
<path d="M38.6717 40.3397C39.2308 40.1153 39.7347 39.7726 40.149 39.3353C40.5559 38.8993 40.8732 38.3876 41.0829 37.8293C41.3144 37.2477 41.4301 36.6266 41.4237 36.0008C41.4354 35.3681 41.3194 34.7395 41.0829 34.1525C40.8726 33.6004 40.5552 33.0953 40.149 32.6662C39.7312 32.2307 39.2284 31.8857 38.6717 31.6527C38.0619 31.4097 37.4108 31.2868 36.7544 31.2908H34.0533V40.7511H36.7544C37.414 40.7384 38.0649 40.5987 38.6717 40.3397ZM36.7544 28.4396C37.7957 28.4336 38.8284 28.6279 39.7963 29.0117C40.714 29.3917 41.5523 29.9407 42.2675 30.63C42.9731 31.3161 43.5359 32.1351 43.9237 33.0397C44.3298 33.9738 44.5319 34.9837 44.5166 36.002C44.5269 37.02 44.325 38.0288 43.9237 38.9643C43.5228 39.862 42.9615 40.6791 42.2675 41.3754C41.5612 42.0682 40.7201 42.6083 39.7963 42.9624C38.8341 43.3677 37.7984 43.5697 36.7544 43.5553H30.9604V28.4396H36.7544Z" fill="#231F20"/>
<path d="M23.4398 34.6972C23.0011 34.6967 22.5762 34.5442 22.2373 34.2655C21.8985 33.9869 21.6667 33.5994 21.5815 33.169C21.4963 32.7387 21.5629 32.2921 21.77 31.9054C21.9771 31.5187 22.3119 31.2157 22.7173 31.0481C23.1227 30.8805 23.5737 30.8586 23.9934 30.9862C24.4132 31.1138 24.7757 31.3829 25.0192 31.7478C25.2628 32.1126 25.3723 32.5507 25.3291 32.9873C25.286 33.4238 25.0929 33.8319 24.7826 34.1421C24.6062 34.3182 24.3968 34.4579 24.1664 34.5532C23.936 34.6484 23.6891 34.6973 23.4398 34.6972ZM23.4398 28.1796C22.526 28.1794 21.6326 28.4501 20.8728 28.9577C20.1128 29.4652 19.5205 30.1867 19.1707 31.0309C18.8209 31.8751 18.7292 32.8041 18.9075 33.7003C19.0857 34.5966 19.5257 35.4198 20.1718 36.066C20.818 36.7122 21.6413 37.1522 22.5376 37.3305C23.4338 37.5086 24.3628 37.417 25.207 37.0672C26.0513 36.7174 26.7728 36.1251 27.2803 35.3652C27.7878 34.6052 28.0586 33.7119 28.0583 32.7981C28.0579 31.5733 27.5712 30.3988 26.7052 29.5327C25.8391 28.6667 24.6646 28.1799 23.4398 28.1796Z" fill="#231F20"/>
<defs>
<linearGradient id="paint0_linear" x1="32" y1="0" x2="32" y2="64" gradientUnits="userSpaceOnUse">
<stop stop-color="#7FB0F8"/>
<stop offset="1" stop-color="#D5D3FF"/>
</linearGradient>
</defs>
</svg>
