<svg width="64" height="64" viewBox="0 0 64 64" fill="none" xmlns="http://www.w3.org/2000/svg">
<path fill-rule="evenodd" clip-rule="evenodd" d="M30.512 49.3705V14.6738L39.0025 14.8107C46.6541 14.9476 47.6608 15.0502 49.473 15.7346C56.487 18.3351 60.8161 24.5285 60.8161 32.0222C60.8161 39.6185 56.4534 45.7777 49.3052 48.3098C47.3252 49.0283 46.3856 49.0968 38.8347 49.2336L30.512 49.3705ZM52.9968 28.2582C51.99 25.4866 49.4059 22.8861 46.9225 22.1333C45.7815 21.7911 43.8351 21.5858 41.5195 21.5858H37.895V42.527L42.1906 42.3901C46.0164 42.2875 46.6205 42.1848 48.1642 41.3636C52.6947 38.9683 54.809 33.2198 52.9968 28.2582Z" fill="black"/>
<path fill-rule="evenodd" clip-rule="evenodd" d="M14 35C19.5228 35 24 30.5228 24 25C24 19.4772 19.5228 15 14 15C8.47715 15 4 19.4772 4 25C4 30.5228 8.47715 35 14 35ZM14 29C11.7909 29 10 27.2091 10 25C10 22.7909 11.7909 21 14 21C16.2091 21 18 22.7909 18 25C18 27.2091 16.2091 29 14 29Z" fill="black"/>
</svg>
