<svg width="128" height="78" viewBox="0 0 128 78" fill="none" xmlns="http://www.w3.org/2000/svg">
<path fill-rule="evenodd" clip-rule="evenodd" d="M59.5996 78V0L78.6868 0.307691C95.8879 0.615382 98.1512 0.846155 102.225 2.38461C117.993 8.23077 127.725 22.1538 127.725 39C127.725 56.0769 117.917 69.9231 101.848 75.6154C97.3967 77.2308 95.2843 77.3846 78.3096 77.6923L59.5996 78ZM110.147 30.5385C107.883 24.3077 102.074 18.4615 96.4914 16.7692C93.9263 16 89.5506 15.5385 84.345 15.5385H76.1972V62.6154L85.8539 62.3077C94.4544 62.0769 95.8124 61.8461 99.2828 60C109.468 54.6154 114.221 41.6923 110.147 30.5385Z" fill="#94A0B1"/>
<path fill-rule="evenodd" clip-rule="evenodd" d="M22.4805 45.6945C34.8962 45.6945 44.9611 35.6296 44.9611 23.2139C44.9611 10.7983 34.8962 0.733398 22.4805 0.733398C10.0649 0.733398 0 10.7983 0 23.2139C0 35.6296 10.0649 45.6945 22.4805 45.6945ZM22.4805 32.206C17.5142 32.206 13.4883 28.18 13.4883 23.2138C13.4883 18.2475 17.5142 14.2215 22.4805 14.2215C27.4467 14.2215 31.4727 18.2475 31.4727 23.2138C31.4727 28.18 27.4467 32.206 22.4805 32.206Z" fill="#94A0B1"/>
</svg>
