<svg width="120" height="57" viewBox="0 0 120 57" fill="none" xmlns="http://www.w3.org/2000/svg">
<path d="M0 4V44C0 46.2091 1.79086 48 4 48H51.117C52.8387 48 54.3672 49.1017 54.9117 50.7351L56.0883 54.2649C56.6328 55.8983 58.1613 57 59.883 57H60.117C61.8387 57 63.3672 55.8983 63.9117 54.2649L65.0883 50.7351C65.6328 49.1017 67.1613 48 68.883 48H116C118.209 48 120 46.2091 120 44V4C120 1.79086 118.209 0 116 0H4C1.79086 0 0 1.79086 0 4Z" fill="#2858FF"/>
<path d="M71.6001 17.5547C70.3101 17.9717 69.4764 18.5331 68.4696 19.5917C67.4471 20.6985 66.8493 21.8854 66.519 23.4252C65.8583 26.601 66.6763 29.6646 68.7056 31.6535C70.4203 33.3376 71.836 33.8348 74.6047 33.7386C76.2564 33.6744 76.5396 33.6263 77.4992 33.1772C78.6948 32.5998 80.1105 31.3166 80.7083 30.2741C81.1016 29.6004 81.6994 27.8681 81.6994 27.419C81.6994 27.2426 81.3533 27.1945 80.0162 27.1945H78.3172L78.0183 27.9483C77.3262 29.6646 76.0677 30.4665 74.0698 30.4665C72.6698 30.4665 72.0877 30.242 71.1911 29.3758C70.4674 28.6861 70.0899 27.9002 69.8697 26.5689C69.4449 24.0668 70.3888 21.8373 72.2608 20.8428C72.9687 20.4579 75.0766 20.4418 75.8946 20.8107C76.7913 21.2117 77.5464 21.9977 77.9397 22.944L78.3172 23.8262H80.0162C80.1133 23.8262 80.2054 23.8264 80.2926 23.8266C81.116 23.8284 81.5009 23.8293 81.6246 23.6464C81.7332 23.486 81.6407 23.1841 81.4672 22.6173C81.4461 22.5484 81.4238 22.4756 81.4005 22.3987C80.9915 21.0674 80.4566 20.2012 79.4656 19.2228C77.9397 17.7632 76.5396 17.25 74.0698 17.266C73.0001 17.266 72.2136 17.3622 71.6001 17.5547Z" fill="white"/>
<path fill-rule="evenodd" clip-rule="evenodd" d="M17.5484 17.7472C15.8337 18.6134 15 20.0409 15 22.1421C15 23.6498 15.3933 24.7084 16.3214 25.6387C17.2023 26.5529 18.0518 26.9218 19.4204 27.002C21.1351 27.0983 22.0632 26.7614 23.1958 25.6066C24.2184 24.564 24.5959 23.6177 24.5959 22.1421C24.5959 20.7947 24.2341 19.8163 23.3689 18.8379C22.3464 17.667 21.4025 17.25 19.7822 17.25C18.681 17.25 18.3822 17.3142 17.5484 17.7472ZM21.1823 20.9391C21.6699 21.5005 21.7486 22.2864 21.371 23.0242C21.0407 23.6818 20.5373 23.9866 19.7822 23.9866C18.508 23.9866 17.5799 22.6714 18.0361 21.5486C18.6339 20.1211 20.1755 19.8163 21.1823 20.9391Z" fill="white"/>
<path fill-rule="evenodd" clip-rule="evenodd" d="M27.4275 33.6424V17.3783L31.4074 17.4425C34.9941 17.5066 35.466 17.5547 36.3155 17.8755C39.6032 19.0945 41.6325 21.9977 41.6325 25.5103C41.6325 29.0711 39.5875 31.9582 36.2368 33.1451C35.3087 33.482 34.8682 33.514 31.3288 33.5782L27.4275 33.6424ZM37.9672 23.746C37.4953 22.4468 36.284 21.2278 35.1199 20.8749C34.5851 20.7145 33.6727 20.6183 32.5872 20.6183H30.8883V30.4345L32.9018 30.3703C34.6952 30.3222 34.9783 30.2741 35.702 29.8891C37.8256 28.7664 38.8167 26.0717 37.9672 23.746Z" fill="white"/>
<path fill-rule="evenodd" clip-rule="evenodd" d="M47.4216 17.7633C46.7451 19.688 42.2146 33.2895 42.2146 33.4339C42.2146 33.5622 42.6865 33.6103 43.9765 33.5782L45.7226 33.5301L46.2732 31.878L46.8081 30.242H53.3207L54.3904 33.6103H56.168C57.1433 33.6103 57.9456 33.5782 57.9456 33.5462C57.9456 33.466 52.8488 18.1322 52.6757 17.6831C52.5813 17.4425 52.2982 17.4104 50.0644 17.4104C47.6103 17.4104 47.5474 17.4104 47.4216 17.7633ZM51.3071 23.9385L52.4083 27.3549H50.0486C48.2239 27.3549 47.7047 27.3068 47.7677 27.1464L48.916 23.6337C49.5138 21.8052 50.0329 20.3617 50.0958 20.4258C50.1588 20.49 50.6936 22.0779 51.3071 23.9385Z" fill="white"/>
<path d="M60.3052 33.6103V17.4104H63.6087V33.6103H60.3052Z" fill="white"/>
<path d="M84.2163 33.6103H87.6771V26.8737H94.4414V33.6103H97.9023V17.4104H94.4414V23.9866H87.6771V17.4104H84.2163V33.6103Z" fill="white"/>
<path d="M101.206 33.6103V17.4104H104.509V33.6103H101.206Z" fill="white"/>
</svg>
