<svg width="128" height="32" viewBox="0 0 128 32" fill="none" xmlns="http://www.w3.org/2000/svg">
<g clip-path="url(#clip0)">
<path d="M37.7405 0.0091565C39.8856 -0.0272149 42.0165 0.364284 44.0102 1.16102C46.0038 1.95775 47.8206 3.14391 49.3554 4.65091C50.8371 6.10507 52.0229 7.8355 52.8464 9.74551C53.6946 11.7209 54.122 13.853 54.1012 16.0046C54.1239 18.1563 53.6964 20.2888 52.8464 22.2637C52.0236 24.1811 50.8329 25.9166 49.3422 27.3708C47.8516 28.825 46.0904 29.9694 44.1593 30.7385C42.1232 31.5986 39.9328 32.028 37.7244 32H25.5625V0.0091565H37.7405ZM41.8266 25.191C42.9944 24.7137 44.0474 23.9913 44.9154 23.0723C45.7739 22.1307 46.4455 21.0328 46.8941 19.8377C47.377 18.6019 47.6174 17.2837 47.6019 15.9561C47.6175 14.6179 47.3772 13.2892 46.8941 12.0421C46.4399 10.874 45.7684 9.80358 44.9154 8.88832C44.0366 7.98217 42.9864 7.26181 41.8266 6.76961C40.5307 6.23082 39.1429 5.95066 37.7405 5.94477H32.0617V25.9997H37.7405C39.1448 26.0323 40.5394 25.7563 41.8266 25.191Z" fill="#231F20"/>
<path d="M9.65231 0C7.74327 0 5.87709 0.56913 4.28978 1.63542C2.70246 2.70171 1.4653 4.21727 0.734743 5.99044C0.00418221 7.76362 -0.186966 9.71477 0.185471 11.5972C0.557907 13.4796 1.4772 15.2086 2.8271 16.5658C4.177 17.9229 5.89688 18.8471 7.76924 19.2215C9.64161 19.596 11.5824 19.4038 13.3461 18.6693C15.1098 17.9349 16.6173 16.6911 17.6779 15.0953C18.7385 13.4994 19.3046 11.6233 19.3046 9.704C19.3046 7.13034 18.2877 4.66209 16.4775 2.84224C14.6674 1.02238 12.2123 0 9.65231 0V0ZM9.65231 13.7797C8.86887 13.7669 8.10652 13.5224 7.46038 13.0768C6.81424 12.6312 6.31292 12.0042 6.01897 11.274C5.72501 10.5438 5.65144 9.74271 5.80742 8.97074C5.96341 8.19876 6.34205 7.49005 6.8961 6.93303C7.45015 6.37601 8.15509 5.99534 8.92295 5.83852C9.69082 5.6817 10.4876 5.75567 11.2139 6.0512C11.9402 6.34673 12.5639 6.85074 13.0072 7.50033C13.4504 8.14993 13.6935 8.91636 13.7063 9.704C13.715 10.2416 13.6161 10.7756 13.4154 11.274C13.2148 11.7724 12.9165 12.2252 12.5383 12.6054C12.1601 12.9856 11.7097 13.2855 11.2139 13.4873C10.7182 13.689 10.1871 13.7884 9.65231 13.7797Z" fill="#231F20"/>
<path d="M66.4557 3.16296V10.9909H65.2009V2.01465H67.3084L69.5927 9.50291L71.8771 2.01465H73.9846V10.9909H72.7137V3.16296L70.2523 10.9909H68.9171L66.4557 3.16296Z" fill="#231F20"/>
<path d="M75.7868 6.4944C75.7236 5.90314 75.7849 5.30513 75.9667 4.73925C76.1485 4.17337 76.4467 3.6523 76.842 3.20991C77.2373 2.76753 77.7207 2.41374 78.261 2.17155C78.8012 1.92936 79.386 1.8042 79.9775 1.8042C80.569 1.8042 81.1539 1.92936 81.6941 2.17155C82.2343 2.41374 82.7178 2.76753 83.1131 3.20991C83.5083 3.6523 83.8066 4.17337 83.9884 4.73925C84.1702 5.30513 84.2314 5.90314 84.1682 6.4944C84.2314 7.08566 84.1702 7.68367 83.9884 8.24954C83.8066 8.81542 83.5083 9.3365 83.1131 9.77888C82.7178 10.2213 82.2343 10.5751 81.6941 10.8172C81.1539 11.0594 80.569 11.1846 79.9775 11.1846C79.386 11.1846 78.8012 11.0594 78.261 10.8172C77.7207 10.5751 77.2373 10.2213 76.842 9.77888C76.4467 9.3365 76.1485 8.81542 75.9667 8.24954C75.7849 7.68367 75.7236 7.08566 75.7868 6.4944ZM82.8974 6.4944C82.8974 4.18161 81.6104 2.92009 79.9856 2.92009C78.3608 2.92009 77.0738 4.18161 77.0738 6.4944C77.0738 8.80719 78.3608 10.1011 79.9856 10.1011C81.6104 10.1011 82.8974 8.82336 82.8974 6.4944Z" fill="#231F20"/>
<path d="M87.2409 10.9904H85.9861V2.01422H87.2409V9.17901L92.067 2.04657H93.3057V10.9904H92.0509V3.85798L87.2409 10.9904ZM89.67 1.51285C88.2544 1.51285 87.5626 0.865916 87.4339 0.0249023H88.3831C88.3831 0.493929 88.9139 0.752703 89.6861 0.752703C90.4583 0.752703 90.9087 0.477756 91.0053 0.0249023H91.9544C91.8579 0.865916 91.134 1.51285 89.67 1.51285Z" fill="#231F20"/>
<path d="M66.4557 19.9186V24.0104H65.2009V15.0181H66.4557V18.835H67.3566L70.365 15.0181H71.8772L68.4345 19.2717L72.0059 24.0104H70.5097L67.3888 19.9186H66.4557Z" fill="#231F20"/>
<path d="M72.3922 19.5144C72.329 18.9232 72.3903 18.3252 72.5721 17.7593C72.7538 17.1934 73.0521 16.6723 73.4474 16.2299C73.8426 15.7875 74.3261 15.4338 74.8663 15.1916C75.4065 14.9494 75.9914 14.8242 76.5829 14.8242C77.1744 14.8242 77.7592 14.9494 78.2994 15.1916C78.8397 15.4338 79.3231 15.7875 79.7184 16.2299C80.1137 16.6723 80.4119 17.1934 80.5937 17.7593C80.7755 18.3252 80.8368 18.9232 80.7736 19.5144C80.8368 20.1057 80.7755 20.7037 80.5937 21.2696C80.4119 21.8354 80.1137 22.3565 79.7184 22.7989C79.3231 23.2413 78.8397 23.5951 78.2994 23.8373C77.7592 24.0795 77.1744 24.2046 76.5829 24.2046C75.9914 24.2046 75.4065 24.0795 74.8663 23.8373C74.3261 23.5951 73.8426 23.2413 73.4474 22.7989C73.0521 22.3565 72.7538 21.8354 72.5721 21.2696C72.3903 20.7037 72.329 20.1057 72.3922 19.5144ZM79.4866 19.5144C79.4866 17.1855 78.2157 15.9239 76.5909 15.9239C74.9661 15.9239 73.6791 17.1855 73.6791 19.5144C73.6791 21.8434 74.95 23.1049 76.5909 23.1049C78.2318 23.1049 79.4866 21.8272 79.4866 19.5144Z" fill="#231F20"/>
<path d="M83.7821 16.1825V24.0104H82.5273V15.0181H84.6348L86.9191 22.5063L89.1874 15.0181H91.2949V24.0104H90.0401V16.1825L87.5787 24.0104H86.2435L83.7821 16.1825Z" fill="#231F20"/>
<path d="M102.186 19.5141C102.189 20.0293 102.087 20.5397 101.885 21.0134C101.684 21.4871 101.387 21.914 101.015 22.2676C100.642 22.6211 100.201 22.8937 99.7184 23.0683C99.2362 23.2429 98.7235 23.3158 98.2121 23.2825V24.3338H96.9412V23.2825C95.9343 23.2825 94.9686 22.8804 94.2566 22.1645C93.5446 21.4487 93.1447 20.4779 93.1447 19.4656C93.1447 18.4533 93.5446 17.4824 94.2566 16.7666C94.9686 16.0508 95.9343 15.6487 96.9412 15.6487V14.5327H98.2121V15.6487C98.7306 15.6195 99.2495 15.6986 99.7362 15.8808C100.223 16.063 100.667 16.3445 101.04 16.7076C101.413 17.0706 101.708 17.5074 101.905 17.9904C102.102 18.4734 102.198 18.9921 102.186 19.5141ZM94.2386 19.5141C94.2276 19.8754 94.2898 20.2352 94.4213 20.5716C94.5528 20.9081 94.751 21.2141 95.0037 21.4712C95.2565 21.7283 95.5585 21.9311 95.8916 22.0673C96.2246 22.2036 96.5817 22.2703 96.9412 22.2636V16.6999C96.5783 16.6906 96.2173 16.7567 95.8809 16.894C95.5446 17.0314 95.24 17.237 94.9863 17.4981C94.7326 17.7593 94.5353 18.0702 94.4066 18.4115C94.278 18.7528 94.2208 19.1172 94.2386 19.4818V19.5141ZM100.899 19.4818C100.914 19.1192 100.856 18.7572 100.727 18.4181C100.599 18.079 100.403 17.7697 100.151 17.5094C99.8996 17.249 99.598 17.0429 99.2646 16.9037C98.9312 16.7646 98.5731 16.6952 98.2121 16.6999V22.2312C98.5709 22.2381 98.9273 22.1713 99.2595 22.0349C99.5917 21.8985 99.8928 21.6954 100.144 21.4381C100.396 21.1807 100.592 20.8745 100.722 20.5381C100.852 20.2017 100.912 19.8423 100.899 19.4818Z" fill="#231F20"/>
<path d="M103.344 19.5144C103.28 18.9232 103.342 18.3252 103.523 17.7593C103.705 17.1934 104.003 16.6723 104.399 16.2299C104.794 15.7875 105.278 15.4338 105.818 15.1916C106.358 14.9494 106.943 14.8242 107.534 14.8242C108.126 14.8242 108.711 14.9494 109.251 15.1916C109.791 15.4338 110.275 15.7875 110.67 16.2299C111.065 16.6723 111.363 17.1934 111.545 17.7593C111.727 18.3252 111.788 18.9232 111.725 19.5144C111.788 20.1057 111.727 20.7037 111.545 21.2696C111.363 21.8354 111.065 22.3565 110.67 22.7989C110.275 23.2413 109.791 23.5951 109.251 23.8373C108.711 24.0795 108.126 24.2046 107.534 24.2046C106.943 24.2046 106.358 24.0795 105.818 23.8373C105.278 23.5951 104.794 23.2413 104.399 22.7989C104.003 22.3565 103.705 21.8354 103.523 21.2696C103.342 20.7037 103.28 20.1057 103.344 19.5144ZM110.454 19.5144C110.454 17.1855 109.167 15.9239 107.542 15.9239C105.918 15.9239 104.566 17.2663 104.566 19.5144C104.566 21.7625 105.853 23.1049 107.478 23.1049C109.103 23.1049 110.39 21.8272 110.39 19.5144" fill="#231F20"/>
<path d="M120.059 17.7352C120.059 19.9671 118.531 20.4523 116.343 20.4523H114.734V24.0104H113.479V15.0181H116.279C118.466 15.0181 119.995 15.5194 119.995 17.7352H120.059ZM114.734 19.3525H116.343C117.646 19.3525 118.676 19.207 118.676 17.7352C118.676 16.2634 117.646 16.1179 116.343 16.1179H114.734V19.3525Z" fill="#231F20"/>
<path d="M120.236 16.1179V15.0181H127.314V16.1179H124.402V24.0104H123.148V16.1179H120.236Z" fill="#231F20"/>
<path d="M128 28H65.3149V32H128V28Z" fill="url(#paint0_linear)"/>
</g>
<defs>
<linearGradient id="paint0_linear" x1="65.5025" y1="30.1665" x2="128.001" y2="30.1665" gradientUnits="userSpaceOnUse">
<stop stop-color="#A0B1FF"/>
<stop offset="1" stop-color="#FFDCD6"/>
</linearGradient>
<clipPath id="clip0">
<rect width="128" height="32" fill="white"/>
</clipPath>
</defs>
</svg>
