<svg width="32" height="32" viewBox="0 0 32 32" fill="none" xmlns="http://www.w3.org/2000/svg">
<path fill-rule="evenodd" clip-rule="evenodd" d="M6.08805 5.30848C5.66606 7.20742 4.52546 8.39159 3.4769 9.10002H5.59995C8.4769 9.10002 10.6316 9.81974 12.0601 11.3032C13.4852 12.7831 14.1 14.9326 14.1 17.6V18.3H17.9V17.6C17.9 14.9326 18.5147 12.7831 19.9398 11.3032C21.3683 9.81974 23.523 9.10002 26.4 9.10002H28.523C27.4744 8.39159 26.3338 7.20742 25.9119 5.30848L26.888 5.09155C27.252 6.72936 28.2487 7.73034 29.1724 8.3308C29.6355 8.63177 30.0763 8.82904 30.4005 8.9506C30.5622 9.01122 30.6936 9.05256 30.7825 9.07828C30.827 9.09113 30.8608 9.10005 30.8823 9.10551L30.9051 9.11115L30.9088 9.11201L30.9084 9.11339V10.0866L30.9088 10.088L30.9051 10.0889L30.8823 10.0945C30.8608 10.1 30.827 10.1089 30.7825 10.1218C30.6936 10.1475 30.5622 10.1888 30.4005 10.2494C30.0763 10.371 29.6355 10.5683 29.1724 10.8692C28.2487 11.4697 27.252 12.4707 26.888 14.1085L25.9119 13.8916C26.3338 11.9926 27.4744 10.8084 28.523 10.1H26.4C23.6769 10.1 21.8316 10.7803 20.6601 11.9968C19.4852 13.217 18.9 15.0674 18.9 17.6V18.3H30.8V19.3H18.9V21.5H30.8V22.5H18.9V27.2H17.9V22.5H14.1V27.2H13.1V22.5H1.19995V21.5H13.1V19.3H1.19995V18.3H13.1V17.6C13.1 15.0674 12.5147 13.217 11.3398 11.9968C10.1683 10.7803 8.32301 10.1 5.59995 10.1H3.4769C4.52546 10.8084 5.66606 11.9926 6.08805 13.8916L5.11186 14.1085C4.7479 12.4707 3.75123 11.4697 2.82746 10.8692C2.36442 10.5683 1.92355 10.371 1.59939 10.2494C1.43774 10.1888 1.30634 10.1475 1.21736 10.1218C1.1729 10.1089 1.13915 10.1 1.11763 10.0945L1.09477 10.0889L1.0911 10.088L1.09149 10.0866V9.11339L1.0911 9.11201L1.09477 9.11115L1.11763 9.10551C1.13915 9.10005 1.1729 9.09113 1.21736 9.07828C1.30634 9.05256 1.43774 9.01122 1.59939 8.9506C1.92355 8.82904 2.36442 8.63177 2.82746 8.3308C3.75123 7.73034 4.7479 6.72936 5.11186 5.09155L6.08805 5.30848ZM17.9 21.5V19.3H14.1V21.5H17.9ZM1.09061 9.11212C1.09033 9.11218 1.09026 9.1122 1.09041 9.11217L1.09061 9.11212ZM1.09041 10.0879C1.0903 10.0878 1.09031 10.0878 1.09042 10.0879L1.09041 10.0879Z" fill="#151515"/>
</svg>
