<svg width="32" height="32" viewBox="0 0 32 32" fill="none" xmlns="http://www.w3.org/2000/svg">
<path fill-rule="evenodd" clip-rule="evenodd" d="M2.04843 16C2.04843 9.3568 7.42135 3.98389 14.0646 3.98389C20.1007 3.98389 23.8836 8.41208 25.8395 14.3466C25.6346 14.1633 25.4089 13.9747 25.1633 13.7877C23.8305 12.7728 21.8745 11.7776 19.4725 11.9857L19.5588 12.982C21.6245 12.803 23.3379 13.6546 24.5575 14.5833C25.1653 15.0461 25.6411 15.5213 25.9643 15.8804C26.1257 16.0596 26.2482 16.209 26.3293 16.3121C26.3699 16.3636 26.4001 16.4035 26.4195 16.4297L26.4406 16.4585L26.4451 16.4647L26.4454 16.4651L26.4456 16.4654L26.4463 16.4649L27.3532 16.1683L27.3542 16.1684L27.3542 16.1629L27.3543 16.1343C27.3546 16.1076 27.3555 16.0658 27.3579 16.0103C27.3627 15.8993 27.3736 15.7338 27.3983 15.5244C27.4476 15.1052 27.5516 14.513 27.77 13.8321C28.2062 12.4717 29.0961 10.7644 30.9172 9.36412L30.3076 8.57138C28.29 10.1227 27.3008 12.0203 26.8177 13.5268C26.7838 13.6326 26.7523 13.7366 26.7232 13.8384C24.6788 7.80399 20.6652 2.98389 14.0646 2.98389C6.86906 2.98389 1.04843 8.80452 1.04843 16C1.04843 23.1955 6.86906 29.0161 14.0646 29.0161V28.0161C7.42135 28.0161 2.04843 22.6432 2.04843 16Z" fill="#151515"/>
<path d="M23.307 24.5323L22.4199 21.7903C22.2263 21.1774 22.0973 20.6129 21.9521 20.0645H21.936C21.807 20.6129 21.6779 21.2097 21.4844 21.7903L20.6134 24.5323H23.307ZM20.3715 25.5L19.4521 28.4839H18.2586L21.2909 18.9839H22.6618L25.6941 28.4839H24.4683L23.5167 25.5H20.3715Z" fill="#151515"/>
</svg>
