<svg width="32" height="32" viewBox="0 0 32 32" fill="none" xmlns="http://www.w3.org/2000/svg">
<path fill-rule="evenodd" clip-rule="evenodd" d="M16.0001 1.09998H15.5001V1.59998V12.1952C14.1746 9.85586 11.6633 8.27412 8.77433 8.27412C4.50966 8.27412 1.1001 11.7446 1.1001 15.9999V16.4999H1.6001H12.1955C9.85608 17.8255 8.27433 20.3367 8.27433 23.2257C8.27433 27.5073 11.7455 30.9 16.0001 30.9H16.5001V30.4V19.8046C17.3851 21.3664 18.7986 22.5906 20.5001 23.2318V22.1511C18.2854 21.1688 16.7041 19.0261 16.5184 16.4999H29.8822C29.6871 19.2232 27.9089 21.4844 25.4517 22.3487V23.4009C28.6256 22.4464 30.9001 19.497 30.9001 15.9999V15.4999H30.4001H19.8048C22.1442 14.1743 23.7259 11.6631 23.7259 8.77412C23.7259 4.49331 20.2716 1.09998 16.0001 1.09998ZM8.77433 9.27412C12.3286 9.27412 15.2263 12.024 15.4818 15.4999H2.11818C2.37079 12.0207 5.23901 9.27412 8.77433 9.27412ZM15.5001 29.882V16.5182C12.0242 16.7737 9.27433 19.6714 9.27433 23.2257C9.27433 26.7758 12.0203 29.6307 15.5001 29.882ZM16.5001 2.11782V15.4816C19.976 15.2261 22.7259 12.3284 22.7259 8.77412C22.7259 5.22274 19.9931 2.36817 16.5001 2.11782Z" fill="#151515"/>
<path d="M21.7418 27.9032L20.9353 30.4839H19.9031L22.5321 22.2581H23.7257L26.3547 30.4839H25.2902L24.4676 27.9032H21.7418ZM24.274 27.0806L23.516 24.7097C23.3386 24.1774 23.2257 23.6774 23.1128 23.2097H23.0966C22.9837 23.6774 22.8708 24.1935 22.7095 24.6935L21.9515 27.0806H24.274Z" fill="#151515"/>
</svg>
