<svg width="32" height="32" viewBox="0 0 32 32" fill="none" xmlns="http://www.w3.org/2000/svg">
<path fill-rule="evenodd" clip-rule="evenodd" d="M16 1.09998C14.558 1.09998 13.1738 1.38641 11.9158 1.90976L11.9158 1.90975L11.9128 1.91103C10.6392 2.45067 9.46945 3.24228 8.48652 4.21841C7.50326 5.19486 6.7049 6.35802 6.16075 7.65808C5.62166 8.93638 5.5 10.2061 5.5 11.6V14.3424C4.81972 14.4621 4.39231 14.8093 4.14936 15.0506C3.75671 15.4405 3.5 15.9827 3.5 16.5785V28.7446C3.5 29.3306 3.74949 29.894 4.15414 30.2773C4.55525 30.6732 5.10081 30.9 5.68307 30.9H26.3331C26.94 30.9 27.4859 30.6509 27.8668 30.2726C28.2685 29.8737 28.5 29.3283 28.5 28.7446V16.5785C28.5 15.9913 28.2497 15.4308 27.8668 15.0506C27.6208 14.8062 27.1821 14.461 26.5 14.3421V11.6C26.5 10.2116 26.3958 8.9394 25.8555 7.6582C25.3113 6.35809 24.513 5.19489 23.5297 4.21841C22.5464 3.24195 21.3755 2.44949 20.0673 1.90949C18.8103 1.38663 17.4426 1.09998 16 1.09998ZM25.5 11.6V14.3H6.5V11.6C6.5 10.262 6.61836 9.14615 7.0824 8.0461L7.08295 8.04478C7.57453 6.87011 8.29731 5.81564 9.19116 4.92797C10.0851 4.0402 11.1481 3.32133 12.3015 2.83242C13.4382 2.35973 14.6914 2.09998 16 2.09998C17.3084 2.09998 18.5459 2.35965 19.6839 2.83305L19.6852 2.83359C20.869 3.32215 21.9312 4.0403 22.825 4.92797C23.7189 5.81564 24.4417 6.87011 24.9332 8.04478L24.9338 8.0461C25.3966 9.1432 25.5 10.2564 25.5 11.6ZM4.85401 15.7601C5.04174 15.5737 5.37797 15.3 6 15.3H6.4H26C26.626 15.3 26.9783 15.5775 27.1622 15.7601C27.3619 15.9584 27.5 16.2658 27.5 16.5785V28.7446C27.5 29.0609 27.3755 29.3512 27.1622 29.5631C26.9605 29.7633 26.6649 29.9 26.3331 29.9H5.68307C5.36139 29.9 5.06743 29.775 4.85401 29.5631L4.85414 29.5629L4.8443 29.5537C4.63689 29.3585 4.5 29.0562 4.5 28.7446V16.5785C4.5 16.2744 4.63169 15.9809 4.85401 15.7601ZM16 17.1C15.102 17.1 14.272 17.4562 13.6742 18.0487C13.0815 18.6362 12.7 19.4591 12.7 20.3602C12.7 20.8912 12.8245 21.4099 13.0614 21.8629C13.2377 22.2111 13.5405 22.6204 13.9 23.0025V25.6L13.9 25.6127C13.8999 26.0069 13.8998 26.5781 14.4374 27.1443C14.5616 27.275 14.7109 27.4253 14.9049 27.5334C15.1143 27.6501 15.3403 27.7 15.6 27.7H16.3978C16.6575 27.7 16.8836 27.6501 17.0932 27.5339C17.2878 27.4259 17.4376 27.2758 17.5626 27.1443C18.1002 26.5781 18.1001 26.0069 18.1 25.6127L18.1 25.6V22.9988C18.4519 22.6155 18.7472 22.2111 18.932 21.8752L18.9321 21.8752L18.9368 21.8664C19.1742 21.4138 19.3 20.9092 19.3 20.3602C19.3 19.466 18.9389 18.6413 18.3411 18.0487L18.3357 18.0433L18.3301 18.0382C17.7289 17.4773 16.9219 17.1 16 17.1ZM14.3782 18.7589C14.7903 18.3504 15.3679 18.1 16 18.1C16.636 18.1 17.2039 18.3574 17.6424 18.7642C18.0512 19.1721 18.3 19.7404 18.3 20.3602C18.3 20.7496 18.2124 21.0928 18.0535 21.3974C17.8949 21.6842 17.6039 22.0789 17.2416 22.4514L17.1 22.5969V22.8V25.6C17.1 25.9637 17.094 26.1854 16.8374 26.4557C16.7175 26.5819 16.6576 26.6319 16.6079 26.6595C16.5732 26.6787 16.5207 26.7 16.3978 26.7H15.6C15.4772 26.7 15.4256 26.6788 15.3918 26.6599C15.3426 26.6325 15.2832 26.5828 15.1626 26.4557C14.906 26.1854 14.9 25.9637 14.9 25.6V22.8V22.5929L14.7536 22.4464C14.3779 22.0708 14.0896 21.6809 13.9524 21.4089L13.9525 21.4089L13.9488 21.4018C13.7891 21.0973 13.7 20.7377 13.7 20.3602C13.7 19.7446 13.9611 19.1723 14.3782 18.7589Z" fill="#151515"/>
</svg>
