<svg width="32" height="32" viewBox="0 0 32 32" fill="none" xmlns="http://www.w3.org/2000/svg">
<path fill-rule="evenodd" clip-rule="evenodd" d="M19.9619 3.93213L20.0889 4.52479L21.2889 10.1248L21.3937 10.6137L20.4159 10.8232L20.3111 10.3343L19.4056 6.10878L13.8382 16.6013L17.2299 23.9065L26.9333 5.61927L22.7738 7.36426L22.3128 7.55768L21.9259 6.63554L22.387 6.44212L27.8066 4.16848L28.3626 3.93523L28.4889 4.52479L29.6889 10.1248L29.7937 10.6137L28.8159 10.8232L28.7111 10.3343L27.8056 6.10878L18.0313 24.5296H30.8H31.3V25.5296H30.8H17.2006C17.2002 25.5296 17.1999 25.5296 17.1996 25.5296H8.80057C8.80024 25.5296 8.79991 25.5296 8.79958 25.5296H1.20001H0.700012V24.5296H1.20001H8.01661L3.14651 14.0401L2.93595 13.5866L3.84296 13.1655L4.05352 13.619L8.82987 23.9065L12.7219 16.5716L11.5465 14.0401L11.336 13.5866L12.243 13.1655L12.4535 13.619L13.3099 15.4635L18.5281 5.62918L14.4536 7.36325L13.9936 7.55906L13.602 6.63892L14.062 6.44312L19.4042 4.16949L19.9619 3.93213ZM9.63135 24.5296H16.4166L13.2502 17.7095L9.63135 24.5296Z" fill="#151515"/>
</svg>
