<svg width="32" height="32" viewBox="0 0 32 32" fill="none" xmlns="http://www.w3.org/2000/svg">
<path fill-rule="evenodd" clip-rule="evenodd" d="M16.1773 4.53224V1.14514H15.1773V4.53224H16.1773ZM8.40548 3.21758L10.099 6.15307L10.9652 5.65335L9.27166 2.71786L8.40548 3.21758ZM23.2764 3.04044L21.5829 5.97593L22.4491 6.47565L24.1426 3.54016L23.2764 3.04044ZM15.9999 6.08063C13.2674 6.08063 10.7697 7.18392 8.98425 8.9859C7.18474 10.7858 6.0805 13.2661 6.0805 16C6.0805 18.7324 7.18377 21.2301 8.98573 23.0155C10.7856 24.8151 13.266 25.9193 15.9999 25.9193V24.9193C13.5405 24.9193 11.3115 23.9271 9.69212 22.3077L9.69044 22.306C8.07361 20.7045 7.0805 18.4606 7.0805 16C7.0805 13.5407 8.07272 11.3116 9.69212 9.69224L9.69379 9.69056C11.2954 8.07374 13.5392 7.08063 15.9999 7.08063C18.4601 7.08063 20.705 8.07351 22.3237 9.69224C23.9274 11.296 24.9353 13.5413 24.9353 16H25.9353C25.9353 13.2651 24.8142 10.7685 23.0308 8.98514C21.2302 7.18452 18.7332 6.08063 15.9999 6.08063ZM6.15295 10.1153L3.21746 8.42173L2.71774 9.28791L5.65322 10.9815L6.15295 10.1153ZM28.7823 8.42173L25.8468 10.1153L26.3465 10.9815L29.282 9.28791L28.7823 8.42173ZM4.53212 15.8226H1.14502V16.8226H4.53212V15.8226ZM30.8547 15.8226H27.4676V16.8226H30.8547V15.8226ZM5.9758 21.583L3.04032 23.2766L3.54004 24.1427L6.47553 22.4492L5.9758 21.583ZM10.099 25.8469L8.40548 28.7824L9.27166 29.2821L10.9652 26.3466L10.099 25.8469ZM16.1773 30.8548V27.4677H15.1773V30.8548H16.1773ZM21.5965 18.3H21.0965V18.8V24.7H19.5999V25.7H21.0965V27.5H19.6001V28.5H21.0965V30.8H22.0965V28.5H25.2001V27.5H22.0965V25.7H26.3999C27.3939 25.7 28.1391 25.1926 28.6159 24.4774C29.0829 23.777 29.2999 22.8742 29.2999 22C29.2999 21.1259 29.0829 20.2231 28.6159 19.5227C28.1391 18.8075 27.3939 18.3 26.3999 18.3H21.5965ZM26.3999 24.7H22.0965V19.3H26.3999C27.006 19.3 27.4607 19.5926 27.7839 20.0774C28.1169 20.577 28.2999 21.2742 28.2999 22C28.2999 22.7259 28.1169 23.4231 27.7839 23.9227C27.4607 24.4074 27.006 24.7 26.3999 24.7Z" fill="#151515"/>
</svg>
