<svg width="32" height="32" viewBox="0 0 32 32" fill="none" xmlns="http://www.w3.org/2000/svg">
<path fill-rule="evenodd" clip-rule="evenodd" d="M16.0001 0.468994L16.3648 0.858081L22.3648 7.25808L22.7068 7.62285L21.9773 8.30679L21.6353 7.94202L16.5001 2.46444V30.8V31.3H15.5001V30.8V2.46444L10.3648 7.94202L10.0229 8.30679L9.29334 7.62285L9.63531 7.25808L15.6353 0.858081L16.0001 0.468994ZM6.00008 10.0929L6.35363 10.4465L10.3536 14.4465L10.7072 14.8001L10.0001 15.5072L9.64652 15.1536L6.50009 12.0072L6.5001 12.8178L6.50014 17.8475L6.50021 30.8V31.3H5.50021V30.8L5.50014 17.8475L5.5001 12.8178L5.50009 12.0071L2.35363 15.1536L2.00008 15.5072L1.29297 14.8001L1.64652 14.4465L5.64652 10.4465L6.00008 10.0929ZM26.0001 10.0929L26.3536 10.4465L30.3536 14.4465L30.7072 14.8001L30.0001 15.5072L29.6465 15.1536L26.5001 12.0072L26.5001 12.8178L26.5001 17.8475L26.5002 30.8V31.3H25.5002V30.8L25.5001 17.8475L25.5001 12.8178L25.5001 12.0071L22.3536 15.1536L22.0001 15.5072L21.293 14.8001L21.6465 14.4465L25.6465 10.4465L26.0001 10.0929Z" fill="#151515"/>
</svg>
