<svg width="40" height="41" viewBox="0 0 40 41" fill="none" xmlns="http://www.w3.org/2000/svg">
<path fill-rule="evenodd" clip-rule="evenodd" d="M12.7849 5.24581C12.6753 5.50224 12.5502 5.77131 12.4076 6.04763C11.5642 7.68293 10.0943 9.60527 7.60989 10.6333L7.22754 9.7093C9.42051 8.80186 10.7412 7.09714 11.5189 5.58924C11.907 4.83685 12.1554 4.14159 12.3064 3.6355C12.3818 3.38283 12.4326 3.17838 12.4642 3.0389C12.48 2.96918 12.491 2.91579 12.4979 2.88082C12.5013 2.86334 12.5037 2.85048 12.5052 2.84249L12.5067 2.8342L12.5068 2.83343L12.5069 2.83311C12.5069 2.83313 12.5069 2.83315 12.5077 2.8333L13.4474 2.69684C13.4484 2.69634 13.4483 2.69631 13.4483 2.69629L13.4508 2.70124C13.4535 2.70652 13.4582 2.71547 13.4648 2.72789C13.478 2.75274 13.4991 2.79144 13.5285 2.84228C13.5872 2.94401 13.6787 3.09415 13.8059 3.2792C14.0604 3.64958 14.4562 4.15801 15.0148 4.69776C16.1302 5.77536 17.8952 6.97895 20.494 7.46199L20.3112 8.44515C17.4866 7.92012 15.5502 6.60552 14.32 5.41694C14.1001 5.20448 13.9028 4.99608 13.7269 4.79696C14.0087 6.6652 14.4469 8.28278 15.1051 9.76184C15.9778 11.7231 17.2482 13.4656 19.0951 15.2335L19.0957 15.2341C23.0677 19.0496 28.5847 20.4172 32.9998 20.4172V21.4172C28.5852 21.4172 23.0882 22.7847 19.1159 26.6004L19.1153 26.601C17.2577 28.3796 15.9823 30.1223 15.1073 32.0809C14.4476 33.5575 14.009 35.1712 13.7271 37.0373C13.9029 36.8382 14.1002 36.6299 14.32 36.4175C15.5502 35.229 17.4866 33.9144 20.3112 33.3894L20.494 34.3726C17.8952 34.8556 16.1302 36.0592 15.0148 37.1367C14.4562 37.6764 14.0604 38.1848 13.8059 38.5552C13.6787 38.7402 13.5872 38.8904 13.5284 38.9921C13.4991 39.0429 13.478 39.0816 13.4648 39.1065C13.4582 39.1189 13.4535 39.1279 13.4508 39.1331L13.4485 39.1377L13.4483 39.1381C13.4483 39.1381 13.4483 39.138 13.4474 39.1375L12.5077 39.0011C12.5069 39.0012 12.5069 39.0012 12.5069 39.0013L12.5068 39.0009L12.5067 39.0002L12.5052 38.9919C12.5037 38.9839 12.5013 38.971 12.4979 38.9535C12.491 38.9186 12.48 38.8652 12.4642 38.7955C12.4326 38.656 12.3818 38.4516 12.3064 38.1989C12.1554 37.6928 11.907 36.9976 11.5189 36.2452C10.7412 34.7374 9.42051 33.0327 7.22754 32.1253L7.60989 31.2012C10.0943 32.2293 11.5642 34.1516 12.4076 35.7868C12.5502 36.0633 12.6754 36.3325 12.7851 36.589C13.0787 34.7777 13.5264 33.1678 14.1943 31.6729C15.1315 29.5752 16.4909 27.7293 18.4234 25.879C21.2534 23.1607 24.7893 21.6299 28.1956 20.9177C24.782 20.2062 21.2349 18.6754 18.4034 15.9557C16.4802 14.1148 15.126 12.2686 14.1914 10.1684C13.5255 8.67175 13.0784 7.05877 12.7849 5.24581Z" fill="#151515"/>
</svg>
