<svg width="32" height="32" viewBox="0 0 32 32" fill="none" xmlns="http://www.w3.org/2000/svg">
<path fill-rule="evenodd" clip-rule="evenodd" d="M15.5 26.4V23.3197L8.89997 23.3106V26.4H7.89997V23.3092L1.19941 23.3L1.20079 22.3L7.89997 22.3092V16.1H4.8001C2.48389 16.1 1.1001 14.2343 1.1001 12.4C1.1001 10.5657 2.48389 8.69997 4.8001 8.69997H7.89997V5.6H8.89997V8.69997H15.5V5.59998H16.5V8.69997H23.1V5.59998H24.1V8.69997H30.4001V9.69997H24.1V15.1H26.8001C27.9836 15.1 28.9187 15.6963 29.5432 16.4911C30.1613 17.2779 30.4999 18.2863 30.4999 19.2C30.4999 20.1139 30.1612 21.1217 29.5441 21.9121C28.9212 22.71 27.9893 23.3144 26.8089 23.3353L26.7994 23.3355L26.7994 23.3354L24.1 23.3316V26.4H23.1V23.3303L16.5 23.3211V26.4H15.5ZM24.1 22.3316L26.7958 22.3354C27.6134 22.3194 28.2798 21.9065 28.7559 21.2967C29.2387 20.6783 29.4999 19.8861 29.4999 19.2C29.4999 18.5136 29.2386 17.7221 28.7568 17.1089C28.2814 16.5037 27.6166 16.1 26.8001 16.1H24.1V22.3316ZM23.1 16.1V22.3303L16.5 22.3211V16.1H23.1ZM23.1 15.1V9.69997H16.5V15.1H23.1ZM15.5 22.3197V16.1H8.89997V22.3106L15.5 22.3197ZM8.89997 9.69997H15.5V15.1H8.89997V9.69997ZM7.89997 9.69997H4.8001C3.1163 9.69997 2.1001 11.0343 2.1001 12.4C2.1001 13.7657 3.1163 15.1 4.8001 15.1H7.89997V9.69997Z" fill="#151515"/>
</svg>
