<svg width="720" height="300" viewBox="0 0 720 300" fill="none" xmlns="http://www.w3.org/2000/svg">
<g clip-path="url(#clip0_3702_16915)">
<path d="M-1.5498 -3.2998H721.55V303.1H-1.5498V-3.2998Z" fill="url(#paint0_linear_3702_16915)"/>
<path d="M173.55 149.9L115.45 303.1H204.55L173.55 149.9Z" fill="url(#paint1_linear_3702_16915)"/>
<path d="M286.85 149.9L309.15 303.1H356.55V-3.2998H311.35L286.85 149.9Z" fill="url(#paint2_linear_3702_16915)"/>
<path d="M173.55 149.9L204.55 303.1L252.35 149.9L207.85 -3.2998L173.55 149.9Z" fill="url(#paint3_linear_3702_16915)"/>
<path d="M252.35 149.9L204.55 303.1H309.15L286.85 149.9L311.35 -3.2998H207.85L252.35 149.9Z" fill="url(#paint4_linear_3702_16915)"/>
<path d="M114.55 -3.2998H54.1504V91.5002L88.3504 149.9L54.1504 208.3V303.1H115.45L93.6504 149.9L114.55 -3.2998Z" fill="#AF2024"/>
<path d="M173.55 149.9L207.85 -3.2998H114.55L173.55 149.9Z" fill="url(#paint5_linear_3702_16915)"/>
<path d="M54.1502 91.5002V-3.2998H-1.5498L54.1502 91.5002Z" fill="#941B1E"/>
<path d="M54.1504 208.3L88.3504 149.9L54.1504 91.5V208.3Z" fill="#B12739"/>
<path d="M54.1502 208.3L-1.5498 303.1H54.1502V208.3Z" fill="#941B1E"/>
<path d="M54.1502 91.5002L-1.5498 -3.2998V303.1L54.1502 208.3V91.5002Z" fill="#952432"/>
<path d="M114.55 -3.2998L93.6504 149.9L115.45 303.1L173.55 149.9L114.55 -3.2998Z" fill="#D42027"/>
<path d="M640.05 256.3C641.75 230.9 650.05 201.7 658.85 170.7C660.25 165.7 661.65 160.7 663.05 155.6C661.65 150.1 660.25 144.7 658.85 139.4C650.05 106.1 641.85 74.7003 640.05 47.4003C638.65 26.2003 641.45 10.4003 648.95 -3.19971H603.05C595.55 15.1003 592.75 25.9003 594.15 47.1003C595.85 74.4003 604.15 105.8 612.95 139.1C625.95 188.4 640.95 245.3 636.15 303.3H649.05C641.45 290.5 638.65 276 640.05 256.3Z" fill="url(#paint6_linear_3702_16915)"/>
<path d="M612.95 139C604.15 105.7 595.95 74.3002 594.15 47.0002C592.75 25.8002 595.55 15.0002 603.05 -3.2998H567.65C573.35 50.6002 563.85 103.4 554.05 163.5C548.35 198.5 542.35 234.8 540.85 264.1C539.75 285.2 541.25 296.9 542.65 303.1H636.15C640.95 245.2 625.85 188.3 612.95 139Z" fill="url(#paint7_linear_3702_16915)"/>
<path d="M663.05 155.6C661.65 160.7 660.25 165.7 658.85 170.7C650.05 201.7 641.85 230.9 640.05 256.3C638.65 276 641.45 290.5 649.05 303.2H682.05C686.25 251.4 674.85 200.9 663.05 155.6Z" fill="#1C9A48"/>
<path d="M678.95 -3.2998C689.65 52.0002 676.45 107.1 663.05 155.6C674.75 200.9 686.25 251.4 681.95 303.2H721.55V-3.2998H678.95Z" fill="url(#paint8_linear_3702_16915)"/>
<path d="M540.75 264.1C542.25 234.7 548.25 198.5 553.95 163.5C563.75 103.4 573.25 50.7002 567.55 -3.2998H496.75C495.35 8.10019 493.85 15.9002 494.95 38.5002C496.45 70.1002 502.45 109 508.15 146.7C516.55 202.1 524.75 255.5 523.25 303.1H542.45C541.15 296.9 539.65 285.2 540.75 264.1Z" fill="url(#paint9_linear_3702_16915)"/>
<path d="M374.15 149.9L356.55 -3.2998V303.1L374.15 149.9Z" fill="#2A3886"/>
<path d="M640.05 47.3002C641.75 74.6002 650.05 106 658.85 139.3C660.25 144.6 661.65 150 663.05 155.5C676.55 107.1 689.65 52.0002 678.95 -3.2998H648.95C641.45 10.3002 638.65 26.1002 640.05 47.3002Z" fill="url(#paint10_linear_3702_16915)"/>
<path d="M508.25 146.7C502.55 109 496.55 70.1002 495.05 38.5002C493.95 15.8002 495.45 8.10019 496.85 -3.2998H455.35C456.85 36.8002 453.85 82.0002 448.35 157.5C445.25 201 440.35 268 441.35 303.2H523.45C524.85 255.5 516.65 202.1 508.25 146.7Z" fill="url(#paint11_linear_3702_16915)"/>
<path d="M356.55 303.1H413.05V-3.2998H356.55L374.15 149.9L356.55 303.1Z" fill="url(#paint12_linear_3702_16915)"/>
<path d="M448.35 157.5C453.85 82.0002 456.85 36.9002 455.35 -3.2998H413.15L413.05 303.1H441.35C440.35 268 445.15 201 448.35 157.5Z" fill="url(#paint13_linear_3702_16915)"/>
</g>
<defs>
<linearGradient id="paint0_linear_3702_16915" x1="-1.5498" y1="149.903" x2="721.55" y2="149.903" gradientUnits="userSpaceOnUse">
<stop stop-color="#952331"/>
<stop offset="0.036" stop-color="#921C1D"/>
<stop offset="0.085" stop-color="#B02739"/>
<stop offset="0.124" stop-color="#AD1F24"/>
<stop offset="0.151" stop-color="#C72026"/>
<stop offset="0.17" stop-color="#D42027"/>
<stop offset="0.176" stop-color="#CC2431"/>
<stop offset="0.189" stop-color="#B72B4C"/>
<stop offset="0.207" stop-color="#953371"/>
<stop offset="0.214" stop-color="#88357F"/>
<stop offset="0.244" stop-color="#853681"/>
<stop offset="0.264" stop-color="#6F368B"/>
<stop offset="0.291" stop-color="#39428F"/>
<stop offset="0.324" stop-color="#233D7D"/>
<stop offset="0.418" stop-color="#322C6F"/>
<stop offset="0.494" stop-color="#2A3885"/>
<stop offset="0.558" stop-color="#1D62A1"/>
<stop offset="0.57" stop-color="#276CA5"/>
<stop offset="0.61" stop-color="#438EB3"/>
<stop offset="0.64" stop-color="#55A5BC"/>
<stop offset="0.656" stop-color="#5CAFBF"/>
<stop offset="0.678" stop-color="#56ABBD"/>
<stop offset="0.706" stop-color="#439FB8"/>
<stop offset="0.737" stop-color="#188EAF"/>
<stop offset="0.743" stop-color="#038BAE"/>
<stop offset="0.79" stop-color="#069292"/>
<stop offset="0.887" stop-color="#05A14B"/>
<stop offset="1" stop-color="#03927E"/>
</linearGradient>
<linearGradient id="paint1_linear_3702_16915" x1="204.55" y1="226.5" x2="115.45" y2="226.5" gradientUnits="userSpaceOnUse">
<stop stop-color="#893680"/>
<stop offset="0.335" stop-color="#893680"/>
<stop offset="0.502" stop-color="#8D316D"/>
<stop offset="0.84" stop-color="#90294D"/>
<stop offset="1" stop-color="#902541"/>
</linearGradient>
<linearGradient id="paint2_linear_3702_16915" x1="358.4" y1="-2.9998" x2="326.02" y2="199.524" gradientUnits="userSpaceOnUse">
<stop stop-color="#322C6F"/>
<stop offset="0.243" stop-color="#322C6F"/>
<stop offset="0.46" stop-color="#302F72"/>
<stop offset="0.716" stop-color="#2A3A7E"/>
<stop offset="0.99" stop-color="#154A93"/>
<stop offset="1" stop-color="#134B94"/>
</linearGradient>
<linearGradient id="paint3_linear_3702_16915" x1="173.55" y1="149.903" x2="252.35" y2="149.903" gradientUnits="userSpaceOnUse">
<stop stop-color="#6F378D"/>
<stop offset="1" stop-color="#3A4291"/>
</linearGradient>
<linearGradient id="paint4_linear_3702_16915" x1="311.35" y1="149.903" x2="204.55" y2="149.903" gradientUnits="userSpaceOnUse">
<stop stop-color="#233D7D"/>
<stop offset="0.249" stop-color="#293D7D"/>
<stop offset="0.545" stop-color="#3A3C80"/>
<stop offset="0.862" stop-color="#513B84"/>
<stop offset="1" stop-color="#5D3A86"/>
</linearGradient>
<linearGradient id="paint5_linear_3702_16915" x1="208.58" y1="73.3032" x2="112.14" y2="73.3032" gradientUnits="userSpaceOnUse">
<stop stop-color="#893680"/>
<stop offset="0.335" stop-color="#893680"/>
<stop offset="0.502" stop-color="#8D316D"/>
<stop offset="0.84" stop-color="#90294D"/>
<stop offset="1" stop-color="#902541"/>
</linearGradient>
<linearGradient id="paint6_linear_3702_16915" x1="628.43" y1="-3.19971" x2="628.43" y2="303.3" gradientUnits="userSpaceOnUse">
<stop stop-color="#94BE55"/>
<stop offset="0.044" stop-color="#93BD58"/>
<stop offset="0.389" stop-color="#8BBC6A"/>
<stop offset="0.715" stop-color="#86BC75"/>
<stop offset="1" stop-color="#84BC79"/>
</linearGradient>
<linearGradient id="paint7_linear_3702_16915" x1="533.23" y1="-0.0498055" x2="612.96" y2="301.69" gradientUnits="userSpaceOnUse">
<stop stop-color="#08A24B"/>
<stop offset="0.168" stop-color="#0AA14E"/>
<stop offset="0.405" stop-color="#0B9E57"/>
<stop offset="0.683" stop-color="#099A67"/>
<stop offset="0.99" stop-color="#04947D"/>
<stop offset="1" stop-color="#04937E"/>
</linearGradient>
<linearGradient id="paint8_linear_3702_16915" x1="692.3" y1="-3.2998" x2="692.3" y2="303.2" gradientUnits="userSpaceOnUse">
<stop stop-color="#69A060"/>
<stop offset="0.04" stop-color="#639D5C"/>
<stop offset="0.219" stop-color="#4C944F"/>
<stop offset="0.418" stop-color="#378E47"/>
<stop offset="0.651" stop-color="#298B44"/>
<stop offset="1" stop-color="#238A43"/>
</linearGradient>
<linearGradient id="paint9_linear_3702_16915" x1="531.92" y1="-3.2998" x2="531.92" y2="303.1" gradientUnits="userSpaceOnUse">
<stop stop-color="#05B5DC"/>
<stop offset="0.22" stop-color="#04B0D7"/>
<stop offset="0.537" stop-color="#05A4C9"/>
<stop offset="0.912" stop-color="#0591B4"/>
<stop offset="1" stop-color="#058CAE"/>
</linearGradient>
<linearGradient id="paint10_linear_3702_16915" x1="630.52" y1="121.568" x2="676.18" y2="40.1042" gradientUnits="userSpaceOnUse">
<stop stop-color="#62B16E"/>
<stop offset="1" stop-color="#87B957"/>
</linearGradient>
<linearGradient id="paint11_linear_3702_16915" x1="429.87" y1="3.5302" x2="511.06" y2="306.52" gradientUnits="userSpaceOnUse">
<stop stop-color="#069AD4"/>
<stop offset="0.352" stop-color="#30A0CE"/>
<stop offset="1" stop-color="#5BB0C0"/>
</linearGradient>
<linearGradient id="paint12_linear_3702_16915" x1="384.8" y1="-3.2998" x2="384.8" y2="303.1" gradientUnits="userSpaceOnUse">
<stop stop-color="#1E458E"/>
<stop offset="0.241" stop-color="#1F4F96"/>
<stop offset="0.729" stop-color="#2B6AAB"/>
<stop offset="1" stop-color="#337BB9"/>
</linearGradient>
<linearGradient id="paint13_linear_3702_16915" x1="434.39" y1="303.1" x2="434.39" y2="-3.2998" gradientUnits="userSpaceOnUse">
<stop stop-color="#3F9AC9"/>
<stop offset="1" stop-color="#2062A2"/>
</linearGradient>
<clipPath id="clip0_3702_16915">
<rect width="720" height="300" fill="white"/>
</clipPath>
</defs>
</svg>
