<svg width="16" height="64" viewBox="0 0 16 64" fill="none" xmlns="http://www.w3.org/2000/svg">
<rect width="16" height="64" fill="white"/>
<path d="M0 22V13L16 14.44V19.84L0 22Z" fill="#05A7C9"/>
<path d="M0 27.3043V21.7391L16 19V28L0 27.3043Z" fill="#2D86B8"/>
<path d="M0 37V26L16 27.0645V35.2258L0 37Z" fill="#1D3E86"/>
<path d="M0 42.56V36.16L16 35V44L0 42.56Z" fill="#314385"/>
<path d="M0 50V42L16 43.6V48L0 50Z" fill="#514699"/>
<path d="M0 54.875V48.875L16 47V56L0 54.875Z" fill="#D82228"/>
<path d="M0 61V54L16 55.4737V58.7895L0 61Z" fill="#AE1F25"/>
<path d="M0 64V60.4286L16 58V64H0Z" fill="#8F2438"/>
<path d="M0 11V3L16 6.80952V9.47619L0 11Z" fill="#7FBC77"/>
<path d="M0 13.7143V9.90476L16 8V16L0 13.7143Z" fill="#04A16D"/>
<path d="M0 3.15V0H16V7L0 3.15Z" fill="#258F47"/>
</svg>
