<svg width="80" height="80" viewBox="0 0 80 80" fill="none" xmlns="http://www.w3.org/2000/svg">
<path d="M25 35.3964H28.855C29.7621 31.1331 30.8504 28.8656 33.0271 26.5981C35.2042 24.421 37.925 23.3327 41.145 23.3327C44.2287 23.3327 46.7233 24.376 48.4921 26.326C49.7617 27.7318 50.4879 29.1377 51.485 32.0402L48.1746 32.9473C46.4967 28.1402 44.6829 26.4618 41.0092 26.4618C38.0158 26.4618 35.7483 27.7773 34.2517 30.4077C33.4808 31.7681 33.0725 32.9927 32.6192 35.3964H42.6871V38.2535H32.3471C32.3017 38.7973 32.3017 39.251 32.3017 40.0673C32.3017 41.0198 32.3017 41.5185 32.3471 41.9723H42.6871V44.8293H32.6646C33.8887 50.861 36.4737 53.5368 41.1 53.5368C45 53.5368 47.0862 51.6318 48.6733 46.6885L51.9842 47.8223C50.9862 50.8156 50.17 52.2668 48.6279 53.8089C46.6779 55.6681 44.0929 56.666 41.1 56.666C37.6079 56.666 34.7504 55.441 32.5737 52.9927C30.6237 50.8156 29.7167 48.8202 28.855 44.8293H25V41.9723H28.5375C28.4761 41.3695 28.4458 40.764 28.4467 40.1581L28.4921 38.2535H25V35.3964ZM40 73.3327C21.62 73.3327 6.66666 58.3793 6.66666 39.9993C6.66666 21.6193 21.62 6.66602 40 6.66602C58.38 6.66602 73.3333 21.6193 73.3333 39.9993C73.3333 58.3793 58.38 73.3327 40 73.3327ZM40 9.99935C23.4579 9.99935 9.99999 23.4573 9.99999 39.9993C9.99999 56.5414 23.4579 69.9993 40 69.9993C56.5421 69.9993 70 56.5414 70 39.9993C70 23.4573 56.5421 9.99935 40 9.99935Z" fill="black"/>
</svg>
