<svg width="80" height="80" viewBox="0 0 80 80" fill="none" xmlns="http://www.w3.org/2000/svg">
<g opacity="0.9">
<path fill-rule="evenodd" clip-rule="evenodd" d="M40 68C23.9837 68 11 55.0163 11 39C11 22.9837 23.9837 10 40 10C56.0163 10 69 22.9837 69 39C69 55.0163 56.0163 68 40 68ZM10 39C10 22.4315 23.4315 9 40 9C56.5685 9 70 22.4315 70 39C70 55.5685 56.5685 69 40 69C23.4315 69 10 55.5685 10 39ZM35 30H26V31H35V40H26V41H25V50H26V51H35V50H26V41H35V40H36V31H35V30ZM50 31V40H49V31H50ZM49 41V40H40V31H39V40H40V41H49ZM49 41H50V50H49V41ZM53 29V26H56V29H53ZM53 29V30H56V29H57V26H56V25H53V26H52V29H53Z" fill="black"/>
</g>
</svg>
