<svg width="56" height="56" viewBox="0 0 56 56" fill="none" xmlns="http://www.w3.org/2000/svg">
<rect width="56" height="56" rx="28" fill="#007BC0"/>
<path fill-rule="evenodd" clip-rule="evenodd" d="M15.3536 33.3536C15.5488 33.1583 15.5488 32.8417 15.3536 32.6464L10.7071 28L15.3536 23.3536C15.5488 23.1583 15.5488 22.8417 15.3536 22.6464C15.1583 22.4512 14.8417 22.4512 14.6464 22.6464L9.64645 27.6464L9.29289 28L9.64645 28.3536L14.6464 33.3536C14.8417 33.5488 15.1583 33.5488 15.3536 33.3536Z" fill="white"/>
<path fill-rule="evenodd" clip-rule="evenodd" d="M40.6464 22.6464C40.4512 22.8417 40.4512 23.1583 40.6464 23.3536L45.2929 28L40.6464 32.6464C40.4512 32.8417 40.4512 33.1583 40.6464 33.3536C40.8417 33.5488 41.1583 33.5488 41.3536 33.3536L46.3536 28.3536L46.7071 28L46.3536 27.6464L41.3536 22.6464C41.1583 22.4512 40.8417 22.4512 40.6464 22.6464Z" fill="white"/>
</svg>
