<svg width="80" height="80" viewBox="0 0 80 80" fill="none" xmlns="http://www.w3.org/2000/svg">
<path fill-rule="evenodd" clip-rule="evenodd" d="M60 22.5H73H73.5V23V36H72.5V24.1778L44.3473 51.3597L43.9939 51.701L43.6465 51.3536L30 37.7071L29.9903 37.7168L29.9527 37.7544L29.9149 37.7922L29.8768 37.8303L29.8386 37.8686L29.8001 37.907L29.7614 37.9458L29.7224 37.9847L29.6833 38.0238L29.6439 38.0632L29.6043 38.1028L29.5645 38.1426L29.5245 38.1826L29.4843 38.2228L29.4439 38.2633L29.4032 38.3039L29.3623 38.3448L29.3213 38.3858L29.28 38.4271L29.2385 38.4686L29.1968 38.5103L29.1549 38.5522L29.1128 38.5943L29.0705 38.6366L29.028 38.6791L28.9853 38.7218L28.9424 38.7647L28.8994 38.8078L28.8561 38.8511L28.8126 38.8945L28.7689 38.9382L28.725 38.9821L28.681 39.0262L28.6367 39.0704L28.5923 39.1149L28.5476 39.1595L28.5028 39.2043L28.4578 39.2493L28.4126 39.2945L28.3672 39.3399L28.3217 39.3854L28.2759 39.4312L28.23 39.4771L28.1839 39.5232L28.1376 39.5695L28.0912 39.6159L28.0445 39.6626L27.9977 39.7094L27.9508 39.7564L27.9036 39.8035L27.8563 39.8508L27.8088 39.8983L27.7611 39.946L27.7133 39.9938L27.6653 40.0418L27.6171 40.09L27.5688 40.1383L27.5203 40.1868L27.4716 40.2355L27.4228 40.2843L27.3738 40.3333L27.3247 40.3824L27.2754 40.4317L27.2259 40.4812L27.1763 40.5308L27.1266 40.5805L27.0767 40.6305L27.0266 40.6805L26.9764 40.7308L26.926 40.7811L26.8755 40.8316L26.8248 40.8823L26.774 40.9331L26.723 40.9841L26.6719 41.0352L26.6207 41.0864L26.5693 41.1378L26.5178 41.1894L26.4661 41.241L26.4143 41.2928L26.3623 41.3448L26.3102 41.3969L26.258 41.4491L26.2057 41.5015L26.1532 41.5539L26.1006 41.6066L26.0478 41.6593L25.9949 41.7122L25.9419 41.7652L25.8888 41.8183L25.8355 41.8716L25.7821 41.925L25.7286 41.9785L25.675 42.0322L25.6212 42.0859L25.5673 42.1398L25.5133 42.1938L25.4592 42.2479L25.405 42.3021L25.3506 42.3565L25.2962 42.411L25.2416 42.4655L25.1869 42.5202L25.1321 42.575L25.0772 42.63L25.0221 42.685L24.967 42.7401L24.9117 42.7954L24.8564 42.8507L24.8009 42.9062L24.7454 42.9617L24.6897 43.0174L24.634 43.0732L24.5781 43.129L24.5221 43.185L24.4661 43.241L24.4099 43.2972L24.3537 43.3535L24.2973 43.4098L24.2409 43.4662L24.1843 43.5228L24.1277 43.5794L24.071 43.6361L24.0142 43.6929L23.9573 43.7498L23.9003 43.8068L23.8432 43.8639L23.7861 43.921L23.7288 43.9783L23.6715 44.0356L23.6141 44.093L23.5566 44.1505L23.4991 44.208L23.4414 44.2657L23.3837 44.3234L23.3259 44.3812L23.2681 44.439L23.2101 44.497L23.1521 44.555L23.094 44.6131L23.0359 44.6712L22.9777 44.7295L22.9194 44.7878L22.861 44.8461L22.8026 44.9045L22.7441 44.963L22.6855 45.0216L22.6269 45.0802L22.5683 45.1389L22.5095 45.1976L22.4507 45.2564L22.3919 45.3152L22.333 45.3741L22.274 45.4331L22.215 45.4921L22.1559 45.5512L22.0968 45.6103L22.0376 45.6695L21.9784 45.7287L21.9191 45.788L21.8598 45.8473L21.8004 45.9067L21.741 45.9661L21.6816 46.0256L21.6221 46.0851L21.5625 46.1446L21.5029 46.2042L21.4433 46.2638L21.3837 46.3235L21.324 46.3832L21.2642 46.4429L21.2044 46.5027L21.1446 46.5625L21.0848 46.6223L21.0249 46.6822L20.965 46.7421L20.9051 46.802L20.8451 46.862L20.7852 46.922L20.7252 46.982L20.6651 47.042L20.6051 47.1021L20.545 47.1621L20.4849 47.2223L20.4247 47.2824L20.3646 47.3425L20.3044 47.4027L20.2442 47.4629L20.184 47.5231L20.1238 47.5833L20.0636 47.6435L20.0034 47.7037L19.9431 47.764L19.8829 47.8243L19.8226 47.8845L19.7623 47.9448L19.702 48.0051L19.6417 48.0654L19.5814 48.1257L19.5211 48.186L19.4608 48.2463L19.4005 48.3066L19.3402 48.3669L19.2799 48.4272L19.2196 48.4875L19.1593 48.5478L19.099 48.6081L19.0387 48.6684L18.9784 48.7287L18.9182 48.7889L18.8579 48.8492L18.7976 48.9095L18.7374 48.9697L18.6772 49.03L18.6169 49.0902L18.5567 49.1504L18.4965 49.2106L18.4364 49.2707L18.3762 49.3309L18.3161 49.391L18.256 49.4512L18.1959 49.5113L18.1358 49.5713L18.0757 49.6314L18.0157 49.6914L17.9557 49.7514L17.8957 49.8114L17.8358 49.8713L17.7759 49.9313L17.716 49.9911L17.6561 50.051L17.5963 50.1108L17.5365 50.1706L17.4767 50.2304L17.417 50.2901L17.3573 50.3498L17.2977 50.4094L17.2381 50.469L17.1785 50.5286L17.119 50.5881L17.0595 50.6476L17.0001 50.707L16.9407 50.7664L16.8813 50.8258L16.822 50.8851L16.7628 50.9443L16.7036 51.0036L16.6444 51.0627L16.5853 51.1218L16.5263 51.1809L16.4673 51.2399L16.4083 51.2988L16.3494 51.3577L16.2906 51.4165L16.2318 51.4753L16.1731 51.534L16.1145 51.5926L16.0559 51.6512L15.9974 51.7098L15.9389 51.7682L15.8805 51.8266L15.8222 51.885L15.7639 51.9432L15.7057 52.0014L15.6476 52.0595L15.5895 52.1176L15.5315 52.1756L15.4736 52.2335L15.4158 52.2913L15.358 52.3491L15.3003 52.4068L15.2427 52.4644L15.1852 52.5219L15.1278 52.5794L15.0704 52.6367L15.0131 52.694L14.9559 52.7512L14.8988 52.8083L14.8417 52.8654L14.7848 52.9223L14.7279 52.9792L14.6712 53.0359L14.6145 53.0926L14.5579 53.1492L14.5014 53.2057L14.445 53.2621L14.3887 53.3184L14.3325 53.3747L14.2763 53.4308L14.2203 53.4868L14.1644 53.5427L14.1086 53.5985L14.0528 53.6543L13.9972 53.7099L13.9417 53.7654L13.8863 53.8208L13.831 53.8761L13.7758 53.9313L13.7207 53.9864L13.6657 54.0414L13.6108 54.0963L13.5561 54.151L13.5014 54.2057L13.4469 54.2602L13.3925 54.3146L13.3382 54.369L13.284 54.4231L13.2299 54.4772L13.1759 54.5312L13.1221 54.585L13.0684 54.6387L13.0148 54.6923L12.9614 54.7458L12.908 54.7991L12.8548 54.8523L12.8017 54.9054L12.7487 54.9584L12.6959 55.0112L12.6432 55.0639L12.5907 55.1165L12.5382 55.1689L12.4859 55.2212L12.4337 55.2734L12.3817 55.3254L12.3298 55.3773L12.2781 55.4291L12.2264 55.4807L12.175 55.5321L12.1236 55.5835L12.0724 55.6347L12.0214 55.6857L11.9705 55.7366L11.9197 55.7874L11.8691 55.838L11.8187 55.8884L11.7684 55.9388L11.7182 55.9889L11.6682 56.0389L11.6183 56.0888L11.5686 56.1385L11.5191 56.188L11.4697 56.2374L11.4205 56.2867L11.3714 56.3357L11.3225 56.3847L11.2737 56.4334L11.2251 56.482L11.1767 56.5304L11.1284 56.5787L11.0803 56.6268L11.0324 56.6747L10.9846 56.7225L10.937 56.7701L10.8896 56.8175L10.8423 56.8648L10.7953 56.9119L10.7483 56.9588L10.7016 57.0055L10.655 57.0521L10.6087 57.0985L10.5624 57.1447L10.5164 57.1907L10.4706 57.2365L10.4249 57.2822L10.3794 57.3277L10.3341 57.373L10.289 57.4181L10.2441 57.4631L10.1993 57.5078L10.1547 57.5524L10.1104 57.5967L10.0662 57.6409L10.0222 57.6849L9.97841 57.7287L9.93481 57.7723L9.8914 57.8157L9.84819 57.8589L9.80517 57.9019L9.76236 57.9448L9.71974 57.9874L9.67732 58.0298L9.6351 58.072L9.59309 58.114L9.55127 58.1558L9.50967 58.1974L9.46827 58.2388L9.42707 58.28L9.38609 58.321L9.34531 58.3618L9.30474 58.4024L9.26439 58.4427L9.22425 58.4829L9.18432 58.5228L9.1446 58.5625L9.10511 58.602L9.06582 58.6413L9.02676 58.6804L8.98792 58.7192L8.9493 58.7578L8.91089 58.7962L8.87272 58.8344L8.83476 58.8724L8.79703 58.9101L8.75953 58.9476L8.72225 58.9849L8.6852 59.0219L8.64838 59.0587L8.6118 59.0953L8.57544 59.1317L8.53932 59.1678L8.50343 59.2037L8.46777 59.2393L8.43236 59.2748L8.39717 59.3099L8.36223 59.3449L8.32753 59.3796L8.29307 59.414L8.25885 59.4483L8.22487 59.4822L8.19114 59.516L8.15765 59.5495L8.12441 59.5827L8.09141 59.6157L8.05867 59.6484L8.02617 59.6809L7.99393 59.7132L7.96194 59.7452L7.9302 59.7769L7.89871 59.8084L7.86748 59.8396L7.83651 59.8706L7.80579 59.9013L7.77534 59.9318L7.74514 59.962L7.7152 59.9919L7.68553 60.0216L7.65612 60.051L7.62697 60.0801L7.59809 60.109L7.56948 60.1376L7.54113 60.166L7.51305 60.1941L7.48525 60.2219L7.45771 60.2494L7.43045 60.2767L7.40346 60.3037L7.37674 60.3304L7.3503 60.3568L7.32414 60.383L7.29825 60.4089L7.27264 60.4345L7.24732 60.4598L7.22227 60.4848L7.19751 60.5096L7.17303 60.5341L7.14884 60.5583L7.12493 60.5822L7.10131 60.6058L7.07797 60.6291L7.05493 60.6522L7.03217 60.6749L7.00971 60.6974L6.98754 60.7196L6.96566 60.7415L6.94408 60.763L6.9228 60.7843L6.90181 60.8053L6.88112 60.826L6.86073 60.8464L6.84064 60.8665L6.82085 60.8863L6.80136 60.9058L6.78218 60.9249L6.7633 60.9438L6.74473 60.9624L6.72646 60.9807L6.70851 60.9986L6.69086 61.0163L6.67352 61.0336L6.6565 61.0506L6.63979 61.0673L6.62339 61.0837L6.60731 61.0998L6.59154 61.1156L6.57609 61.131L6.56096 61.1462L6.54615 61.161L6.53166 61.1755L6.51749 61.1896L6.50365 61.2035L6.49013 61.217L6.47693 61.2302L6.46406 61.2431L6.45152 61.2556L6.4393 61.2678L6.42742 61.2797L6.41587 61.2912L6.40465 61.3025L6.39376 61.3134L6.3832 61.3239L6.37299 61.3341L6.3631 61.344L6.35356 61.3536L5.64645 60.6464L5.656 60.6369L5.66588 60.627L5.6761 60.6168L5.68665 60.6062L5.69754 60.5954L5.70876 60.5841L5.72031 60.5726L5.7322 60.5607L5.74441 60.5485L5.75695 60.5359L5.76982 60.5231L5.78302 60.5099L5.79654 60.4964L5.81039 60.4825L5.82455 60.4683L5.83904 60.4539L5.85386 60.439L5.86899 60.4239L5.88443 60.4085L5.9002 60.3927L5.91628 60.3766L5.93268 60.3602L5.94939 60.3435L5.96642 60.3265L5.98375 60.3091L6.0014 60.2915L6.01936 60.2735L6.03762 60.2553L6.05619 60.2367L6.07507 60.2178L6.09425 60.1986L6.11374 60.1792L6.13353 60.1594L6.15362 60.1393L6.17401 60.1189L6.1947 60.0982L6.21569 60.0772L6.23698 60.0559L6.25856 60.0343L6.28043 60.0125L6.3026 59.9903L6.32507 59.9678L6.34782 59.9451L6.37087 59.922L6.3942 59.8987L6.41782 59.8751L6.44173 59.8512L6.46592 59.827L6.4904 59.8025L6.51517 59.7777L6.54021 59.7527L6.56554 59.7274L6.59114 59.7018L6.61703 59.6759L6.64319 59.6497L6.66963 59.6233L6.69635 59.5965L6.72334 59.5696L6.7506 59.5423L6.77814 59.5148L6.80595 59.487L6.83402 59.4589L6.86237 59.4305L6.89099 59.4019L6.91987 59.373L6.94901 59.3439L6.97842 59.3145L7.0081 59.2848L7.03803 59.2549L7.06823 59.2247L7.09869 59.1942L7.1294 59.1635L7.16038 59.1325L7.19161 59.1013L7.22309 59.0698L7.25483 59.0381L7.28682 59.0061L7.31907 58.9738L7.35156 58.9413L7.38431 58.9086L7.4173 58.8756L7.45054 58.8424L7.48403 58.8089L7.51776 58.7751L7.55174 58.7412L7.58596 58.7069L7.62042 58.6725L7.65513 58.6378L7.69007 58.6028L7.72525 58.5677L7.76067 58.5322L7.79632 58.4966L7.83221 58.4607L7.86833 58.4246L7.90469 58.3882L7.94128 58.3516L7.9781 58.3148L8.01514 58.2778L8.05242 58.2405L8.08992 58.203L8.12765 58.1652L8.16561 58.1273L8.20379 58.0891L8.24219 58.0507L8.28081 58.0121L8.31966 57.9732L8.35872 57.9342L8.398 57.8949L8.4375 57.8554L8.47721 57.8157L8.51714 57.7758L8.55728 57.7356L8.59764 57.6953L8.6382 57.6547L8.67898 57.6139L8.71997 57.5729L8.76116 57.5317L8.80256 57.4903L8.84417 57.4487L8.88598 57.4069L8.92799 57.3649L8.97021 57.3227L9.01263 57.2803L9.05525 57.2377L9.09807 57.1948L9.14108 57.1518L9.1843 57.1086L9.2277 57.0652L9.27131 57.0216L9.3151 56.9778L9.35909 56.9338L9.40327 56.8896L9.44764 56.8453L9.4922 56.8007L9.53695 56.756L9.58188 56.711L9.627 56.6659L9.6723 56.6206L9.71779 56.5751L9.76346 56.5294L9.80931 56.4836L9.85534 56.4376L9.90155 56.3914L9.94793 56.345L9.99449 56.2984L10.0412 56.2517L10.0881 56.2048L10.1352 56.1577L10.1825 56.1104L10.2299 56.063L10.2775 56.0154L10.3253 55.9676L10.3732 55.9197L10.4213 55.8716L10.4696 55.8233L10.518 55.7749L10.5666 55.7263L10.6154 55.6775L10.6643 55.6286L10.7133 55.5796L10.7626 55.5303L10.812 55.4809L10.8615 55.4314L10.9112 55.3817L10.9611 55.3318L11.0111 55.2818L11.0612 55.2317L11.1116 55.1813L11.162 55.1309L11.2126 55.0803L11.2634 55.0295L11.3143 54.9786L11.3653 54.9276L11.4165 54.8764L11.4679 54.825L11.5193 54.7736L11.571 54.7219L11.6227 54.6702L11.6746 54.6183L11.7266 54.5663L11.7788 54.5141L11.8311 54.4618L11.8835 54.4094L11.9361 54.3568L11.9888 54.3041L12.0416 54.2513L12.0946 54.1983L12.1477 54.1452L12.2009 54.092L12.2542 54.0387L12.3077 53.9852L12.3613 53.9316L12.415 53.8779L12.4688 53.8241L12.5228 53.7701L12.5769 53.716L12.6311 53.6618L12.6854 53.6075L12.7398 53.5531L12.7943 53.4986L12.849 53.4439L12.9037 53.3892L12.9586 53.3343L13.0136 53.2793L13.0687 53.2242L13.1239 53.169L13.1792 53.1137L13.2346 53.0583L13.2901 53.0028L13.3457 52.9472L13.4015 52.8914L13.4573 52.8356L13.5132 52.7797L13.5692 52.7237L13.6253 52.6676L13.6816 52.6113L13.7379 52.555L13.7943 52.4986L13.8508 52.4421L13.9074 52.3855L13.9641 52.3288L14.0208 52.2721L14.0777 52.2152L14.1346 52.1583L14.1917 52.1012L14.2488 52.0441L14.306 51.9869L14.3633 51.9296L14.4207 51.8722L14.4781 51.8148L14.5356 51.7573L14.5932 51.6997L14.6509 51.642L14.7087 51.5842L14.7665 51.5264L14.8244 51.4685L14.8824 51.4105L14.9405 51.3524L14.9986 51.2943L15.0568 51.2361L15.1151 51.1778L15.1734 51.1195L15.2318 51.0611L15.2902 51.0027L15.3488 50.9441L15.4074 50.8855L15.466 50.8269L15.5247 50.7682L15.5835 50.7094L15.6423 50.6506L15.7012 50.5917L15.7601 50.5328L15.8191 50.4738L15.8782 50.4147L15.9373 50.3556L15.9965 50.2964L16.0557 50.2372L16.1149 50.178L16.1742 50.1187L16.2336 50.0593L16.293 49.9999L16.3524 49.9405L16.4119 49.881L16.4714 49.8215L16.531 49.7619L16.5906 49.7023L16.6502 49.6427L16.7099 49.583L16.7696 49.5233L16.8294 49.4635L16.8892 49.4037L16.949 49.3439L17.0089 49.284L17.0688 49.2241L17.1287 49.1642L17.1886 49.1043L17.2486 49.0443L17.3086 48.9843L17.3686 48.9243L17.4287 48.8642L17.4887 48.8042L17.5488 48.7441L17.609 48.6839L17.6691 48.6238L17.7293 48.5636L17.7894 48.5035L17.8496 48.4433L17.9098 48.3831L17.9701 48.3228L18.0303 48.2626L18.0905 48.2024L18.1508 48.1421L18.2111 48.0818L18.2713 48.0216L18.3316 47.9613L18.3919 47.901L18.4522 47.8407L18.5125 47.7804L18.5728 47.7201L18.6331 47.6598L18.6934 47.5995L18.7537 47.5392L18.814 47.4789L18.8743 47.4186L18.9346 47.3583L18.9949 47.298L19.0552 47.2377L19.1155 47.1774L19.1757 47.1172L19.236 47.0569L19.2963 46.9966L19.3565 46.9364L19.4167 46.8762L19.4769 46.816L19.5371 46.7558L19.5973 46.6956L19.6575 46.6354L19.7176 46.5753L19.7778 46.5151L19.8379 46.455L19.8979 46.395L19.958 46.3349L20.018 46.2749L20.0781 46.2148L20.138 46.1549L20.198 46.0949L20.2579 46.035L20.3178 45.9751L20.3777 45.9152L20.4375 45.8554L20.4973 45.7956L20.5571 45.7358L20.6168 45.6761L20.6765 45.6164L20.7362 45.5567L20.7958 45.4971L20.8554 45.4375L20.915 45.3779L20.9745 45.3184L21.0339 45.259L21.0933 45.1996L21.1527 45.1402L21.212 45.0809L21.2713 45.0216L21.3305 44.9624L21.3897 44.9032L21.4488 44.8441L21.5079 44.785L21.5669 44.726L21.6259 44.667L21.6848 44.6081L21.7436 44.5493L21.8024 44.4905L21.8612 44.4318L21.9198 44.3731L21.9784 44.3145L22.037 44.2559L22.0955 44.1974L22.1539 44.139L22.2123 44.0806L22.2705 44.0224L22.3288 43.9641L22.3869 43.906L22.445 43.8479L22.503 43.7899L22.561 43.7319L22.6188 43.6741L22.6766 43.6163L22.7343 43.5586L22.792 43.5009L22.8495 43.4434L22.907 43.3859L22.9644 43.3285L23.0217 43.2712L23.079 43.2139L23.1361 43.1568L23.1932 43.0997L23.2502 43.0427L23.3071 42.9858L23.3639 42.929L23.4206 42.8723L23.4772 42.8157L23.5338 42.7591L23.5902 42.7027L23.6466 42.6463L23.7028 42.5901L23.759 42.5339L23.815 42.4779L23.871 42.4219L23.9269 42.366L23.9826 42.3103L24.0383 42.2546L24.0938 42.1991L24.1493 42.1436L24.2046 42.0883L24.2599 42.033L24.315 41.9779L24.37 41.9229L24.425 41.8679L24.4798 41.8131L24.5345 41.7584L24.589 41.7039L24.6435 41.6494L24.6979 41.595L24.7521 41.5408L24.8062 41.4867L24.8602 41.4327L24.9141 41.3788L24.9679 41.325L25.0215 41.2714L25.075 41.2179L25.1284 41.1645L25.1817 41.1112L25.2348 41.0581L25.2878 41.0051L25.3407 40.9522L25.3934 40.8995L25.4461 40.8468L25.4986 40.7943L25.5509 40.742L25.6031 40.6898L25.6552 40.6377L25.7072 40.5857L25.759 40.5339L25.8106 40.4823L25.8622 40.4307L25.9136 40.3793L25.9648 40.3281L26.0159 40.277L26.0669 40.226L26.1177 40.1752L26.1684 40.1245L26.2189 40.074L26.2693 40.0236L26.3195 39.9734L26.3695 39.9234L26.4195 39.8734L26.4692 39.8237L26.5188 39.7741L26.5683 39.7246L26.6176 39.6753L26.6667 39.6262L26.7157 39.5772L26.7645 39.5284L26.8132 39.4797L26.8617 39.4312L26.91 39.3829L26.9582 39.3347L27.0062 39.2867L27.054 39.2389L27.1017 39.1912L27.1492 39.1437L27.1965 39.0964L27.2436 39.0493L27.2906 39.0023L27.3374 38.9555L27.3841 38.9088L27.4305 38.8624L27.4768 38.8161L27.5229 38.77L27.5688 38.7241L27.6146 38.6783L27.6601 38.6328L27.7055 38.5874L27.7507 38.5422L27.7957 38.4972L27.8405 38.4524L27.8852 38.4077L27.9296 38.3633L27.9739 38.319L28.0179 38.275L28.0618 38.2311L28.1055 38.1874L28.149 38.1439L28.1922 38.1007L28.2353 38.0576L28.2782 38.0147L28.3209 37.972L28.3634 37.9295L28.4057 37.8872L28.4478 37.8451L28.4897 37.8032L28.5314 37.7615L28.5729 37.72L28.6142 37.6787L28.6552 37.6377L28.6961 37.5968L28.7367 37.5562L28.7772 37.5157L28.8174 37.4755L28.8574 37.4355L28.8972 37.3957L28.9368 37.3561L28.9762 37.3167L29.0153 37.2776L29.0543 37.2386L29.093 37.1999L29.1315 37.1614L29.1697 37.1232L29.2078 37.0851L29.2456 37.0473L29.2832 37.0097L29.3205 36.9724L29.3577 36.9352L29.3946 36.8983L29.4313 36.8616L29.4677 36.8252L29.5039 36.789L29.5399 36.753L29.5757 36.7172L29.6112 36.6817L29.6465 36.6464L30 36.2929L30.3536 36.6464L44.0062 50.299L71.7623 23.5H60V22.5Z" fill="black"/>
</svg>
