<svg width="40" height="40" viewBox="0 0 40 40" fill="none" xmlns="http://www.w3.org/2000/svg">
<path fill-rule="evenodd" clip-rule="evenodd" d="M30 11H36.5H37V11.5V18H36V12.6778L22.3473 25.8597L21.9938 26.201L21.6464 25.8536L15 19.2071L14.9987 19.2084L14.9789 19.2282L14.959 19.2481L14.939 19.2681L14.9189 19.2882L14.8987 19.3084L14.8784 19.3287L14.8579 19.3492L14.8374 19.3697L14.8167 19.3903L14.796 19.4111L14.7752 19.4319L14.7542 19.4529L14.7332 19.4739L14.712 19.4951L14.6908 19.5163L14.6694 19.5377L14.648 19.5591L14.6264 19.5807L14.6048 19.6023L14.583 19.624L14.5612 19.6459L14.5393 19.6678L14.5172 19.6899L14.4951 19.712L14.4729 19.7342L14.4506 19.7565L14.4282 19.7789L14.4056 19.8014L14.3831 19.824L14.3604 19.8467L14.3376 19.8695L14.3147 19.8924L14.2918 19.9153L14.2687 19.9384L14.2456 19.9615L14.2223 19.9847L14.199 20.0081L14.1756 20.0315L14.1521 20.055L14.1285 20.0785L14.1049 20.1022L14.0811 20.1259L14.0573 20.1498L14.0334 20.1737L14.0094 20.1977L13.9853 20.2218L13.9611 20.2459L13.9369 20.2702L13.9126 20.2945L13.8882 20.3189L13.8637 20.3434L13.8391 20.368L13.8144 20.3926L13.7897 20.4174L13.7649 20.4422L13.74 20.467L13.7151 20.492L13.69 20.517L13.6649 20.5422L13.6397 20.5673L13.6145 20.5926L13.5892 20.6179L13.5637 20.6433L13.5383 20.6688L13.5127 20.6944L13.4871 20.72L13.4614 20.7457L13.4356 20.7715L13.4098 20.7973L13.3839 20.8232L13.3579 20.8492L13.3319 20.8752L13.3058 20.9013L13.2796 20.9275L13.2533 20.9537L13.227 20.9801L13.2006 21.0064L13.1742 21.0329L13.1477 21.0594L13.1211 21.0859L13.0945 21.1126L13.0678 21.1393L13.041 21.166L13.0142 21.1929L12.9874 21.2197L12.9604 21.2467L12.9334 21.2737L12.9064 21.3007L12.8792 21.3278L12.8521 21.355L12.8248 21.3823L12.7975 21.4095L12.7702 21.4369L12.7428 21.4643L12.7153 21.4918L12.6878 21.5193L12.6602 21.5468L12.6326 21.5745L12.6049 21.6021L12.5772 21.6299L12.5494 21.6576L12.5216 21.6855L12.4937 21.7134L12.4658 21.7413L12.4378 21.7693L12.4098 21.7973L12.3817 21.8254L12.3536 21.8535L12.3254 21.8817L12.2972 21.9099L12.2689 21.9382L12.2406 21.9665L12.2122 21.9948L12.1838 22.0232L12.1554 22.0517L12.1269 22.0802L12.0984 22.1087L12.0698 22.1373L12.0412 22.1659L12.0125 22.1946L11.9838 22.2233L11.9551 22.252L11.9263 22.2808L11.8975 22.3096L11.8686 22.3385L11.8397 22.3674L11.8108 22.3963L11.7818 22.4253L11.7528 22.4543L11.7238 22.4833L11.6947 22.5124L11.6656 22.5415L11.6364 22.5707L11.6073 22.5998L11.578 22.629L11.5488 22.6583L11.5195 22.6876L11.4902 22.7169L11.4609 22.7462L11.4315 22.7756L11.4021 22.805L11.3727 22.8344L11.3432 22.8638L11.3138 22.8933L11.2842 22.9228L11.2547 22.9524L11.2251 22.9819L11.1956 23.0115L11.1659 23.0411L11.1363 23.0708L11.1066 23.1004L11.077 23.1301L11.0473 23.1598L11.0175 23.1896L10.9878 23.2193L10.958 23.2491L10.9282 23.2789L10.8984 23.3087L10.8686 23.3385L10.8387 23.3684L10.8089 23.3982L10.779 23.4281L10.7491 23.458L10.7192 23.4879L10.6892 23.5179L10.6593 23.5478L10.6293 23.5778L10.5993 23.6078L10.5693 23.6378L10.5393 23.6678L10.5093 23.6978L10.4793 23.7278L10.4492 23.7579L10.4192 23.7879L10.3891 23.818L10.359 23.848L10.329 23.8781L10.2989 23.9082L10.2688 23.9383L10.2387 23.9684L10.2086 23.9985L10.1784 24.0287L10.1483 24.0588L10.1182 24.0889L10.088 24.119L10.0579 24.1492L10.0278 24.1793L9.99761 24.2095L9.96746 24.2396L9.93731 24.2698L9.90716 24.2999L9.87701 24.3301L9.84686 24.3602L9.81671 24.3904L9.78655 24.4205L9.7564 24.4507L9.72626 24.4808L9.69611 24.511L9.66597 24.5411L9.63583 24.5713L9.6057 24.6014L9.57557 24.6315L9.54545 24.6616L9.51533 24.6918L9.48522 24.7219L9.45512 24.752L9.42502 24.7821L9.39493 24.8122L9.36485 24.8422L9.33478 24.8723L9.30473 24.9024L9.27468 24.9324L9.24464 24.9624L9.21461 24.9925L9.1846 25.0225L9.1546 25.0525L9.12461 25.0825L9.09464 25.1124L9.06468 25.1424L9.03473 25.1723L9.00481 25.2023L8.97489 25.2322L8.945 25.2621L8.91512 25.292L8.88526 25.3218L8.85542 25.3517L8.82559 25.3815L8.79579 25.4113L8.76601 25.4411L8.73624 25.4708L8.7065 25.5006L8.67678 25.5303L8.64708 25.56L8.61741 25.5897L8.58776 25.6193L8.55813 25.649L8.52853 25.6786L8.49895 25.7081L8.4694 25.7377L8.43988 25.7672L8.41038 25.7967L8.38091 25.8262L8.35146 25.8556L8.32205 25.885L8.29267 25.9144L8.26331 25.9438L8.23398 25.9731L8.20469 26.0024L8.17543 26.0317L8.1462 26.0609L8.117 26.0901L8.08783 26.1193L8.0587 26.1484L8.0296 26.1775L8.00054 26.2065L7.97151 26.2356L7.94252 26.2646L7.91356 26.2935L7.88465 26.3224L7.85577 26.3513L7.82692 26.3802L7.79812 26.409L7.76935 26.4377L7.74063 26.4665L7.71194 26.4951L7.6833 26.5238L7.6547 26.5524L7.62614 26.5809L7.59762 26.6095L7.56915 26.6379L7.54072 26.6664L7.51233 26.6948L7.48399 26.7231L7.45569 26.7514L7.42744 26.7796L7.39924 26.8078L7.37109 26.836L7.34298 26.8641L7.31492 26.8922L7.28691 26.9202L7.25894 26.9481L7.23103 26.9761L7.20317 27.0039L7.17536 27.0317L7.1476 27.0595L7.1199 27.0872L7.09224 27.1148L7.06464 27.1424L7.0371 27.17L7.00961 27.1975L6.98217 27.2249L6.95479 27.2523L6.92746 27.2796L6.90019 27.3069L6.87298 27.3341L6.84583 27.3613L6.81874 27.3883L6.7917 27.4154L6.76472 27.4424L6.73781 27.4693L6.71095 27.4961L6.68416 27.5229L6.65742 27.5497L6.63076 27.5763L6.60415 27.6029L6.5776 27.6295L6.55112 27.656L6.52471 27.6824L6.49836 27.7087L6.47208 27.735L6.44586 27.7612L6.41971 27.7874L6.39362 27.8135L6.36761 27.8395L6.34166 27.8654L6.31578 27.8913L6.28997 27.9171L6.26424 27.9428L6.23857 27.9685L6.21297 27.9941L6.18745 28.0196L6.162 28.0451L6.13662 28.0705L6.11131 28.0958L6.08608 28.121L6.06093 28.1462L6.03585 28.1712L6.01084 28.1962L5.98591 28.2212L5.96106 28.246L5.93629 28.2708L5.91159 28.2955L5.88698 28.3201L5.86244 28.3446L5.83798 28.3691L5.8136 28.3935L5.78931 28.4178L5.76509 28.442L5.74096 28.4661L5.71691 28.4902L5.69294 28.5141L5.66906 28.538L5.64526 28.5618L5.62155 28.5855L5.59792 28.6092L5.57437 28.6327L5.55092 28.6562L5.52755 28.6795L5.50427 28.7028L5.48108 28.726L5.45797 28.7491L5.43496 28.7721L5.41203 28.7951L5.3892 28.8179L5.36645 28.8406L5.3438 28.8633L5.32124 28.8858L5.29878 28.9083L5.2764 28.9307L5.25412 28.953L5.23194 28.9751L5.20985 28.9972L5.18785 29.0192L5.16596 29.0411L5.14416 29.0629L5.12245 29.0846L5.10084 29.1062L5.07934 29.1277L5.05793 29.1492L5.03662 29.1705L5.01541 29.1917L4.9943 29.2128L4.97329 29.2338L4.95239 29.2547L4.93158 29.2755L4.91088 29.2962L4.89029 29.3168L4.86979 29.3373L4.8494 29.3577L4.82912 29.378L4.80894 29.3981L4.78887 29.4182L4.76891 29.4382L4.74905 29.458L4.7293 29.4778L4.70966 29.4974L4.69013 29.517L4.67071 29.5364L4.6514 29.5557L4.6322 29.5749L4.61311 29.594L4.59413 29.613L4.57527 29.6318L4.55651 29.6506L4.53788 29.6692L4.51935 29.6877L4.50094 29.7061L4.48265 29.7244L4.46447 29.7426L4.44641 29.7607L4.42846 29.7786L4.41064 29.7964L4.39293 29.8142L4.37534 29.8317L4.35787 29.8492L4.34051 29.8666L4.32328 29.8838L4.30617 29.9009L4.28918 29.9179L4.27232 29.9348L4.25557 29.9515L4.23895 29.9681L4.22246 29.9846L4.20608 30.001L4.18984 30.0172L4.17371 30.0334L4.15772 30.0494L4.14185 30.0652L4.12611 30.081L4.11049 30.0966L4.095 30.1121L4.07965 30.1274L4.06442 30.1427L4.04932 30.1578L4.03435 30.1727L4.01951 30.1876L4.00481 30.2023L3.99024 30.2168L3.9758 30.2313L3.96149 30.2456L3.94732 30.2598L3.93328 30.2738L3.91937 30.2877L3.90561 30.3015L3.89197 30.3151L3.87848 30.3286L3.86512 30.342L3.8519 30.3552L3.83882 30.3683L3.82588 30.3812L3.81307 30.394L3.80041 30.4067L3.78789 30.4192L3.7755 30.4316L3.76327 30.4438L3.75117 30.4559L3.73921 30.4679L3.7274 30.4797L3.71574 30.4913L3.70421 30.5029L3.69284 30.5142L3.68161 30.5255L3.67052 30.5366L3.65958 30.5475L3.64879 30.5583L3.63815 30.5689L3.62765 30.5794L3.61731 30.5898L3.60711 30.6L3.59707 30.61L3.58717 30.6199L3.57743 30.6297L3.56784 30.6392L3.5584 30.6487L3.54911 30.658L3.53998 30.6671L3.531 30.6761L3.52218 30.6849L3.51351 30.6936L3.505 30.7021L3.49664 30.7104L3.48844 30.7186L3.4804 30.7267L3.47252 30.7346L3.4648 30.7423L3.45723 30.7499L3.44983 30.7573L3.44258 30.7645L3.4355 30.7716L3.42857 30.7785L3.42181 30.7853L3.41521 30.7919L3.40878 30.7983L3.40251 30.8046L3.3964 30.8107L3.39046 30.8166L3.38468 30.8224L3.37907 30.828L3.37363 30.8335L3.36835 30.8387L3.36324 30.8438L3.3583 30.8488L3.35353 30.8536L2.64642 30.1464L2.6512 30.1417L2.65614 30.1367L2.66125 30.1316L2.66652 30.1263L2.67197 30.1209L2.67758 30.1153L2.68335 30.1095L2.6893 30.1036L2.6954 30.0975L2.70167 30.0912L2.70811 30.0848L2.71471 30.0782L2.72147 30.0714L2.72839 30.0645L2.73547 30.0574L2.74272 30.0502L2.75012 30.0427L2.75769 30.0352L2.76541 30.0275L2.7733 30.0196L2.78134 30.0115L2.78954 30.0033L2.79789 29.995L2.8064 29.9865L2.81507 29.9778L2.8239 29.969L2.83287 29.96L2.84201 29.9509L2.85129 29.9416L2.86073 29.9321L2.87032 29.9225L2.88007 29.9128L2.88996 29.9029L2.90001 29.8929L2.9102 29.8827L2.92055 29.8723L2.93104 29.8618L2.94168 29.8512L2.95247 29.8404L2.96341 29.8295L2.9745 29.8184L2.98573 29.8071L2.99711 29.7958L3.00863 29.7842L3.0203 29.7726L3.03211 29.7608L3.04406 29.7488L3.05616 29.7367L3.0684 29.7245L3.08078 29.7121L3.0933 29.6996L3.10597 29.6869L3.11877 29.6741L3.13171 29.6612L3.14479 29.6481L3.15801 29.6349L3.17137 29.6215L3.18487 29.608L3.1985 29.5944L3.21227 29.5806L3.22617 29.5667L3.24021 29.5527L3.25438 29.5385L3.26869 29.5242L3.28313 29.5097L3.2977 29.4952L3.31241 29.4805L3.32724 29.4656L3.34221 29.4507L3.35731 29.4356L3.37254 29.4203L3.3879 29.405L3.40338 29.3895L3.419 29.3739L3.43474 29.3581L3.45061 29.3423L3.46661 29.3263L3.48273 29.3101L3.49898 29.2939L3.51535 29.2775L3.53185 29.261L3.54847 29.2444L3.56521 29.2277L3.58208 29.2108L3.59907 29.1938L3.61618 29.1767L3.63341 29.1595L3.65076 29.1421L3.66823 29.1246L3.68582 29.107L3.70353 29.0893L3.72136 29.0715L3.7393 29.0536L3.75736 29.0355L3.77554 29.0173L3.79384 28.999L3.81224 28.9806L3.83077 28.9621L3.84941 28.9435L3.86816 28.9247L3.88702 28.9058L3.906 28.8869L3.92509 28.8678L3.94429 28.8486L3.9636 28.8293L3.98302 28.8098L4.00256 28.7903L4.0222 28.7707L4.04194 28.7509L4.0618 28.7311L4.08177 28.7111L4.10184 28.691L4.12201 28.6709L4.1423 28.6506L4.16269 28.6302L4.18318 28.6097L4.20378 28.5891L4.22448 28.5684L4.24528 28.5476L4.26619 28.5267L4.28719 28.5057L4.3083 28.4846L4.32951 28.4634L4.35082 28.442L4.37223 28.4206L4.39374 28.3991L4.41534 28.3775L4.43705 28.3558L4.45885 28.334L4.48075 28.3121L4.50274 28.2901L4.52483 28.268L4.54702 28.2459L4.5693 28.2236L4.59167 28.2012L4.61414 28.1787L4.6367 28.1562L4.65935 28.1335L4.68209 28.1108L4.70493 28.0879L4.72785 28.065L4.75086 28.042L4.77397 28.0189L4.79716 27.9957L4.82044 27.9724L4.84381 27.9491L4.86727 27.9256L4.89081 27.9021L4.91444 27.8784L4.93815 27.8547L4.96195 27.8309L4.98584 27.807L5.0098 27.7831L5.03385 27.759L5.05799 27.7349L5.0822 27.7107L5.1065 27.6864L5.13088 27.662L5.15533 27.6375L5.17987 27.613L5.20449 27.5884L5.22918 27.5637L5.25396 27.5389L5.27881 27.5141L5.30374 27.4891L5.32874 27.4641L5.35382 27.439L5.37898 27.4139L5.40421 27.3887L5.42951 27.3634L5.45489 27.338L5.48034 27.3125L5.50587 27.287L5.53146 27.2614L5.55713 27.2357L5.58287 27.21L5.60868 27.1842L5.63455 27.1583L5.6605 27.1324L5.68652 27.1064L5.7126 27.0803L5.73875 27.0541L5.76497 27.0279L5.79125 27.0016L5.8176 26.9753L5.84402 26.9489L5.8705 26.9224L5.89704 26.8958L5.92365 26.8692L5.95032 26.8426L5.97705 26.8158L6.00385 26.789L6.0307 26.7622L6.05762 26.7353L6.08459 26.7083L6.11163 26.6812L6.13872 26.6541L6.16588 26.627L6.19309 26.5998L6.22036 26.5725L6.24768 26.5452L6.27506 26.5178L6.3025 26.4904L6.32999 26.4629L6.35754 26.4353L6.38514 26.4077L6.41279 26.3801L6.4405 26.3524L6.46826 26.3246L6.49607 26.2968L6.52393 26.2689L6.55184 26.241L6.5798 26.2131L6.60781 26.1851L6.63587 26.157L6.66398 26.1289L6.69213 26.1007L6.72034 26.0725L6.74859 26.0443L6.77688 26.016L6.80522 25.9876L6.83361 25.9593L6.86204 25.9308L6.89052 25.9024L6.91903 25.8738L6.94759 25.8453L6.97619 25.8167L7.00484 25.788L7.03352 25.7593L7.06225 25.7306L7.09101 25.7019L7.11982 25.6731L7.14866 25.6442L7.17754 25.6153L7.20646 25.5864L7.23541 25.5575L7.2644 25.5285L7.29343 25.4994L7.32249 25.4704L7.35159 25.4413L7.38072 25.4121L7.40989 25.383L7.43909 25.3538L7.46832 25.3245L7.49758 25.2953L7.52688 25.266L7.5562 25.2367L7.58556 25.2073L7.61494 25.1779L7.64436 25.1485L7.6738 25.1191L7.70327 25.0896L7.73277 25.0601L7.76229 25.0306L7.79185 25.001L7.82142 24.9714L7.85103 24.9418L7.88065 24.9122L7.9103 24.8826L7.93998 24.8529L7.96968 24.8232L7.9994 24.7935L8.02914 24.7637L8.0589 24.734L8.08868 24.7042L8.11849 24.6744L8.14831 24.6446L8.17815 24.6147L8.20801 24.5849L8.23789 24.555L8.26779 24.5251L8.2977 24.4952L8.32763 24.4652L8.35757 24.4353L8.38753 24.4053L8.4175 24.3754L8.44749 24.3454L8.47749 24.3154L8.50751 24.2854L8.53753 24.2553L8.56757 24.2253L8.59762 24.1953L8.62768 24.1652L8.65775 24.1351L8.68783 24.105L8.71791 24.075L8.74801 24.0449L8.77811 24.0148L8.80822 23.9846L8.83834 23.9545L8.86846 23.9244L8.89859 23.8943L8.92873 23.8641L8.95886 23.834L8.98901 23.8039L9.01915 23.7737L9.0493 23.7436L9.07945 23.7134L9.1096 23.6833L9.13975 23.6531L9.1699 23.623L9.20006 23.5928L9.23021 23.5627L9.26036 23.5325L9.29051 23.5024L9.32065 23.4722L9.3508 23.4421L9.38093 23.4119L9.41107 23.3818L9.4412 23.3517L9.47133 23.3215L9.50145 23.2914L9.53156 23.2613L9.56167 23.2312L9.59176 23.2011L9.62185 23.171L9.65194 23.1409L9.68201 23.1109L9.71207 23.0808L9.74213 23.0507L9.77217 23.0207L9.8022 22.9907L9.83222 22.9607L9.86222 22.9306L9.89222 22.9007L9.9222 22.8707L9.95216 22.8407L9.98211 22.8108L10.012 22.7808L10.042 22.7509L10.0719 22.721L10.1018 22.6911L10.1316 22.6612L10.1615 22.6314L10.1913 22.6016L10.2211 22.5718L10.2509 22.542L10.2807 22.5122L10.3104 22.4824L10.3402 22.4527L10.3699 22.423L10.3995 22.3933L10.4292 22.3637L10.4588 22.334L10.4885 22.3044L10.518 22.2748L10.5476 22.2453L10.5771 22.2157L10.6066 22.1862L10.6361 22.1567L10.6656 22.1273L10.695 22.0979L10.7244 22.0685L10.7538 22.0391L10.7831 22.0098L10.8124 21.9805L10.8417 21.9512L10.8709 21.9219L10.9001 21.8927L10.9293 21.8635L10.9585 21.8344L10.9876 21.8053L11.0167 21.7762L11.0457 21.7472L11.0747 21.7182L11.1037 21.6892L11.1326 21.6603L11.1615 21.6314L11.1904 21.6025L11.2192 21.5737L11.248 21.5449L11.2767 21.5162L11.3054 21.4875L11.3341 21.4588L11.3627 21.4302L11.3913 21.4016L11.4198 21.3731L11.4483 21.3446L11.4767 21.3161L11.5051 21.2877L11.5335 21.2594L11.5618 21.2311L11.5901 21.2028L11.6183 21.1746L11.6465 21.1464L11.6746 21.1183L11.7027 21.0902L11.7307 21.0622L11.7587 21.0342L11.7866 21.0062L11.8145 20.9784L11.8423 20.9505L11.8701 20.9228L11.8978 20.895L11.9255 20.8674L11.9531 20.8397L11.9807 20.8122L12.0082 20.7847L12.0357 20.7572L12.0631 20.7298L12.0904 20.7024L12.1177 20.6752L12.145 20.6479L12.1721 20.6207L12.1992 20.5936L12.2263 20.5666L12.2533 20.5396L12.2802 20.5126L12.3071 20.4857L12.3339 20.4589L12.3607 20.4322L12.3874 20.4055L12.414 20.3788L12.4406 20.3523L12.4671 20.3258L12.4935 20.2993L12.5199 20.273L12.5462 20.2466L12.5725 20.2204L12.5986 20.1942L12.6248 20.1681L12.6508 20.1421L12.6768 20.1161L12.7027 20.0902L12.7285 20.0644L12.7543 20.0386L12.78 20.0129L12.8056 19.9873L12.8312 19.9617L12.8566 19.9362L12.882 19.9108L12.9074 19.8855L12.9326 19.8602L12.9578 19.835L12.9829 19.8099L13.008 19.7849L13.0329 19.7599L13.0578 19.7351L13.0826 19.7103L13.1073 19.6855L13.132 19.6609L13.1566 19.6363L13.181 19.6118L13.2055 19.5874L13.2298 19.5631L13.254 19.5388L13.2782 19.5147L13.3023 19.4906L13.3263 19.4666L13.3502 19.4427L13.374 19.4188L13.3978 19.3951L13.4214 19.3714L13.445 19.3479L13.4685 19.3244L13.4919 19.301L13.5152 19.2776L13.5385 19.2544L13.5616 19.2313L13.5846 19.2082L13.6076 19.1853L13.6305 19.1624L13.6533 19.1396L13.6759 19.1169L13.6985 19.0943L13.721 19.0718L13.7435 19.0494L13.7658 19.0271L13.788 19.0049L13.8101 18.9827L13.8322 18.9607L13.8541 18.9388L13.8759 18.9169L13.8977 18.8952L13.9193 18.8736L13.9409 18.852L13.9623 18.8306L13.9837 18.8092L14.0049 18.788L14.0261 18.7668L14.0471 18.7458L14.0681 18.7248L14.0889 18.704L14.1096 18.6832L14.1303 18.6626L14.1508 18.6421L14.1712 18.6216L14.1916 18.6013L14.2118 18.5811L14.2319 18.561L14.2519 18.541L14.2718 18.5211L14.2916 18.5013L14.3113 18.4816L14.3309 18.462L14.3503 18.4425L14.3697 18.4232L14.3889 18.4039L14.4081 18.3848L14.4271 18.3658L14.446 18.3469L14.4648 18.3281L14.4835 18.3094L14.502 18.2908L14.5205 18.2724L14.5388 18.254L14.5571 18.2358L14.5752 18.2177L14.5932 18.1997L14.611 18.1818L14.6288 18.1641L14.6464 18.1464L15 17.7929L15.3535 18.1464L22.0061 24.799L35.2623 12H30V11Z" fill="black"/>
</svg>
