<svg width="40" height="40" viewBox="0 0 40 40" fill="none" xmlns="http://www.w3.org/2000/svg">
<path fill-rule="evenodd" clip-rule="evenodd" d="M22.6879 2.53669C22.9141 2.62842 23.0411 2.87017 22.9881 3.10852L20.1233 16.0001H29C29.1828 16.0001 29.351 16.0998 29.4387 16.2602C29.5264 16.4206 29.5196 16.616 29.4209 16.7699L16.9209 36.2699C16.7901 36.474 16.5317 36.5548 16.3079 36.4617C16.0841 36.3685 15.9593 36.1283 16.0119 35.8916L18.8767 23.0001H10.5C10.3189 23.0001 10.1519 22.9021 10.0635 22.744C9.97516 22.5858 9.97924 22.3923 10.0742 22.238L22.0742 2.73801C22.2021 2.53006 22.4616 2.44495 22.6879 2.53669ZM11.3948 22.0001H19.5C19.6517 22.0001 19.7951 22.0689 19.89 22.1872C19.9849 22.3055 20.021 22.4605 19.9881 22.6085L17.5991 33.3589L28.0856 17.0001H19.5C19.3483 17.0001 19.2049 16.9312 19.11 16.8129C19.0151 16.6946 18.979 16.5396 19.0119 16.3916L21.3665 5.79607L11.3948 22.0001Z" fill="black"/>
</svg>
