<svg width="80" height="80" viewBox="0 0 80 80" fill="none" xmlns="http://www.w3.org/2000/svg">
<path fill-rule="evenodd" clip-rule="evenodd" d="M66 40.5C66 55.1355 54.1355 67 39.5 67C24.8645 67 13 55.1355 13 40.5C13 25.8645 24.8645 14 39.5 14C54.1355 14 66 25.8645 66 40.5ZM67 40.5C67 55.6878 54.6878 68 39.5 68C24.3122 68 12 55.6878 12 40.5C12 25.3122 24.3122 13 39.5 13C54.6878 13 67 25.3122 67 40.5ZM34.3893 38.4635C31.1626 36.5463 29 33.0257 29 29C29 23.262 33.3935 18.5501 39 18.0448V35.0224C36.8997 35.2117 35.1399 36.5817 34.3893 38.4635ZM40 18V35.0224C40.1856 35.0391 40.3685 35.0651 40.5483 35.0998C42.6086 31.458 46.5172 29 51 29C57.2907 29 62.4508 33.8405 62.9589 40C62.9861 40.3297 63 40.6632 63 41H62L44.9776 41C44.9609 41.1856 44.9349 41.3685 44.9002 41.5483C48.542 43.6086 51 47.5172 51 52C51 58.2907 46.1595 63.4508 40 63.9589C39.6703 63.9861 39.3368 64 39 64V63V45.9776C38.8144 45.9609 38.6315 45.9349 38.4517 45.9002C36.3914 49.542 32.4828 52 28 52C21.7093 52 16.5492 47.1595 16.0411 41C16.0139 40.6703 16 40.3368 16 40H17L34.0224 40C34.0391 39.8144 34.0651 39.6315 34.0998 39.4517C30.458 37.3914 28 33.4828 28 29C28 22.7093 32.8405 17.5492 39 17.0411C39.3297 17.0139 39.6632 17 40 17V18ZM44.9776 40C44.7883 37.8997 43.4183 36.1399 41.5365 35.3893C43.4537 32.1626 46.9743 30 51 30C56.738 30 61.4499 34.3935 61.9552 40L44.9776 40ZM40 45.9776C42.1003 45.7883 43.8601 44.4183 44.6107 42.5365C47.8374 44.4537 50 47.9743 50 52C50 57.738 45.6065 62.4499 40 62.9552L40 45.9776ZM34.0224 41C34.2117 43.1003 35.5817 44.8601 37.4635 45.6107C35.5463 48.8374 32.0257 51 28 51C22.262 51 17.5501 46.6065 17.0448 41L34.0224 41ZM39.5 45C41.9853 45 44 42.9853 44 40.5C44 38.0147 41.9853 36 39.5 36C37.0147 36 35 38.0147 35 40.5C35 42.9853 37.0147 45 39.5 45Z" fill="black"/>
</svg>
