<svg width="80" height="80" viewBox="0 0 80 80" fill="none" xmlns="http://www.w3.org/2000/svg">
<path d="M42.375 63.3333H9.99999V60H41.75C41.7083 59.4583 41.6667 58.875 41.6667 58.3333C41.6667 57.7917 41.7083 57.2083 41.75 56.6667H35V31.6667H45V47.7917C45.9583 46.4583 47.0833 45.25 48.3333 44.1667V31.6667H55V40.7083C56.0833 40.4167 57.2083 40.2083 58.3333 40.0833V31.6667H65V40.7083C66.1667 41.0417 67.2917 41.4583 68.3333 42V31.6667H73.3333V23.7917L40 13.25L6.66666 23.625V31.6667H11.6667V56.6667H6.66666V66.6667H43.6667C43.125 65.625 42.7083 64.5 42.375 63.3333ZM21.6667 56.6667H15V31.6667H21.6667V56.6667ZM31.6667 56.6667H25V31.6667H31.6667V56.6667ZM9.99999 28.3333V26.0833L40 16.75L70 26.2083V28.3333H9.99999ZM75 58.4167C75 50.2083 68.3333 43.5 60.125 43.375H60H59.875C51.6667 43.375 45 50.125 45 58.4583C45 66.7083 51.7083 73.375 60 73.375C68.2917 73.3333 75 66.625 75 58.4167ZM71.5417 56.6667H66.625C66.4583 53.4167 65.875 50.25 64.875 47.8333C68.3333 49.5 70.9167 52.7917 71.5417 56.6667ZM60 70C59.125 70 57 66.5 56.7083 60H63.2917C63 66.5 60.875 70 60 70ZM56.7083 56.6667C57 50.2083 59.0833 46.75 59.9583 46.6667H60.0417C60.9583 46.75 63 50.25 63.2917 56.6667H56.7083ZM55.1667 47.6667C54.125 50.125 53.5 53.3333 53.375 56.6667H48.4583C49.0417 52.6667 51.625 49.2917 55.1667 47.6667ZM48.4583 60H53.375C53.5417 63.2917 54.125 66.5 55.1667 68.9583C51.5833 67.3333 49 64 48.4583 60ZM64.8333 68.9583C65.875 66.5 66.4583 63.2917 66.625 60H71.5417C71 64 68.4167 67.3333 64.8333 68.9583Z" fill="black"/>
</svg>
