<svg width="40" height="41" viewBox="0 0 40 41" fill="none" xmlns="http://www.w3.org/2000/svg">
<path d="M2 35.3495H2.96054V29.6906H2V35.3495ZM2 28.8971H2.96054V27.7278H2V28.8971Z" fill="#1D1D1B"/>
<path d="M7.28345 29.6072C8.64074 29.6072 9.14189 30.4842 9.14189 31.7788V35.3704H8.18135V32.0712C8.18135 31.1942 8.03518 30.4424 6.92847 30.4424C6.00969 30.4424 5.42501 31.0898 5.42501 32.3009V35.3704H4.48535V29.7116H5.44589V30.5677C5.78 30.0039 6.32291 29.6072 7.28345 29.6072Z" fill="#1D1D1B"/>
<path d="M13.9016 29.6907H14.883L12.7531 35.3704H11.897L9.76709 29.6907H10.832L12.3564 34.034" fill="#1D1D1B"/>
<path d="M19.5399 32.0294C19.519 31.2359 18.9134 30.4216 17.9111 30.4216C17.055 30.4216 16.2824 30.8809 16.1989 32.0294H19.5399ZM17.932 34.6605C18.7673 34.6605 19.2475 34.2846 19.4772 33.7208H20.4587C20.1872 34.7022 19.3102 35.4957 17.932 35.4957C16.1362 35.4957 15.1548 34.2011 15.1548 32.5306C15.1548 30.7348 16.345 29.5863 17.8902 29.5863C19.6234 29.5863 20.6675 31.048 20.5422 32.8229H16.178C16.2197 34.0758 17.0968 34.6605 17.932 34.6605Z" fill="#1D1D1B"/>
<path d="M23.946 30.6512C23.069 30.6512 22.6096 31.1524 22.6096 32.3844V35.3495H21.6699V29.6907H22.6096V30.6721C22.9019 30.0248 23.4657 29.6698 24.1966 29.6489C24.301 29.6489 24.3845 29.6489 24.4889 29.6698V30.693C24.2801 30.6721 24.113 30.6512 23.946 30.6512Z" fill="#1D1D1B"/>
<path d="M26.6402 28.2708V29.6907H27.7051V30.4633H26.6402V33.8252C26.6402 34.4099 26.6819 34.556 27.2249 34.556H27.7051V35.3495H27.016C25.9302 35.3495 25.6796 35.099 25.6796 33.9296V30.4633H24.7817V29.6907H25.6796V28.2708" fill="#1D1D1B"/>
<path d="M32.7576 32.0294C32.7368 31.2359 32.1312 30.4216 31.1289 30.4216C30.2728 30.4216 29.5002 30.8809 29.4166 32.0294H32.7576ZM31.1498 34.6605C31.985 34.6605 32.4653 34.2846 32.695 33.7208H33.6764C33.405 34.7022 32.5279 35.4957 31.1498 35.4957C29.354 35.4957 28.3726 34.2011 28.3726 32.5306C28.3726 30.7348 29.5628 29.5863 31.108 29.5863C32.8412 29.5863 33.8852 31.048 33.7599 32.8229H29.3957C29.4584 34.0758 30.3145 34.6605 31.1498 34.6605Z" fill="#1D1D1B"/>
<path d="M37.1846 30.6512C36.3076 30.6512 35.8482 31.1524 35.8482 32.3844V35.3495H34.8877V29.6907H35.8274V30.6721C36.1197 30.0248 36.6835 29.6698 37.4143 29.6489C37.4979 29.6489 37.6023 29.6489 37.7067 29.6698V30.693C37.5187 30.6721 37.3308 30.6512 37.1846 30.6512Z" fill="#1D1D1B"/>
<path d="M6.636 19.5006V20.9832H3.52468V22.2361H6.44807V23.7395H3.52468V26.7047H2.06299V19.5006" fill="#1D1D1B"/>
<path d="M8.5364 23.8022C8.5364 24.8462 8.74521 25.4518 9.7684 25.4518C10.7916 25.4518 10.9795 24.7836 10.9795 23.7186V19.5006H12.4412V23.5725C12.4412 25.7859 11.7104 26.8508 9.7684 26.8508C7.90996 26.8508 7.07471 26.0156 7.07471 23.6351V19.5006H8.5364" fill="#1D1D1B"/>
<path d="M17.8907 25.2012V26.7047H13.4639V19.5006H14.9256V25.2012" fill="#1D1D1B"/>
<path d="M22.8813 25.2012V26.7047H18.4336V19.5006H19.8953V25.2012" fill="#1D1D1B"/>
<path d="M26.7228 20.9205V25.2639H27.3284C28.4142 25.2639 29.3747 24.9924 29.3747 23.0922C29.3747 21.192 28.3933 20.9205 27.3284 20.9205H26.7228ZM30.92 23.0922C30.92 25.8485 29.3121 26.7047 27.2866 26.7047H25.2402V19.5006H27.2866C29.333 19.5006 30.92 20.3359 30.92 23.0922Z" fill="#1D1D1B"/>
<path d="M34.5547 26.8299C32.6336 26.8299 31.4434 25.3891 31.4434 23.0921C31.4434 20.8161 32.6545 19.3752 34.5964 19.3752C36.1625 19.3752 37.2484 20.5446 37.4572 22.1942H36.0164C35.8493 21.2128 35.2229 20.7952 34.5338 20.7952C33.6568 20.7952 32.9886 21.6513 32.9886 23.113C32.9886 24.6373 33.6568 25.4517 34.5547 25.4517C35.1811 25.4517 35.8911 25.1385 36.0581 24.0318H37.499C37.2901 25.6814 36.1208 26.8299 34.5547 26.8299Z" fill="#1D1D1B"/>
<path d="M2.271 11.5865L5.31967 8.57961C8.91127 5.02978 13.7349 5.02978 17.3473 8.57961L23.4447 14.5934C27.0363 18.1433 31.8599 18.1433 35.4515 14.5934L38.5001 11.5865" stroke="#1D1D1B" stroke-miterlimit="10" stroke-linejoin="bevel"/>
</svg>
