<svg width="74" height="44" viewBox="0 0 74 44" fill="none" xmlns="http://www.w3.org/2000/svg">
<g clip-path="url(#clip0_2722_3488)">
<path d="M7.65686 43.9705H65.9872L36.9768 15.2777L7.65686 43.9705Z" fill="#7BB51C"/>
<path d="M6.54239 42.5593L11.0869 38.1745L9.57318 36.6391L6.71882 39.3943L1.69054 34.2953L0 35.9265L6.54239 42.5593Z" fill="black"/>
<path d="M12.0844 37.1759L16.7409 32.6815L15.4621 31.3859L12.5055 34.2386L11.0857 32.7989L13.4549 30.5126L12.1168 29.157L9.74754 31.4421L8.53105 30.209L11.3905 27.4491L10.1126 26.154L5.47083 30.6333L12.0844 37.1759Z" fill="black"/>
<path d="M27.3254 15.8698C25.4475 13.9658 22.1897 14.1936 20.6209 15.7078C19.0516 17.222 18.2508 20.2413 20.4668 22.4881C22.9009 24.9556 25.797 24.0593 27.3662 22.546C29.6799 20.3133 28.8563 17.4219 27.3254 15.8698ZM25.9452 21.2421C24.9064 22.2445 23.6365 21.9725 22.1856 20.5012C20.9662 19.2651 21.0394 18.0233 21.9262 17.1675C22.5358 16.579 23.7742 16.0526 25.2475 17.5465C26.9283 19.2506 26.9839 20.2397 25.9452 21.2421Z" fill="black"/>
<path d="M32.5629 17.4511L34.2808 15.7928L31.6964 13.1729L30.1494 6.80693L28.1801 8.70767L29.2045 12.3191L25.7435 11.0585L23.8866 12.8501L29.7873 14.7242L32.5629 17.4511Z" fill="black"/>
<path d="M23.4032 26.3C23.4032 26.3 19.2221 24.8891 19.0234 24.9232C18.959 24.9336 19.9215 22.4003 17.759 21.2776C17.759 21.2776 16.1543 20.4185 14.5484 21.8615L11.1256 25.1977L17.724 31.7701L19.4697 30.0856L15.8991 26.4666L21.671 27.9717L23.4032 26.3ZM16.9273 25.3975C15.9572 26.3321 15.8263 26.4058 15.8263 26.4058C15.8263 26.4058 14.3055 24.8641 14.2515 24.8095C14.1976 24.755 15.3391 23.7871 15.5189 23.6135C15.5951 23.5397 16.3059 23.0813 16.8941 23.6772C16.8941 23.6772 17.897 24.4614 16.9273 25.3975Z" fill="black"/>
<path d="M32.0299 8.06127L30.5032 6.53874L37.1686 0L39.35 2.17514L36.9487 6.8494L41.8443 4.66261L43.9433 6.75613L37.278 13.2949L35.6692 11.6907L39.1875 8.23953L34.3744 10.3993L33.3794 9.40687L35.6165 4.65095L32.0299 8.06127Z" fill="black"/>
<path d="M43.6031 19.6022L38.9816 14.9941L45.6473 8.4554L50.2819 13.0772L48.9353 14.3982L46.0317 11.503L44.9458 12.5679L47.2359 14.8517L45.8338 16.2269L43.5576 13.9567L42.1007 15.3856L44.977 18.2537L43.6031 19.6022Z" fill="black"/>
<path d="M58.8424 21.6136L60.5599 23.3269L55.5161 28.2744L58.3375 31.0871L56.7157 32.6792L52.1766 28.1527L58.8424 21.6136Z" fill="black"/>
<path d="M57.9152 33.8757L64.5809 27.3369L66.2576 29.0085L59.5918 35.5469L57.9152 33.8757Z" fill="black"/>
<path d="M62.6315 38.5793L61.0635 37.0155L67.7295 30.4772L70.006 32.7461L68.0612 39.5351L72.4736 35.2065L74 36.729L67.3346 43.2673L65.344 41.2833L67.0581 34.1561L62.6315 38.5793Z" fill="black"/>
<path d="M55.8302 18.6098L51.7817 14.5723L45.1021 21.0977L46.8195 22.8101L50.4613 19.2378L49.1505 25.1348L50.9088 26.8885C50.9088 26.8885 52.2949 22.6702 52.3375 22.4945C52.3375 22.4945 53.8394 23.3128 55.4874 21.9114C55.4874 21.9114 57.0681 20.3881 55.8302 18.6098ZM53.3581 20.5221C53.3581 20.5221 52.5072 21.0873 51.7573 20.3397L50.5859 19.1162C50.5859 19.1162 52.0011 17.7277 52.1795 17.5524C52.1795 17.5524 53.2701 18.6402 53.4065 18.7759C53.5426 18.9117 54.4023 19.5514 53.3581 20.5221Z" fill="black"/>
</g>
<defs>
<clipPath id="clip0_2722_3488">
<rect width="74" height="44" fill="white"/>
</clipPath>
</defs>
</svg>
