<svg width="80" height="80" viewBox="0 0 80 80" fill="none" xmlns="http://www.w3.org/2000/svg">
<path d="M40 38.3327C34.4858 38.3327 30 33.8468 30 28.3327C30 22.8185 34.4858 18.3327 40 18.3327C45.5141 18.3327 50 22.8185 50 28.3327C50 33.8468 45.5141 38.3327 40 38.3327ZM40 21.666C36.3241 21.666 33.3333 24.6568 33.3333 28.3327C33.3333 32.0085 36.3241 34.9993 40 34.9993C43.6758 34.9993 46.6666 32.0085 46.6666 28.3327C46.6666 24.6568 43.6758 21.666 40 21.666ZM40 73.2823L38.5641 70.8456C38.4266 70.6123 24.8183 47.5193 21.9066 42.5273C19.6358 38.8814 18.3333 33.7102 18.3333 28.3327C18.3333 16.3856 28.0529 6.66602 40 6.66602C51.9471 6.66602 61.6666 16.3856 61.6666 28.3327C61.6666 33.7098 60.3646 38.8814 58.0937 42.5273C55.1812 47.5189 41.5729 70.6127 41.4358 70.8456L40 73.2823ZM40 9.99935C29.8908 9.99935 21.6666 18.2235 21.6666 28.3327C21.6666 33.0431 22.8183 37.6973 24.7471 40.7827L24.7733 40.8264C27.0941 44.8048 36.3958 60.5985 40 66.716C43.6041 60.5981 52.9062 44.8048 55.2271 40.826L55.2533 40.7827C57.1821 37.6968 58.3333 33.0427 58.3333 28.3327C58.3333 18.2235 50.1091 9.99935 40 9.99935Z" fill="black"/>
</svg>
