<svg width="108" height="25" viewBox="0 0 108 25" fill="none" xmlns="http://www.w3.org/2000/svg">
<g clip-path="url(#clip0_3113_8186)">
<path d="M46.0444 12.1842C46.0444 12.1842 48.2322 11.4548 48.2322 9.02356C48.2322 6.17895 46.1687 4.7688 43.3344 4.7688H35.9006V20.2317H43.9808C46.467 20.2317 48.9035 18.5298 48.9035 15.9283C48.9035 12.8407 46.0444 12.2085 46.0444 12.1842ZM39.7791 7.97809H42.6631C43.5582 7.97809 44.1548 8.56161 44.1548 9.43685C44.1548 10.1176 43.6079 10.847 42.5886 10.847H39.7542V7.97809H39.7791ZM42.6879 16.9981H39.804V13.959H42.6134C44.0305 13.959 44.7018 14.5668 44.7018 15.4664C44.7018 16.5848 43.8565 16.9981 42.6879 16.9981Z" fill="#ED0007"/>
<path d="M57.4564 4.37964C52.8819 4.37964 50.1965 7.95362 50.1965 12.4758C50.1965 17.0223 52.8819 20.572 57.4564 20.572C62.0557 20.572 64.716 17.0223 64.716 12.4758C64.716 7.95362 62.0557 4.37964 57.4564 4.37964ZM57.4564 16.8764C55.2187 16.8764 54.1002 14.9071 54.1002 12.4758C54.1002 10.0446 55.2187 8.09948 57.4564 8.09948C59.6941 8.09948 60.8373 10.0689 60.8373 12.4758C60.8373 14.9071 59.6941 16.8764 57.4564 16.8764Z" fill="#ED0007"/>
<path d="M73.1435 10.8223L72.5963 10.7007C71.2541 10.4333 70.1852 10.0929 70.1852 9.14472C70.1852 8.12362 71.2046 7.71027 72.0994 7.71027C73.4168 7.71027 74.5855 8.34237 75.3317 9.14472L77.7931 6.76206C76.6739 5.52214 74.8588 4.33081 72.0251 4.33081C68.6928 4.33081 66.1819 6.15425 66.1819 9.19331C66.1819 11.965 68.2207 13.3265 70.7069 13.8371L71.2541 13.9586C73.3177 14.372 74.0886 14.688 74.0886 15.6606C74.0886 16.5844 73.2426 17.1922 71.95 17.1922C70.4089 17.1922 69.0164 16.5358 67.9475 15.1986L65.4365 17.6299C66.8282 19.2589 68.5938 20.5231 71.9995 20.5231C74.9586 20.5231 78.1159 18.8698 78.1159 15.4903C78.1407 11.965 75.406 11.2842 73.1435 10.8223Z" fill="#ED0007"/>
<path d="M86.9427 16.8765C85.2026 16.8765 83.3875 15.4663 83.3875 12.3786C83.3875 9.63124 85.078 8.0996 86.8436 8.0996C88.2361 8.0996 89.0565 8.73171 89.7029 9.82577L92.8849 7.75921C91.2935 5.40085 89.4041 4.40405 86.7941 4.40405C82.0198 4.40405 79.4346 8.02663 79.4346 12.403C79.4346 16.998 82.2938 20.5963 86.7437 20.5963C89.877 20.5963 91.3686 19.5266 92.9847 17.2412L89.7772 15.1259C89.1308 16.1471 88.435 16.8765 86.9427 16.8765Z" fill="#ED0007"/>
<path d="M103.501 4.7439V10.433H98.7032V4.7439H94.5513V20.2068H98.7032V14.1043H103.501V20.2068H107.653V4.7439H103.501Z" fill="#ED0007"/>
<path d="M11.9835 0.78125C5.37022 0.78125 0 6.03281 0 12.5C0 18.9672 5.37022 24.2188 11.9835 24.2188C18.5968 24.2188 23.967 18.9672 23.967 12.5C23.967 6.03281 18.5968 0.78125 11.9835 0.78125ZM11.9835 23.1247C5.99176 23.1247 1.11878 18.3594 1.11878 12.5C1.11878 6.64062 5.99176 1.87531 11.9835 1.87531C17.9753 1.87531 22.8483 6.64062 22.8483 12.5C22.8483 18.3594 17.9753 23.1247 11.9835 23.1247Z" fill="#202020"/>
<path d="M16.9311 5.18188H16.1106V9.19352H7.88128V5.18188H7.03596C4.62432 6.7622 3.0083 9.43665 3.0083 12.5C3.0083 15.5634 4.62432 18.2378 7.03596 19.8182H7.88128V15.8066H16.1106V19.8182H16.9311C19.3676 18.2378 20.9587 15.5634 20.9587 12.5C20.9587 9.43665 19.3676 6.7622 16.9311 5.18188ZM6.73765 18.2378C5.07186 16.8034 4.10224 14.7368 4.10224 12.5C4.10224 10.2633 5.07186 8.19665 6.73765 6.7622V18.2378ZM16.1106 14.6882H7.88128V10.2876H16.1106C16.1106 10.3119 16.1106 14.6882 16.1106 14.6882ZM17.2295 18.2135V15.7823V9.19352V6.7622C18.8703 8.19665 19.84 10.2633 19.84 12.4757C19.84 14.7125 18.8703 16.7791 17.2295 18.2135Z" fill="#202020"/>
</g>
<defs>
<clipPath id="clip0_3113_8186">
<rect width="108" height="25" fill="white"/>
</clipPath>
</defs>
</svg>
