<svg width="80" height="80" viewBox="0 0 80 80" fill="none" xmlns="http://www.w3.org/2000/svg">
<path d="M6.66666 23.334V56.6673H73.3333V23.334H6.66666ZM70 53.334H10V26.6673H70V53.334ZM34.6792 44.4448H33.0554V41.1115H34.1958C34.1792 40.754 34.1667 40.3873 34.1667 40.0007C34.1667 39.614 34.1787 39.2473 34.1958 38.8894H33.0558V35.5561H34.6792C35.9375 30.8294 39.2417 30.0007 41.3887 30.0007C43.7383 30.0007 46.8796 30.9115 48.5054 35.2494L45.3837 36.4186C44.5842 34.2852 43.3521 33.334 41.3887 33.334C40.7221 33.334 39.1121 33.3361 38.1862 35.5561H42.7779V38.8894H37.5304C37.5108 39.2382 37.5 39.6069 37.5 40.0007C37.5 40.3944 37.5108 40.7632 37.5304 41.1119H42.7779V44.4452H38.1862C39.1121 46.6652 40.7221 46.6673 41.3887 46.6673C42.5871 46.6673 44.3054 46.3452 45.3917 43.5615L48.4971 44.7732C46.8108 49.094 43.7012 50.0007 41.3887 50.0007C39.2412 50.0007 35.9375 49.1723 34.6792 44.4448Z" fill="black"/>
</svg>
