<svg width="90" height="20" viewBox="0 0 90 20" fill="none" xmlns="http://www.w3.org/2000/svg">
<g clip-path="url(#clip0_2722_3457)">
<path fill-rule="evenodd" clip-rule="evenodd" d="M10.8193 0.054701C8.79594 -0.161671 6.75625 0.263471 4.9806 1.27169C3.20493 2.27991 1.78044 3.82171 0.90292 5.68517C0.0254036 7.54864 -0.262058 9.64226 0.080046 11.6783C0.422151 13.7144 1.37703 15.5929 2.81343 17.0556C4.24983 18.5184 6.09724 19.4936 8.10175 19.8472C10.1062 20.2008 12.1694 19.9154 14.0076 19.0303C15.8459 18.1452 17.369 16.7039 18.3676 14.9043C19.3663 13.1048 19.7913 11.0354 19.5844 8.98071C19.3568 6.69671 18.3609 4.56209 16.7644 2.93631C15.1679 1.31053 13.0684 0.292873 10.8193 0.054701ZM10.5002 15.2879C9.41194 15.4362 8.30538 15.2345 7.33588 14.7112C6.36644 14.188 5.58285 13.3695 5.09525 12.3708C4.60766 11.3721 4.44058 10.2434 4.6175 9.14329C4.79441 8.04322 5.30642 7.02703 6.08158 6.23764C6.85675 5.44824 7.85606 4.92526 8.93913 4.74221C10.0222 4.55917 11.1345 4.72526 12.1198 5.21713C13.105 5.70901 13.9137 6.50193 14.4321 7.48451C14.9506 8.46709 15.1527 9.58987 15.0101 10.6951C14.8605 11.8575 14.3376 12.9375 13.5223 13.7679C12.7069 14.5981 11.6448 15.1324 10.5002 15.2879ZM24.8516 0.450215C24.5101 0.451046 24.173 0.529169 23.8649 0.678902C23.5569 0.828631 23.2856 1.0462 23.0708 1.31579C22.8559 1.58537 22.703 1.90019 22.6231 2.23731C22.5433 2.57445 22.5384 2.92542 22.6089 3.26469C22.825 4.36382 23.8363 5.11483 24.9379 5.11483H31.3309L21.3819 18.4812C21.3084 18.5798 21.2633 18.6974 21.2518 18.8206C21.2404 18.9438 21.2629 19.0678 21.317 19.1787C21.3711 19.2897 21.4545 19.3831 21.5579 19.4486C21.6614 19.5141 21.7808 19.549 21.9026 19.5495H37.5086C38.6095 19.5495 39.6215 18.7987 39.8376 17.6994C39.9081 17.3601 39.9033 17.0092 39.8235 16.6721C39.7437 16.335 39.5909 16.0203 39.3762 15.7506C39.1614 15.481 38.8903 15.2634 38.5823 15.1136C38.2743 14.9637 37.9373 14.8855 37.5958 14.8845H29.8064L39.7478 1.52858C39.8221 1.42895 39.8676 1.31026 39.8791 1.18585C39.8907 1.06144 39.8679 0.936211 39.8133 0.824224C39.7586 0.712237 39.6743 0.617924 39.5698 0.551861C39.4653 0.485798 39.3448 0.450599 39.2217 0.450215H24.8516ZM87.2118 0.50402C86.6956 0.628746 86.2362 0.928747 85.9099 1.35441C85.5843 1.78008 85.4112 2.30593 85.4193 2.84501V10.6114L73.0237 0.596905C72.9262 0.518567 72.8093 0.46968 72.6862 0.455868C72.5624 0.442055 72.4381 0.463878 72.3262 0.518827C72.2143 0.573776 72.1206 0.659618 72.0543 0.766476C71.9887 0.873334 71.9543 0.996869 71.9543 1.12288V17.1588C71.9462 17.6979 72.1193 18.2238 72.4449 18.6495C72.7712 19.0752 73.2299 19.3752 73.7468 19.4999C74.0825 19.5748 74.4299 19.5723 74.7649 19.4926C75.0993 19.4129 75.4118 19.2579 75.6793 19.0393C75.9468 18.8206 76.1624 18.5437 76.3106 18.229C76.4587 17.9143 76.5356 17.5699 76.535 17.2212V9.38755L88.9312 19.4023C89.0287 19.4805 89.1456 19.5294 89.2687 19.5432C89.3918 19.557 89.5168 19.5352 89.6281 19.4803C89.7399 19.4254 89.8343 19.3395 89.8999 19.2327C89.9656 19.1259 90.0006 19.0024 89.9999 18.8764V2.78196C90.0006 2.43329 89.9237 2.08898 89.7756 1.77442C89.6274 1.45986 89.4118 1.18307 89.1437 0.964456C88.8762 0.745844 88.5637 0.590986 88.2293 0.511297C87.895 0.431608 87.5474 0.429122 87.2118 0.50402ZM54.9361 4.66834C60.1793 4.66834 64.0968 7.48129 64.0968 9.99748C64.0968 12.5137 60.1793 15.3266 54.9361 15.3266C49.6929 15.3266 45.7752 12.5137 45.7752 9.99748C45.7752 7.48129 49.6929 4.66834 54.9361 4.66834ZM54.9361 0.00391662C47.3468 0.00391662 41.1946 4.47823 41.1946 9.99748C41.1946 15.5168 47.3468 19.9911 54.9361 19.9911C62.5256 19.9911 68.6774 15.5168 68.6774 9.99748C68.6774 4.47823 62.5249 0.00391662 54.9361 0.00391662Z" fill="#0069FF"/>
</g>
<defs>
<clipPath id="clip0_2722_3457">
<rect width="90" height="20" fill="white"/>
</clipPath>
</defs>
</svg>
