<svg width="40" height="40" viewBox="0 0 40 40" fill="none" xmlns="http://www.w3.org/2000/svg">
<path d="M13.7757 25.7923H15.9729L13.4224 20.5353C14.8205 20.0399 15.5119 19.0333 15.5119 17.5473C15.5119 14.9747 13.8218 14.2077 10.5492 14.2077H7V25.7923H8.95129V20.9188H10.8411C11.0409 20.9188 11.2406 20.9188 11.425 20.9028L13.7757 25.7923ZM10.8258 15.8375C12.3622 15.8375 13.5146 16.0453 13.5146 17.5632C13.5146 18.9534 12.562 19.3049 10.8872 19.3049H8.95129V15.8375H10.8258Z" fill="black"/>
<path d="M20.7929 24.53C19.3486 24.53 18.5958 23.4754 18.4268 22.1971H16.6445C16.7674 24.2423 18.1963 26 20.7622 26C22.99 26 24.9413 24.8495 24.9413 22.4847C24.9413 21.3023 24.3575 20.1678 23.0207 19.6565C24.0041 19.1611 24.6494 18.2024 24.6494 17.0519C24.6494 14.8788 22.8056 14 20.9465 14C18.4882 14 16.9518 15.4541 16.7827 17.6591H18.565C18.734 16.3009 19.4869 15.4541 20.839 15.4541C21.8684 15.4541 22.7749 15.9973 22.7749 17.1638C22.7749 18.3622 21.9145 18.9534 20.1937 18.9534H19.7327V20.5353H20.2705C21.9299 20.5353 23.0515 21.0466 23.0515 22.5326C23.0515 23.7949 22.0835 24.53 20.7929 24.53Z" fill="black"/>
<path d="M30.1128 14C27.6698 14 26.0873 15.5819 26.1334 17.9148H27.9617C27.9617 16.1092 28.9758 15.4541 30.036 15.4541C31.1422 15.4541 31.8336 16.0932 31.8336 17.2277C31.8336 19.1451 29.6058 21.2224 25.8875 24.2264V25.7923H34V24.1305H28.1615C31.5263 21.7017 33.7388 19.4647 33.7388 17.0679C33.7388 15.0866 32.1716 14 30.1128 14Z" fill="black"/>
</svg>
