<svg width="32" height="32" viewBox="0 0 32 32" fill="none" xmlns="http://www.w3.org/2000/svg">
<path fill-rule="evenodd" clip-rule="evenodd" d="M25.2133 1.90918L25.5664 2.2894L30.7664 7.8894L31.1066 8.2558L30.3738 8.93625L30.0336 8.56985L25.6864 3.88827C25.5187 11.572 23.7872 17.8643 20.0317 22.3026C16.0593 26.9973 9.89858 29.5296 1.2 29.5296H0.699997V28.5296H1.2C9.70142 28.5296 15.5407 26.062 19.2683 21.6567C22.8209 17.4581 24.5242 11.4202 24.687 3.84969L19.9535 8.58318L19.6 8.93673L18.8929 8.22962L19.2464 7.87607L24.8464 2.27607L25.2133 1.90918Z" fill="#151515"/>
<path fill-rule="evenodd" clip-rule="evenodd" d="M6.5 5.52954V13.7295H8H8.5V14.2295V21.3089C8.51576 21.2789 8.53216 21.2471 8.54922 21.2131L13.1458 11.2206L13.1492 11.2132L13.1528 11.2059C13.2396 11.0322 13.3198 10.8715 13.3838 10.7295H10.8C10.6267 10.7295 10.4658 10.6398 10.3747 10.4924C10.2836 10.345 10.2753 10.1609 10.3528 10.0059L12.5528 5.60593C12.5663 5.57891 12.5786 5.55346 12.5898 5.52954H6.5ZM8.51493 21.9224C8.51577 21.9247 8.51611 21.926 8.51608 21.9261C8.51605 21.9262 8.51562 21.925 8.51493 21.9224ZM5.76972 4.80346C5.9156 4.65615 6.13703 4.52954 6.4 4.52954H12.8C12.9645 4.52954 13.1398 4.56393 13.2908 4.63618C13.3976 4.68728 13.7 4.86194 13.7 5.22954C13.7 5.35442 13.6745 5.59851 13.4472 6.05315L11.609 9.72954H13.6C13.7645 9.72954 13.9398 9.76393 14.0908 9.83618C14.1976 9.88728 14.5 10.0619 14.5 10.4295C14.5 10.5522 14.4713 10.6696 14.444 10.7595C14.4147 10.8555 14.3758 10.9552 14.3346 11.0515C14.2537 11.2401 14.1483 11.451 14.0513 11.645L14.0508 11.6459L9.45425 21.6385L9.45085 21.6459L9.44721 21.6531C9.24077 22.066 9.05121 22.3489 8.83735 22.52C8.7197 22.6141 8.59649 22.6734 8.46764 22.7038C8.35654 22.7299 8.25582 22.7297 8.208 22.7296C8.20514 22.7295 8.20247 22.7295 8.2 22.7295C7.96561 22.7295 7.78965 22.6089 7.68472 22.4694C7.59428 22.3491 7.55574 22.2171 7.53671 22.1308C7.49971 21.9628 7.49991 21.7825 7.49999 21.7035C7.5 21.6999 7.5 21.6966 7.5 21.6934V14.7295H6.4C6.13738 14.7295 5.91662 14.6033 5.77145 14.4581C5.62627 14.3129 5.5 14.0922 5.5 13.8295V5.43545C5.5 5.17351 5.6231 4.95152 5.76972 4.80346Z" fill="#151515"/>
</svg>
