<svg width="144" height="37" viewBox="0 0 144 37" fill="none" xmlns="http://www.w3.org/2000/svg">
<g clip-path="url(#clip0_2722_3464)">
<path d="M57.3424 8.43886L60.0272 6.41835H51.0645V18.5138H60.0272V16.5071H53.6272V13.4071H59.078V11.3866H53.6272V8.43886H57.3424Z" fill="#21A038"/>
<path d="M44.2983 11.1375H41.1932V8.43886H46.1559L48.8271 6.41835H38.6305V18.5138H43.9728C46.9695 18.5138 48.6915 17.1299 48.6915 14.708C48.6779 12.4107 47.1321 11.1375 44.2983 11.1375ZM43.8508 16.5071H41.1796V13.158H43.8508C45.4779 13.158 46.2237 13.7255 46.2237 14.8326C46.2373 15.9674 45.4373 16.5071 43.8508 16.5071Z" fill="#21A038"/>
<path d="M67.2813 6.41835H62.4V18.5138H64.9627V15.0817H67.2813C70.4002 15.0817 72.3252 13.4071 72.3252 10.7361C72.3252 8.07905 70.4002 6.41835 67.2813 6.41835ZM67.2271 13.075H64.9627V8.43886H67.2271C68.8678 8.43886 69.7628 9.2692 69.7628 10.7639C69.7628 12.2585 68.8678 13.075 67.2271 13.075Z" fill="#21A038"/>
<path d="M34.2373 15.8983C33.5593 16.2719 32.8 16.4657 32.0271 16.4657C29.722 16.4657 28.0542 14.7911 28.0542 12.4661C28.0542 10.155 29.722 8.46658 32.0271 8.46658C32.8542 8.45275 33.6813 8.71573 34.3593 9.21391L36.1898 7.83004L36.0678 7.71931C34.9966 6.76439 33.5593 6.25233 31.9322 6.25233C30.1559 6.25233 28.5423 6.86126 27.4033 7.9684C26.2508 9.08936 25.6135 10.6532 25.6135 12.3831C25.6135 14.1268 26.2508 15.7184 27.4033 16.867C28.5559 18.0156 30.1694 18.6523 31.9322 18.6523C33.7763 18.6523 35.3898 18.0018 36.4746 16.7978L34.8203 15.5523L34.2373 15.8983Z" fill="#21A038"/>
<path d="M17.6541 6.3079C18.1152 6.91683 18.522 7.59491 18.8338 8.3146L9.83042 15.0958L6.06091 12.6878V9.78154L9.83042 12.1895L17.6541 6.3079Z" fill="#21A038"/>
<path d="M2.23719 12.466C2.23719 12.3415 2.23719 12.2031 2.25075 12.0785L-0.0272154 11.9678C-0.0407748 12.1339 -0.0407715 12.2999 -0.0407715 12.466C-0.0407715 15.2477 1.0711 17.7803 2.86092 19.6071L4.47448 17.9602C3.07786 16.5486 2.23719 14.6111 2.23719 12.466Z" fill="url(#paint0_linear_2722_3464)"/>
<path d="M9.83044 4.71622C9.95253 4.71622 10.0881 4.71622 10.2101 4.73006L10.3186 2.40508C10.1559 2.39124 9.99318 2.39124 9.83044 2.39124C7.10505 2.39124 4.62369 3.52606 2.83386 5.35282L4.44742 6.9997C5.83047 5.57425 7.74231 4.71622 9.83044 4.71622Z" fill="url(#paint1_linear_2722_3464)"/>
<path d="M9.83049 20.2299C9.70847 20.2299 9.57288 20.2299 9.45086 20.216L9.34241 22.541C9.50508 22.5549 9.66782 22.5549 9.83049 22.5549C12.5559 22.5549 15.0373 21.4201 16.8272 19.5933L15.2136 17.9464C13.8305 19.3581 11.9322 20.2299 9.83049 20.2299Z" fill="url(#paint2_linear_2722_3464)"/>
<path d="M14.1153 6.05869L16.0407 4.60558C14.3458 3.20782 12.1899 2.36363 9.83057 2.36363V4.68862C11.417 4.71629 12.8949 5.21451 14.1153 6.05869Z" fill="url(#paint3_linear_2722_3464)"/>
<path d="M19.7153 12.4663C19.7153 11.8436 19.6611 11.2485 19.5526 10.6534L17.4238 12.2587C17.4238 12.3279 17.4238 12.3971 17.4238 12.4663C17.4238 14.7498 16.4611 16.798 14.9153 18.2235L16.4475 19.9533C18.4679 18.1128 19.7153 15.4418 19.7153 12.4663Z" fill="#21A038"/>
<path d="M9.83047 20.2299C7.59317 20.2299 5.5864 19.2473 4.18979 17.6696L2.49487 19.2334C4.29826 21.2678 6.9152 22.5549 9.83047 22.5549V20.2299Z" fill="url(#paint4_linear_2722_3464)"/>
<path d="M4.73224 6.72304L3.20004 4.99314C1.20682 6.83376 -0.0541992 9.50474 -0.0541992 12.4802H2.22377C2.23733 10.1967 3.20004 8.13462 4.73224 6.72304Z" fill="url(#paint5_linear_2722_3464)"/>
<path d="M36.339 25.5166L32.5423 31.938H31.4712L27.5796 25.5996V34.5951H25.4644V22.5135H28.1356L32.0542 29.0871L35.9458 22.5135H38.4542V34.5951H36.339V25.5166Z" fill="#632895"/>
<path d="M48.922 29.3639H43.4712V32.6161H49.722V34.5951H41.356V22.5135H49.5458V24.4925H43.4712V27.371H48.922V29.3639Z" fill="#632895"/>
<path d="M60.122 24.4925H54.1966V34.5951H52.0813V22.5135H60.1084V24.4925H60.122Z" fill="#632895"/>
<path d="M70.9968 34.5951H68.7459L67.6069 31.7304H62.1832L61.0713 34.5951H58.929L63.729 22.5135H66.129L70.9968 34.5951ZM66.8341 29.7513L64.895 24.7969L62.9561 29.7513H66.8341Z" fill="#632895"/>
<path d="M83.376 25.5166L79.5658 31.938H78.4951L74.6037 25.5996V34.5951H72.4878V22.5135H75.159L79.078 29.0871L82.9833 22.5135H85.4919V34.5951H83.376V25.5166Z" fill="#632895"/>
<path d="M99.0507 34.5951H96.8004L95.6608 31.7304H90.2377L89.1257 34.5951H86.9829L91.7831 22.5135H94.1829L99.0507 34.5951ZM94.8884 29.7513L92.9489 24.7969L91.0101 29.7513H94.8884Z" fill="#632895"/>
<path d="M102.671 30.8308V34.5951H100.556V22.5135H104.502C106.373 22.5135 107.728 22.8594 108.57 23.5376C109.41 24.2157 109.831 25.2398 109.831 26.596C109.831 28.0076 109.383 29.0733 108.475 29.7652C107.566 30.471 106.251 30.8169 104.502 30.8169L102.671 30.8308ZM102.671 24.4925V28.838H104.651C105.641 28.838 106.386 28.658 106.888 28.3121C107.389 27.9661 107.634 27.371 107.634 26.5407C107.634 25.7933 107.403 25.2674 106.942 24.9492C106.481 24.6447 105.736 24.4786 104.691 24.4786L102.671 24.4925Z" fill="#632895"/>
<path d="M114.102 34.5951H111.986V22.5135H114.102V27.5924H115.878L119.688 22.5135H122.264L117.749 28.2568L122.997 34.5951H120.285L115.986 29.3639H114.115L114.102 34.5951Z" fill="#632895"/>
<path d="M132.054 29.3639H126.604V32.6161H132.854V34.5951H124.488V22.5135H132.678V24.4925H126.604V27.371H132.054V29.3639Z" fill="#632895"/>
<path d="M144 24.4925H140.013V34.5951H137.898V24.4925H133.98V22.5135H144.014L144 24.4925Z" fill="#632895"/>
</g>
<defs>
<linearGradient id="paint0_linear_2722_3464" x1="3.30576" y1="19.3132" x2="0.717793" y2="11.9838" gradientUnits="userSpaceOnUse">
<stop offset="0.1444" stop-color="#F2E913"/>
<stop offset="0.3037" stop-color="#E7E518"/>
<stop offset="0.5823" stop-color="#CADB26"/>
<stop offset="0.891" stop-color="#A3CD39"/>
</linearGradient>
<linearGradient id="paint1_linear_2722_3464" x1="3.49544" y1="5.74775" x2="9.9554" y2="3.33577" gradientUnits="userSpaceOnUse">
<stop offset="0.0592" stop-color="#0FA8E0"/>
<stop offset="0.5385" stop-color="#0099F9"/>
<stop offset="0.9234" stop-color="#0291EB"/>
</linearGradient>
<linearGradient id="paint2_linear_2722_3464" x1="9.18931" y1="21.1542" x2="16.4715" y2="19.5416" gradientUnits="userSpaceOnUse">
<stop offset="0.1226" stop-color="#A3CD39"/>
<stop offset="0.2846" stop-color="#86C339"/>
<stop offset="0.8693" stop-color="#21A038"/>
</linearGradient>
<linearGradient id="paint3_linear_2722_3464" x1="9.35606" y1="3.1614" x2="15.5918" y2="5.04648" gradientUnits="userSpaceOnUse">
<stop offset="0.0566" stop-color="#0291EB"/>
<stop offset="0.79" stop-color="#0C8ACB"/>
</linearGradient>
<linearGradient id="paint4_linear_2722_3464" x1="3.07565" y1="18.9564" x2="9.87303" y2="21.4448" gradientUnits="userSpaceOnUse">
<stop offset="0.1324" stop-color="#F2E913"/>
<stop offset="0.2977" stop-color="#EBE716"/>
<stop offset="0.5306" stop-color="#D9E01F"/>
<stop offset="0.8023" stop-color="#BBD62D"/>
<stop offset="0.9829" stop-color="#A3CD39"/>
</linearGradient>
<linearGradient id="paint5_linear_2722_3464" x1="0.798504" y1="12.7531" x2="3.61176" y2="5.58279" gradientUnits="userSpaceOnUse">
<stop offset="0.0698" stop-color="#A3CD39"/>
<stop offset="0.2599" stop-color="#81C55F"/>
<stop offset="0.9216" stop-color="#0FA8E0"/>
</linearGradient>
<clipPath id="clip0_2722_3464">
<rect width="144" height="37" fill="white"/>
</clipPath>
</defs>
</svg>
