<svg width="48" height="40" viewBox="0 0 48 40" fill="none" xmlns="http://www.w3.org/2000/svg">
<path fill-rule="evenodd" clip-rule="evenodd" d="M7.59131 8C6.2106 8 5.09131 9.11929 5.09131 10.5L5.09131 20.5C5.09131 21.8807 6.2106 23 7.59131 23H17.6495C18.1444 27.2232 21.7352 30.5 26.0913 30.5C28.2586 30.5 30.2364 29.6889 31.7378 28.3536L36.2378 32.8536L36.5913 33.2071L37.2984 32.5L36.9449 32.1464L32.4449 27.6465C33.5717 26.3795 34.3253 24.7732 34.5331 23H40.5913C41.972 23 43.0913 21.8807 43.0913 20.5V10.5C43.0913 9.11929 41.972 8 40.5913 8L7.59131 8ZM34.5913 22H40.5913C41.4197 22 42.0913 21.3284 42.0913 20.5V10.5C42.0913 9.67157 41.4197 9 40.5913 9L7.59131 9C6.76288 9 6.09131 9.67157 6.09131 10.5L6.09131 20.5C6.09131 21.3284 6.76288 22 7.59131 22H17.5913C17.5913 21.3111 17.6733 20.6414 17.8279 20H8.99988V19H18.1359C19.3485 15.786 22.4529 13.5 26.0913 13.5C29.7297 13.5 32.8341 15.786 34.0468 19H38.9999V20H34.3547C34.5094 20.6414 34.5913 21.3111 34.5913 22ZM33.5913 22C33.5913 17.8579 30.2334 14.5 26.0913 14.5C21.9492 14.5 18.5913 17.8579 18.5913 22C18.5913 26.1421 21.9492 29.5 26.0913 29.5C30.2334 29.5 33.5913 26.1421 33.5913 22Z" fill="black"/>
</svg>
