<svg width="80" height="80" viewBox="0 0 80 80" fill="none" xmlns="http://www.w3.org/2000/svg">
<path fill-rule="evenodd" clip-rule="evenodd" d="M40.1475 14.1208C40.2382 14.0429 40.3538 14 40.4734 14H43.5C43.6326 14 43.7598 14.0527 43.8536 14.1464C43.9473 14.2402 44 14.3674 44 14.5V65.5C44 65.7761 43.7761 66 43.5 66H40.4734C40.3538 66 40.2382 65.9571 40.1475 65.8792L24.1418 52.1212C24.0511 52.0432 23.9355 52.0004 23.8159 52.0004L13.5 52C12.6715 52 12 51.3284 12 50.5L12 29.4997C12 28.6712 12.6716 27.9996 13.5 27.9997L23.8159 28C23.9355 28 24.0511 27.9571 24.1418 27.8792L40.1475 14.1208ZM40.6588 15L24.7937 28.6375C24.5216 28.8714 24.1747 29 23.8159 29L13.5 28.9997C13.2239 28.9997 13 29.2235 13 29.4997L13 50.5C13 50.7762 13.2238 51 13.5 51L23.8159 51.0004C24.1747 51.0004 24.5216 51.129 24.7937 51.3628L40.6587 65H43V15L40.6588 15ZM54.0102 46.3174L54.3637 45.9638L60.327 40.0006L54.3637 34.0373L54.0101 33.6838L54.7172 32.9767L55.0708 33.3302L61.0341 39.2935L66.9973 33.3302L67.3509 32.9767L68.058 33.6838L67.7044 34.0373L61.7412 40.0006L67.7044 45.9638L68.0579 46.3174L67.3508 47.0245L66.9973 46.6709L61.0341 40.7077L55.0708 46.6709L54.7173 47.0245L54.0102 46.3174Z" fill="black"/>
</svg>
