<svg width="40" height="40" viewBox="0 0 40 40" fill="none" xmlns="http://www.w3.org/2000/svg">
<path fill-rule="evenodd" clip-rule="evenodd" d="M20.928 9.1067C21.016 9.03757 21.1247 9 21.2367 9L22.5001 9C22.6327 9 22.7598 9.05268 22.8536 9.14645C22.9474 9.24022 23.0001 9.36739 23.0001 9.5V30.4998C23.0001 30.7759 22.7762 30.9998 22.5001 30.9998H21.2367C21.1247 30.9998 21.016 30.9622 20.928 30.8931L13.5564 25.1066C13.4684 25.0375 13.3596 25 13.2477 24.9999L8.43868 24.9998C7.61027 24.9998 6.93872 24.3282 6.93872 23.4998V16.4996C6.93872 15.6712 7.61032 14.9996 8.43877 14.9996L13.2477 14.9998C13.3597 14.9998 13.4684 14.9622 13.5564 14.8931L20.928 9.1067ZM21.4095 10L14.1739 15.6797C13.9097 15.8871 13.5835 15.9998 13.2477 15.9998L8.43874 15.9996C8.16259 15.9996 7.93872 16.2235 7.93872 16.4996L7.93872 23.4998C7.93872 23.7759 8.16257 23.9998 8.43871 23.9998L13.2477 23.9999C13.5836 24 13.9097 24.1127 14.1739 24.32L21.4095 29.9998H22.0001V10H21.4095ZM26.1515 23.1586L26.5051 22.805L29.3099 20.0002L26.505 17.1953L26.1515 16.8418L26.8586 16.1347L27.2121 16.4882L30.017 19.2931L32.8219 16.4882L33.1754 16.1347L33.8825 16.8418L33.529 17.1953L30.7241 20.0002L33.5289 22.805L33.8825 23.1586L33.1754 23.8657L32.8218 23.5121L30.017 20.7073L27.2122 23.5121L26.8586 23.8657L26.1515 23.1586Z" fill="black"/>
</svg>
