<svg width="80" height="80" viewBox="0 0 80 80" fill="none" xmlns="http://www.w3.org/2000/svg">
<path fill-rule="evenodd" clip-rule="evenodd" d="M18 26.5744L41.009 13.1524L64 26.0848V51.9152L40.9909 64.8578L18 52.4044V26.5744ZM41 12L65 25.5V52.5L41 66L17 53V26L41 12ZM47 39C47 42.3137 44.3137 45 41 45C37.6863 45 35 42.3137 35 39C35 35.6863 37.6863 33 41 33C44.3137 33 47 35.6863 47 39ZM48 39C48 42.866 44.866 46 41 46C37.134 46 34 42.866 34 39C34 35.134 37.134 32 41 32C44.866 32 48 35.134 48 39Z" fill="black"/>
</svg>
