<svg width="40" height="40" viewBox="0 0 40 40" fill="none" xmlns="http://www.w3.org/2000/svg">
<path fill-rule="evenodd" clip-rule="evenodd" d="M10 13.562L20.5052 7.16752L31 13.4282V25.783L20.4947 31.8483L10 25.9165V13.562ZM20.5 6L32 12.8604V26.3604L20.5 33L9 26.5V13L20.5 6ZM23 19.5C23 20.8807 21.8807 22 20.5 22C19.1193 22 18 20.8807 18 19.5C18 18.1193 19.1193 17 20.5 17C21.8807 17 23 18.1193 23 19.5ZM24 19.5C24 21.433 22.433 23 20.5 23C18.567 23 17 21.433 17 19.5C17 17.567 18.567 16 20.5 16C22.433 16 24 17.567 24 19.5Z" fill="black"/>
</svg>
