<svg width="88" height="88" viewBox="0 0 88 88" fill="none" xmlns="http://www.w3.org/2000/svg">
<path fill-rule="evenodd" clip-rule="evenodd" d="M83.3334 43.9994C83.3334 65.7226 65.7233 83.3327 44.0001 83.3327C22.2769 83.3327 4.66675 65.7226 4.66675 43.9994C4.66675 22.2761 22.2769 4.66602 44.0001 4.66602C65.7233 4.66602 83.3334 22.2761 83.3334 43.9994ZM84.3334 43.9994C84.3334 66.2748 66.2756 84.3327 44.0001 84.3327C21.7246 84.3327 3.66675 66.2748 3.66675 43.9994C3.66675 21.7239 21.7246 3.66602 44.0001 3.66602C66.2756 3.66602 84.3334 21.7239 84.3334 43.9994ZM59.0203 37.0196L59.3739 36.666L58.6668 35.9589L58.3132 36.3125L40.3334 54.2923L29.687 43.6458L29.3334 43.2922L28.6263 43.9994L28.9799 44.3529L39.9799 55.3529L40.3334 55.7065L40.687 55.3529L59.0203 37.0196Z" fill="#0DC268"/>
</svg>
