<svg width="80" height="80" viewBox="0 0 80 80" fill="none" xmlns="http://www.w3.org/2000/svg">
<path d="M45.4038 62.9977C47.1934 61.4681 48.3329 59.1993 48.3329 56.666C48.3329 52.071 44.5954 48.3327 39.9996 48.3327C35.4038 48.3327 31.6663 52.071 31.6663 56.666C31.6663 59.1993 32.8067 61.4681 34.5963 62.9977C30.8771 64.9502 28.3334 68.8493 28.3334 73.3327H31.6667C31.6667 68.7377 35.4046 64.9993 40 64.9993C44.5954 64.9993 48.3334 68.7377 48.3334 73.3327H51.6667C51.6667 68.8489 49.1225 64.9502 45.4038 62.9977ZM34.9996 56.666C34.9996 53.9089 37.2429 51.666 39.9996 51.666C42.7563 51.666 44.9996 53.9089 44.9996 56.666C44.9996 59.4231 42.7571 61.666 39.9996 61.666C37.2421 61.666 34.9996 59.4231 34.9996 56.666ZM60.4038 21.331C62.1934 19.8014 63.3329 17.5327 63.3329 14.9993C63.3329 10.4043 59.5954 6.66602 54.9996 6.66602C50.4038 6.66602 46.6663 10.4043 46.6663 14.9993C46.6663 17.5327 47.8067 19.8014 49.5963 21.331C45.8771 23.2835 43.3334 27.1827 43.3334 31.666H46.6667C46.6667 27.071 50.4046 23.3327 55 23.3327C59.5954 23.3327 63.3334 27.071 63.3334 31.666H66.6667C66.6667 27.1823 64.1225 23.2835 60.4038 21.331ZM49.9996 14.9993C49.9996 12.2423 52.2429 9.99935 54.9996 9.99935C57.7563 9.99935 59.9996 12.2423 59.9996 14.9993C59.9996 17.7564 57.7571 19.9993 54.9996 19.9993C52.2421 19.9993 49.9996 17.7564 49.9996 14.9993ZM30.4042 21.331C32.1938 19.8014 33.3334 17.5327 33.3334 14.9993C33.3334 10.4043 29.5959 6.66602 25 6.66602C20.4042 6.66602 16.6667 10.4043 16.6667 14.9993C16.6667 17.5327 17.8071 19.8014 19.5967 21.331C15.8771 23.2835 13.3334 27.1827 13.3334 31.666H16.6667C16.6667 27.071 20.4046 23.3327 25 23.3327C29.5954 23.3327 33.3334 27.071 33.3334 31.666H36.6667C36.6667 27.1823 34.1229 23.2835 30.4042 21.331ZM19.9996 14.9993C19.9996 12.2423 22.2429 9.99935 24.9996 9.99935C27.7563 9.99935 29.9996 12.2423 29.9996 14.9993C29.9996 17.7564 27.7571 19.9993 24.9996 19.9993C22.2421 19.9993 19.9996 17.7564 19.9996 14.9993ZM67.0704 49.6643C68.86 48.1348 69.9996 45.866 69.9996 43.3327C69.9996 38.7377 66.2621 34.9993 61.6663 34.9993C57.0704 34.9993 53.3329 38.7377 53.3329 43.3327C53.3329 45.866 54.4734 48.1348 56.2629 49.6643C54.4532 50.6172 52.9233 52.0259 51.8246 53.751L54.1938 56.3352C55.5529 53.5743 58.3875 51.666 61.6667 51.666C66.2617 51.666 70 55.4043 70 59.9993H73.3334C73.3334 55.5156 70.7892 51.6168 67.0704 49.6643ZM61.6663 48.3327C58.9096 48.3327 56.6663 46.0898 56.6663 43.3327C56.6663 40.5756 58.9096 38.3327 61.6663 38.3327C64.4229 38.3327 66.6663 40.5756 66.6663 43.3327C66.6663 46.0898 64.4238 48.3327 61.6663 48.3327ZM28.2196 53.8173C27.1175 52.062 25.5709 50.6293 23.7367 49.6643C25.5267 48.1348 26.6667 45.866 26.6667 43.3327C26.6667 38.7377 22.9284 34.9993 18.3334 34.9993C13.7384 34.9993 10 38.7377 10 43.3327C10 45.866 11.14 48.1348 12.9296 49.6643C9.21044 51.6168 6.66669 55.516 6.66669 59.9993H10C10 55.4043 13.7379 51.666 18.3334 51.666C21.6421 51.666 24.4979 53.6093 25.8425 56.4102L28.2196 53.8173ZM18.3334 48.3327C15.5763 48.3327 13.3334 46.0898 13.3334 43.3327C13.3334 40.5756 15.5763 38.3327 18.3334 38.3327C21.0904 38.3327 23.3334 40.5756 23.3334 43.3327C23.3334 46.0898 21.0904 48.3327 18.3334 48.3327Z" fill="#1D1D1B"/>
</svg>
