<svg width="80" height="80" viewBox="0 0 80 80" fill="none" xmlns="http://www.w3.org/2000/svg">
<path d="M44.3804 42.3215C47.7042 40.6944 50 37.2777 50 33.334C50 27.8198 45.5142 23.334 40 23.334C34.4858 23.334 30 27.8198 30 33.334C30 37.2777 32.2954 40.6944 35.6196 42.3215C29.4792 44.2002 25 49.9198 25 56.6673H28.3333C28.3333 50.234 33.5667 45.0007 40 45.0007C46.4333 45.0007 51.6667 50.234 51.6667 56.6673H55C55 49.9198 50.5208 44.2002 44.3804 42.3215ZM33.3333 33.334C33.3333 29.6582 36.3242 26.6673 40 26.6673C43.6758 26.6673 46.6667 29.6582 46.6667 33.334C46.6667 37.0098 43.6758 40.0007 40 40.0007C36.3242 40.0007 33.3333 37.0098 33.3333 33.334ZM24.1667 40.0007C24.1667 36.3248 21.1758 33.334 17.5 33.334C13.8242 33.334 10.8333 36.3248 10.8333 40.0007C10.8333 42.3569 12.0654 44.4269 13.9158 45.6127C9.69916 47.0961 6.66666 51.1165 6.66666 55.834V56.6673H10V55.834C10 51.6986 13.3646 48.334 17.5 48.334C19.4671 48.334 21.3529 49.1198 22.7446 50.4773C23.1366 49.3899 23.6311 48.3421 24.2212 47.3482C23.2761 46.602 22.2143 46.0168 21.0787 45.6161C22.9321 44.4306 24.1667 42.359 24.1667 40.0007ZM17.5 36.6673C19.3379 36.6673 20.8333 38.1627 20.8333 40.0007C20.8333 41.8386 19.3379 43.334 17.5 43.334C15.6621 43.334 14.1667 41.8386 14.1667 40.0007C14.1667 38.1627 15.6621 36.6673 17.5 36.6673ZM66.0842 45.6127C67.9342 44.4269 69.1667 42.3569 69.1667 40.0007C69.1667 36.3248 66.1758 33.334 62.5 33.334C58.8242 33.334 55.8333 36.3248 55.8333 40.0007C55.8333 42.359 57.0679 44.4306 58.9208 45.6161C57.7855 46.0167 56.7241 46.6018 55.7792 47.3477C56.3692 48.342 56.8635 49.39 57.2554 50.4777C58.6471 49.1198 60.5325 48.334 62.5 48.334C66.6354 48.334 70 51.6986 70 55.834V56.6673H73.3333V55.834C73.3333 51.1165 70.3012 47.0957 66.0842 45.6127ZM62.5 36.6673C64.3379 36.6673 65.8333 38.1627 65.8333 40.0007C65.8333 41.8386 64.3379 43.334 62.5 43.334C60.6621 43.334 59.1667 41.8386 59.1667 40.0007C59.1667 38.1627 60.6621 36.6673 62.5 36.6673Z" fill="black"/>
</svg>
