<svg width="80" height="80" viewBox="0 0 80 80" fill="none" xmlns="http://www.w3.org/2000/svg">
<g opacity="0.9">
<path fill-rule="evenodd" clip-rule="evenodd" d="M50.312 21.7747C47.9338 22.0278 45.395 23.0483 43.5359 24.9071L48.4857 29.8569L55.5299 22.8126C54.373 21.9501 52.4587 21.5463 50.312 21.7747ZM50.2062 20.7804C47.639 21.0535 44.8749 22.1541 42.8288 24.2L42.8284 24.1997C42.5903 24.4378 42.3643 24.6834 42.1504 24.9358C39.2878 28.3132 38.5918 32.8999 40.0623 36.8653L20.9081 56.0195C18.9555 57.9721 18.9555 61.1379 20.9081 63.0905C22.8608 65.0432 26.0266 65.0432 27.9792 63.0905L47.1334 43.9364C51.0988 45.4069 55.6855 44.7109 59.0629 41.8483C59.3151 41.6345 59.5605 41.4087 59.7985 41.1707L59.799 41.1712C61.8451 39.1251 62.9458 36.3608 63.219 33.7934C63.4897 31.2499 62.957 28.7729 61.5667 27.3826L61.2132 27.0291L60.8596 27.3826L53.4355 34.8067L49.1928 30.564L56.617 23.1398L56.9706 22.7862L56.617 22.4327C55.2268 21.0424 52.7498 20.5097 50.2062 20.7804ZM54.1426 35.5139L59.0919 40.4631L59.0924 40.4636C60.9512 38.6045 61.9716 36.0658 62.2247 33.6876C62.4531 31.5409 62.0493 29.6267 61.1868 28.4697L54.1426 35.5139ZM42.8601 25.6456C40.2821 28.7343 39.6604 32.9056 40.9999 36.5176L41.2229 37.1189L40.7694 37.5724L21.6152 56.7266C20.0531 58.2887 20.0531 60.8213 21.6152 62.3834C23.1773 63.9455 25.71 63.9455 27.2721 62.3834L46.4263 43.2293L46.8797 42.7758L47.4811 42.9988C51.0931 44.3382 55.2643 43.7166 58.3531 41.1385L42.8601 25.6456Z" fill="black"/>
</g>
</svg>
