<svg width="80" height="80" viewBox="0 0 80 80" fill="none" xmlns="http://www.w3.org/2000/svg">
<path fill-rule="evenodd" clip-rule="evenodd" d="M66.1592 11.1954L65.2579 10.7622L64.3915 12.5648L65.2928 12.998L73.5313 16.9576L69.677 18.4636L69.6749 18.4644C62.732 21.1948 53.3572 21.194 46.457 18.4651L46.4532 18.4636L40.3645 16.0846L34.2796 13.7071L34.2778 13.7063C26.9043 10.7909 17.0065 10.7918 9.59529 13.7059L9.59426 13.7063L3.5076 16.0846L2.57617 16.4485L3.30404 18.3114L4.23546 17.9474L10.3242 15.5684L10.3262 15.5676C17.2691 12.8373 26.6439 12.838 33.5441 15.5669L33.5479 15.5684L39.6366 17.9474L45.7215 20.325L45.7235 20.3257C53.0968 23.241 62.9941 23.2402 70.4052 20.3263L70.4069 20.3257L74.2402 18.8279L70.3808 27.2864L69.9657 28.1962L71.7852 29.0264L72.2003 28.1166L77.039 17.5118L77.4459 16.62L76.5624 16.1954L66.1592 11.1954ZM65.2579 30.8832L66.1592 31.3164L76.5624 36.3164L77.4472 36.7416L77.0384 37.6341L72.1997 48.1986L71.7833 49.1078L69.965 48.2749L70.3814 47.3658L74.2356 38.9506L70.4069 40.4466L70.4054 40.4472C62.9706 43.3705 52.8556 43.0105 45.7511 40.4571L45.7381 40.4524L45.7253 40.4474L39.6366 38.0684L33.5479 35.6894L33.5441 35.6879C26.6439 32.959 17.2691 32.9582 10.3262 35.6886L10.3242 35.6894L4.23546 38.0684L3.5076 36.2056L9.59426 33.8273L9.59537 33.8269C17.0066 30.9127 26.9043 30.9119 34.2778 33.8273L34.2796 33.828L40.3645 36.2056L46.4403 38.5795C53.157 40.9896 62.7594 41.305 69.6749 38.5854L69.677 38.5846L73.5313 37.0786L65.2928 33.119L64.3915 32.6858L65.2579 30.8832ZM65.2579 50.9637L66.1592 51.3969L76.5624 56.3969L77.4459 56.8215L77.039 57.7133L72.2003 68.3182L71.7852 69.2279L69.9657 68.3977L70.3808 67.488L74.2402 59.0294L70.4069 60.5272L70.4052 60.5279C62.9941 63.4417 53.0968 63.4426 45.7235 60.5273L45.7215 60.5265L39.6366 58.149L33.5479 55.7699L33.5441 55.7684C26.6439 53.0396 17.2691 53.0388 10.3262 55.7691L10.3242 55.7699L4.23546 58.149L3.30404 58.5129L2.57617 56.65L3.5076 56.2861L9.59426 53.9079L9.59526 53.9075C17.0065 50.9933 26.9043 50.9924 34.2778 53.9079L34.2796 53.9086L40.3645 56.2861L46.4532 58.6651L46.457 58.6666C53.3572 61.3955 62.732 61.3963 69.6749 58.6659L69.677 58.6651L73.5313 57.1591L65.2928 53.1995L64.3915 52.7664L65.2579 50.9637Z" fill="#151515"/>
</svg>
