<svg width="138" height="18" viewBox="0 0 138 18" fill="none" xmlns="http://www.w3.org/2000/svg">
<g clip-path="url(#clip0_2722_3460)">
<path d="M67.3624 17.3571C72.231 17.3571 76.1779 13.4716 76.1779 8.67857C76.1779 3.88553 72.231 0 67.3624 0C62.4938 0 58.547 3.88553 58.547 8.67857C58.547 13.4716 62.4938 17.3571 67.3624 17.3571Z" fill="#FED104"/>
<path fill-rule="evenodd" clip-rule="evenodd" d="M76.1728 8.97821C76.1761 8.87876 76.178 8.77879 76.178 8.67844C76.178 7.18065 75.7924 5.77144 75.1137 4.54175C75.2787 4.84106 75.4266 5.15102 75.556 5.4703C75.5514 5.46894 75.5475 5.46842 75.5428 5.46868C75.5032 5.47124 74.8093 6.02087 74.0011 6.69009C73.1929 7.35943 72.5148 7.89075 72.4936 7.87095C72.4725 7.85109 72.664 6.94684 72.9195 5.86147C73.1744 4.77612 73.356 3.81665 73.3216 3.72954C73.2734 3.60577 70.3134 2.35704 70.0684 2.35704C70.0374 2.35704 68.8891 3.89581 67.517 5.77661C66.145 7.65739 65.0052 9.1791 64.9841 9.15846C64.9488 9.12375 65.4516 6.61179 65.578 6.19127C65.6217 6.04588 65.3551 5.87026 64.2984 5.34877C63.4267 4.91863 62.9152 4.72213 62.8242 4.78245C62.5253 4.98068 59.1925 9.03304 58.6279 9.85989C58.791 11.0393 59.1948 12.1434 59.7889 13.1226C59.9455 12.9494 60.4075 12.3621 60.9285 11.6707C61.55 10.846 62.0785 10.1909 62.103 10.215C62.1275 10.2391 61.9322 11.1028 61.669 12.1343L61.1905 14.0095L62.7255 14.608C63.5699 14.9373 64.3375 15.2342 64.4314 15.268C64.5601 15.3143 65.1753 14.4822 66.9248 11.8961C68.2024 10.0078 69.2615 8.47639 69.278 8.49298C69.2952 8.50956 69.0925 9.36579 68.8277 10.3955C68.5636 11.4253 68.3457 12.2794 68.3444 12.2937C68.3358 12.3778 71.0001 13.6119 71.1024 13.5708C71.1704 13.5434 72.3523 12.5203 73.729 11.2971C75.1731 10.0143 75.9232 9.30427 76.1728 8.97821Z" fill="black"/>
<path fill-rule="evenodd" clip-rule="evenodd" d="M3.73806 2.35557C2.24836 2.7401 1.40708 3.35724 0.84801 4.47581C0.505293 5.16153 0.489839 5.24628 0.491362 6.42667C0.492777 7.48003 0.529128 7.73852 0.739934 8.19154C1.10192 8.96959 1.75274 9.76763 2.49073 10.3384L3.14068 10.8411L1.69658 12.9474C0.902424 14.1058 0.217321 15.114 0.174224 15.1876C0.113494 15.2914 0.378285 15.3215 1.35375 15.3215H2.61143L4.3164 12.8032C5.25411 11.4182 6.00102 10.2682 5.97631 10.2476C5.95161 10.227 5.48995 9.92031 4.95046 9.56584C3.3948 8.54396 2.88753 7.86838 2.759 6.64695C2.64309 5.5451 3.0559 4.72396 3.95889 4.26003C4.30791 4.08079 4.65552 4.0196 5.52227 3.98478L6.63685 3.9401L6.66498 9.60403L6.69318 15.2679H7.83593H8.97869L9.00676 8.70538L9.03475 2.14289L6.77571 2.14878C4.93 2.1536 4.37408 2.19142 3.73806 2.35557ZM81.0806 8.72929V15.3215H82.0057H82.9307L82.9439 11.2768C82.9519 9.05233 82.9882 6.90004 83.0258 6.49395L83.0938 5.75574L83.7264 8.10109C84.0743 9.39111 84.662 11.5313 85.0324 12.8572L85.7059 15.2679L86.6528 15.2988L87.5996 15.3296L87.7495 14.8166C87.8327 14.5345 88.4349 12.3632 89.0886 9.99173L90.2771 5.67978L90.3312 10.4739L90.3854 15.2679L91.4464 15.2985L92.5082 15.3292V8.73604V2.14289L91.0113 2.14385L89.5151 2.14482L88.2216 6.77777C87.5098 9.32599 86.8951 11.4729 86.8541 11.5487C86.8139 11.6246 86.1925 9.55138 85.4741 6.94163L84.1674 2.19646L82.6237 2.16678L81.0806 2.137V8.72929ZM32.3544 5.72006C30.9078 6.18678 30.0442 7.18913 29.6454 8.86384C29.4047 9.87506 29.4814 11.9253 29.7915 12.768C30.4557 14.5723 31.8339 15.4308 34.0603 15.427C35.0918 15.4253 36.1323 15.221 36.7889 14.8912L37.2208 14.6742V13.7658C37.2208 13.2661 37.1945 12.8572 37.1626 12.8572C37.1305 12.8572 36.9959 12.9259 36.8633 13.0098C36.3247 13.3511 35.2041 13.6329 34.3368 13.6453C33.1353 13.6623 32.5577 13.3883 32.1665 12.6154C32.0133 12.3127 31.888 11.9058 31.888 11.7112V11.3572H34.6088H37.3296V10.2468C37.3296 8.85497 37.1996 8.16088 36.7811 7.31854C36.4303 6.61268 35.938 6.15014 35.2074 5.84028C34.6217 5.59192 32.9677 5.52217 32.3544 5.72006ZM50.1745 5.74321C48.968 6.06239 48.1086 6.79159 47.5517 7.96898C46.7467 9.67063 46.916 12.4855 47.9041 13.8283C48.3725 14.4651 48.5837 14.6341 49.4101 15.0333C50.0953 15.3643 50.162 15.375 51.5323 15.375C52.7592 15.375 53.0158 15.3438 53.4641 15.14L53.981 14.9049V13.9793C53.981 13.4702 53.9444 13.0722 53.8994 13.0949C52.5814 13.763 51.2525 13.8511 50.4365 13.3246C49.8264 12.931 49.4085 11.7661 49.4118 10.468C49.4154 9.04223 49.8893 7.99952 50.7238 7.58063C51.2772 7.30279 52.3856 7.33185 53.2688 7.64749L53.981 7.90206V6.96401C53.981 6.04064 53.9764 6.02414 53.6818 5.90842C52.7638 5.54778 51.193 5.47375 50.1745 5.74321ZM97.4055 5.63318C96.4217 5.79828 95.8591 5.94667 95.3104 6.18549L94.6845 6.45788V7.38926V8.32063L95.3104 8.01649C95.976 7.69288 97.1916 7.39781 97.871 7.39472C98.4072 7.39234 98.9783 7.63213 99.1863 7.94636C99.2768 8.08393 99.3838 8.44193 99.424 8.74196L99.4967 9.28748L98.3696 9.35621C95.9199 9.50535 94.5069 10.2294 94.1384 11.5238C93.9364 12.2354 94.04 13.3633 94.3649 13.9898C95.0932 15.3927 97.3025 15.8419 98.8417 14.9001C99.1375 14.7193 99.4003 14.5714 99.426 14.5714C99.4518 14.5714 99.4742 14.6799 99.4749 14.8125C99.4782 15.288 99.5891 15.3316 100.716 15.2988L101.777 15.2679L101.763 11.929C101.756 10.0926 101.707 8.32513 101.653 8.00132C101.461 6.84045 100.875 6.13642 99.8466 5.83182C99.3124 5.67346 97.8664 5.55581 97.4055 5.63318ZM107.52 5.66671C107.026 5.82582 106.72 6.01642 106.26 6.4521L105.809 6.87915L105.732 6.33239L105.656 5.78574H104.632H103.609V11.8929V18.0001H104.751H105.894V16.1675V14.335L106.297 14.683C106.982 15.2749 107.549 15.4611 108.501 15.4068C110.736 15.2795 111.986 13.5199 111.986 10.5C111.986 7.49224 110.736 5.70817 108.56 5.6111C108.142 5.59246 107.674 5.61743 107.52 5.66671ZM124.714 5.71792C123.26 6.10396 122.346 7.13931 121.935 8.86513C121.721 9.76442 121.779 11.8904 122.04 12.7013C122.406 13.8382 123.215 14.6854 124.377 15.1481C125.511 15.6002 127.93 15.4684 129.078 14.8917L129.511 14.6742V13.763V12.8517L129.206 13.0067C128.492 13.3706 127.371 13.6446 126.568 13.6517C125.14 13.6645 124.434 13.1329 124.193 11.8612L124.098 11.3572H126.872H129.645L129.592 9.93754C129.56 9.06936 129.471 8.3079 129.364 7.97734C129.127 7.24365 128.616 6.51195 128.111 6.18292C127.239 5.61496 125.83 5.422 124.714 5.71792ZM10.9094 10.5268L10.9377 15.2679H12.0804H13.2232L13.2529 13.3125L13.2825 11.3572H14.8037H16.3249V13.3431V15.329L17.4405 15.2985L18.556 15.2679L18.5843 10.5268L18.6127 5.78574H17.4714H16.33L16.3003 7.63399L16.2705 9.48221L14.774 9.51197L13.2776 9.54173V7.66376V5.78574H12.0793H10.881L10.9094 10.5268ZM21.1824 7.72438C21.0818 10.3652 20.8256 12.113 20.387 13.1518C20.2606 13.4511 20.1862 13.5001 19.858 13.5001H19.4761L19.5058 15.4554L19.5355 17.4108L20.5966 17.4414L21.6577 17.472V16.3968V15.3215H24.2153H26.7728V16.3968V17.472L27.834 17.4414L28.8951 17.4108L28.9248 15.4554L28.9544 13.5001H28.4078H27.8612V9.64292V5.78574H24.5588H21.2563L21.1824 7.72438ZM38.8794 10.5268L38.9077 15.2679H40.0505H41.1932L41.2476 13.022L41.3021 10.776L42.9349 13.022L44.5676 15.2679L45.8462 15.2981C46.5493 15.3147 47.1246 15.2979 47.1246 15.2608C47.1246 15.2236 46.3127 14.0623 45.3204 12.6798L43.5161 10.1664L43.7011 9.88843C43.8029 9.73556 44.4081 8.90659 45.0461 8.04638C45.684 7.18598 46.3181 6.32553 46.4551 6.13396L46.7041 5.78574L45.5267 5.79174L44.3494 5.79775L42.8257 7.89011L41.3021 9.98241L41.2725 7.88406L41.243 5.78574H40.047H38.851L38.8794 10.5268ZM113.539 10.5268L113.567 15.2679H114.71H115.853L115.882 12.978L115.911 10.6882L117.573 12.978L119.235 15.2679L120.51 15.2981C121.21 15.3147 121.784 15.2974 121.784 15.2598C121.784 15.2222 121.072 14.1961 120.2 12.9797C119.329 11.7631 118.522 10.6204 118.407 10.4399L118.197 10.1119L119.769 7.97567L121.34 5.83931L120.291 5.80846C119.714 5.79143 119.187 5.79828 119.12 5.82367C119.052 5.84907 118.314 6.79635 117.48 7.92874L115.962 9.98749L115.932 7.88663L115.902 5.78574H114.706H113.511L113.539 10.5268ZM130.055 6.6429V7.50002H131.414H132.773L132.802 11.384L132.831 15.2679L133.946 15.2985L135.062 15.329V11.4145V7.50002H136.422H137.782V6.6429V5.78574H133.919H130.055V6.6429ZM34.2315 7.52111C34.6046 7.68851 34.9138 8.29967 35.0028 9.04571L35.0741 9.64292H33.4429H31.8117L31.8946 9.12645C32.021 8.33959 32.2718 7.84922 32.6705 7.60995C33.0772 7.36579 33.7942 7.32497 34.2315 7.52111ZM108.704 7.6104C109.417 8.03809 109.794 9.63945 109.592 11.3816C109.408 12.9641 108.825 13.6531 107.67 13.6531C106.953 13.6531 106.591 13.413 106.221 12.6909C105.968 12.198 105.949 12.0516 105.949 10.6072C105.949 8.92324 106.044 8.47292 106.521 7.91576C106.871 7.50497 107.112 7.40809 107.799 7.40006C108.163 7.39575 108.463 7.46556 108.704 7.6104ZM126.615 7.61663C127.01 7.92334 127.189 8.30128 127.282 9.02693L127.359 9.64292H125.731H124.102L124.198 9.04185C124.321 8.2674 124.539 7.86304 124.973 7.60288C125.45 7.31636 126.235 7.32304 126.615 7.61663ZM25.5757 10.5V13.5001H23.9976C23.1297 13.5001 22.4196 13.4868 22.4196 13.4707C22.4196 13.4547 22.5397 12.975 22.6866 12.4049C22.953 11.3712 23.1781 9.43978 23.1803 8.16968L23.1814 7.50002H24.3785H25.5757V10.5ZM99.4729 11.9299C99.4729 13.1397 99.4511 13.188 98.7439 13.5406C98.3101 13.7568 97.3864 13.7658 96.9783 13.5577C96.668 13.3998 96.3167 12.7405 96.3167 12.3159C96.3167 12.1973 96.3867 11.9363 96.4719 11.7358C96.7162 11.1597 97.5052 10.8526 98.7928 10.8322L99.4729 10.8215V11.9299Z" fill="black"/>
</g>
<defs>
<clipPath id="clip0_2722_3460">
<rect width="138" height="18" fill="white"/>
</clipPath>
</defs>
</svg>
