<svg width="294" height="205" viewBox="0 0 294 205" fill="none" xmlns="http://www.w3.org/2000/svg">
<g clip-path="url(#clip0)">
<path fill-rule="evenodd" clip-rule="evenodd" d="M243.454 79.9008H243.504C255.095 79.8479 266.346 83.7595 275.346 90.9708C284.36 98.2149 290.58 108.297 292.963 119.529C295.345 130.761 293.747 142.461 288.435 152.668C283.133 162.856 274.432 170.925 263.802 175.513C259.305 177.193 254.556 178.119 249.75 178.252C247.707 178.252 246.228 177.956 245.896 177.251C245.431 176.234 247.059 175.25 248.554 174.529C259.184 169.297 261.294 167.887 264.416 165.771L266.974 164.082C277.904 157.21 285.445 143.32 285.445 129.806C285.408 118.809 280.966 108.273 273.087 100.499C268.416 95.884 262.703 92.4283 256.417 90.4156C250.131 88.4029 243.452 87.8906 236.927 88.9208C236.307 89.0195 235.672 88.9824 235.069 88.8123C234.465 88.6422 233.906 88.3432 233.433 87.9364C232.959 87.5296 232.581 87.025 232.327 86.4583C232.072 85.8916 231.947 85.2766 231.96 84.6568V84.1648C231.914 77.0297 229.991 70.0288 226.38 63.8478C222.77 57.6669 217.595 52.5178 211.363 48.9048C205.14 45.3168 198.074 43.4001 190.867 43.3455C183.661 43.2908 176.565 45.1 170.287 48.5932C169.726 48.9088 169.101 49.0954 168.458 49.1393C167.815 49.1833 167.17 49.0832 166.571 48.8468C165.972 48.6103 165.435 48.2435 165 47.7737C164.565 47.3038 164.243 46.7431 164.058 46.1332C160.668 35.2754 153.861 25.7676 144.624 18.9912C135.414 12.2355 124.255 8.5688 112.782 8.52803C105.231 8.54207 97.7674 10.1299 90.8802 13.1877C83.9931 16.2454 77.8373 20.7042 72.8154 26.2724C67.7936 31.8407 64.0188 38.3929 61.738 45.5006C59.4572 52.6082 58.7218 60.1112 59.5798 67.5188C59.6463 68.0916 59.5949 68.6718 59.4287 69.2245C59.2625 69.7772 58.9849 70.291 58.6126 70.7352C58.2403 71.1794 57.781 71.5447 57.2621 71.8092C56.7433 72.0738 56.1757 72.2322 55.5934 72.2748C42.8803 73.0638 30.9512 78.6127 22.2402 87.7892C13.5032 96.9732 8.61983 109.109 8.60322 121.721C8.56212 129.542 10.4249 137.259 14.0347 144.222C16.9415 149.47 22.7385 157.391 33.7012 165.05C39.1512 168.691 44.902 171.873 50.8927 174.562C53.2181 175.611 54.0818 176.431 53.7164 177.218C52.8527 179.219 42.5378 177.874 36.7242 175.513C25.8402 171.242 16.5142 163.829 9.96525 154.242C3.41982 144.632 -0.0521186 133.302 -0.000843972 121.721C0.0449115 107.702 5.19787 94.1678 14.5164 83.5908C23.8106 73.0442 36.6535 66.1711 50.6768 64.2388C50.6103 63.2712 50.6103 62.32 50.6103 61.3852C50.6279 45.1102 57.1838 29.5067 68.8395 17.9985C80.4951 6.49033 96.2986 0.0173999 112.782 3.52408e-05C125.255 -0.0131801 137.441 3.69073 147.747 10.6272C158.078 17.5831 166.053 27.4455 170.635 38.9336C176.947 36.2276 183.724 34.8336 190.601 34.8172C203.111 34.867 215.151 39.5274 224.363 47.8851C233.574 56.2429 239.293 67.6956 240.398 79.9992C241.411 79.9008 242.441 79.9008 243.454 79.9008ZM60.8754 200.113V193.52H62.4534L67.4863 200.096H71.3564L65.194 192.339L70.9246 185.058H67.0544L62.7523 190.896H60.8754V185.058H57.4869V200.08H60.8754V200.113ZM79.1632 200.474C75.4757 200.474 71.6886 198.014 71.6886 192.602C71.6886 187.19 75.4757 184.713 79.1632 184.713C82.8673 184.713 86.6378 187.173 86.6378 192.602C86.6378 198.03 82.8673 200.474 79.1632 200.474ZM83.1662 192.602C83.1662 189.141 81.2893 187.436 79.1798 187.436C77.0537 187.436 75.1601 189.141 75.1601 192.602C75.1601 196.078 77.0537 197.718 79.1632 197.718C81.2893 197.718 83.1662 196.078 83.1662 192.602ZM92.9662 193.7H99.7266V200.096H103.082V185.058H99.7266V191.06H92.9496V185.058H89.5944V200.08H92.9496V193.684L92.9662 193.7ZM119.509 203.655V200.08H108.414V203.639H105.374V197.489H106.238C107.949 197.489 108.812 195.291 109.061 189.814L109.277 185.025H120.34V197.472H122.599V203.622H119.509V203.655ZM112.201 187.682L112.068 190.24C111.835 194.209 111.271 196.357 110.075 197.505H116.968V187.665H112.201V187.682ZM135.671 189.65V200.096H139.026V185.058H135.671L128.446 195.537V185.041H125.09V200.096H128.446L135.671 189.666V189.65ZM157.995 203.655H154.972V200.08H142.847V185.041H146.169V197.456H152.381V185.041H155.753V197.456H158.012V203.639L157.995 203.655ZM171.1 189.666V200.08H174.456V185.041H171.1L163.875 195.521V185.025H160.503V200.08H163.875L171.1 189.65V189.666ZM184.588 200.457C180.884 200.457 177.113 198.03 177.113 192.602C177.113 187.19 180.884 184.713 184.588 184.713C188.275 184.713 192.062 187.173 192.062 192.602C192.062 198.03 188.292 200.474 184.588 200.474V200.457ZM188.574 192.602C188.574 189.141 186.697 187.436 184.588 187.436C182.462 187.436 180.585 189.141 180.585 192.602C180.585 196.078 182.462 197.718 184.571 197.718C186.697 197.718 188.591 196.078 188.591 192.602H188.574ZM198.341 193.7H205.101V200.096H208.457V185.058H205.101V191.06H198.341V185.058H194.969V200.08H198.341V193.684V193.7ZM218.904 197.702C220.615 197.702 222.027 196.997 222.625 195.603H225.931C225.49 197.049 224.576 198.311 223.332 199.189C222.087 200.068 220.583 200.514 219.054 200.457C214.171 200.457 211.363 196.767 211.363 192.454C211.363 187.928 214.519 184.713 218.838 184.713C223.489 184.713 226.379 188.469 226.113 193.52H214.785C215.001 196.308 216.978 197.702 218.904 197.702ZM222.692 191.093C222.683 190.087 222.271 189.125 221.545 188.418C220.82 187.711 219.841 187.316 218.821 187.321C217.78 187.294 216.771 187.676 216.014 188.383C215.257 189.09 214.816 190.065 214.785 191.093H222.692ZM234.186 185.271C233.389 185.681 232.724 186.304 232.242 187.075V185.058H228.904V205H232.242V198.112C232.715 198.871 233.385 199.49 234.182 199.906C234.98 200.321 235.876 200.517 236.777 200.474C240.464 200.474 243.288 197.374 243.288 192.569C243.288 187.764 240.464 184.697 236.777 184.697C235.88 184.664 234.983 184.861 234.186 185.271ZM236.03 187.452C238.388 187.452 239.8 189.42 239.8 192.569C239.8 195.767 238.388 197.784 236.03 197.751C233.837 197.751 232.11 195.98 232.11 192.569C232.11 189.158 233.837 187.452 236.03 187.452ZM61.9551 145.058C67.7686 145.058 72.7018 148.83 72.7018 156.39C72.7018 163.951 67.752 167.706 61.9551 167.706C56.1415 167.706 51.1917 163.951 51.1917 156.39C51.1917 148.846 56.1415 145.058 61.9551 145.058ZM61.9551 161.753C63.7988 161.753 65.2273 160.392 65.2273 156.39C65.2273 152.405 63.7988 150.995 61.9551 150.995C60.1113 150.995 58.6829 152.405 58.6829 156.407C58.6829 160.392 60.0947 161.753 61.9551 161.753ZM74.4791 153.455V154.111C74.4791 163.688 79.0967 167.723 84.6113 167.674C86.013 167.706 87.4066 167.454 88.7055 166.933C90.0045 166.412 91.1811 165.633 92.1624 164.644C93.1436 163.655 93.9085 162.478 94.4097 161.185C94.9109 159.892 95.1376 158.511 95.0757 157.128C95.0757 150.568 90.8069 147.174 86.0564 147.174C83.6147 147.174 80.8906 147.961 79.6449 150.421C79.9107 146.37 82.2029 145.288 85.0764 144.927L92.8832 144.074V137.514L86.5215 138.104C77.0537 139.039 74.6951 145.583 74.4791 153.455ZM84.5283 152.569C86.1727 152.569 87.6842 153.602 87.6842 157.161C87.6842 160.523 86.1395 161.753 84.6113 161.753C83.0832 161.753 81.6381 160.326 81.6381 157.161C81.6381 153.652 82.9005 152.569 84.5283 152.569ZM96.2883 161.36H96.9527C98.2815 161.36 99.5937 159.998 99.9259 152.881L100.291 145.681H117.765V167.182H110.507V151.536H106.969L106.636 156.571C106.238 162.639 103.946 167.198 97.6669 167.198H96.2883V161.376V161.36ZM129.924 150.24C130.306 150.126 130.721 150.076 131.12 150.126C132.681 150.126 134.027 150.601 134.027 153.012V153.602C125.821 154.16 121.137 156.276 121.137 161.278C121.137 165.115 124.293 167.706 128.113 167.706C130.871 167.706 133.296 166.755 134.757 164.394V167.182H141.501C141.219 164.328 141.102 161.442 141.152 158.555V154.439C141.219 147.239 137.232 144.927 131.635 144.927C125.157 144.927 121.901 148.797 121.569 152.881H127.814C127.857 152.282 128.08 151.71 128.457 151.239C128.833 150.768 129.344 150.42 129.924 150.24ZM130.788 162.311C129.11 162.311 128.412 161.294 128.396 160.376C128.396 158.506 130.455 157.801 134.276 157.522V158.162C134.276 161.458 132.681 162.311 130.788 162.311ZM156.484 160.113C154.889 160.49 153.245 160.687 151.617 160.671C147.248 160.671 144.607 158.44 144.607 153.652V145.681H151.866V152.405C151.866 154.832 152.63 155.242 154.69 155.242C155.304 155.242 155.902 155.16 156.484 154.996V145.681H163.742V167.182H156.484V160.13V160.113ZM175.319 145.681H168.044V167.182H175.319V159.113H181.017V167.182H188.292V145.698H181.017V153.291H175.319V145.681ZM192.644 145.681H199.902V151.962H202.477C208.573 151.962 211.148 154.291 211.148 159.474C211.148 165.279 208.872 167.182 202.909 167.182H192.644V145.698V145.681ZM202.261 161.786C203.756 161.786 204.703 161.31 204.703 159.49C204.703 157.85 203.756 157.358 202.294 157.358H199.902V161.786H202.261ZM213.589 145.681H220.848V167.182H213.589V145.698V145.681ZM231.927 145.681H225.216V167.182H231.927L238.654 155.472V167.182H245.364V145.698H238.654L231.927 157.62V145.681ZM232.558 138.219H228.256C228.472 141.171 230.814 143.205 235.266 143.205C239.734 143.205 242.026 141.171 242.308 138.219H238.006C237.873 139.17 236.91 139.646 235.282 139.646C233.654 139.646 232.741 139.154 232.558 138.219Z" fill="black"/>
</g>
<defs>
<clipPath id="clip0">
<rect width="294" height="205" fill="white"/>
</clipPath>
</defs>
</svg>
