<svg width="180" height="180" viewBox="0 0 180 180" fill="none" xmlns="http://www.w3.org/2000/svg">
<path d="M48.392 143.49H48.192C41.6636 143.499 35.3785 141.014 30.6221 136.542C25.8656 132.07 22.9972 125.95 22.6035 119.434C22.2099 112.917 24.3207 106.497 28.5043 101.485C32.6878 96.4732 38.628 93.2491 45.11 92.4721C45.5686 89.8973 46.5299 87.438 47.939 85.2347C49.3482 83.0314 51.1775 81.1273 53.3226 79.631C55.4676 78.1348 57.8864 77.0757 60.4408 76.5143C62.9952 75.9529 65.6352 75.9002 68.21 76.3591C68.6186 76.4318 69.0253 76.5175 69.43 76.6161C73.1139 73.0061 77.6907 70.4394 82.6922 69.1788C87.6937 67.9182 92.9402 68.0089 97.8951 69.4416C102.85 70.8743 107.335 73.5976 110.892 77.3328C114.449 81.068 116.95 85.6811 118.139 90.7001C120.704 90.0651 123.376 89.9965 125.969 90.4992C128.563 91.0019 131.016 92.0638 133.158 93.611C135.299 95.1582 137.078 97.1535 138.37 99.458C139.662 101.763 140.436 104.321 140.639 106.955C145.28 107.309 149.608 109.43 152.731 112.882C155.854 116.333 157.533 120.851 157.422 125.505C157.312 130.158 155.419 134.591 152.136 137.89C148.853 141.189 144.429 143.102 139.776 143.235L139.29 143.247L138.964 143.241C138.112 143.244 50.062 143.49 48.392 143.49ZM64.708 78.9261C60.5365 78.9231 56.5093 80.4531 53.392 83.2251C50.2746 85.997 48.2845 89.8178 47.8 93.9611L47.663 95.1411L46.476 95.2291C40.6205 95.6797 35.1667 98.3798 31.2583 102.763C27.3499 107.147 25.2904 112.873 25.5115 118.742C25.7326 124.61 28.2173 130.166 32.4445 134.243C36.6717 138.319 42.3131 140.601 48.186 140.61H48.395C50.116 140.683 138.105 140.366 138.995 140.363L139.288 140.37L139.731 140.361C143.71 140.186 147.464 138.466 150.195 135.566C152.926 132.667 154.419 128.817 154.356 124.834C154.293 120.852 152.679 117.051 149.858 114.239C147.037 111.427 143.231 109.827 139.248 109.777H137.808V108.339C137.808 105.901 137.224 103.497 136.107 101.33C134.99 99.1624 133.37 97.2934 131.384 95.8788C129.398 94.4641 127.102 93.5447 124.688 93.1972C122.274 92.8497 119.813 93.0842 117.508 93.8811L115.913 94.4301L115.613 92.7751C114.76 88.0153 112.608 83.5839 109.394 79.9704C106.181 76.3569 102.031 73.702 97.4035 72.299C92.7759 70.8959 87.8505 70.7993 83.1714 72.0198C78.4923 73.2403 74.2417 75.7304 70.889 79.2151L70.289 79.8401L69.453 79.5991C67.908 79.1511 66.3076 78.9232 64.699 78.9221L64.708 78.9261Z" fill="#1A1818"/>
<path d="M53.22 127.85C53.7119 127.651 54.1553 127.349 54.52 126.963C55.2525 126.152 55.6562 125.098 55.652 124.005C55.661 123.443 55.5591 122.885 55.352 122.363C55.1628 121.873 54.8814 121.425 54.523 121.041C54.1541 120.656 53.7122 120.348 53.223 120.136C52.6826 119.92 52.105 119.812 51.523 119.818H49.123V128.192H51.523C52.1074 128.199 52.6866 128.083 53.223 127.851L53.22 127.85ZM51.523 117.308C52.4474 117.302 53.3642 117.475 54.223 117.817C55.0372 118.153 55.7806 118.64 56.414 119.252C57.0505 119.869 57.5566 120.607 57.9023 121.423C58.2479 122.239 58.426 123.116 58.426 124.002C58.426 124.888 58.2479 125.765 57.9023 126.581C57.5566 127.397 57.0505 128.136 56.414 128.752C55.7844 129.364 55.0397 129.845 54.223 130.167C53.3678 130.523 52.4493 130.702 51.523 130.693H46.387V117.31L51.523 117.308ZM74.472 117.307H77.21V130.697H74.472V117.307ZM89.972 125.446C89.8023 126.285 89.335 127.034 88.6563 127.555C87.9776 128.077 87.1333 128.335 86.279 128.283C83.422 128.283 82.51 126.073 82.51 124.002C82.51 121.931 83.422 119.72 86.279 119.72C87.1334 119.668 87.978 119.926 88.6568 120.448C89.3355 120.969 89.8027 121.719 89.972 122.558H92.772C92.5839 121.011 91.823 119.591 90.6395 118.577C89.4559 117.563 87.9355 117.029 86.378 117.081C84.5774 117.134 82.8684 117.887 81.6136 119.179C80.3587 120.471 79.6568 122.202 79.6568 124.003C79.6568 125.804 80.3587 127.535 81.6136 128.827C82.8684 130.12 84.5774 130.872 86.378 130.925C87.9357 130.976 89.4561 130.442 90.6396 129.428C91.8231 128.414 92.5839 126.993 92.772 125.446H89.972ZM109.633 117.307H112.371V130.697H109.633V117.307ZM97.824 117.31V122.75H103.847V117.31H106.585V130.701H103.847V125.147H97.824V130.701H95.086V117.31H97.824ZM39.708 122.854C39.3757 122.854 39.0508 122.755 38.7746 122.57C38.4983 122.386 38.283 122.123 38.1559 121.816C38.0287 121.509 37.9955 121.171 38.0603 120.845C38.1251 120.519 38.2851 120.22 38.52 119.985C38.7549 119.75 39.0543 119.59 39.3802 119.525C39.7061 119.46 40.044 119.493 40.3511 119.62C40.6583 119.747 40.9209 119.962 41.1058 120.238C41.2907 120.514 41.3896 120.839 41.39 121.171C41.3902 121.392 41.3467 121.611 41.2622 121.815C41.1778 122.019 41.0539 122.205 40.8977 122.361C40.7415 122.517 40.556 122.641 40.3519 122.726C40.1478 122.811 39.929 122.854 39.708 122.854ZM39.708 117.08C38.899 117.082 38.1085 117.323 37.4366 117.774C36.7647 118.224 36.2415 118.864 35.933 119.612C35.6246 120.36 35.5448 121.183 35.7038 121.976C35.8627 122.769 36.2533 123.498 36.8261 124.069C37.3989 124.64 38.1282 125.029 38.9219 125.186C39.7155 125.343 40.538 125.261 41.2852 124.951C42.0324 124.641 42.6709 124.116 43.1199 123.443C43.569 122.77 43.8084 121.979 43.808 121.17C43.8078 120.632 43.7015 120.1 43.4952 119.603C43.2889 119.106 42.9868 118.655 42.606 118.275C42.2252 117.895 41.7732 117.594 41.276 117.389C40.7787 117.184 40.2459 117.079 39.708 117.08ZM62.473 125.597H69.007V127.956H62.473V125.597Z" fill="#1A1818"/>
<path d="M63.577 117.31L58.962 130.701H61.862L66.303 117.31H63.577Z" fill="#1A1818"/>
<path d="M65.061 117.31L69.461 130.701H72.368L67.786 117.31H65.061Z" fill="#1A1818"/>
</svg>
