<svg width="62" height="59" viewBox="0 0 62 59" fill="none" xmlns="http://www.w3.org/2000/svg">
<path fill-rule="evenodd" clip-rule="evenodd" d="M46.1622 4.85277C43.7244 2.41499 40.035 2.37919 37.7069 4.70732C35.4126 7.00161 33.9694 10.547 33.1024 13.6309C32.6739 15.155 32.3959 16.5299 32.2253 17.5232C32.1975 17.6849 32.1726 17.8364 32.1504 17.9765C32.3304 17.9692 32.529 17.9597 32.744 17.9475C33.8284 17.8855 35.3233 17.7524 36.9658 17.469C40.3036 16.8932 44.0354 15.7311 46.2848 13.4816C48.6176 11.1489 48.5952 7.28581 46.1622 4.85277ZM19.2776 18C17.4113 17.2734 15.6311 16.2743 14.2526 14.8958C11.1065 11.7497 11.1939 6.61988 14.3752 3.43856C17.5518 0.261984 22.5082 0.142331 25.659 3.2931C28.3249 5.95903 29.8817 9.91355 30.7746 13.0896C30.8456 13.3419 30.9126 13.5903 30.9758 13.8337C31.0391 13.5903 31.1061 13.3419 31.177 13.0896C32.07 9.91355 33.6268 5.95903 36.2927 3.2931C39.4435 0.142331 44.3998 0.261984 47.5764 3.43856C50.7577 6.61988 50.8452 11.7497 47.699 14.8958C46.3206 16.2743 44.5404 17.2734 42.674 18H61C61.5523 18 62 18.4477 62 19V31C62 31.5523 61.5523 32 61 32H56V58C56 58.5523 55.5523 59 55 59H7C6.44771 59 6 58.5523 6 58V32H1C0.447715 32 0 31.5523 0 31V19C0 18.4477 0.447715 18 1 18H19.2776ZM32 32H54V57H32V32ZM32 30H55H60V20H32V30ZM30 20V30H7H2V20H30ZM30 32V57H8V32H30ZM24.2448 4.70732C21.9166 2.37919 18.2272 2.41499 15.7895 4.85277C13.3564 7.28581 13.3341 11.1489 15.6668 13.4816C17.9163 15.7311 21.6481 16.8932 24.9859 17.469C26.6284 17.7524 28.1233 17.8855 29.2077 17.9475C29.4227 17.9597 29.6212 17.9692 29.8013 17.9765C29.779 17.8364 29.7541 17.6849 29.7263 17.5232C29.5557 16.5299 29.2778 15.155 28.8493 13.6309C27.9823 10.547 26.5391 7.00161 24.2448 4.70732Z" fill="#151515"/>
</svg>
