<svg width="26" height="16" viewBox="0 0 26 16" fill="none" xmlns="http://www.w3.org/2000/svg">
<path d="M21.5315 7.17196C22.5564 7.16721 23.5513 7.51832 24.347 8.16561C25.1441 8.81584 25.6941 9.72085 25.9048 10.729C26.1155 11.7372 25.9741 12.7874 25.5044 13.7036C25.0356 14.6181 24.2662 15.3424 23.3263 15.7542C22.9287 15.905 22.5087 15.9881 22.0837 16L4.57066 15.9872C4.48668 15.9973 4.37921 15.9966 4.25935 15.987C3.93988 15.9612 3.53244 15.8717 3.24739 15.7542C2.28499 15.3708 1.46036 14.7054 0.881283 13.8449C0.302515 12.9822 -0.00448435 11.9653 4.95025e-05 10.9258C0.00409534 9.66743 0.459736 8.45257 1.28371 7.50318C2.10553 6.5565 3.24114 5.93957 4.48112 5.76613C4.47524 5.67927 4.47524 5.59389 4.47524 5.50998C4.4768 4.04913 5.05649 2.64855 6.08712 1.61556C7.11775 0.582577 8.51514 0.00156183 9.97267 3.16324e-06C11.0755 -0.00118306 12.1531 0.331282 13.0643 0.953909C13.9779 1.57827 14.6831 2.46353 15.0882 3.49471C15.6463 3.25182 16.2456 3.12669 16.8536 3.12522C17.9598 3.12969 19.0245 3.54801 19.839 4.29821C20.6535 5.0484 21.1591 6.07641 21.2569 7.18079C21.3464 7.17196 21.4419 7.17196 21.5315 7.17196H21.5315Z" fill="url(#paint0_linear)"/>
<defs>
<linearGradient id="paint0_linear" x1="13" y1="0" x2="13" y2="16" gradientUnits="userSpaceOnUse">
<stop stop-color="#5EA9FF"/>
<stop offset="1" stop-color="#D5D3FF"/>
</linearGradient>
</defs>
</svg>
