<svg width="180" height="42" viewBox="0 0 180 42" fill="none" xmlns="http://www.w3.org/2000/svg">
<mask id="path-1-inside-1" fill="white">
<path d="M89.056 23.6274C85.2848 23.6274 82.2993 26.3381 82.2993 30.1031C82.2993 33.7174 85.2848 36.5787 89.056 36.5787C92.8272 36.5787 95.8128 33.868 95.8128 30.1031C95.8128 26.1875 92.8272 23.6274 89.056 23.6274ZM89.056 33.868C87.0133 33.868 85.2848 32.2114 85.2848 29.9525C85.2848 27.6935 87.0133 26.0369 89.056 26.0369C91.0988 26.0369 92.8272 27.5429 92.8272 29.9525C92.8272 32.2114 91.0988 33.868 89.056 33.868ZM74.4426 23.6274C70.6714 23.6274 67.6859 26.3381 67.6859 30.1031C67.6859 33.7174 70.6714 36.5787 74.4426 36.5787C78.2138 36.5787 81.1993 33.868 81.1993 30.1031C81.1993 26.1875 78.2138 23.6274 74.4426 23.6274ZM74.4426 33.868C72.3999 33.868 70.6714 32.2114 70.6714 29.9525C70.6714 27.6935 72.3999 26.0369 74.4426 26.0369C76.4854 26.0369 78.2138 27.5429 78.2138 29.9525C78.2138 32.2114 76.4854 33.868 74.4426 33.868ZM57.0008 25.5851V28.2959H63.7575C63.6004 29.8019 62.9719 31.0066 62.1862 31.7596C61.2434 32.6632 59.6721 33.7174 57.0008 33.7174C52.7582 33.7174 49.6155 30.5549 49.6155 26.4887C49.6155 22.4226 52.9153 19.2601 57.0008 19.2601C59.2007 19.2601 60.9291 20.1636 62.1862 21.2178L64.2289 19.2601C62.5005 17.7541 60.3006 16.5493 57.1579 16.5493C51.5011 16.5493 46.63 21.0672 46.63 26.4887C46.63 31.9102 51.5011 36.4281 57.1579 36.4281C60.3006 36.4281 62.5005 35.5246 64.3861 33.5668C66.2717 31.7596 66.9002 29.1995 66.9002 27.2417C66.9002 26.6393 66.9002 26.0369 66.7431 25.5851H57.0008ZM128.339 27.6935C127.711 26.1875 126.139 23.6274 122.683 23.6274C119.226 23.6274 116.397 26.1875 116.397 30.1031C116.397 33.7174 119.226 36.5787 122.997 36.5787C125.982 36.5787 127.868 34.7716 128.496 33.7174L126.297 32.2114C125.511 33.2656 124.568 34.0186 122.997 34.0186C121.425 34.0186 120.483 33.4162 119.697 32.0608L128.654 28.4465L128.339 27.6935ZM119.226 29.8019C119.226 27.3923 121.268 26.0369 122.683 26.0369C123.782 26.0369 124.882 26.6393 125.197 27.3923L119.226 29.8019ZM111.84 35.9763H114.826V17.1517H111.84V35.9763ZM107.126 24.9828C106.341 24.2298 105.084 23.4768 103.512 23.4768C100.212 23.4768 97.0698 26.3381 97.0698 29.9525C97.0698 33.5668 100.055 36.2775 103.512 36.2775C105.084 36.2775 106.341 35.5246 106.969 34.7716H107.126V35.6751C107.126 38.0847 105.712 39.4401 103.512 39.4401C101.784 39.4401 100.527 38.2353 100.212 37.1811L97.6984 38.2353C98.484 39.8919 100.37 42.0002 103.669 42.0002C107.126 42.0002 109.955 40.0425 109.955 35.374V23.9286H107.126V24.9828ZM103.669 33.868C101.627 33.868 99.8982 32.2114 99.8982 29.9525C99.8982 27.6935 101.627 26.0369 103.669 26.0369C105.712 26.0369 107.283 27.6935 107.283 29.9525C107.283 32.2114 105.712 33.868 103.669 33.868ZM142.01 17.1517H134.939V35.9763H137.924V28.8983H142.01C145.31 28.8983 148.452 26.6393 148.452 23.025C148.452 19.4107 145.31 17.1517 142.01 17.1517ZM142.167 26.1875H137.924V19.7119H142.167C144.367 19.7119 145.624 21.519 145.624 22.8744C145.467 24.531 144.21 26.1875 142.167 26.1875ZM160.237 23.4768C158.038 23.4768 155.838 24.3804 155.052 26.3381L157.723 27.3923C158.352 26.3381 159.295 26.0369 160.395 26.0369C161.966 26.0369 163.38 26.9405 163.537 28.4465V28.5971C163.066 28.2959 161.809 27.8441 160.552 27.8441C157.723 27.8441 154.895 29.3501 154.895 32.0608C154.895 34.621 157.252 36.2775 159.766 36.2775C161.809 36.2775 162.752 35.374 163.537 34.4704H163.694V35.9763H166.523V28.7477C166.209 25.4345 163.537 23.4768 160.237 23.4768ZM159.923 33.868C158.98 33.868 157.566 33.4162 157.566 32.2114C157.566 30.7054 159.295 30.2537 160.709 30.2537C161.966 30.2537 162.594 30.5548 163.38 30.856C163.066 32.6632 161.494 33.868 159.923 33.868ZM176.422 23.9286L173.122 32.0608H172.965L169.508 23.9286H166.366L171.551 35.374L168.566 41.699H171.551L179.565 23.9286H176.422ZM150.024 35.9763H153.009V17.1517H150.024V35.9763Z"/>
</mask>
<path d="M89.056 23.6274C85.2848 23.6274 82.2993 26.3381 82.2993 30.1031C82.2993 33.7174 85.2848 36.5787 89.056 36.5787C92.8272 36.5787 95.8128 33.868 95.8128 30.1031C95.8128 26.1875 92.8272 23.6274 89.056 23.6274ZM89.056 33.868C87.0133 33.868 85.2848 32.2114 85.2848 29.9525C85.2848 27.6935 87.0133 26.0369 89.056 26.0369C91.0988 26.0369 92.8272 27.5429 92.8272 29.9525C92.8272 32.2114 91.0988 33.868 89.056 33.868ZM74.4426 23.6274C70.6714 23.6274 67.6859 26.3381 67.6859 30.1031C67.6859 33.7174 70.6714 36.5787 74.4426 36.5787C78.2138 36.5787 81.1993 33.868 81.1993 30.1031C81.1993 26.1875 78.2138 23.6274 74.4426 23.6274ZM74.4426 33.868C72.3999 33.868 70.6714 32.2114 70.6714 29.9525C70.6714 27.6935 72.3999 26.0369 74.4426 26.0369C76.4854 26.0369 78.2138 27.5429 78.2138 29.9525C78.2138 32.2114 76.4854 33.868 74.4426 33.868ZM57.0008 25.5851V28.2959H63.7575C63.6004 29.8019 62.9719 31.0066 62.1862 31.7596C61.2434 32.6632 59.6721 33.7174 57.0008 33.7174C52.7582 33.7174 49.6155 30.5549 49.6155 26.4887C49.6155 22.4226 52.9153 19.2601 57.0008 19.2601C59.2007 19.2601 60.9291 20.1636 62.1862 21.2178L64.2289 19.2601C62.5005 17.7541 60.3006 16.5493 57.1579 16.5493C51.5011 16.5493 46.63 21.0672 46.63 26.4887C46.63 31.9102 51.5011 36.4281 57.1579 36.4281C60.3006 36.4281 62.5005 35.5246 64.3861 33.5668C66.2717 31.7596 66.9002 29.1995 66.9002 27.2417C66.9002 26.6393 66.9002 26.0369 66.7431 25.5851H57.0008ZM128.339 27.6935C127.711 26.1875 126.139 23.6274 122.683 23.6274C119.226 23.6274 116.397 26.1875 116.397 30.1031C116.397 33.7174 119.226 36.5787 122.997 36.5787C125.982 36.5787 127.868 34.7716 128.496 33.7174L126.297 32.2114C125.511 33.2656 124.568 34.0186 122.997 34.0186C121.425 34.0186 120.483 33.4162 119.697 32.0608L128.654 28.4465L128.339 27.6935ZM119.226 29.8019C119.226 27.3923 121.268 26.0369 122.683 26.0369C123.782 26.0369 124.882 26.6393 125.197 27.3923L119.226 29.8019ZM111.84 35.9763H114.826V17.1517H111.84V35.9763ZM107.126 24.9828C106.341 24.2298 105.084 23.4768 103.512 23.4768C100.212 23.4768 97.0698 26.3381 97.0698 29.9525C97.0698 33.5668 100.055 36.2775 103.512 36.2775C105.084 36.2775 106.341 35.5246 106.969 34.7716H107.126V35.6751C107.126 38.0847 105.712 39.4401 103.512 39.4401C101.784 39.4401 100.527 38.2353 100.212 37.1811L97.6984 38.2353C98.484 39.8919 100.37 42.0002 103.669 42.0002C107.126 42.0002 109.955 40.0425 109.955 35.374V23.9286H107.126V24.9828ZM103.669 33.868C101.627 33.868 99.8982 32.2114 99.8982 29.9525C99.8982 27.6935 101.627 26.0369 103.669 26.0369C105.712 26.0369 107.283 27.6935 107.283 29.9525C107.283 32.2114 105.712 33.868 103.669 33.868ZM142.01 17.1517H134.939V35.9763H137.924V28.8983H142.01C145.31 28.8983 148.452 26.6393 148.452 23.025C148.452 19.4107 145.31 17.1517 142.01 17.1517ZM142.167 26.1875H137.924V19.7119H142.167C144.367 19.7119 145.624 21.519 145.624 22.8744C145.467 24.531 144.21 26.1875 142.167 26.1875ZM160.237 23.4768C158.038 23.4768 155.838 24.3804 155.052 26.3381L157.723 27.3923C158.352 26.3381 159.295 26.0369 160.395 26.0369C161.966 26.0369 163.38 26.9405 163.537 28.4465V28.5971C163.066 28.2959 161.809 27.8441 160.552 27.8441C157.723 27.8441 154.895 29.3501 154.895 32.0608C154.895 34.621 157.252 36.2775 159.766 36.2775C161.809 36.2775 162.752 35.374 163.537 34.4704H163.694V35.9763H166.523V28.7477C166.209 25.4345 163.537 23.4768 160.237 23.4768ZM159.923 33.868C158.98 33.868 157.566 33.4162 157.566 32.2114C157.566 30.7054 159.295 30.2537 160.709 30.2537C161.966 30.2537 162.594 30.5548 163.38 30.856C163.066 32.6632 161.494 33.868 159.923 33.868ZM176.422 23.9286L173.122 32.0608H172.965L169.508 23.9286H166.366L171.551 35.374L168.566 41.699H171.551L179.565 23.9286H176.422ZM150.024 35.9763H153.009V17.1517H150.024V35.9763Z" fill="#D1D8E1" stroke="#D1D8E1" stroke-width="2" mask="url(#path-1-inside-1)"/>
<path d="M1.95831 5.69971C1.57057 6.0834 1.30444 6.59982 1.30444 7.36721V35.6326C1.30444 36.4 1.57057 37.1631 1.95831 37.5467L18.1067 21.565L1.95831 5.69971Z" fill="#D1D8E1" stroke="#D1D8E1" stroke-linecap="round" stroke-linejoin="round"/>
<path fill-rule="evenodd" clip-rule="evenodd" d="M18.1099 21.5665L18.1076 21.5642L23.5347 16.1938L29.8823 19.7879C31.6917 20.8111 31.6917 22.4738 29.8823 23.497L23.9449 26.7125L4.66672 37.6783C3.50349 38.1899 2.59875 38.1899 1.95251 37.5504L18.1099 21.5665Z" fill="white"/>
<path d="M18.1099 21.5665L18.4616 21.922L18.4616 21.2111L18.1099 21.5665ZM18.1076 21.5642L17.7559 21.2088L17.7559 21.9196L18.1076 21.5642ZM23.5347 16.1938L23.7811 15.7588L23.183 15.8384L23.5347 16.1938ZM29.8823 19.7879L29.6359 20.223L29.6362 20.2232L29.8823 19.7879ZM29.8823 23.497L30.1204 23.9367L30.1284 23.9322L29.8823 23.497ZM23.9449 26.7125L23.7068 26.2727L23.6977 26.2779L23.9449 26.7125ZM4.66672 37.6783L4.86801 38.136L4.91394 38.1129L4.66672 37.6783ZM1.95251 37.5504L1.60088 37.195L1.60082 37.9058L1.95251 37.5504ZM18.4616 21.2111L18.4593 21.2088L17.7559 21.9196L17.7583 21.9219L18.4616 21.2111ZM18.4593 21.9196L23.8864 16.5493L23.183 15.8384L17.7559 21.2088L18.4593 21.9196ZM23.2884 16.6289L29.6359 20.223L30.1286 19.3528L23.7811 15.7588L23.2884 16.6289ZM29.6362 20.2232C30.4518 20.6844 30.7394 21.2175 30.7394 21.6424C30.7394 22.0674 30.4518 22.6005 29.6362 23.0617L30.1284 23.9322C31.1222 23.3702 31.7394 22.5604 31.7394 21.6424C31.7394 20.7244 31.1222 19.9147 30.1284 19.3527L29.6362 20.2232ZM29.6442 23.0573L23.7068 26.2728L24.183 27.1521L30.1204 23.9366L29.6442 23.0573ZM4.91394 38.1129L24.1921 27.1471L23.6977 26.2779L4.41951 37.2437L4.91394 38.1129ZM1.60082 37.9058C2.46804 38.764 3.63725 38.6773 4.86801 38.136L4.46543 37.2206C3.36973 37.7025 2.72947 37.6158 2.30421 37.195L1.60082 37.9058ZM17.7583 21.2111L1.60088 37.195L2.30415 37.9059L18.4616 21.922L17.7583 21.2111Z" fill="#D1D8E1"/>
<path d="M23.5374 16.1918L4.66715 5.5763C3.50392 4.93681 2.60681 5.05989 1.96057 5.69938L18.1089 21.5635L23.5374 16.1918Z" fill="white" stroke="#D1D8E1" stroke-linecap="round" stroke-linejoin="bevel"/>
<path d="M48.4311 13.5372H47.2137V10.1495H48.2572C49.1268 9.47202 49.6485 8.11697 49.6485 6.25378V1.17236H56.6051V10.1495H57.8225V13.5372H56.6051V11.3352H48.6051V13.5372H48.4311ZM50.8659 6.25378C50.8659 7.77821 50.5181 9.13326 49.8225 10.1495H55.0399V2.52741H50.692V6.25378H50.8659Z" fill="#D1D8E1" stroke="#D1D8E1" stroke-width="0.2" stroke-miterlimit="10"/>
<path d="M68.0826 9.97718C67.0391 10.9935 65.8217 11.5016 64.2565 11.5016C62.6912 11.5016 61.4738 10.9935 60.4303 9.97718C59.3869 8.9609 58.8651 7.77523 58.8651 6.2508C58.8651 4.72638 59.3869 3.54071 60.4303 2.52443C61.4738 1.50814 62.6912 1 64.2565 1C65.8217 1 67.0391 1.50814 68.0826 2.52443C69.1261 3.54071 69.6478 4.72638 69.6478 6.2508C69.6478 7.77523 69.1261 8.9609 68.0826 9.97718ZM61.4738 9.13028C62.1695 9.8078 63.213 10.3159 64.2565 10.3159C65.2999 10.3159 66.3434 9.97718 67.0391 9.13028C67.7347 8.45275 68.2565 7.43647 68.2565 6.2508C68.2565 5.06514 67.9087 4.04885 67.0391 3.37133C66.3434 2.69381 65.2999 2.18567 64.2565 2.18567C63.213 2.18567 62.1695 2.52443 61.4738 3.37133C60.7782 4.04885 60.2564 5.06514 60.2564 6.2508C60.2564 7.43647 60.6043 8.45275 61.4738 9.13028Z" fill="#D1D8E1" stroke="#D1D8E1" stroke-width="0.2" stroke-miterlimit="10"/>
<path d="M76.4322 11.5016C74.867 11.5016 73.6496 10.9935 72.6061 9.97718C71.5626 8.9609 71.0409 7.77523 71.0409 6.2508C71.0409 4.72638 71.5626 3.54071 72.6061 2.52443C73.6496 1.50814 74.867 1 76.4322 1C77.9975 1 79.2149 1.50814 80.2584 2.69381L79.3888 3.54071C78.6931 2.69381 77.6496 2.18567 76.4322 2.18567C75.2148 2.18567 74.3453 2.52443 73.4757 3.37133C72.6061 4.04885 72.2583 5.06514 72.2583 6.2508C72.2583 7.43647 72.6061 8.45275 73.4757 9.13028C74.1714 9.8078 75.2148 10.3159 76.4322 10.3159C77.6496 10.3159 78.6931 9.8078 79.5627 8.79151L80.4323 9.63842C79.9105 10.1466 79.3888 10.6547 78.6931 10.9935C77.9975 11.3322 77.3018 11.5016 76.4322 11.5016Z" fill="#D1D8E1" stroke="#D1D8E1" stroke-width="0.2" stroke-miterlimit="10"/>
<path d="M85.9965 11.3308H84.6052V2.35364H81.6487V1.16797H88.7792V2.35364H85.8226V11.3308H85.9965Z" fill="#D1D8E1" stroke="#D1D8E1" stroke-width="0.2" stroke-miterlimit="10"/>
<path d="M97.9966 1.16797L93.9965 9.80639C93.4748 10.9921 92.6052 11.6696 91.5617 11.6696C91.2139 11.6696 90.8661 11.6696 90.5183 11.5002L90.8661 10.3145C91.04 10.4839 91.3878 10.4839 91.5617 10.4839C91.9096 10.4839 92.0835 10.4839 92.2574 10.3145C92.4313 10.1451 92.6052 9.97577 92.7791 9.63701L93.127 8.7901L89.6487 1.33735H91.2139L93.8226 7.09629L96.2574 1.33735H97.9966V1.16797Z" fill="#D1D8E1" stroke="#D1D8E1" stroke-width="0.2" stroke-miterlimit="10"/>
<path d="M99.5616 11.3308V1.16797H107.04V11.3308H105.649V2.35364H100.779V11.3308H99.5616Z" fill="#D1D8E1" stroke="#D1D8E1" stroke-width="0.2" stroke-miterlimit="10"/>
<path d="M109.474 11.3308V1.16797H110.866V5.57187H116.083V1.16797H117.475V11.3308H116.083V6.75753H110.866V11.3308H109.474Z" fill="#D1D8E1" stroke="#D1D8E1" stroke-width="0.2" stroke-miterlimit="10"/>
<path d="M128.432 9.97718C127.388 10.9935 126.171 11.5016 124.606 11.5016C123.04 11.5016 121.823 10.9935 120.78 9.97718C119.736 8.9609 119.214 7.77523 119.214 6.2508C119.214 4.72638 119.736 3.54071 120.78 2.52443C121.823 1.50814 123.04 1 124.606 1C126.171 1 127.388 1.50814 128.432 2.52443C129.475 3.54071 129.997 4.72638 129.997 6.2508C129.823 7.77523 129.301 8.9609 128.432 9.97718ZM121.649 9.13028C122.345 9.8078 123.388 10.3159 124.432 10.3159C125.475 10.3159 126.519 9.97718 127.214 9.13028C127.91 8.45275 128.432 7.43647 128.432 6.2508C128.432 5.06514 128.084 4.04885 127.214 3.37133C126.519 2.69381 125.475 2.18567 124.432 2.18567C123.388 2.18567 122.345 2.52443 121.649 3.37133C120.953 4.04885 120.432 5.06514 120.432 6.2508C120.432 7.43647 120.953 8.45275 121.649 9.13028Z" fill="#D1D8E1" stroke="#D1D8E1" stroke-width="0.2" stroke-miterlimit="10"/>
<path d="M135.389 11.3308V1.16797H139.215C140.084 1.16797 140.78 1.50673 141.302 2.01487C141.824 2.52301 142.171 3.20054 142.171 4.04744C142.171 4.55558 141.998 4.89434 141.824 5.40249C141.65 5.74125 141.302 6.08001 140.78 6.24939C141.302 6.41877 141.65 6.75753 141.998 7.09629C142.345 7.43505 142.519 7.9432 142.519 8.62072C142.519 9.46762 142.171 10.1451 141.65 10.6533C140.954 11.1614 140.258 11.5002 139.389 11.5002H135.389V11.3308ZM136.78 5.57187H139.215C139.737 5.57187 140.084 5.40248 140.432 5.06372C140.78 4.72496 140.954 4.3862 140.954 4.04744C140.954 3.70868 140.78 3.36992 140.432 3.03116C140.084 2.6924 139.737 2.52301 139.215 2.52301H136.78V5.57187ZM136.78 10.1451H139.563C140.084 10.1451 140.432 9.97576 140.78 9.637C141.128 9.29824 141.302 8.95948 141.302 8.45134C141.302 8.11258 141.128 7.60444 140.78 7.26567C140.432 6.92691 140.084 6.75753 139.563 6.75753H136.954V10.1451H136.78Z" fill="#D1D8E1" stroke="#D1D8E1" stroke-width="0.2" stroke-miterlimit="10"/>
</svg>
