<svg width="96" height="18" viewBox="0 0 96 18" fill="none" xmlns="http://www.w3.org/2000/svg">
<path d="M60.3734 0.524989C58.9975 0.969818 58.1082 1.56863 57.0343 2.69781C55.9436 3.87832 55.3059 5.14437 54.9536 6.78682C54.2488 10.1744 55.1214 13.4421 57.2859 15.5636C59.1149 17.3601 60.6251 17.8904 63.5783 17.7878C65.3402 17.7193 65.6423 17.668 66.6658 17.189C67.9411 16.5731 69.4512 15.2044 70.0889 14.0923C70.5084 13.3737 71.146 11.526 71.146 11.0469C71.146 10.8587 70.7768 10.8074 69.3506 10.8074H67.5384L67.2195 11.6115C66.4812 13.4421 65.1389 14.2976 63.0078 14.2976C61.5144 14.2976 60.8936 14.0581 59.9371 13.1342C59.1653 12.3985 58.7626 11.5602 58.5276 10.1401C58.0746 7.47117 59.0814 5.09304 61.0782 4.0323C61.8333 3.62168 64.0817 3.60458 64.9543 3.99808C65.9107 4.4258 66.7161 5.26413 67.1356 6.27355L67.5384 7.21454H69.3506C69.4542 7.21454 69.5524 7.21476 69.6454 7.21496C70.5238 7.21693 70.9343 7.21784 71.0663 7.0228C71.1821 6.85166 71.0835 6.52964 70.8983 5.92506C70.8758 5.85158 70.852 5.77392 70.8272 5.69185C70.3909 4.27182 69.8204 3.34794 68.7633 2.30431C67.1356 0.747403 65.6422 0.199923 63.0078 0.217031C61.8668 0.217031 61.0278 0.319684 60.3734 0.524989Z" fill="black"/>
<path fill-rule="evenodd" clip-rule="evenodd" d="M2.71831 0.730324C0.889325 1.6542 0 3.17689 0 5.41814C0 7.02637 0.419493 8.15555 1.4095 9.14786C2.34916 10.1231 3.25526 10.5166 4.7151 10.6021C6.54409 10.7048 7.53409 10.3455 8.74223 9.11364C9.83291 8.00157 10.2356 6.99215 10.2356 5.41814C10.2356 3.981 9.84969 2.93736 8.92681 1.89372C7.83613 0.644781 6.82934 0.199951 5.10103 0.199951C3.92645 0.199951 3.60764 0.268386 2.71831 0.730324ZM6.59443 4.13498C7.1146 4.73379 7.1985 5.57212 6.79578 6.35912C6.44341 7.06059 5.90646 7.38565 5.10103 7.38565C3.74188 7.38565 2.75187 5.98273 3.23848 4.78511C3.87611 3.26243 5.52053 2.93736 6.59443 4.13498Z" fill="black"/>
<path fill-rule="evenodd" clip-rule="evenodd" d="M13.256 17.6851V0.336799L17.5012 0.405234C21.327 0.473669 21.8304 0.524996 22.7365 0.867172C26.2435 2.16744 28.408 5.26414 28.408 9.01097C28.408 12.8091 26.2267 15.8887 22.6526 17.1548C21.6626 17.514 21.1928 17.5483 17.4173 17.6167L13.256 17.6851ZM24.4984 7.129C23.995 5.74319 22.7029 4.44291 21.4612 4.06652C20.8907 3.89543 19.9175 3.79278 18.7597 3.79278H16.9475V14.2634L19.0953 14.1949C21.0082 14.1436 21.3102 14.0923 22.0821 13.6817C24.3474 12.4841 25.4045 9.60978 24.4984 7.129Z" fill="black"/>
<path fill-rule="evenodd" clip-rule="evenodd" d="M34.583 0.747441C33.8615 2.8005 29.0289 17.3088 29.0289 17.4628C29.0289 17.5996 29.5323 17.651 30.9083 17.6167L32.7708 17.5654L33.3581 15.8032L33.9286 14.0581H40.8754L42.0164 17.651H43.9125C44.9529 17.651 45.8086 17.6167 45.8086 17.5825C45.8086 17.497 40.372 1.14094 40.1874 0.661896C40.0868 0.405264 39.7847 0.371046 37.402 0.371046C34.7844 0.371046 34.7173 0.371046 34.583 0.747441ZM38.7276 7.33434L39.9022 10.9785H37.3852C35.4388 10.9785 34.8851 10.9272 34.9522 10.7561L36.1771 7.00927C36.8147 5.05886 37.3684 3.51907 37.4356 3.5875C37.5027 3.65594 38.0732 5.34971 38.7276 7.33434Z" fill="black"/>
<path d="M48.3256 17.651V0.371046H51.8493V17.651H48.3256Z" fill="black"/>
<path d="M73.8307 17.651H77.5223V10.4652H84.7375V17.651H88.4291V0.371046H84.7375V7.38566H77.5223V0.371046H73.8307V17.651Z" fill="black"/>
<path d="M91.9528 17.651V0.371046H95.4766V17.651H91.9528Z" fill="black"/>
</svg>
