<svg width="22" height="32" viewBox="0 0 22 32" fill="none" xmlns="http://www.w3.org/2000/svg">
<path fill-rule="evenodd" clip-rule="evenodd" d="M11.298 31.8101C21.8333 16.5339 21.8333 16.5339 21.8333 10.6672C21.8333 4.77612 17.0577 0.000488281 11.1667 0.000488281C5.27563 0.000488281 0.5 4.77612 0.5 10.6672C0.5 12.1726 0.5 13.2917 0.678003 14.3818C1.19656 17.5573 3.22581 20.4862 11.1667 32.0005L11.298 31.8101ZM11.1669 15.7338C14.1124 15.7338 16.5003 13.346 16.5003 10.4005C16.5003 7.45495 14.1124 5.06714 11.1669 5.06714C8.22141 5.06714 5.83359 7.45495 5.83359 10.4005C5.83359 13.346 8.22141 15.7338 11.1669 15.7338Z" fill="#113EE0"/>
</svg>
