<svg width="180" height="180" viewBox="0 0 180 180" fill="none" xmlns="http://www.w3.org/2000/svg">
<path d="M130.338 94.2791H49.661C47.1575 94.2743 44.7544 95.2628 42.9788 97.0276C41.2033 98.7925 40.2003 101.19 40.19 103.693V131.593C40.2006 134.096 41.2036 136.493 42.9791 138.258C44.7546 140.023 47.1576 141.012 49.661 141.007H130.338C132.841 141.012 135.243 140.024 137.018 138.26C138.794 136.496 139.797 134.1 139.808 131.597V103.693C139.798 101.19 138.796 98.7924 137.02 97.0274C135.245 95.2624 132.841 94.274 130.338 94.2791ZM54.038 137.579V134.679H113.73C113.901 134.672 114.062 134.598 114.178 134.472C114.294 134.347 114.356 134.18 114.349 134.009C114.342 133.838 114.268 133.677 114.142 133.561C114.017 133.445 113.85 133.383 113.679 133.39H54.041V130.166H126.198V133.39H119.262C119.245 133.389 119.229 133.389 119.212 133.39C119.127 133.393 119.043 133.412 118.966 133.447C118.888 133.483 118.819 133.533 118.761 133.595C118.703 133.657 118.658 133.73 118.628 133.81C118.598 133.89 118.585 133.975 118.588 134.06C118.591 134.145 118.611 134.228 118.647 134.305C118.683 134.383 118.733 134.452 118.796 134.51C118.859 134.567 118.932 134.612 119.012 134.641C119.092 134.67 119.177 134.683 119.262 134.679H126.198V137.579H54.038ZM136.371 131.595C136.362 133.188 135.722 134.713 134.59 135.835C133.459 136.957 131.928 137.584 130.335 137.579H129.629L129.634 126.743H50.612V137.583H49.661C48.0677 137.588 46.5375 136.961 45.406 135.839C44.2745 134.717 43.634 133.192 43.625 131.599V103.693C43.6335 102.1 44.2738 100.575 45.4054 99.4527C46.537 98.3308 48.0675 97.7038 49.661 97.7091H130.338C131.931 97.7038 133.462 98.3308 134.594 99.4527C135.725 100.575 136.366 102.1 136.374 103.693L136.371 131.595Z" fill="#191717"/>
<path d="M116.647 105.366H88.128C88.043 105.369 87.9593 105.388 87.8818 105.423C87.8044 105.459 87.7346 105.509 87.6766 105.571C87.6187 105.633 87.5735 105.706 87.5439 105.786C87.5143 105.866 87.5007 105.951 87.504 106.036C87.5073 106.121 87.5274 106.204 87.5631 106.281C87.5988 106.359 87.6495 106.428 87.7121 106.486C87.7748 106.543 87.8482 106.588 87.9281 106.617C88.0081 106.646 88.093 106.659 88.178 106.655H116.698C116.783 106.652 116.866 106.632 116.943 106.596C117.02 106.561 117.089 106.51 117.146 106.448C117.204 106.386 117.248 106.313 117.278 106.234C117.307 106.154 117.32 106.07 117.317 105.985C117.314 105.9 117.294 105.817 117.258 105.74C117.223 105.663 117.172 105.594 117.11 105.537C117.048 105.479 116.975 105.435 116.896 105.405C116.816 105.376 116.732 105.363 116.647 105.366ZM128.011 105.366H122.186C122.015 105.373 121.854 105.447 121.738 105.573C121.622 105.698 121.56 105.865 121.567 106.036C121.574 106.207 121.648 106.368 121.774 106.484C121.899 106.6 122.066 106.662 122.237 106.655H128.062C128.233 106.648 128.394 106.574 128.51 106.448C128.626 106.323 128.688 106.156 128.681 105.985C128.674 105.814 128.6 105.653 128.474 105.537C128.349 105.421 128.182 105.359 128.011 105.366Z" fill="#191717"/>
<path d="M89.647 25C84.7723 25 80.007 26.4455 75.9539 29.1538C71.9007 31.862 68.7416 35.7113 66.8762 40.215C65.0107 44.7187 64.5226 49.6743 65.4736 54.4554C66.4246 59.2364 68.772 63.6281 72.2189 67.0751C75.6659 70.522 80.0576 72.8694 84.8386 73.8204C89.6197 74.7714 94.5754 74.2833 99.079 72.4179C103.583 70.5524 107.432 67.3933 110.14 63.3401C112.848 59.287 114.294 54.5217 114.294 49.647C114.294 46.4103 113.656 43.2053 112.418 40.215C111.179 37.2247 109.364 34.5076 107.075 32.2189C104.786 29.9303 102.069 28.1148 99.079 26.8761C96.0887 25.6375 92.8837 25 89.647 25ZM89.647 71.494C85.3261 71.494 81.1022 70.2127 77.5095 67.8121C73.9167 65.4115 71.1166 61.9995 69.463 58.0075C67.8095 54.0155 67.3768 49.6228 68.2198 45.3849C69.0628 41.147 71.1435 37.2542 74.1988 34.1988C77.2542 31.1435 81.147 29.0628 85.3849 28.2198C89.6228 27.3768 94.0155 27.8095 98.0075 29.463C102 31.1166 105.412 33.9167 107.812 37.5095C110.213 41.1022 111.494 45.3261 111.494 49.647C111.494 55.4412 109.192 60.9981 105.095 65.0952C100.998 69.1923 95.4412 71.494 89.647 71.494Z" fill="#FF0000"/>
<path d="M99.094 39.4209L89.646 48.8689L80.198 39.4209L79.421 40.1979L88.869 49.6459L79.421 59.0939L80.198 59.8709L89.646 50.4229L99.094 59.8709L99.871 59.0939L90.423 49.6459L99.871 40.1979L99.094 39.4209Z" fill="#FF0000"/>
</svg>
