<svg width="432" height="139" viewBox="0 0 432 139" fill="none" xmlns="http://www.w3.org/2000/svg">
<path d="M0.5 13C0.5 9.68629 3.18629 7 6.5 7L425.5 7C428.814 7 431.5 9.68629 431.5 13V107C431.5 110.314 428.814 113 425.5 113H6.50001C3.1863 113 0.5 110.314 0.5 107V13Z" stroke="#151515"/>
<path d="M0.500244 66V112.997C0.500244 116.312 3.1885 118.999 6.50347 118.997L425.503 118.772C428.816 118.77 431.5 116.084 431.5 112.772V66" stroke="#151515"/>
<path d="M0.500244 113C0.500244 115.622 1.86768 123.978 2.80994 129.424C3.30364 132.278 5.78622 134.346 8.68228 134.346H26.5164M431.5 112.5C431.5 115.121 430.289 123.685 429.453 129.28C429.017 132.2 426.504 134.346 423.552 134.346H406.581" stroke="#151515"/>
<path d="M404.371 118.27C404.617 123.385 406.139 134.492 407.317 138C406.581 138 25.0432 138 25.0432 138C26.5163 134.346 28.726 123.677 28.726 119" stroke="#151515" stroke-linejoin="round"/>
<path d="M409.527 118.27C409.527 124.846 407.759 130.254 406.581 134.346" stroke="#151515"/>
<path d="M22 119C22 125.136 24 130.591 26 134" stroke="#151515"/>
<path d="M0.500244 17.4272V7.35086C0.500244 4.03715 3.18655 1.35086 6.50026 1.35086H425.5C428.814 1.35086 431.5 4.03716 431.5 7.35086V17.4272" stroke="#151515"/>
<path d="M22.0969 1.35059L16.941 7.19654" stroke="#151515"/>
<path d="M355.022 1.34999L357.232 7.19626" stroke="#151515"/>
<g clip-path="url(#clip0)">
<path fill-rule="evenodd" clip-rule="evenodd" d="M412.39 90.4571H412.39H412.393C413.221 90.453 414.024 90.7199 414.668 91.2126C415.312 91.7052 415.757 92.3936 415.927 93.1612C416.097 93.9288 415.983 94.7286 415.603 95.4255C415.223 96.1224 414.602 96.6737 413.843 96.9861C413.522 97.101 413.183 97.1643 412.84 97.1736C412.693 97.1736 412.587 97.1526 412.565 97.1049C412.531 97.0356 412.648 96.9686 412.753 96.9192C413.513 96.5619 413.663 96.465 413.887 96.3211C413.941 96.2868 413.998 96.2498 414.069 96.2059C414.85 95.7367 415.389 94.7877 415.389 93.8648C415.386 93.1133 415.069 92.3935 414.507 91.8636C413.945 91.3337 413.184 91.0371 412.391 91.0388C412.234 91.0389 412.078 91.0504 411.923 91.0731C411.879 91.0796 411.834 91.077 411.791 91.0653C411.748 91.0536 411.709 91.0332 411.675 91.0055C411.641 90.9778 411.614 90.9434 411.596 90.9048C411.578 90.8662 411.569 90.8243 411.569 90.782V90.7477C411.566 90.2597 411.429 89.781 411.171 89.3587C410.913 88.9365 410.543 88.5854 410.098 88.3401C409.653 88.0948 409.148 87.9638 408.634 87.96C408.119 87.9563 407.612 88.0799 407.163 88.3186C407.123 88.3401 407.079 88.3527 407.033 88.3556C406.987 88.3584 406.941 88.3515 406.898 88.3353C406.856 88.3191 406.817 88.294 406.786 88.2619C406.755 88.2298 406.732 88.1915 406.719 88.1498C406.476 87.4078 405.99 86.7587 405.331 86.2969C404.672 85.835 403.875 85.5847 403.056 85.5822C400.948 85.5822 399.229 87.2019 399.229 89.192C399.229 89.3321 399.238 89.472 399.256 89.6112C399.261 89.6504 399.257 89.6902 399.245 89.7281C399.233 89.766 399.213 89.8012 399.187 89.8315C399.16 89.8618 399.127 89.8867 399.09 89.9046C399.053 89.9225 399.012 89.933 398.97 89.9355C398.063 89.9891 397.212 90.368 396.588 90.9951C395.965 91.6222 395.617 92.4507 395.614 93.3123C395.611 93.8468 395.744 94.3741 396.002 94.8494C396.21 95.2086 396.624 95.7483 397.407 96.2723C397.797 96.5207 398.208 96.7377 398.636 96.9209C398.8 96.9925 398.863 97.049 398.838 97.1031C398.775 97.2388 398.038 97.1474 397.623 96.9867C396.847 96.6951 396.182 96.1885 395.714 95.5331C395.246 94.8776 394.997 94.1037 395 93.3123C395.004 92.3545 395.372 91.4301 396.037 90.709C396.702 89.9879 397.619 89.5185 398.62 89.387C398.615 89.3212 398.615 89.256 398.615 89.192C398.615 86.8806 400.607 85 403.056 85C403.946 84.9989 404.816 85.2519 405.553 85.726C406.29 86.2001 406.86 86.8734 407.188 87.6584C407.638 87.4739 408.123 87.3784 408.614 87.3778C410.46 87.3778 412.016 88.7309 412.171 90.4635C412.244 90.4571 412.318 90.4571 412.39 90.4571ZM399.348 98.6651V98.2162H399.461L399.821 98.6651H400.097L399.657 98.1359L400.066 97.6375H399.79L399.483 98.0369H399.348V97.6375H399.106V98.6651H399.348ZM400.655 98.6903C400.391 98.6903 400.12 98.5238 400.12 98.1535C400.12 97.7832 400.391 97.6143 400.655 97.6143C400.919 97.6143 401.189 97.7826 401.189 98.1535C401.189 98.5244 400.919 98.6903 400.655 98.6903ZM400.941 98.1535C400.941 97.9165 400.806 97.8001 400.655 97.8001C400.504 97.8001 400.368 97.9165 400.368 98.1535C400.368 98.3904 400.504 98.5028 400.655 98.5028C400.806 98.5028 400.941 98.391 400.941 98.1535ZM401.64 98.2279H402.124V98.6651H402.363V97.6375H402.124V98.048H401.64V97.6375H401.4V98.6651H401.64V98.2279ZM403.536 98.9081V98.6653H402.744V98.9081H402.527V98.4877H402.588C402.711 98.4877 402.772 98.3386 402.79 97.9637L402.806 97.6371H403.596V98.4871H403.757V98.9075L403.536 98.9081ZM403.014 97.817L403.005 97.9916C402.988 98.263 402.948 98.4097 402.863 98.4883H403.355V97.817H403.014ZM404.691 97.9525V98.6651H404.931V97.6375H404.691L404.175 98.3537V97.6375H403.935V98.6651H404.175L404.691 97.9525ZM406.286 98.9079H406.068V98.6651H405.201V97.6375H405.44V98.4858H405.884V97.6375H406.124V98.4858H406.285L406.286 98.9079ZM407.221 97.9525V98.6651H407.461V97.6375H407.221L406.705 98.3537V97.6375H406.465V98.6651H406.705L407.221 97.9525ZM408.185 98.6903C407.921 98.6903 407.651 98.5238 407.651 98.1535C407.651 97.7832 407.921 97.6143 408.185 97.6143C408.449 97.6143 408.719 97.7826 408.719 98.1535C408.719 98.5244 408.45 98.6903 408.185 98.6903ZM408.471 98.1535C408.471 97.9165 408.336 97.8001 408.185 97.8001C408.034 97.8001 407.899 97.9165 407.899 98.1535C407.899 98.3904 408.034 98.5028 408.185 98.5028C408.336 98.5028 408.471 98.391 408.471 98.1535ZM409.167 98.2279H409.65V98.6651H409.89V97.6375H409.65V98.048H409.167V97.6375H408.927V98.6651H409.167V98.2279ZM410.636 98.5011C410.759 98.5011 410.86 98.4533 410.902 98.3578H411.138C411.107 98.4572 411.042 98.5438 410.953 98.604C410.864 98.6642 410.756 98.6946 410.647 98.6903C410.298 98.6903 410.098 98.4382 410.098 98.1436C410.098 97.8344 410.322 97.6143 410.631 97.6143C410.963 97.6143 411.171 97.8705 411.151 98.2164H410.342C410.358 98.4073 410.499 98.5011 410.636 98.5011ZM410.906 98.0504C410.906 98.0162 410.899 97.9823 410.885 97.9508C410.871 97.9192 410.851 97.8906 410.825 97.8666C410.799 97.8425 410.769 97.8236 410.735 97.8108C410.702 97.7979 410.666 97.7915 410.63 97.7919C410.556 97.7904 410.484 97.8166 410.43 97.865C410.376 97.9134 410.344 97.9801 410.342 98.0504H410.906ZM411.728 97.6528C411.671 97.6811 411.623 97.7232 411.589 97.7749V97.6375H411.35V98.9999H411.589V98.5295C411.623 98.5812 411.671 98.6233 411.728 98.6516C411.784 98.6798 411.848 98.6932 411.912 98.6902C412.176 98.6902 412.378 98.4794 412.378 98.151C412.378 97.8227 412.176 97.6142 411.912 97.6142C411.848 97.6112 411.784 97.6245 411.728 97.6528ZM411.859 97.8017C412.027 97.8017 412.128 97.9356 412.128 98.151C412.128 98.3694 412.027 98.5073 411.859 98.505C411.702 98.505 411.579 98.3839 411.579 98.151C411.579 97.9181 411.702 97.8017 411.859 97.8017ZM399.425 94.9059C399.84 94.9059 400.193 95.165 400.193 95.6809C400.193 96.1967 399.84 96.4535 399.425 96.4535C399.011 96.4535 398.657 96.1967 398.657 95.6809C398.657 95.165 399.01 94.9059 399.425 94.9059ZM399.425 96.0471C399.557 96.0471 399.659 95.9539 399.659 95.6809C399.659 95.4078 399.557 95.3123 399.425 95.3123C399.293 95.3123 399.192 95.4078 399.192 95.6809C399.192 95.9539 399.293 96.0471 399.425 96.0471ZM400.32 95.48V95.5254C400.32 96.1786 400.65 96.4534 401.043 96.4511C401.408 96.4511 401.792 96.2112 401.792 95.7303C401.792 95.2837 401.486 95.0509 401.146 95.0509C400.973 95.0509 400.778 95.105 400.69 95.2721C400.708 94.9961 400.871 94.9222 401.076 94.8977L401.634 94.8395V94.3912L401.18 94.432C400.505 94.4948 400.336 94.9426 400.32 95.48ZM401.038 95.4188C401.155 95.4188 401.264 95.4899 401.264 95.7326C401.264 95.962 401.153 96.047 401.044 96.047C400.935 96.047 400.831 95.9486 400.831 95.7326C400.831 95.4928 400.922 95.4188 401.038 95.4188ZM401.878 96.0197H401.925C402.021 96.0197 402.114 95.9266 402.137 95.441L402.164 94.9496H403.413V96.418H402.895V95.3478H402.641L402.617 95.6919C402.589 96.1071 402.425 96.418 401.976 96.418H401.878V96.0197ZM404.281 95.2601C404.308 95.252 404.337 95.2493 404.366 95.2521C404.477 95.2521 404.573 95.2847 404.574 95.4489V95.4897C403.987 95.5281 403.653 95.6725 403.653 96.0137C403.653 96.2757 403.878 96.4532 404.151 96.4532C404.348 96.4532 404.521 96.388 404.625 96.2268V96.4177H405.108C405.087 96.2218 405.078 96.0248 405.082 95.8279V95.5467C405.087 95.0553 404.802 94.897 404.402 94.897C403.941 94.897 403.707 95.1619 403.683 95.4408H404.13C404.132 95.4135 404.139 95.3869 404.152 95.3626C404.165 95.3382 404.183 95.3166 404.205 95.299C404.227 95.2814 404.253 95.2681 404.281 95.2601ZM404.342 96.0847C404.222 96.0847 404.172 96.0147 404.171 95.9521C404.172 95.8252 404.318 95.7761 404.592 95.7569V95.8006C404.592 96.0265 404.477 96.0847 404.342 96.0847ZM406.177 95.9347C406.063 95.9604 405.947 95.9733 405.83 95.9732C405.518 95.9732 405.329 95.82 405.329 95.4928V94.9496H405.848V95.4078C405.848 95.5743 405.902 95.6017 406.05 95.6017C406.093 95.6021 406.136 95.5966 406.177 95.5854V94.9496H406.696V96.418H406.177V95.9347ZM407.523 94.9496H407.004L407.004 96.418H407.523V95.8666H407.93V96.418H408.449V94.9496H407.93V95.4684H407.523V94.9496ZM408.76 94.9496H409.278V95.3781H409.463C409.898 95.3781 410.082 95.5365 410.082 95.8911C410.082 96.287 409.919 96.418 409.494 96.418H408.76V94.9496ZM409.447 96.0494C409.554 96.0494 409.621 96.0168 409.621 95.8911C409.621 95.7793 409.554 95.7467 409.45 95.7467H409.278V96.0494H409.447ZM410.257 94.9496H410.775V96.418H410.257V94.9496ZM411.566 94.9496H411.086V96.418H411.566L412.046 95.618V96.418H412.526V94.9496H412.046L411.566 95.7647V94.9496ZM411.611 94.439H411.304C411.319 94.641 411.486 94.7802 411.805 94.7802C412.123 94.7802 412.287 94.641 412.308 94.439H412C411.99 94.5042 411.922 94.5374 411.806 94.5374C411.689 94.5374 411.624 94.5042 411.611 94.439Z" fill="#231F20"/>
</g>
<defs>
<clipPath id="clip0">
<rect width="21" height="14" fill="white" transform="translate(395 85)"/>
</clipPath>
</defs>
</svg>
