<svg width="180" height="180" viewBox="0 0 180 180" fill="none" xmlns="http://www.w3.org/2000/svg">
<path d="M28.4528 86.8637C28.7112 86.3238 29.1171 85.868 29.6237 85.5491C30.1302 85.2302 30.7167 85.0612 31.3152 85.0616H102.218C108.314 85.0486 114.177 87.4063 118.568 91.6364L139.478 111.713C139.6 111.831 139.736 111.932 139.884 112.014L151.498 118.37C152.175 118.741 152.754 119.266 153.188 119.904C153.622 120.542 153.898 121.274 153.994 122.04L154.725 128.26C155.072 128.563 155.325 128.959 155.453 129.401C155.582 129.843 155.582 130.313 155.452 130.755L154.175 135.06C153.923 135.906 153.473 136.68 152.861 137.317C152.249 137.953 151.494 138.435 150.659 138.72L150.04 138.933C149.722 139.041 149.383 139.071 149.051 139.022C148.719 138.972 148.404 138.845 148.131 138.649C147.858 138.453 147.636 138.195 147.483 137.896C147.33 137.597 147.25 137.266 147.251 136.93C147.251 132.391 143.286 128.7 138.412 128.7C133.537 128.7 129.571 132.391 129.571 136.93C129.571 137.431 129.547 138.552 129.531 139.183C129.518 139.683 129.31 140.158 128.953 140.507C128.595 140.857 128.116 141.054 127.616 141.056H64.5938C64.0903 141.054 63.6078 140.854 63.2502 140.499C62.8926 140.145 62.6883 139.664 62.6815 139.161C62.6735 138.391 62.6635 137.524 62.6635 136.923C62.6635 132.384 58.6978 128.693 53.825 128.693C48.9522 128.693 44.9845 132.384 44.9845 136.923V138.825C44.9858 139.113 44.9212 139.398 44.7957 139.657C44.6702 139.916 44.4871 140.142 44.2604 140.32C44.0337 140.497 43.7694 140.62 43.4878 140.68C43.2062 140.739 42.9147 140.733 42.6357 140.663L26.4004 136.53C25.8501 136.392 25.3617 136.074 25.0129 135.627C24.6642 135.179 24.4752 134.628 24.4761 134.061V111.512C24.4551 110.898 23.9895 96.361 28.4528 86.8637ZM122.493 100.628C121.626 99.7565 120.594 99.0656 119.459 98.5954C118.323 98.1252 117.105 97.885 115.876 97.8888H112.102C112.054 97.8938 112.007 97.9084 111.964 97.9316C111.921 97.9549 111.883 97.9864 111.852 98.0244C111.821 98.0623 111.799 98.106 111.785 98.1528C111.771 98.1997 111.767 98.2488 111.772 98.2973L112.896 110.051C112.945 110.584 113.164 111.087 113.52 111.486C113.876 111.886 114.35 112.161 114.874 112.271L123.807 114.173L123.254 101.387L122.493 100.628ZM135.067 113.435L135.204 116.364L138.783 117.113L135.067 113.435ZM133.465 111.533L125.343 103.462L125.827 114.61L133.665 116.27L133.465 111.533ZM42.1091 137.564V136.937C42.1091 130.807 47.3663 125.824 53.828 125.824C56.6248 125.768 59.3465 126.731 61.4861 128.534C63.6257 130.336 65.0372 132.854 65.4578 135.62H124.008V136.759H65.5389C65.5389 136.819 65.5489 136.877 65.5489 136.937C65.5489 137.282 65.556 137.724 65.556 138.183H126.679V138.188C126.69 137.71 126.698 137.224 126.699 136.945C126.699 130.815 131.956 125.832 138.419 125.832C141.257 125.771 144.018 126.762 146.171 128.613C148.324 130.464 149.717 133.045 150.082 135.861C150.402 135.699 150.686 135.473 150.916 135.197C151.146 134.922 151.318 134.603 151.421 134.259L152.615 130.226C152.234 129.81 151.992 129.285 151.923 128.724L151.491 125.228C150.767 124.214 150.083 123.171 149.441 122.103C149.383 122.009 149.35 121.902 149.345 121.792C149.341 121.681 149.365 121.572 149.415 121.474C149.466 121.376 149.541 121.292 149.633 121.232C149.725 121.171 149.831 121.136 149.941 121.128L150.393 121.099C150.307 121.027 150.215 120.962 150.118 120.905L138.513 114.551C138.139 114.348 137.794 114.095 137.487 113.8L133.417 109.895L134.506 110.977L141.654 118.011L141.095 119.031L133.874 117.516V117.484L124.731 115.549V115.544L114.641 113.401C113.88 113.241 113.19 112.842 112.673 112.261C112.156 111.68 111.838 110.949 111.767 110.174L110.643 98.4235C110.637 98.3726 110.635 98.3214 110.635 98.2703C110.636 97.8711 110.796 97.4888 111.079 97.2073C111.362 96.9258 111.745 96.768 112.144 96.7685H115.88C117.819 96.7663 119.719 97.3055 121.368 98.3253L116.586 93.7329C112.73 90.0183 107.581 87.9485 102.228 87.961H31.3222C31.2697 87.9597 31.2179 87.973 31.1725 87.9993C31.1271 88.0256 31.0899 88.064 31.0649 88.1102C26.9 96.9727 27.3545 111.289 27.3605 111.483V112.167H29.2628C29.5365 112.169 29.7982 112.28 29.9904 112.474C30.1826 112.669 30.2896 112.932 30.288 113.206V126.082C30.2891 126.356 30.1818 126.619 29.9897 126.813C29.7976 127.008 29.5362 127.118 29.2628 127.121H27.3605V132.191H40.6343V133.33H27.3525V133.817L42.1091 137.564ZM29.1457 123.124L29.0225 123.246H27.3605V123.826H29.0225L29.1457 123.949V123.124ZM27.3605 116.398H29.1457V113.294H27.3605V116.398ZM27.3605 119.638V122.298H29.0225L29.1457 122.421V119.638H27.3605ZM29.1457 124.652L29.0225 124.776H27.3605V125.977H29.1457V124.652Z" fill="#1A1818"/>
<path d="M29.2778 94.3074C29.2778 93.941 29.8785 93.6406 30.6144 93.6406H115.151C115.891 93.6406 116.486 93.941 116.486 94.3074C116.486 94.6739 115.891 94.9772 115.151 94.9772H30.6144C29.8785 94.9772 29.2778 94.6739 29.2778 94.3074ZM53.6708 128.816C55.3777 128.817 57.0462 129.323 58.4654 130.271C59.8845 131.22 60.9905 132.568 61.6435 134.145C62.2965 135.722 62.4672 137.457 62.134 139.131C61.8008 140.805 60.9787 142.343 59.7716 143.55C58.5645 144.757 57.0266 145.579 55.3525 145.911C53.6783 146.244 51.9431 146.073 50.3662 145.42C48.7893 144.766 47.4416 143.66 46.4934 142.241C45.5453 140.821 45.0394 139.153 45.0396 137.446C45.0397 136.312 45.263 135.19 45.6968 134.143C46.1307 133.096 46.7665 132.145 47.568 131.343C48.3695 130.542 49.3209 129.907 50.368 129.473C51.4152 129.039 52.5374 128.816 53.6708 128.816ZM53.6708 142.349C54.6395 142.347 55.586 142.059 56.3908 141.519C57.1955 140.98 57.8223 140.214 58.1919 139.319C58.5616 138.424 58.6575 137.439 58.4675 136.489C58.2775 135.539 57.8102 134.667 57.1246 133.983C56.439 133.298 55.5659 132.833 54.6157 132.644C53.6655 132.456 52.6808 132.554 51.7861 132.925C50.8914 133.296 50.1268 133.925 49.5891 134.73C49.0513 135.536 48.7645 136.483 48.7649 137.452C48.7652 138.095 48.8923 138.733 49.1391 139.327C49.3858 139.922 49.7474 140.462 50.203 140.917C50.6586 141.372 51.1994 141.732 51.7944 141.978C52.3894 142.223 53.027 142.349 53.6708 142.349Z" fill="#1A1818"/>
<path d="M53.6708 134.916C54.1714 134.916 54.6607 135.064 55.0769 135.342C55.4932 135.621 55.8176 136.016 56.0091 136.478C56.2007 136.941 56.2508 137.45 56.1532 137.941C56.0555 138.432 55.8145 138.883 55.4605 139.237C55.1066 139.591 54.6555 139.832 54.1645 139.929C53.6736 140.027 53.1647 139.977 52.7022 139.785C52.2398 139.594 51.8445 139.269 51.5664 138.853C51.2883 138.437 51.1398 137.947 51.1398 137.447C51.1398 136.776 51.4065 136.132 51.8811 135.657C52.3558 135.183 52.9995 134.916 53.6708 134.916ZM138.494 128.817C140.201 128.817 141.869 129.323 143.288 130.272C144.707 131.22 145.813 132.568 146.466 134.145C147.119 135.722 147.29 137.458 146.957 139.132C146.624 140.806 145.802 142.343 144.594 143.55C143.387 144.757 141.85 145.579 140.175 145.912C138.501 146.244 136.766 146.073 135.189 145.42C133.612 144.766 132.264 143.66 131.316 142.241C130.368 140.821 129.862 139.153 129.862 137.446C129.863 136.312 130.086 135.19 130.52 134.143C130.954 133.096 131.59 132.144 132.392 131.343C133.193 130.542 134.145 129.906 135.192 129.473C136.24 129.039 137.362 128.816 138.496 128.817H138.494ZM138.494 142.351C139.463 142.35 140.409 142.061 141.214 141.522C142.019 140.983 142.646 140.217 143.016 139.322C143.386 138.426 143.482 137.441 143.292 136.491C143.103 135.541 142.635 134.668 141.95 133.984C141.264 133.299 140.391 132.833 139.441 132.645C138.49 132.456 137.505 132.554 136.61 132.925C135.716 133.296 134.951 133.924 134.413 134.73C133.875 135.536 133.588 136.483 133.588 137.452C133.588 138.096 133.715 138.734 133.962 139.329C134.209 139.924 134.571 140.464 135.026 140.919C135.482 141.374 136.024 141.735 136.619 141.98C137.214 142.226 137.852 142.352 138.497 142.351H138.494Z" fill="#1A1818"/>
<path d="M138.496 134.916C138.996 134.916 139.485 135.064 139.901 135.343C140.317 135.621 140.641 136.016 140.832 136.478C141.024 136.94 141.074 137.449 140.976 137.94C140.878 138.43 140.637 138.881 140.284 139.235C139.93 139.589 139.479 139.829 138.988 139.927C138.498 140.025 137.989 139.975 137.527 139.783C137.065 139.592 136.67 139.268 136.391 138.852C136.113 138.436 135.965 137.947 135.965 137.447C135.964 137.114 136.03 136.785 136.157 136.478C136.284 136.171 136.471 135.892 136.706 135.657C136.941 135.422 137.22 135.235 137.527 135.108C137.834 134.981 138.163 134.916 138.496 134.916ZM64.9161 132.177H124.003V133.316H64.9161V132.177Z" fill="#1A1818"/>
<path d="M76.9775 56.0309C75.9142 56.0296 74.8571 55.87 73.8408 55.5574L72.0386 55.0027L78.7736 48.2767L77.7955 44.6264L74.1401 43.6472L67.4041 50.3722L66.8495 48.577C66.2786 46.7388 66.2217 44.7794 66.6849 42.9111C67.1482 41.0428 68.114 39.337 69.4776 37.9784C70.5934 36.8743 71.9386 36.0294 73.4177 35.5037C74.8968 34.978 76.4734 34.7845 78.0358 34.9368L78.2721 34.9669L78.4062 34.9839L78.5954 35.0089C79.2893 35.1066 79.9963 35.0415 80.6606 34.8187C81.325 34.596 81.9283 34.2216 82.423 33.7254L92.3418 23.8196C92.8381 23.326 93.2126 22.7236 93.4356 22.0601C93.6586 21.3966 93.7239 20.6902 93.6263 19.9971L93.5502 19.4414L93.5572 19.4344C93.3815 17.6957 93.6392 15.9406 94.3071 14.3258C94.9751 12.7109 96.0326 11.2867 97.3852 10.1802C98.7378 9.07368 100.343 8.3194 102.059 7.98471C103.774 7.65001 105.545 7.74532 107.214 8.26212L109.009 8.81577L102.278 15.5418L103.255 19.1951L106.912 20.1713L113.647 13.4473L114.202 15.2394C114.773 17.0776 114.831 19.0372 114.367 20.9056C113.904 22.774 112.938 24.4799 111.574 25.838C110.488 26.9133 109.185 27.7434 107.751 28.2722C106.318 28.801 104.788 29.0164 103.264 28.9037L103.255 28.9197L102.454 28.8105C101.773 28.7136 101.078 28.7742 100.424 28.9877C99.7704 29.2012 99.1741 29.5619 98.6813 30.042L88.6564 40.0539C88.1776 40.5454 87.8178 41.1401 87.6046 41.7923C87.3915 42.4446 87.3307 43.137 87.4269 43.8164C87.859 46.5901 87.1716 49.4218 85.516 51.6888C83.8603 53.9557 81.3721 55.4723 78.5984 55.9048C78.0621 55.9878 77.5202 56.03 76.9775 56.0309ZM76.499 53.7532C77.6687 53.8261 78.8405 53.6476 79.9355 53.2299C81.0306 52.8121 82.0235 52.1648 82.8475 51.3313C83.7753 50.4029 84.4704 49.2683 84.8761 48.02C85.2819 46.7718 85.3868 45.4453 85.1823 44.1488C85.037 43.1243 85.1284 42.0801 85.4495 41.0964C85.7706 40.1126 86.3128 39.2156 87.0345 38.474L97.0924 28.4291C97.7275 27.7974 98.4841 27.3011 99.3165 26.9702C100.149 26.6393 101.04 26.4806 101.935 26.5038L101.967 26.4417L102.786 26.5689C104.013 26.7645 105.268 26.683 106.459 26.3303C107.649 25.9777 108.746 25.3629 109.669 24.531C110.591 23.6991 111.315 22.6713 111.789 21.5229C112.262 20.3745 112.472 19.1347 112.404 17.8946L107.598 22.7003L101.413 21.0473L99.7576 14.869L104.563 10.0633C103.324 9.99373 102.085 10.2025 100.936 10.6741C99.7882 11.1458 98.7601 11.8685 97.9275 12.7891C97.0948 13.7098 96.4787 14.8051 96.1245 15.9949C95.7702 17.1846 95.6866 18.4385 95.88 19.6647L95.9701 20.2333L95.935 20.2674C95.9869 21.217 95.8372 22.1669 95.4957 23.0546C95.1542 23.9422 94.6287 24.7475 93.9537 25.4175L84.0339 35.3293C83.3652 36.0079 82.559 36.5356 81.6695 36.877C80.7801 37.2184 79.8278 37.3656 78.8768 37.3086L78.8447 37.3407L78.2721 37.2546C77.0456 37.0581 75.7908 37.139 74.5997 37.4913C73.4087 37.8437 72.3118 38.4586 71.3897 39.2908C70.4677 40.123 69.7438 41.1512 69.2716 42.3C68.7993 43.4488 68.5905 44.6888 68.6606 45.9289L73.4664 41.1292L79.6497 42.7852L81.3047 48.9605L76.499 53.7532ZM106.435 54.9957C105.95 54.9973 105.469 54.9031 105.021 54.7186C104.573 54.5341 104.166 54.2628 103.822 53.9204L94.4673 44.5783L95.1001 43.9455C94.7817 43.0695 94.2508 42.2862 93.5552 41.6658C93.0115 41.1025 92.379 40.6324 91.683 40.2742L90.2213 39.5894L98.2167 31.6059L98.9006 33.0676C99.2607 33.7625 99.731 34.3944 100.293 34.9388C100.916 35.6314 101.699 36.1602 102.574 36.4787L103.207 35.8439L112.562 45.19C113.253 45.8819 113.641 46.8198 113.641 47.7976C113.641 48.7754 113.253 49.7133 112.562 50.4052L109.043 53.9194C108.701 54.2619 108.295 54.5333 107.848 54.7181C107.401 54.9028 106.922 54.9972 106.439 54.9957H106.435ZM105.423 52.3175C105.696 52.5749 106.057 52.7183 106.432 52.7183C106.807 52.7183 107.168 52.5749 107.441 52.3175L110.961 48.8023C111.093 48.6699 111.198 48.5127 111.27 48.3398C111.342 48.1668 111.379 47.9814 111.379 47.7941C111.379 47.6069 111.342 47.4215 111.27 47.2485C111.198 47.0755 111.093 46.9183 110.961 46.7859L102.909 38.7434C102.84 38.7504 102.737 38.7494 102.694 38.7544C101.135 38.5214 99.7127 37.7327 98.6893 36.5337C98.321 36.1642 97.9784 35.7698 97.6641 35.3533L93.9747 39.0347C94.3921 39.3486 94.7866 39.6918 95.1551 40.0619C96.4727 41.3755 97.4829 43.0144 97.3717 44.2759L105.423 52.3175ZM85.1272 29.9249L76.7903 21.596L72.4652 19.6697L68.6055 13.3021L71.8955 10.0112L78.2721 13.8688L80.2003 18.1869L88.5382 26.5138L85.1272 29.9249ZM74.036 17.8916L78.0958 19.7007L85.1272 26.7231L85.3355 26.5148L78.3031 19.4925L76.4919 15.4386L72.2419 12.8686L71.4629 13.6465L74.036 17.8916Z" fill="#1A1818"/>
<path d="M107.647 50.3411C107.531 50.3417 107.415 50.3188 107.308 50.2739C107.201 50.2291 107.104 50.163 107.022 50.0798L99.1239 42.1844C99.0419 42.1035 98.9766 42.0072 98.9319 41.9011C98.8871 41.7949 98.8637 41.681 98.8629 41.5658C98.8622 41.4506 98.8841 41.3364 98.9275 41.2297C98.9709 41.123 99.0349 41.0259 99.1159 40.9439L99.1239 40.9359L99.5774 40.4784C99.7441 40.3142 99.9687 40.2222 100.203 40.2222C100.437 40.2222 100.661 40.3142 100.828 40.4784L108.737 48.3747C108.819 48.4567 108.884 48.5539 108.929 48.6609C108.973 48.7679 108.996 48.8826 108.996 48.9985C108.996 49.1143 108.973 49.229 108.929 49.3361C108.884 49.4431 108.819 49.5403 108.737 49.6222L108.279 50.0798C108.197 50.1637 108.098 50.2301 107.99 50.275C107.881 50.3199 107.764 50.3424 107.647 50.3411ZM100.225 41.0801L99.7246 41.5386L107.628 49.4831C107.634 49.4879 107.642 49.491 107.65 49.4921L108.133 49.0245L100.225 41.0801Z" fill="#1A1818"/>
</svg>
