<svg width="114" height="80" viewBox="0 0 114 80" fill="none" xmlns="http://www.w3.org/2000/svg">
<g clip-path="url(#clip0_3578_26186)">
<path d="M93.7476 31.1489C93.357 31.1489 92.9596 31.1489 92.5657 31.1855C91.7317 21.2954 83.3423 13.5722 73.3906 13.5722C70.7464 13.5756 68.1306 14.1207 65.7034 15.174C63.9351 10.6932 60.8649 6.85004 56.8921 4.14392C52.9193 1.4378 48.2272 -0.00607449 43.426 -4.22107e-05C30.2263 -4.22107e-05 19.4866 10.7341 19.4866 23.9275C19.4866 24.293 19.4866 24.6652 19.5164 25.0408C14.1212 25.7912 9.17698 28.4706 5.59177 32.5865C2.00656 36.7025 0.0211185 41.9788 0.000139238 47.4464C-0.015728 51.9637 1.32489 56.3811 3.84717 60.1222C6.36943 63.8634 9.95626 66.7547 14.1399 68.4192C16.3779 69.3366 20.3507 69.8585 20.6884 69.0841C20.8241 68.7751 20.4864 68.4524 19.5992 68.0437C17.2927 66.9981 15.0778 65.7596 12.9779 64.3419C8.75347 61.3509 6.52543 58.2701 5.40313 56.2196C4.01287 53.5068 3.29511 50.4969 3.31078 47.4464C3.32482 42.5279 5.20234 37.7992 8.56242 34.2195C11.9225 30.64 16.5133 28.4776 21.4035 28.1713C21.6278 28.157 21.8468 28.097 22.0473 27.995C22.2478 27.893 22.4254 27.751 22.5695 27.5778C22.7135 27.4046 22.8209 27.2038 22.8851 26.9876C22.9493 26.7714 22.969 26.5443 22.9429 26.3202C22.8488 25.5261 22.8002 24.7272 22.7972 23.9275C22.7972 12.5685 32.0671 3.32322 43.426 3.32322C47.843 3.33725 52.1408 4.7663 55.6925 7.40234C59.2445 10.0383 61.8657 13.7437 63.174 17.9788C63.246 18.2168 63.3706 18.4355 63.5381 18.6188C63.7057 18.8021 63.9121 18.9453 64.1423 19.0378C64.3721 19.1303 64.62 19.1697 64.8672 19.1532C65.1143 19.1368 65.3551 19.0648 65.5709 18.9426C67.9906 17.5797 70.7226 16.8741 73.4974 16.8956C76.2717 16.9171 78.9928 17.6648 81.3913 19.065C83.7898 20.4652 85.783 22.4693 87.1736 24.8794C88.5645 27.2895 89.3049 30.0221 89.3215 32.8072V33.0033C89.3185 33.2448 89.3683 33.484 89.4668 33.7043C89.5653 33.9246 89.7106 34.1207 89.8925 34.2789C90.0743 34.4371 90.2883 34.5535 90.5196 34.6202C90.7509 34.6869 90.994 34.7022 91.2317 34.6649C92.0653 34.535 92.9075 34.4694 93.7509 34.4689C98.0245 34.4591 102.127 36.1526 105.158 39.1773C108.188 42.2019 109.899 46.3102 109.914 50.6C109.914 55.8675 107.007 61.2841 102.799 63.963C100.812 65.2622 100.776 65.5083 95.7042 68.0339C95.1347 68.3162 94.506 68.6985 94.6879 69.0939C94.8106 69.3664 95.38 69.486 96.1709 69.486C98.02 69.4332 99.8472 69.0717 101.577 68.4162C105.669 66.6328 109.022 63.4864 111.069 59.5083C113.116 55.5305 113.732 50.9649 112.814 46.5834C111.895 42.2019 109.498 38.2732 106.027 35.4609C102.556 32.6487 98.2245 31.1256 93.7642 31.1489H93.7476Z" fill="#231F20"/>
<path d="M23.4432 75.4382V78.0004H22.1389V72.1348H23.4432V74.4144H24.1683L25.8236 72.1348H27.3134L25.1052 74.9797L27.4789 78.0004H25.9891L24.0524 75.4382H23.4432Z" fill="#231F20"/>
<path d="M30.4834 78.1434C29.0599 78.1434 27.6032 77.1928 27.6032 75.0793C27.6032 72.9657 29.0599 72.0019 30.4834 72.0019C31.907 72.0019 33.3637 72.9623 33.3637 75.0793C33.3637 77.1962 31.907 78.1434 30.4834 78.1434ZM32.0262 75.0793C32.0262 73.7268 31.2979 73.0619 30.4834 73.0619C29.669 73.0619 28.9407 73.7268 28.9407 75.0793C28.9407 76.4317 29.669 77.0732 30.4834 77.0732C31.2979 77.0732 32.0262 76.4351 32.0262 75.0793Z" fill="#231F20"/>
<path d="M38.4049 75.5046H35.7962V78.0004H34.5018V72.1348H35.7962V74.4778H38.4049V72.1348H39.6962V78.0004H38.4049V75.5046Z" fill="#231F20"/>
<path d="M46.0177 79.3861V78.0004H41.7468V79.3861H40.5747V76.9868H40.906C41.5679 76.9868 41.8992 76.1359 41.9917 73.9959L42.0777 72.1313H46.3389V76.9834H47.2094V79.3831L46.0177 79.3861ZM43.2034 73.1585L43.1506 74.1555C43.0611 75.7042 42.846 76.5415 42.389 76.9902H45.0377V73.1585H43.2034Z" fill="#231F20"/>
<path d="M52.243 78.0004V73.9329L49.4622 78.0004H48.1679V72.1348H49.4622V76.2223L52.243 72.1348H53.5377V78.0004H52.243Z" fill="#231F20"/>
<path d="M60.8393 79.3861H59.6638V78.0004H54.9925V72.1348H56.2804V76.9767H58.671V72.1348H59.9653V76.9767H60.8359L60.8393 79.3861Z" fill="#231F20"/>
<path d="M65.8811 78.0004V73.9329L63.1 78.0004H61.8057V72.1348H63.1V76.2223L65.8811 72.1348H67.1755V78.0004H65.8811Z" fill="#231F20"/>
<path d="M71.0747 78.1434C69.6509 78.1434 68.1943 77.1928 68.1943 75.0793C68.1943 72.9657 69.6509 72.0019 71.0747 72.0019C72.4981 72.0019 73.9547 72.9623 73.9547 75.0793C73.9547 77.1962 72.5015 78.1434 71.0747 78.1434ZM72.6174 75.0793C72.6174 73.7268 71.8891 73.0619 71.0747 73.0619C70.26 73.0619 69.5317 73.7268 69.5317 75.0793C69.5317 76.4317 70.26 77.0732 71.0747 77.0732C71.8891 77.0732 72.6174 76.4351 72.6174 75.0793Z" fill="#231F20"/>
<path d="M78.9766 75.5046H76.3709V78.0004H75.0766V72.1348H76.3709V74.4778H78.9766V72.1348H80.2709V78.0004H78.9766V75.5046Z" fill="#231F20"/>
<path d="M84.2917 77.063C84.9536 77.063 85.4966 76.7906 85.7253 76.2457H86.9966C86.8283 76.8128 86.4766 77.3072 85.9966 77.651C85.517 77.9947 84.9366 78.1679 84.3479 78.1434C82.4675 78.1434 81.3917 76.7042 81.3917 75.0227C81.3917 73.2581 82.6 72.0019 84.2619 72.0019C86.0528 72.0019 87.1717 73.4642 87.066 75.4381H82.7057C82.7921 76.5283 83.5532 77.063 84.2917 77.063ZM85.7483 74.491C85.7479 74.2955 85.709 74.1023 85.6336 73.9223C85.5585 73.7419 85.4483 73.5789 85.3098 73.4415C85.1713 73.3042 85.0072 73.1959 84.8268 73.123C84.646 73.0498 84.4532 73.0132 84.2585 73.0155C83.8581 73.0064 83.4706 73.1566 83.18 73.4328C82.8891 73.7091 82.7189 74.0894 82.7057 74.491H85.7483Z" fill="#231F20"/>
<path d="M89.4309 72.9192C89.6132 72.6241 89.8709 72.3834 90.177 72.2222C90.4834 72.0607 90.8268 71.9849 91.1724 72.0018C92.5958 72.0018 93.6819 73.1917 93.6819 75.066C93.6819 76.9403 92.5958 78.1434 91.1724 78.1434C90.8268 78.1603 90.4834 78.0841 90.177 77.923C89.8709 77.7619 89.6132 77.5211 89.4309 77.226V79.9113H88.1396V72.1347H89.4309V72.9192ZM92.3343 75.066C92.3343 73.8362 91.7913 73.072 90.8875 73.072C90.04 73.072 89.3777 73.7366 89.3777 75.066C89.3777 76.3951 90.04 77.0864 90.8875 77.0864C91.7913 77.0996 92.3343 76.312 92.3343 75.066Z" fill="#231F20"/>
<path d="M23.8571 56.5419C26.0918 56.5419 27.9954 58.0207 27.9954 60.9653C27.9954 63.9098 26.0918 65.3751 23.8571 65.3751C21.6225 65.3751 19.7155 63.9098 19.7155 60.9653C19.7155 58.0207 21.6191 56.5419 23.8571 56.5419ZM23.8571 63.0555C24.5689 63.0555 25.1152 62.5238 25.1152 60.9653C25.1152 59.4068 24.5689 58.8615 23.8571 58.8615C23.1453 58.8615 22.5991 59.4068 22.5991 60.9653C22.5991 62.5238 23.142 63.0555 23.8571 63.0555Z" fill="#231F20"/>
<path d="M28.6822 60.0781V59.8188C28.7649 56.7513 29.6754 54.1958 33.3171 53.837L35.7637 53.6041V56.163L32.7576 56.4954C31.6519 56.6351 30.7712 57.057 30.6719 58.6324C31.1486 57.6785 32.1981 57.3694 33.135 57.3694C34.9658 57.3694 36.6145 58.6988 36.6145 61.2479C36.6145 63.9928 34.5454 65.3619 32.5755 65.3619C30.46 65.3751 28.6822 63.8068 28.6822 60.0781ZM33.7706 61.2611C33.7706 59.8751 33.1814 59.4698 32.5523 59.4698C31.9233 59.4698 31.4366 59.8921 31.4366 61.2611C31.4366 62.4939 31.9928 63.0554 32.5822 63.0554C33.1714 63.0554 33.7706 62.5705 33.7706 61.2611Z" fill="#231F20"/>
<path d="M37.0814 62.8996H37.333C37.8494 62.8996 38.3528 62.3675 38.4785 59.5962L38.6208 56.7913H45.3581V65.1724H42.5638V59.0645H41.1932L41.0675 61.0283C40.9117 63.3981 40.0313 65.1724 37.6111 65.1724H37.0814V62.8996Z" fill="#231F20"/>
<path d="M50.4902 58.5192C50.3359 58.5034 50.1796 58.5189 50.0313 58.5649C49.883 58.6106 49.7453 58.686 49.6268 58.7868C49.5079 58.8872 49.4106 59.0106 49.3408 59.1498C49.2706 59.2887 49.2291 59.4407 49.2189 59.5962H46.8121C46.9377 58.0041 48.1993 56.4921 50.6857 56.4921C52.8408 56.4921 54.377 57.3962 54.3506 60.2007V61.806C54.3321 62.9298 54.3789 64.054 54.4894 65.1724H51.8872V64.0826C51.3279 65.003 50.3943 65.3751 49.3313 65.3751C47.8615 65.3751 46.6464 64.3615 46.6464 62.866C46.6464 60.9189 48.4476 60.0947 51.6125 59.8751V59.6426C51.6091 58.7053 51.0928 58.5192 50.4902 58.5192ZM49.4408 62.5072C49.4408 62.866 49.7091 63.2717 50.3645 63.2717C51.0928 63.2717 51.7087 62.9392 51.7087 61.6498V61.4008C50.2253 61.5102 49.4408 61.7928 49.4408 62.5238V62.5072Z" fill="#231F20"/>
<path d="M60.2559 62.4143C59.6419 62.5607 59.0132 62.6343 58.3823 62.6336C56.7038 62.6336 55.6838 61.7596 55.6838 59.8917V56.7913H58.4815V59.4068C58.4815 60.357 58.7728 60.5132 59.5706 60.5132C59.8023 60.5155 60.0332 60.4841 60.2559 60.4204V56.7913H63.0536V65.1724H60.2559V62.4143Z" fill="#231F20"/>
<path d="M64.7109 56.7913H67.5087V59.7524H69.7034V56.7913H72.5045V65.1724H69.7068V62.0253H67.5121V65.1724H64.7143L64.7109 56.7913Z" fill="#231F20"/>
<path d="M74.1789 56.7913H76.9732V59.2374H77.9664C80.3136 59.2374 81.3068 60.1411 81.3068 62.1649C81.3068 64.4249 80.426 65.1724 78.1351 65.1724H74.1789V56.7913ZM77.8834 63.0691C78.4562 63.0691 78.8204 62.8826 78.8204 62.1649C78.8204 61.5268 78.4562 61.3408 77.897 61.3408H76.9732V63.0691H77.8834ZM82.2468 56.7913H85.0411V65.1724H82.2468V56.7913Z" fill="#231F20"/>
<path d="M86.7215 56.7913H89.3072V61.4438L91.8962 56.7913H94.4819V65.1724H91.8962V60.6064L89.3072 65.1724H86.7215V56.7913ZM87.897 53.8766H89.5524C89.6219 54.249 89.9728 54.4385 90.6019 54.4385C91.2309 54.4385 91.5951 54.249 91.6513 53.8766H93.3064C93.194 55.0298 92.3132 55.8241 90.5951 55.8241C88.877 55.8241 87.9796 55.0298 87.897 53.8766Z" fill="#231F20"/>
</g>
<defs>
<clipPath id="clip0_3578_26186">
<rect width="113.208" height="80" fill="white"/>
</clipPath>
</defs>
</svg>
