<svg width="24" height="24" viewBox="0 0 24 24" fill="none" xmlns="http://www.w3.org/2000/svg">
<path fill-rule="evenodd" clip-rule="evenodd" d="M14.9996 10C15.404 10 15.7687 9.75636 15.9234 9.38268C16.0782 9.00901 15.9927 8.57889 15.7067 8.29289L12.7067 5.29289C12.5191 5.10536 12.2648 5 11.9996 5C11.7344 5 11.48 5.10536 11.2925 5.29289L8.29246 8.29289C8.00647 8.57889 7.92091 9.00901 8.07569 9.38268C8.23047 9.75636 8.59511 10 8.99957 10H14.9996ZM8.99954 14C8.59508 14 8.23044 14.2436 8.07566 14.6173C7.92088 14.991 8.00644 15.4211 8.29243 15.7071L11.2924 18.7071C11.48 18.8946 11.7343 19 11.9995 19C12.2648 19 12.5191 18.8946 12.7066 18.7071L15.7066 15.7071C15.9926 15.4211 16.0782 14.991 15.9234 14.6173C15.7686 14.2436 15.404 14 14.9995 14L8.99954 14Z" fill="#94A0B1"/>
</svg>
