<svg width="32" height="32" viewBox="0 0 32 32" fill="none" xmlns="http://www.w3.org/2000/svg">
<path fill-rule="evenodd" clip-rule="evenodd" d="M24.0306 2.23494C20.4658 1.72934 15.768 2.02537 11.1727 5.21679C6.58844 8.41421 4.68692 12.7835 3.93059 16.374C3.58204 18.0287 3.478 19.5136 3.46722 20.6331C4.30745 18.9238 5.38885 17.2718 6.73873 15.7489C11.0544 10.8734 17.0496 8.3 22.4001 8.3H22.9001V9.3H22.4001C17.3508 9.3 11.6232 11.7393 7.48729 16.412L7.48705 16.4123C5.81593 18.2975 4.57458 20.3929 3.70741 22.5477C3.70999 22.5488 3.71258 22.55 3.71518 22.5511C3.99099 22.674 4.39861 22.844 4.91834 23.0287C5.95851 23.3983 7.44341 23.825 9.21631 24.0512C12.7591 24.5032 17.4381 24.1544 22.0367 20.9607C26.6241 17.7612 28.5467 13.4435 29.3242 9.9087C29.7131 8.14014 29.8141 6.57177 29.8178 5.44692C29.8196 4.88491 29.7972 4.43481 29.7746 4.12727C29.7688 4.049 29.763 3.97999 29.7576 3.92075C29.7047 3.89513 29.6429 3.8658 29.5726 3.83328C29.2942 3.70451 28.883 3.52607 28.359 3.3313C27.3103 2.94147 25.8143 2.48794 24.0306 2.23494ZM30.2258 3.59675C30.7212 3.52894 30.7212 3.5292 30.7213 3.52951L30.7214 3.53033L30.7217 3.53275L30.7227 3.54063L30.7262 3.56845C30.7291 3.59228 30.7331 3.62664 30.7379 3.67102C30.7473 3.75977 30.7597 3.88869 30.7719 4.05388C30.7962 4.3842 30.8197 4.86 30.8178 5.4502C30.8139 6.62979 30.7082 8.2711 30.3008 10.1235C29.4855 13.8306 27.4565 18.3999 22.6086 21.7811L22.6078 21.7816C17.755 25.1521 12.809 25.5177 9.08974 25.0431C7.2315 24.806 5.67599 24.3592 4.58353 23.971C4.06481 23.7867 3.64953 23.6153 3.35469 23.4852C2.49111 25.9489 2.10007 28.461 2.1001 30.8L2.1001 31.3L1.1001 31.3L1.1001 30.8C1.10007 28.2256 1.55284 25.4487 2.56092 22.7393C2.56043 22.735 2.55993 22.7305 2.55942 22.726C2.54928 22.6357 2.53596 22.5046 2.52257 22.3365C2.49579 22.0003 2.46871 21.5161 2.46641 20.9158C2.4618 19.7161 2.55612 18.0476 2.95207 16.1679C3.7443 12.4069 5.75014 7.77952 10.6011 4.39632L10.6019 4.39576C15.458 1.02296 20.4294 0.714175 24.171 1.24485C26.0405 1.51 27.607 1.98489 28.7075 2.39396C29.2581 2.59863 29.6932 2.78725 29.9924 2.92568C30.1421 2.99491 30.2579 3.05164 30.3373 3.09162C30.377 3.1116 30.4076 3.12741 30.4288 3.1385L30.4535 3.15153L30.4605 3.15527L30.4627 3.15642L30.4634 3.15682C30.4637 3.15697 30.4639 3.15709 30.2258 3.59675ZM30.2258 3.59675L30.4639 3.15709L30.6868 3.27781L30.7212 3.52894L30.2258 3.59675Z" fill="#151515"/>
</svg>
