<svg width="40" height="41" viewBox="0 0 40 41" fill="none" xmlns="http://www.w3.org/2000/svg">
<circle cx="20" cy="20.7041" r="17" stroke="#151515" stroke-width="2"/>
<path d="M15.6776 16.6247C16.065 16.6334 16.4262 16.3494 16.4554 15.9489C16.5908 14.0015 18.3387 12.51 20.3399 12.6717C21.3158 12.7387 22.2057 13.1713 22.8466 13.8893C23.4831 14.6016 23.7962 15.5119 23.7292 16.4528C23.6462 17.6384 23.0913 18.0827 22.2523 18.7527C20.8351 19.8858 19.0713 21.2972 19.2708 26.5261C19.2854 26.9194 19.6087 27.2267 19.9976 27.2267C20.0064 27.2267 20.0166 27.2267 20.0268 27.2267C20.4288 27.2267 20.7419 26.8728 20.7259 26.4708C20.5555 21.9745 21.8795 20.9141 23.1627 19.8902C24.0934 19.1459 25.0547 18.3769 25.1828 16.5533C25.2761 15.2177 24.8333 13.9272 23.9332 12.9178C23.0388 11.9143 21.7979 11.3098 20.4404 11.2166C17.6381 11.0229 15.194 13.0999 15.0018 15.8484C14.9741 16.2489 15.2756 16.597 15.6776 16.6247Z" fill="#151515"/>
<path d="M19.5881 28.9016C19.4425 29.0327 19.3696 29.2221 19.3696 29.4114C19.3696 29.6008 19.4425 29.7901 19.5881 29.9358C19.7338 30.0669 19.9085 30.1397 20.0979 30.1397C20.2872 30.1397 20.4766 30.0669 20.6222 29.9212C20.7533 29.7901 20.8262 29.6008 20.8262 29.4114C20.8262 29.2221 20.7533 29.0327 20.6077 28.9016C20.3455 28.6249 19.8648 28.6249 19.5881 28.9016Z" fill="#151515"/>
</svg>
