<svg width="32" height="32" viewBox="0 0 32 32" fill="none" xmlns="http://www.w3.org/2000/svg">
<path fill-rule="evenodd" clip-rule="evenodd" d="M16.0001 2.09998C8.32088 2.09998 2.1001 8.32076 2.1001 16C2.1001 23.6792 8.32088 29.9 16.0001 29.9C23.6793 29.9 29.9001 23.6792 29.9001 16C29.9001 8.32076 23.6793 2.09998 16.0001 2.09998ZM1.1001 16C1.1001 7.76848 7.7686 1.09998 16.0001 1.09998C24.2316 1.09998 30.9001 7.76848 30.9001 16C30.9001 24.2315 24.2316 30.9 16.0001 30.9C7.7686 30.9 1.1001 24.2315 1.1001 16ZM15.5001 6.63033V3.75355H16.5001V6.63033H15.5001ZM20.2445 7.63284L21.6909 5.14177L22.5557 5.6439L21.1093 8.13497L20.2445 7.63284ZM23.8651 10.8908L26.3562 9.44437L26.8583 10.3092L24.3672 11.7556L23.8651 10.8908ZM17.8391 15.2191C17.2297 14.0532 15.7979 13.6119 14.6246 14.2252C13.4598 14.8341 13.0182 16.2639 13.629 17.4366C13.7733 17.7014 14.1734 18.137 14.767 18.6776C15.3437 19.2027 16.0484 19.7791 16.7361 20.3171C17.422 20.8537 18.0854 21.3477 18.5779 21.7079C18.5589 21.099 18.526 20.2744 18.4703 19.407C18.4144 18.5368 18.3361 17.6309 18.2271 16.8594C18.1145 16.0622 17.9786 15.4859 17.8391 15.2191ZM19.1019 22.7018C19.6018 22.6954 19.6018 22.6953 19.6018 22.6953L19.6018 22.695L19.6018 22.694L19.6018 22.6904L19.6016 22.6763L19.6007 22.6224C19.6 22.5752 19.5987 22.5062 19.5969 22.4179C19.5932 22.2414 19.5871 21.988 19.5775 21.6797C19.5583 21.0635 19.525 20.226 19.4683 19.3429C19.4117 18.4614 19.3313 17.5271 19.2173 16.7196C19.1069 15.9377 18.9555 15.1961 18.7254 14.7558C17.8562 13.0931 15.8166 12.4737 14.1613 13.339C12.4986 14.2081 11.8792 16.2477 12.7445 17.903L12.7444 17.9031L12.7477 17.9091C12.9825 18.3436 13.5097 18.8852 14.0937 19.417C14.6968 19.9661 15.4235 20.5599 16.1199 21.1047C16.8175 21.6505 17.4906 22.1516 17.9888 22.516C18.2381 22.6983 18.444 22.8466 18.5877 22.9495C18.6595 23.001 18.7159 23.0411 18.7544 23.0684L18.7985 23.0996L18.8099 23.1077L18.8129 23.1098L18.8137 23.1104L18.8139 23.1105C18.814 23.1106 18.814 23.1106 19.1019 22.7018ZM19.1019 22.7018L18.814 23.1106C18.9676 23.2187 19.1689 23.2317 19.335 23.1441C19.5012 23.0565 19.6042 22.8832 19.6018 22.6954L19.1019 22.7018ZM25.3697 15.5H28.2465V16.5H25.3697V15.5ZM24.3672 20.2444L26.8583 21.6908L26.3562 22.5556L23.8651 21.1092L24.3672 20.2444ZM21.1093 23.865L22.5557 26.3561L21.6909 26.8582L20.2445 24.3671L21.1093 23.865Z" fill="#1D1D1B"/>
</svg>
