<svg width="104" height="118" viewBox="0 0 104 118" fill="none" xmlns="http://www.w3.org/2000/svg">
<path fill-rule="evenodd" clip-rule="evenodd" d="M0.977783 117.625V0.523712L29.6333 0.985648C55.4573 1.44758 58.8552 1.79404 64.9714 4.10373C88.6434 12.8806 103.254 33.7832 103.254 59.0744C103.254 84.7119 88.5301 105.499 64.4051 114.045C57.7226 116.47 54.5512 116.701 29.067 117.163L0.977783 117.625ZM76.864 46.3711C73.4661 37.0168 64.7449 28.24 56.3634 25.6993C52.5125 24.5445 45.9432 23.8516 38.1281 23.8516H25.8957V94.5281L40.3933 94.0662C53.3053 93.7197 55.3441 93.3733 60.5542 90.6016C75.8447 82.5177 82.9802 63.1163 76.864 46.3711Z" fill="black"/>
</svg>
