<svg width="160" height="160" viewBox="0 0 160 160" fill="none" xmlns="http://www.w3.org/2000/svg">
<path d="M115.858 83.9028H44.1472C41.9206 83.9 39.7838 84.7804 38.2055 86.3509C36.6272 87.9215 35.7362 90.0539 35.728 92.2804V117.109C35.7362 119.336 36.6272 121.468 38.2055 123.039C39.7838 124.609 41.9206 125.49 44.1472 125.487H115.858C118.084 125.49 120.221 124.61 121.799 123.04C123.377 121.47 124.268 119.338 124.276 117.112V92.2804C124.269 90.0538 123.378 87.9211 121.8 86.3504C120.222 84.7797 118.085 83.8994 115.858 83.9028ZM48.0395 122.443V119.866H101.099C101.249 119.857 101.39 119.79 101.491 119.678C101.592 119.567 101.645 119.42 101.639 119.27C101.633 119.12 101.569 118.978 101.459 118.875C101.35 118.772 101.204 118.716 101.054 118.719H48.0406V115.85H112.178V118.719H105.968C105.818 118.727 105.677 118.795 105.576 118.906C105.475 119.017 105.422 119.164 105.427 119.314C105.433 119.464 105.498 119.606 105.607 119.71C105.717 119.813 105.862 119.869 106.013 119.866H112.178V122.443H48.0395ZM121.225 117.117C121.218 118.534 120.649 119.891 119.644 120.889C118.638 121.888 117.277 122.447 115.859 122.443H115.232V112.799H44.9888V122.443H44.1472C42.73 122.446 41.3693 121.887 40.3635 120.889C39.3577 119.89 38.789 118.534 38.7819 117.117V92.2804C38.7887 90.8633 39.3574 89.5067 40.3633 88.5084C41.3692 87.5101 42.7301 86.9517 44.1472 86.9556H115.858C117.275 86.9517 118.636 87.5101 119.642 88.5084C120.648 89.5067 121.217 90.8633 121.224 92.2804L121.225 117.117Z" fill="#191717"/>
<path d="M103.682 93.7697H78.3371C78.1869 93.7783 78.0462 93.8455 77.9451 93.9569C77.844 94.0682 77.7906 94.2148 77.7965 94.365C77.8024 94.5153 77.867 94.6573 77.9765 94.7604C78.0859 94.8635 78.2315 94.9195 78.3819 94.9164H103.733C103.884 94.9079 104.025 94.8407 104.126 94.7292C104.227 94.6177 104.281 94.4709 104.275 94.3205C104.269 94.17 104.204 94.0279 104.094 93.9249C103.984 93.8218 103.838 93.7661 103.687 93.7697H103.682ZM113.788 93.7697H108.613C108.463 93.7783 108.322 93.8455 108.221 93.9569C108.12 94.0682 108.067 94.2148 108.073 94.365C108.079 94.5153 108.143 94.6573 108.253 94.7604C108.362 94.8635 108.508 94.9195 108.658 94.9164H113.831C113.982 94.9077 114.122 94.8405 114.223 94.7292C114.325 94.6179 114.378 94.4713 114.372 94.321C114.366 94.1708 114.302 94.0288 114.192 93.9257C114.083 93.8226 113.937 93.7666 113.787 93.7697H113.788Z" fill="#191717"/>
<path d="M79.6864 22.2486C75.3481 22.2433 71.1056 23.5246 67.4955 25.9304C63.8854 28.3363 61.0698 31.7586 59.4047 35.7647C57.7396 39.7708 57.2999 44.1806 58.1411 48.4366C58.9823 52.6926 61.0666 56.6036 64.1306 59.6749C67.1945 62.7463 71.1004 64.8402 75.3543 65.6917C79.6082 66.5432 84.0191 66.1142 88.0292 64.4589C92.0393 62.8036 95.4685 59.9963 97.8831 56.392C100.298 52.7878 101.589 48.5485 101.595 44.2101V44.1835C101.598 38.3696 99.2918 32.7924 95.1832 28.6788C91.0747 24.5653 85.5003 22.2522 79.6864 22.2486ZM79.6864 63.6256C75.8409 63.6302 72.0804 62.4945 68.8804 60.3619C65.6804 58.2293 63.1846 55.1957 61.7087 51.6447C60.2329 48.0937 59.8431 44.1848 60.5888 40.4123C61.3344 36.6398 63.182 33.1731 65.8979 30.4506C68.6138 27.7282 72.076 25.8722 75.8467 25.1174C79.6174 24.3626 83.5273 24.743 87.0818 26.2103C90.6364 27.6776 93.676 30.166 95.8163 33.3609C97.9566 36.5557 99.1015 40.3135 99.1061 44.1589V44.1835C99.1077 46.7352 98.6066 49.2623 97.6314 51.6203C96.6563 53.9784 95.2263 56.1213 93.423 57.9267C91.6197 59.732 89.4784 61.1646 87.1215 62.1424C84.7646 63.1202 82.2381 63.6242 79.6864 63.6256Z" fill="#00ADEF"/>
<path d="M78.5931 30.6709H80.7264V50.3125H78.5931V30.6709ZM78.5931 53.5381H80.7264V57.696H78.5931V53.5381Z" fill="#00ADEF"/>
</svg>
