<svg width="119" height="32" viewBox="0 0 119 32" fill="none" xmlns="http://www.w3.org/2000/svg">
<g clip-path="url(#clip0)">
<path d="M37.3792 0.541078C39.502 0.507563 41.6106 0.892245 43.5845 1.67313C45.5584 2.45402 47.3588 3.6158 48.8828 5.09205C50.3503 6.52276 51.5247 8.22528 52.3403 10.1045C53.1804 12.0481 53.6037 14.1458 53.5831 16.2626C53.6056 18.3796 53.1822 20.4777 52.3403 22.4207C51.5254 24.3072 50.3461 26.0147 48.8697 27.4455C47.3934 28.8762 45.649 30.0022 43.7364 30.7589C41.7199 31.6051 39.5504 32.0276 37.3632 32.0001H25.3179V0.541078H37.3792ZM41.4262 25.3009C42.5827 24.8312 43.6256 24.1205 44.4853 23.2164C45.3356 22.2899 46.0007 21.2097 46.4451 20.0339C46.9233 18.818 47.1614 17.5211 47.1461 16.2149C47.1615 14.8983 46.9235 13.591 46.4451 12.3641C45.9952 11.2147 45.3301 10.1616 44.4853 9.26112C43.6149 8.36958 42.5748 7.66084 41.4262 7.17658C40.1426 6.64648 38.7681 6.37084 37.3792 6.36505H31.7548V26.0965H37.3792C38.7701 26.1286 40.1512 25.8571 41.4262 25.3009Z" fill="#231F20"/>
<path d="M9.55982 0C7.66907 0 5.82078 0.55995 4.24867 1.60904C2.67657 2.65813 1.45126 4.14925 0.727702 5.89382C0.00414214 7.6384 -0.185174 9.55808 0.183693 11.4101C0.552561 13.2621 1.46305 14.9633 2.80001 16.2986C4.13697 17.6338 5.84037 18.5431 7.69479 18.9115C9.54922 19.2799 11.4714 19.0908 13.2182 18.3682C14.965 17.6456 16.4581 16.4219 17.5085 14.8518C18.559 13.2817 19.1196 11.4358 19.1196 9.54749C19.1196 7.01534 18.1124 4.5869 16.3196 2.79639C14.5268 1.00589 12.0952 0 9.55982 0V0ZM9.55982 13.5574C8.78389 13.5448 8.02884 13.3043 7.38889 12.8659C6.74895 12.4275 6.25243 11.8106 5.96129 11.0921C5.67015 10.3737 5.59728 9.58557 5.75178 8.82605C5.90627 8.06652 6.28128 7.36924 6.83002 6.82121C7.37876 6.27317 8.07694 5.89865 8.83745 5.74435C9.59796 5.59006 10.3871 5.66284 11.1065 5.9536C11.8258 6.24436 12.4435 6.74024 12.8825 7.37936C13.3215 8.01848 13.5623 8.77255 13.5749 9.54749C13.5836 10.0765 13.4856 10.6018 13.2869 11.0921C13.0881 11.5825 12.7927 12.028 12.4181 12.4021C12.0436 12.7762 11.5975 13.0712 11.1065 13.2697C10.6154 13.4682 10.0895 13.566 9.55982 13.5574Z" fill="#231F20"/>
<path d="M66.0263 7.38301V11.4089H64.7836V2.56152H66.0263V6.31687H66.9186L69.8981 2.56152H71.3958L67.9861 6.74651L71.5232 11.4089H70.0415L66.9505 7.38301H66.0263Z" fill="#231F20"/>
<path d="M78.1989 3.64357H75.0122V5.23482C74.8688 9.06973 74.2634 11.4725 72.447 11.4725H72.0806V10.3427H72.2558C73.4349 10.3427 73.7376 7.82856 73.8491 4.80518V2.56152H79.4098V11.4089H78.151L78.1989 3.64357Z" fill="#231F20"/>
<path d="M83.0429 11.4089H81.8002V2.56152H83.0429V9.57893L87.8069 2.56152H89.0497V11.4089H87.8069V4.39146L83.0429 11.4089Z" fill="#231F20"/>
<path d="M92.6349 3.70722V11.4089H91.3921V2.56152H93.4793L95.7418 9.929L98.0043 2.56152H100.092V11.4089H98.8488V3.70722L96.3951 11.4089H95.0886L92.6349 3.70722Z" fill="#231F20"/>
<path d="M106.05 2.56152L109.38 11.4089H108.042L107.341 9.5471H103.278L102.593 11.4566H101.318L104.6 2.60926L106.05 2.56152ZM106.958 8.43323L105.365 3.81861L103.772 8.43323H106.958Z" fill="#231F20"/>
<path d="M108.568 3.64357V2.56152H115.579V3.64357H112.695V11.4089H111.452V3.64357H108.568Z" fill="#231F20"/>
<path d="M64.5769 20.0652C64.5143 19.4835 64.575 18.8951 64.755 18.3384C64.9351 17.7816 65.2305 17.269 65.6219 16.8337C66.0134 16.3985 66.4923 16.0504 67.0273 15.8121C67.5623 15.5738 68.1416 15.4507 68.7274 15.4507C69.3133 15.4507 69.8925 15.5738 70.4276 15.8121C70.9626 16.0504 71.4414 16.3985 71.8329 16.8337C72.2244 17.269 72.5198 17.7816 72.6998 18.3384C72.8799 18.8951 72.9406 19.4835 72.878 20.0652C72.9406 20.647 72.8799 21.2353 72.6998 21.7921C72.5198 22.3488 72.2244 22.8615 71.8329 23.2967C71.4414 23.732 70.9626 24.0801 70.4276 24.3184C69.8925 24.5566 69.3133 24.6798 68.7274 24.6798C68.1416 24.6798 67.5623 24.5566 67.0273 24.3184C66.4923 24.0801 66.0134 23.732 65.6219 23.2967C65.2305 22.8615 64.9351 22.3488 64.755 21.7921C64.575 21.2353 64.5143 20.647 64.5769 20.0652ZM71.6033 20.0652C71.6033 17.7738 70.3446 16.5327 68.7195 16.5327C67.0943 16.5327 65.8515 17.7738 65.8515 20.0652C65.8515 22.3566 67.1102 23.5978 68.7195 23.5978C70.3287 23.5978 71.6033 22.3407 71.6033 20.0652Z" fill="#231F20"/>
<path d="M81.8161 24.4894H80.5733V20.4795H75.9209V24.4894H74.6781V15.6421H75.9209V19.3974H80.5733V15.6421H81.8161V24.4894Z" fill="#231F20"/>
<path d="M89.4798 16.724H86.2931V18.3152C86.1497 22.1501 85.5443 24.5529 83.7279 24.5529H83.3615V23.4709H83.5367C84.7158 23.4709 85.0185 20.9567 85.13 17.9333V15.7056H90.8181V24.5529H89.5594L89.4798 16.724Z" fill="#231F20"/>
<path d="M96.6975 15.6421L100.027 24.4894H98.6891L97.9881 22.564H94.0048L93.3197 24.4894H92.045L95.3273 15.6421H96.6975ZM97.5897 21.5138L95.9964 16.8992L94.4031 21.5138H97.5897Z" fill="#231F20"/>
<path d="M102.497 24.4891H101.254V15.6418H102.497V22.6592L107.277 15.6418H108.52V24.4891H107.277V17.5036L102.497 24.4891ZM104.903 15.1485C103.501 15.1485 102.816 14.5279 102.688 13.6846H103.565C103.565 14.146 104.09 14.4165 104.855 14.4165C105.62 14.4165 106.066 14.1301 106.162 13.6846H107.102C107.006 14.5279 106.289 15.1485 104.839 15.1485" fill="#231F20"/>
<path d="M118 24.4894H116.757V20.4795H112.104V24.4894H110.862V15.6421H112.104V19.3974H116.757V15.6421H118V24.4894Z" fill="#231F20"/>
<path d="M118.4 28H64.7999V32H118.4V28Z" fill="url(#paint0_linear)"/>
</g>
<defs>
<linearGradient id="paint0_linear" x1="64.1979" y1="27.7876" x2="117.798" y2="27.7876" gradientUnits="userSpaceOnUse">
<stop stop-color="#FEDECB"/>
<stop offset="0.19" stop-color="#FEDECB"/>
<stop offset="0.29" stop-color="#F7DDCB"/>
<stop offset="0.43" stop-color="#E3DAC9"/>
<stop offset="0.59" stop-color="#C3D6C7"/>
<stop offset="0.78" stop-color="#96CFC4"/>
<stop offset="0.89" stop-color="#79CBC2"/>
<stop offset="1" stop-color="#79CBC2"/>
</linearGradient>
<clipPath id="clip0">
<rect width="118.4" height="32" fill="white"/>
</clipPath>
</defs>
</svg>
