<svg width="180" height="180" viewBox="0 0 180 180" fill="none" xmlns="http://www.w3.org/2000/svg">
<path d="M157.359 137.291L157.759 108.258L131.346 85.54L130.956 85.208L130.399 85.055C120.777 82.6709 110.861 81.6871 100.958 82.134L95.658 80.199V74.63L64.409 63.221L63.331 62.738L23.776 77.396L22.431 77.969L22.618 84.982L14.964 87.81L15.195 137.29H12.761V144.96H96.893L101.099 144.976L167.238 144.961V137.291H157.359ZM101.128 133.415V137.977L84.837 137.996V133.41H80.179V137.973L65.753 137.992V132.59C69.442 132.59 74.527 132.548 82.12 132.448L83.345 132.435C88.462 132.385 93.945 132.322 99.407 132.285L102.533 132.265C113.409 132.209 121.538 132.282 127.37 132.482L130.187 132.531V129.631H128.805C122.761 129.388 114.416 129.303 102.524 129.366L99.396 129.387C93.533 129.428 87.645 129.495 82.208 129.557H82.054C75.618 129.626 69.926 129.686 65.754 129.691V124.169C74.22 123.183 87.043 122.492 99.408 122.361L102.532 122.34C114.161 122.301 123.465 122.774 128.646 123.664L129.367 123.788V120.797L128.903 120.727C123.403 119.877 113.995 119.41 102.525 119.458L99.394 119.479C86.947 119.608 74.448 120.261 65.754 121.234V115.484C76.9018 113.888 88.1448 113.047 99.406 112.968L102.529 112.956C114.779 112.973 124.01 113.863 128.529 115.456L129.372 115.756V112.556L129.002 112.45C123.691 110.933 114.292 110.082 102.531 110.055L99.399 110.067C88.1437 110.138 76.9055 110.957 65.759 112.52V106.69C76.8831 104.485 88.1351 102.982 99.448 102.19L102.568 102.037C114.668 101.554 123.525 102.712 128.159 105.38L128.615 105.644L129.373 104.96V102.46L129.102 102.335C123.446 99.722 114.485 98.635 102.496 99.122L99.36 99.278C88.0797 100.057 76.8583 101.533 65.76 103.696V97.969C73.009 95.857 86.749 93.405 99.434 92.728L102.563 92.628L103.071 92.585C114.915 92.278 123.542 93.726 128.02 96.801L128.442 97.091L129.372 96.391V93.838L129.135 93.711C123.535 90.711 114.576 89.377 102.502 89.73L99.364 89.859C88.031 90.4752 76.7812 92.1579 65.764 94.885V74.668L98.325 86.139L98.447 86.183H98.584C98.624 86.183 99.457 86.177 100.384 86.132V86.143L100.964 86.116C111.047 85.5508 121.159 86.4154 131 88.684L154.732 109.094L154.332 137.71L129.091 137.996H105.791L105.783 133.415H101.128ZM104.628 134.263V137.553H102.313V134.263H104.628ZM83.678 134.263V137.553H81.363V134.263H83.678ZM46.509 76.744L26.495 83.464L26.369 79.798L63.289 67.025L91.729 76.546V79.855L64.16 70.635L63.907 70.55L47.05 76.558L46.498 76.585L46.509 76.744ZM88.656 74.585L63.529 66.175L63.279 66.092L30.379 77.471L63.225 65.3L88.656 74.585ZM164.227 142.698H15.776V139.553H18.221V138.845H24.373L24.336 133.972L18.2 134.3L18.193 132.765L24.329 132.441L24.299 127.17L18.169 127.741L18.162 126.194L24.285 125.625L24.248 120.456L18.139 121.315L18.132 119.757L24.242 118.896L24.211 114.196L18.111 115.405L18.104 113.821L24.204 112.613L24.171 107.469L18.086 108.969L18.079 107.355L24.161 105.861L24.128 100.778L18.056 102.485L18.048 100.847L24.117 99.141L24.084 94.204L18.026 96.09L18.018 94.428L24.071 92.544L24.039 87.294L17.995 89.449V89.22L25.679 86.382L25.635 84.694L47.335 77.409L63.93 71.495L92.656 81.102V81.616L100.346 84.425L100.732 84.41C110.308 83.9481 119.9 84.8679 129.213 87.141L129.648 87.514C120.398 85.5298 110.927 84.7679 101.479 85.248V85.21L100.879 85.251C100.012 85.312 99.066 85.334 98.72 85.334L64.596 73.31V96.11L65.389 95.891C76.5489 93.0731 87.9542 91.3361 99.447 90.704L102.567 90.576C114.188 90.234 122.809 91.476 128.209 94.267V95.779C123.244 92.737 114.619 91.379 102.519 91.75L99.371 91.884C86.334 92.584 72.19 95.133 64.959 97.296L64.596 97.405V104.798L65.33 104.659C76.5997 102.438 87.9973 100.925 99.456 100.127L102.576 99.972C114.12 99.508 122.751 100.507 128.209 102.931V104.35C123.159 101.779 114.526 100.717 102.503 101.196L99.367 101.349C87.836 102.158 76.368 103.698 65.032 105.959L64.595 106.042V113.581L65.305 113.47C76.6058 111.855 88.0027 111.006 99.418 110.927L102.542 110.915C113.882 110.943 122.969 111.734 128.209 113.148V114.429C123.297 112.954 114.257 112.129 102.539 112.115L99.407 112.127C87.9099 112.204 76.432 113.075 65.055 114.734L64.596 114.808V122.234L65.275 122.153C73.937 121.145 86.702 120.465 99.421 120.332L102.545 120.311C113.609 120.265 122.728 120.699 128.209 121.491V122.724C122.831 121.895 113.795 121.456 102.538 121.495L99.407 121.516C86.552 121.651 73.721 122.353 65.086 123.393L64.596 123.453V130.543H65.182C69.399 130.543 75.332 130.482 82.082 130.408H82.234C87.9612 130.338 93.6886 130.281 99.416 130.237L102.542 130.216C114.409 130.15 122.727 130.237 128.782 130.482H129.026V131.682L127.996 131.655C122.108 131.437 113.787 131.36 102.533 131.418L99.405 131.437C93.937 131.475 88.457 131.537 83.337 131.586L82.113 131.601C74.208 131.701 69.025 131.742 65.177 131.742H64.591V138.842H129.107L154.323 138.56L154.309 139.55H164.222L164.227 142.698ZM18.786 135.119L23.175 134.885L23.195 137.996H18.795L18.786 135.119ZM18.753 128.537L23.127 128.13L23.151 131.649L18.768 131.882L18.753 128.537ZM18.722 122.097L23.085 121.485L23.106 124.879L18.737 125.285L18.722 122.097ZM18.695 116.168L23.046 115.305L23.065 118.199L18.707 118.812L18.695 116.168ZM18.665 109.717L23.004 108.651L23.024 111.966L18.681 112.828L18.665 109.717ZM18.636 103.227L22.959 102.012L22.98 105.249L18.65 106.314L18.636 103.227ZM18.605 96.827L22.914 95.486L22.935 98.556L18.619 99.77L18.605 96.827ZM18.573 90.183L22.866 88.65L22.887 91.98L18.587 93.32L18.573 90.183Z" fill="#1A1818"/>
<path d="M26.654 133.845L26.686 138.845H35.424L35.391 133.377L26.654 133.845ZM27.854 137.996L27.834 134.637L34.225 134.296L34.249 137.996H27.854ZM62.636 82.1991L50.355 86.0221L50.389 91.7491L62.636 88.3061V82.1991ZM61.466 87.7261L51.553 90.5121L51.53 86.5801L61.466 83.4861V87.7261ZM62.633 73.5291L50.308 77.923L50.343 84.3591L62.633 80.5291V73.5291ZM61.462 79.9721L51.507 83.0721L51.482 78.4501L61.462 74.8921V79.9721ZM35.086 83.3501L26.342 86.4671L26.378 91.8181L35.124 89.0971L35.086 83.3501ZM27.542 90.534L27.518 86.9941L33.924 84.7091L33.948 88.5391L27.542 90.534ZM62.635 89.9441L50.397 93.3861L50.428 99.3931L62.635 96.3931V89.9441ZM61.466 95.7831L51.597 98.2101L51.573 93.9661L61.466 91.1831V95.7831ZM47.923 117.134L37.772 118.559L37.804 124.367L47.957 123.422L47.923 117.134ZM38.971 123.403L38.946 119.258L46.755 118.158L46.782 122.673L38.971 123.403ZM47.966 124.962L37.816 125.908L37.85 131.715L48 131.172L47.966 124.962ZM39.017 130.802L38.99 126.654L46.799 125.927L46.826 130.385L39.017 130.802ZM50.519 115.21L62.637 113.51V106.574L50.485 108.984L50.519 115.21ZM61.466 107.687V112.81L51.686 114.181L51.66 109.629L61.466 107.687ZM50.478 107.399L62.639 104.986V98.0101L50.439 101.01L50.478 107.399ZM61.466 99.1931V104.34L51.641 106.289L51.614 101.615L61.466 99.1931ZM50.616 132.567L50.65 138.845H62.634V131.923L50.616 132.567ZM61.463 137.996H51.817L51.791 133.355L61.463 132.838V137.996ZM50.606 131.033L62.636 130.39V123.597L50.574 124.72L50.606 131.033ZM61.465 124.561V129.602L51.773 130.119L51.748 125.466L61.465 124.561ZM62.636 115.068L50.528 116.768L50.565 123.179L62.636 122.055V115.068ZM61.466 121.315L51.732 122.215L51.704 117.466L61.466 116.101V121.315ZM37.857 133.245L37.889 138.845H48.041L48.007 132.702L37.857 133.245ZM39.057 137.996L39.032 134.035L46.841 133.619L46.866 137.996H39.057ZM35.262 112.004L26.526 113.735L26.554 118.574L35.296 117.346L35.262 112.004ZM27.722 117.547L27.701 114.382L34.101 113.114L34.125 116.647L27.722 117.547ZM35.221 104.75L26.481 106.899L26.516 112.152L35.253 110.418L35.221 104.75ZM27.678 111.042L27.656 107.507L34.056 105.933L34.076 109.773L27.678 111.042ZM35.177 97.6651L26.435 100.125L26.472 105.286L35.211 103.137L35.177 97.6651ZM27.634 104.105L27.609 100.705L34.009 98.9051L34.031 102.532L27.634 104.105ZM35.136 90.7581L26.392 93.479L26.425 98.4851L35.167 96.0281L35.136 90.7581ZM27.588 97.2471L27.567 94.0371L33.967 92.0471L33.986 95.4471L27.588 97.2471ZM35.305 118.905L26.568 120.132L26.6 125.409L35.338 124.596L35.305 118.905ZM27.767 124.445L27.742 120.831L34.142 119.931L34.167 123.849L27.767 124.445ZM47.792 94.118L37.64 96.9731L37.673 102.532L47.829 100.032L47.792 94.118ZM38.836 101.353L38.815 97.5531L46.627 95.3591L46.652 99.4291L38.836 101.353ZM35.35 126.136L26.612 126.949L26.645 132.313L35.382 131.845L35.35 126.136ZM27.813 131.395L27.788 127.695L34.188 127.095L34.213 131.052L27.813 131.395ZM47.839 101.644L37.686 104.144L37.718 109.929L47.871 107.91L47.839 101.644ZM38.886 108.819L38.861 104.752L46.671 102.831L46.696 107.268L38.886 108.819ZM47.881 109.5L37.728 111.514L37.758 117.001L47.913 115.576L47.881 109.5ZM38.926 115.974L38.903 112.161L46.715 110.608L46.739 114.874L38.926 115.974ZM47.753 86.8311L37.598 89.9921L37.63 95.3371L47.783 92.4811L47.753 86.8311ZM38.792 94.0991L38.772 90.5501L46.588 88.1161L46.607 91.8991L38.792 94.0991ZM47.708 78.8511L37.553 82.4721L37.586 88.3311L47.744 85.1681L47.708 78.8511ZM38.75 87.0441L38.728 83.0001L46.543 80.2111L46.568 84.6111L38.75 87.0441Z" fill="#1A1818"/>
<path d="M112.324 26.8001C111.871 25.3423 111.048 24.0268 109.935 22.9818C108.823 21.9368 107.458 21.1978 105.975 20.8371V15.5431C105.975 11.4587 104.352 7.54168 101.464 4.65362C98.5763 1.76556 94.6593 0.143066 90.575 0.143066C86.4907 0.143066 82.5736 1.76556 79.6855 4.65362C76.7975 7.54168 75.175 11.4587 75.175 15.5431V20.6241C73.9485 20.7575 72.7635 21.1458 71.6959 21.7641C70.6283 22.3825 69.7018 23.2171 68.9758 24.2146C68.2498 25.2121 67.7404 26.3503 67.4801 27.5563C67.2199 28.7623 67.2147 30.0093 67.4648 31.2174C67.7149 32.4255 68.2147 33.568 68.9323 34.5715C69.65 35.575 70.5695 36.4175 71.6318 37.0447C72.6942 37.672 73.8759 38.0703 75.1012 38.2139C76.3265 38.3576 77.5683 38.2436 78.747 37.8791L79.547 37.6311V21.2211L78.747 20.9731C78.3171 20.8392 77.8774 20.7389 77.432 20.6731V15.5431C77.432 12.0581 78.8164 8.71591 81.2806 6.25168C83.7448 3.78745 87.0871 2.40306 90.572 2.40306C94.0569 2.40306 97.3992 3.78745 99.8634 6.25168C102.328 8.71591 103.712 12.0581 103.712 15.5431V20.5811C102.877 20.5942 102.047 20.7262 101.249 20.9731L100.449 21.2201V37.6261L101.249 37.8741C101.964 38.0895 102.703 38.2131 103.449 38.2421C103.043 40.2172 102.189 42.0727 100.952 43.6653C99.7158 45.258 98.1299 46.5454 96.317 47.4281C96.0074 46.818 95.5355 46.305 94.9533 45.9457C94.3712 45.5863 93.7012 45.3944 93.017 45.3911H88.986C87.997 45.3921 87.0487 45.7854 86.3493 46.4847C85.6498 47.1839 85.2563 48.132 85.255 49.1211V50.6811C85.2566 51.6699 85.6502 52.6178 86.3496 53.3168C87.0491 54.0159 87.9971 54.409 88.986 54.4101H93.014C94.0027 54.4093 94.9507 54.0161 95.6499 53.317C96.349 52.6178 96.7422 51.6698 96.743 50.6811V49.7321C99.1049 48.694 101.169 47.0798 102.745 45.0375C104.322 42.9952 105.361 40.5899 105.767 38.0421C106.01 37.9881 106.256 37.9491 106.494 37.8751C107.604 37.5308 108.635 36.9712 109.529 36.2283C110.423 35.4853 111.162 34.5736 111.703 33.5452C112.244 32.5167 112.578 31.3917 112.684 30.2344C112.791 29.0771 112.668 27.9101 112.324 26.8001ZM77.286 35.9101C76.8977 35.9779 76.5041 36.0113 76.11 36.0101C74.3627 36.0074 72.6881 35.3108 71.4545 34.0734C70.2209 32.836 69.5293 31.1593 69.532 29.4121C69.5346 27.6648 70.2312 25.9902 71.4686 24.7566C72.706 23.523 74.3827 22.8314 76.13 22.8341C76.5175 22.8333 76.9044 22.8668 77.286 22.9341V35.9101ZM94.486 49.1231V50.6831C94.4855 51.072 94.3307 51.4448 94.0557 51.7198C93.7807 51.9948 93.4079 52.1495 93.019 52.1501H88.986C88.597 52.1495 88.2241 51.9948 87.9489 51.7199C87.6737 51.4449 87.5188 51.0721 87.518 50.6831V49.1231C87.5185 48.734 87.6734 48.361 87.9486 48.086C88.2238 47.8109 88.5969 47.6563 88.986 47.6561H93.014C93.2068 47.6555 93.3979 47.693 93.5763 47.7664C93.7546 47.8397 93.9169 47.9475 94.0536 48.0836C94.1903 48.2196 94.2988 48.3813 94.373 48.5593C94.4472 48.7373 94.4856 48.9282 94.486 49.1211V49.1231ZM102.718 35.9131V22.9381C103.103 22.8698 103.492 22.8363 103.883 22.8381C105.63 22.8393 107.305 23.5345 108.54 24.7708C109.775 26.0072 110.468 27.6833 110.466 29.4306C110.465 31.1778 109.77 32.853 108.534 34.0877C107.297 35.3223 105.621 36.0153 103.874 36.0141C103.486 36.0125 103.098 35.9777 102.716 35.9101L102.718 35.9131Z" fill="#191717"/>
</svg>
