<svg width="180" height="180" viewBox="0 0 180 180" fill="none" xmlns="http://www.w3.org/2000/svg">
<path d="M130.338 94.2791H49.6609C47.1575 94.2743 44.7543 95.2628 42.9788 97.0276C41.2032 98.7925 40.2003 101.19 40.1899 103.693V131.593C40.2005 134.096 41.2036 136.493 42.9791 138.258C44.7546 140.023 47.1576 141.012 49.6609 141.007H130.338C132.841 141.012 135.243 140.024 137.018 138.26C138.794 136.496 139.797 134.1 139.808 131.597V103.693C139.798 101.19 138.796 98.7924 137.02 97.0274C135.245 95.2624 132.841 94.274 130.338 94.2791ZM54.0379 137.579V134.679H113.73C113.901 134.672 114.062 134.598 114.178 134.472C114.294 134.347 114.356 134.18 114.349 134.009C114.342 133.838 114.268 133.677 114.142 133.561C114.017 133.445 113.85 133.383 113.679 133.39H54.0379V130.167H126.195V133.39H119.208C119.037 133.397 118.876 133.471 118.76 133.597C118.644 133.723 118.582 133.889 118.589 134.06C118.596 134.231 118.67 134.392 118.796 134.508C118.921 134.624 119.088 134.686 119.259 134.679H126.195V137.579H54.0379ZM136.371 131.595C136.362 133.188 135.722 134.713 134.59 135.835C133.459 136.957 131.928 137.584 130.335 137.579H129.629L129.634 126.743H50.6089V137.583H49.6579C48.0646 137.588 46.5344 136.961 45.4029 135.839C44.2714 134.717 43.6309 133.192 43.6219 131.599V103.693C43.6304 102.1 44.2707 100.575 45.4023 99.4527C46.534 98.3308 48.0644 97.7038 49.6579 97.7091H130.335C131.928 97.7038 133.459 98.3308 134.591 99.4527C135.722 100.575 136.362 102.1 136.371 103.693V131.595ZM102.018 144.01C101.847 144.01 101.682 144.078 101.561 144.199C101.44 144.32 101.372 144.485 101.372 144.656V154.774C101.372 154.945 101.441 155.109 101.562 155.23C101.683 155.351 101.847 155.419 102.018 155.419C102.188 155.418 102.351 155.349 102.471 155.229C102.591 155.108 102.658 154.945 102.659 154.775V144.66C102.66 144.575 102.644 144.491 102.612 144.413C102.58 144.334 102.533 144.263 102.473 144.202C102.414 144.142 102.343 144.094 102.265 144.061C102.187 144.028 102.103 144.011 102.018 144.01ZM68.7029 143.91C68.5401 143.857 68.3629 143.871 68.2103 143.949C68.0576 144.026 67.9421 144.161 67.889 144.324C67.3301 146.015 66.5824 147.637 65.66 149.16C64.5257 151.018 63.2031 152.755 61.713 154.342C61.6281 154.434 61.5719 154.549 61.5512 154.672C61.5305 154.796 61.5462 154.923 61.5964 155.037C61.6465 155.152 61.729 155.25 61.8337 155.318C61.9384 155.387 62.0608 155.424 62.186 155.424C62.2742 155.424 62.3614 155.405 62.4422 155.37C62.523 155.334 62.5958 155.283 62.6559 155.218C64.2055 153.565 65.5811 151.758 66.7609 149.824C67.7338 148.218 68.5228 146.507 69.113 144.724C69.1664 144.562 69.1532 144.385 69.0764 144.232C68.9995 144.08 68.8652 143.964 68.7029 143.91ZM90.092 143.99C90.0073 143.993 89.9241 144.013 89.8472 144.049C89.7703 144.084 89.7011 144.135 89.6436 144.197C89.5861 144.259 89.5416 144.332 89.5123 144.411C89.483 144.491 89.4696 144.575 89.473 144.66V154.778C89.4735 154.949 89.5416 155.113 89.6624 155.234C89.7833 155.354 89.9471 155.423 90.118 155.423C90.2881 155.422 90.4507 155.353 90.5707 155.233C90.6908 155.112 90.7584 154.949 90.759 154.779V144.66C90.7599 144.643 90.7599 144.626 90.759 144.609C90.7522 144.439 90.6782 144.278 90.5532 144.162C90.4282 144.046 90.2624 143.984 90.092 143.99ZM78.218 144.01C78.0466 144.01 77.8823 144.078 77.7612 144.199C77.64 144.32 77.572 144.485 77.572 144.656V154.774C77.5725 154.945 77.6407 155.109 77.7618 155.23C77.8828 155.351 78.0469 155.419 78.218 155.419C78.3886 155.419 78.5521 155.351 78.6728 155.23C78.7934 155.109 78.8615 154.946 78.862 154.775V144.66C78.8625 144.575 78.8463 144.491 78.8141 144.412C78.782 144.333 78.7347 144.262 78.6749 144.201C78.615 144.141 78.5439 144.093 78.4655 144.06C78.3871 144.027 78.303 144.01 78.218 144.01Z" fill="#191717"/>
<path d="M128.009 105.365H122.186C122.015 105.372 121.854 105.446 121.738 105.572C121.622 105.697 121.56 105.864 121.567 106.035C121.574 106.206 121.648 106.367 121.774 106.483C121.899 106.599 122.066 106.661 122.237 106.654H128.062C128.233 106.647 128.394 106.573 128.51 106.447C128.626 106.322 128.688 106.155 128.681 105.984C128.674 105.813 128.6 105.652 128.474 105.536C128.349 105.42 128.182 105.358 128.011 105.365H128.009ZM116.647 105.365H88.127C88.0423 105.368 87.9593 105.388 87.8823 105.424C87.8054 105.459 87.7362 105.51 87.6787 105.572C87.6213 105.634 87.5766 105.707 87.5473 105.786C87.518 105.866 87.5047 105.95 87.5081 106.035C87.5114 106.12 87.5313 106.203 87.5668 106.28C87.6023 106.357 87.6526 106.426 87.7149 106.483C87.7771 106.541 87.85 106.585 87.9295 106.615C88.0089 106.644 88.0934 106.657 88.178 106.654H116.698C116.869 106.647 117.03 106.573 117.146 106.447C117.262 106.322 117.324 106.155 117.317 105.984C117.31 105.813 117.236 105.652 117.11 105.536C116.985 105.42 116.818 105.358 116.647 105.365ZM114.686 149.158C113.763 147.635 113.015 146.013 112.455 144.322L112.446 144.292C112.418 144.212 112.374 144.139 112.317 144.076C112.261 144.012 112.192 143.961 112.116 143.925C112.039 143.888 111.956 143.867 111.872 143.863C111.787 143.858 111.702 143.87 111.623 143.899C111.543 143.927 111.469 143.97 111.406 144.027C111.343 144.084 111.292 144.152 111.255 144.229C111.219 144.305 111.198 144.388 111.193 144.473C111.189 144.557 111.201 144.642 111.229 144.722C111.82 146.505 112.609 148.216 113.582 149.822C114.76 151.756 116.134 153.564 117.682 155.216C117.742 155.281 117.815 155.333 117.897 155.368C117.978 155.404 118.065 155.422 118.154 155.423C118.316 155.422 118.471 155.361 118.59 155.252C118.652 155.195 118.703 155.126 118.738 155.049C118.774 154.972 118.794 154.889 118.798 154.804C118.801 154.72 118.788 154.635 118.758 154.556C118.729 154.476 118.684 154.403 118.627 154.341C117.139 152.753 115.818 151.016 114.686 149.158Z" fill="#191717"/>
<path fill-rule="evenodd" clip-rule="evenodd" d="M102.125 51.5778C102.773 51.1931 103.244 50.5693 103.436 49.8408C103.321 48.3603 103.669 46.8807 104.43 45.6058C104.385 44.6864 104.052 43.8043 103.478 43.0848C103.631 42.4633 103.594 41.8102 103.372 41.2098C103.215 40.7048 102.915 40.2563 102.507 39.9189C102.1 39.5816 101.603 39.37 101.078 39.3098C100.707 39.2705 100.334 39.2581 99.9611 39.2728L99.561 39.2778H98.509L98.064 39.2898L96.993 39.2818H96.922C96.9458 38.9373 96.9969 38.5952 97.075 38.2588C97.4232 36.6709 97.5527 35.0428 97.46 33.4198C97.4903 32.739 97.2894 32.068 96.89 31.5159C96.4906 30.9638 95.9161 30.563 95.26 30.3788C94.8005 30.3102 94.3315 30.4077 93.9373 30.6536C93.5431 30.8996 93.2494 31.2779 93.109 31.7208C92.8921 32.2803 92.7136 32.854 92.575 33.4378C92.169 35.0308 91.154 37.9248 88.931 39.4248C88.1937 39.9198 87.3343 40.2022 86.447 40.2408C86.2572 40.2423 86.0714 40.2963 85.9104 40.3969C85.7494 40.4975 85.6195 40.6408 85.535 40.8108C85.4305 40.5318 85.2433 40.2913 84.9985 40.1214C84.7538 39.9514 84.463 39.8602 84.165 39.8598H78.286C77.8968 39.8601 77.5237 40.0147 77.2483 40.2897C76.9729 40.5647 76.8178 40.9376 76.817 41.3268V52.5268C76.8181 52.9159 76.9732 53.2887 77.2485 53.5637C77.5239 53.8386 77.8969 53.9933 78.286 53.9938H84.1639C84.4624 53.9931 84.7536 53.9014 84.9985 53.731C85.2435 53.5605 85.4307 53.3194 85.535 53.0398C85.6231 53.2138 85.7584 53.3594 85.9257 53.4597C86.0929 53.56 86.285 53.611 86.48 53.6068C87.5296 53.7016 88.5551 53.977 89.511 54.4208C90.8109 55.0216 92.2314 55.3159 93.663 55.2808C94.4056 55.2868 95.1436 55.2898 95.877 55.2898C96.319 55.2898 96.76 55.2888 97.205 55.2778H97.49C98.0546 55.2693 98.6193 55.2693 99.184 55.2778C99.6649 55.3024 100.144 55.2013 100.574 54.9846C101.004 54.7679 101.37 54.443 101.637 54.0418C101.885 53.6874 102.056 53.2853 102.14 52.8611C102.224 52.4369 102.219 51.9999 102.125 51.5778ZM78.286 40.9421H84.1639C84.2664 40.9444 84.3641 40.9859 84.4369 41.0581C84.5096 41.1303 84.552 41.2276 84.5551 41.3301V52.5301C84.5545 52.6332 84.5131 52.7319 84.4401 52.8046C84.367 52.8773 84.2681 52.9181 84.165 52.9181H78.286C78.1832 52.9176 78.0846 52.8766 78.0118 52.8039C77.939 52.7313 77.8978 52.6329 77.897 52.5301V41.3301C77.9 41.228 77.9421 41.1309 78.0144 41.0587C78.0867 40.9866 78.1839 40.9449 78.286 40.9421ZM102.339 43.1641L102.496 43.7211L102.68 43.8281C103.126 44.4112 103.364 45.1269 103.356 45.8611C103.376 46.1997 103.314 46.5382 103.174 46.8475C103.035 47.1567 102.823 47.4277 102.556 47.6371L102.251 47.8711L102.374 48.2361C102.519 48.6606 102.529 49.1196 102.403 49.5501C102.339 49.812 102.217 50.0561 102.045 50.2639C101.874 50.4718 101.657 50.638 101.412 50.7501L101.219 50.8411L100.98 51.4501L101.027 51.6231C101.124 51.9278 101.149 52.2508 101.101 52.5669C101.053 52.883 100.933 53.1838 100.75 53.4461C100.581 53.6979 100.349 53.9011 100.078 54.0354C99.8058 54.1696 99.5036 54.2302 99.201 54.2111H97.201C96.021 54.2171 94.849 54.2131 93.673 54.2061C92.3824 54.2439 91.101 53.9781 89.932 53.4301C88.8471 52.933 87.6786 52.644 86.4871 52.5781L86.572 41.3281C87.6297 41.267 88.6514 40.9215 89.5291 40.3281C92.05 38.6291 93.174 35.4541 93.618 33.7121C93.7438 33.1767 93.9059 32.6505 94.103 32.1371C94.1522 31.9478 94.2594 31.7785 94.4094 31.653C94.5595 31.5275 94.7449 31.452 94.9399 31.4371C94.9879 31.4364 95.0359 31.4407 95.083 31.4501C95.674 31.5481 96.3111 32.2811 96.3831 33.4891C96.4694 35.0216 96.3465 36.5587 96.0179 38.0581L96.0171 38.0626C95.8406 38.9661 95.7236 39.5648 96.073 39.9941C96.1863 40.1188 96.3257 40.217 96.4812 40.2818C96.6367 40.3466 96.8047 40.3764 96.973 40.3691L98.506 40.3791L99.981 40.3601C100.298 40.3453 100.616 40.3539 100.932 40.3861C101.263 40.4242 101.576 40.5598 101.83 40.7758C102.084 40.9917 102.268 41.2783 102.359 41.5991C102.524 42.0542 102.533 42.5514 102.384 43.0121L102.339 43.1641Z" fill="#00ADEF"/>
<path d="M109.51 25H69.678C68.0777 25.0019 66.5436 25.6384 65.412 26.7699C64.2804 27.9015 63.6438 29.4357 63.642 31.036V71.07C63.5949 71.6532 63.7124 72.2378 63.9813 72.7574C64.2502 73.277 64.6597 73.7107 65.163 74.009C65.5282 74.1981 65.9337 74.2959 66.345 74.294C67.1051 74.2686 67.8387 74.0083 68.445 73.549L81.0091 64.649H109.509C111.109 64.6471 112.643 64.0106 113.775 62.879C114.906 61.7474 115.542 60.2132 115.544 58.613V31.036C115.542 29.436 114.906 27.9019 113.775 26.7704C112.644 25.6388 111.11 25.0021 109.51 25ZM112.666 58.613C112.665 59.4497 112.333 60.2519 111.741 60.8438C111.15 61.4356 110.348 61.7687 109.511 61.77H80.0861L66.775 71.2C66.7754 71.2258 66.7695 71.2513 66.7578 71.2743C66.7462 71.2973 66.7291 71.3171 66.708 71.332C66.6909 71.3457 66.6712 71.3558 66.65 71.3616C66.6289 71.3674 66.6068 71.3689 66.5851 71.366C66.5634 71.3631 66.5425 71.3558 66.5237 71.3445C66.5049 71.3333 66.4886 71.3183 66.4757 71.3006C66.4629 71.2828 66.4537 71.2627 66.4489 71.2413C66.444 71.2199 66.4436 71.1978 66.4475 71.1762C66.4515 71.1547 66.4597 71.1342 66.4718 71.1159C66.4839 71.0976 66.4996 71.082 66.518 71.07V31.036C66.5193 30.1991 66.8523 29.3969 67.4441 28.8051C68.0359 28.2134 68.8382 27.8803 69.6751 27.879H109.507C110.344 27.8801 111.146 28.2131 111.737 28.805C112.329 29.3968 112.661 30.1992 112.662 31.036L112.666 58.613Z" fill="#00ADEF"/>
</svg>
