<svg width="64" height="64" viewBox="0 0 64 64" fill="none" xmlns="http://www.w3.org/2000/svg">
<path d="M64 0H0V64H64V0Z" fill="url(#paint0_linear)"/>
<path d="M8.70832 29.486C8.8227 29.6297 8.96478 29.7496 9.12631 29.8384C9.28783 29.9273 9.46559 29.9835 9.64923 30.0037C9.83287 30.024 10.0187 30.0078 10.196 29.9562C10.3733 29.9046 10.5385 29.8186 10.6819 29.7032L11.9819 28.6635V50.3899C11.9861 51.0623 12.2585 51.7056 12.7398 52.1796C13.2211 52.6535 13.8721 52.9195 14.5507 52.9195H50.8894C51.5666 52.9195 52.216 52.653 52.6948 52.1786C53.1736 51.7042 53.4425 51.0608 53.4425 50.3899V28.6635L54.7113 29.6722C54.8531 29.7918 55.0178 29.8819 55.1954 29.9374C55.3731 29.9929 55.5601 30.0125 55.7456 29.9951C55.931 29.9778 56.111 29.9238 56.275 29.8363C56.4391 29.7489 56.5837 29.6297 56.7005 29.486C56.9317 29.1973 57.0384 28.8298 56.9973 28.4635C56.9562 28.0973 56.7707 27.7619 56.4812 27.5306L34.2394 9.85454C34.0877 9.73507 33.9112 9.65028 33.7225 9.60624C33.4039 9.46822 33.06 9.39697 32.7122 9.39697C32.3645 9.39697 32.0206 9.46822 31.702 9.60624C31.5086 9.65051 31.3271 9.73517 31.1694 9.85454L8.92761 27.5771C8.64817 27.8049 8.46906 28.1314 8.42814 28.4876C8.38722 28.8438 8.48769 29.2018 8.70832 29.486Z" fill="white"/>
<path d="M41.6324 42.3511C42.3439 42.0728 42.9854 41.6438 43.512 41.094C44.0319 40.5418 44.4365 39.893 44.7024 39.1852C45.2914 37.6882 45.2914 36.0266 44.7024 34.5295C44.418 33.8299 43.9939 33.1944 43.4556 32.661C42.9173 32.1277 42.2759 31.7075 41.5697 31.4258C40.8046 31.1125 39.9855 30.9491 39.1576 30.9447H35.7587V42.8787H39.1576C39.9982 42.8555 40.8269 42.6765 41.601 42.3511H41.6324ZM39.1576 27.3443C40.4875 27.3402 41.8059 27.5878 43.0421 28.0737C44.2086 28.5453 45.2723 29.2356 46.1747 30.1067C47.0802 30.9922 47.7989 32.0473 48.2893 33.2104C48.7852 34.3934 49.0404 35.6618 49.0404 36.9427C49.0404 38.2237 48.7852 39.4921 48.2893 40.675C47.7949 41.8361 47.0767 42.8904 46.1747 43.7788C45.2831 44.6556 44.216 45.3376 43.0421 45.7808C41.8044 46.2511 40.4818 46.4625 39.1576 46.4015H31.8115V27.3443H39.1576Z" fill="#1D1D1B"/>
<path d="M22.2421 35.2433C21.7613 35.2464 21.2904 35.1079 20.8891 34.8455C20.4878 34.5831 20.1741 34.2085 19.988 33.7692C19.8018 33.33 19.7515 32.8458 19.8434 32.3782C19.9353 31.9106 20.1653 31.4805 20.5042 31.1426C20.8431 30.8046 21.2756 30.574 21.747 30.4799C22.2184 30.3858 22.7073 30.4325 23.1519 30.6141C23.5964 30.7957 23.9765 31.104 24.244 31.4999C24.5114 31.8958 24.6542 32.3615 24.6543 32.8379C24.6563 33.1531 24.5955 33.4655 24.4752 33.7572C24.3549 34.049 24.1775 34.3143 23.9533 34.5379C23.7291 34.7614 23.4625 34.9389 23.1688 35.0599C22.8752 35.181 22.5602 35.2433 22.2421 35.2433ZM22.2421 27.0183C21.0794 27.0306 19.9463 27.3836 18.9858 28.0328C18.0252 28.6821 17.2801 29.5986 16.8445 30.6667C16.4088 31.7349 16.302 32.9069 16.5375 34.0351C16.773 35.1633 17.3404 36.1971 18.168 37.0064C18.9957 37.8156 20.0466 38.364 21.1883 38.5824C22.33 38.8008 23.5114 38.6795 24.5836 38.2337C25.6558 37.7879 26.5709 37.0376 27.2134 36.0774C27.8559 35.1172 28.1972 33.99 28.1941 32.8379C28.1941 31.2945 27.5753 29.8142 26.4738 28.7228C25.3722 27.6314 23.8782 27.0183 22.3204 27.0183" fill="#1D1D1B"/>
<defs>
<linearGradient id="paint0_linear" x1="33.191" y1="56.8886" x2="33.191" y2="-0.965896" gradientUnits="userSpaceOnUse">
<stop stop-color="#DFDAEE"/>
<stop offset="0.11" stop-color="#DFDAEE"/>
<stop offset="0.24" stop-color="#DBD9EE"/>
<stop offset="0.44" stop-color="#C8D0EB"/>
<stop offset="0.68" stop-color="#ABC3E6"/>
<stop offset="0.95" stop-color="#82ACDC"/>
<stop offset="1" stop-color="#7DA8DA"/>
</linearGradient>
</defs>
</svg>
