<svg width="180" height="43" viewBox="0 0 180 43" fill="none" xmlns="http://www.w3.org/2000/svg">
<path d="M46.4853 2.52046C49.1275 2.47525 51.7523 2.96193 54.2079 3.95236C56.6635 4.9428 58.9013 6.41733 60.7918 8.29071C62.6169 10.0984 64.0773 12.2495 65.0917 14.6239C66.1365 17.0796 66.663 19.7301 66.6373 22.4047C66.6653 25.0796 66.1387 27.7305 65.0917 30.1855C64.0783 32.5691 62.6116 34.7265 60.7756 36.5342C58.9395 38.342 56.7701 39.7646 54.3916 40.7207C51.8837 41.7899 49.1856 42.3238 46.4655 42.2889H31.4854V2.52046H46.4853ZM51.5184 33.8246C52.9567 33.2311 54.2537 32.3332 55.3229 31.1908C56.3803 30.0201 57.2075 28.6553 57.7601 27.1697C58.3549 25.6334 58.651 23.9948 58.632 22.3444C58.6512 20.6809 58.3552 19.0291 57.7601 17.4789C57.2007 16.0267 56.3735 14.6961 55.3229 13.5583C54.2404 12.4319 52.9469 11.5364 51.5184 10.9245C49.9221 10.2547 48.2127 9.90647 46.4853 9.89914H39.4906V34.8298H46.4853C48.2151 34.8703 49.9328 34.5273 51.5184 33.8246Z" fill="#231F20"/>
<path d="M11.889 1.85742C9.53761 1.85742 7.23899 2.56492 5.28385 3.89044C3.3287 5.21597 1.80486 7.09999 0.905004 9.30426C0.00515135 11.5085 -0.230291 13.934 0.22845 16.2741C0.687191 18.6141 1.81951 20.7636 3.48222 22.4507C5.14493 24.1377 7.26336 25.2866 9.56961 25.7521C11.8759 26.2176 14.2663 25.9787 16.4388 25.0656C18.6112 24.1526 20.468 22.6064 21.7744 20.6226C23.0808 18.6388 23.7781 16.3065 23.7781 13.9207C23.7781 10.7213 22.5255 7.65296 20.2959 5.39066C18.0662 3.12837 15.0422 1.85742 11.889 1.85742V1.85742ZM11.889 18.9872C10.924 18.9713 9.98504 18.6674 9.18917 18.1135C8.39331 17.5595 7.77581 16.7801 7.41374 15.8723C7.05167 14.9646 6.96104 13.9688 7.15318 13.0091C7.34531 12.0495 7.81169 11.1685 8.49413 10.476C9.17658 9.78357 10.0449 9.31035 10.9907 9.11541C11.9365 8.92046 12.9179 9.01241 13.8125 9.37979C14.7072 9.74717 15.4754 10.3737 16.0213 11.1812C16.5672 11.9888 16.8667 12.9415 16.8824 13.9207C16.8931 14.589 16.7713 15.2527 16.5242 15.8723C16.277 16.492 15.9096 17.0548 15.4438 17.5275C14.9779 18.0001 14.4232 18.3729 13.8125 18.6237C13.2019 18.8745 12.5477 18.9981 11.889 18.9872Z" fill="#231F20"/>
<path d="M180 36.9692H80.2913V42.2892H180V36.9692Z" fill="url(#paint0_linear)"/>
<path d="M84.97 14L81.97 4.52V14H80.44V3.125H83.005L85.78 12.185L88.555 3.125H91.12V14H89.59V4.52L86.59 14H84.97ZM102.134 12.62C101.214 13.67 99.9795 14.195 98.4295 14.195C96.8795 14.195 95.6395 13.67 94.7095 12.62C93.7895 11.57 93.3295 10.215 93.3295 8.555C93.3295 6.895 93.7895 5.545 94.7095 4.505C95.6395 3.455 96.8795 2.93 98.4295 2.93C99.9795 2.93 101.214 3.455 102.134 4.505C103.064 5.545 103.529 6.895 103.529 8.555C103.529 10.215 103.064 11.57 102.134 12.62ZM95.8795 11.75C96.5495 12.52 97.3995 12.905 98.4295 12.905C99.4595 12.905 100.304 12.52 100.964 11.75C101.634 10.98 101.969 9.915 101.969 8.555C101.969 7.195 101.634 6.135 100.964 5.375C100.304 4.605 99.4595 4.22 98.4295 4.22C97.3995 4.22 96.5495 4.605 95.8795 5.375C95.2195 6.135 94.8895 7.195 94.8895 8.555C94.8895 9.915 95.2195 10.98 95.8795 11.75ZM112.998 0.709999C112.938 1.26 112.673 1.7 112.203 2.03C111.733 2.36 111.073 2.525 110.223 2.525C109.393 2.525 108.748 2.36 108.288 2.03C107.838 1.7 107.573 1.26 107.493 0.709999H108.648C108.738 1.31 109.268 1.61 110.238 1.61C111.178 1.61 111.713 1.31 111.843 0.709999H112.998ZM113.118 5.36L107.268 14H105.738V3.125H107.268V11.75L113.118 3.125H114.648V14H113.118V5.36ZM83.11 26.05H81.97V31H80.44V20.125H81.97V24.73H83.065L86.725 20.125H88.57L84.37 25.27L88.72 31H86.89L83.11 26.05ZM97.9157 29.62C96.9957 30.67 95.7607 31.195 94.2107 31.195C92.6607 31.195 91.4207 30.67 90.4907 29.62C89.5707 28.57 89.1107 27.215 89.1107 25.555C89.1107 23.895 89.5707 22.545 90.4907 21.505C91.4207 20.455 92.6607 19.93 94.2107 19.93C95.7607 19.93 96.9957 20.455 97.9157 21.505C98.8457 22.545 99.3107 23.895 99.3107 25.555C99.3107 27.215 98.8457 28.57 97.9157 29.62ZM91.6607 28.75C92.3307 29.52 93.1807 29.905 94.2107 29.905C95.2407 29.905 96.0857 29.52 96.7457 28.75C97.4157 27.98 97.7507 26.915 97.7507 25.555C97.7507 24.195 97.4157 23.135 96.7457 22.375C96.0857 21.605 95.2407 21.22 94.2107 21.22C93.1807 21.22 92.3307 21.605 91.6607 22.375C91.0007 23.135 90.6707 24.195 90.6707 25.555C90.6707 26.915 91.0007 27.98 91.6607 28.75ZM106.049 31L103.049 21.52V31H101.519V20.125H104.084L106.859 29.185L109.634 20.125H112.199V31H110.669V21.52L107.669 31H106.049ZM120.604 20.875C122.104 20.945 123.284 21.405 124.144 22.255C125.014 23.105 125.449 24.205 125.449 25.555C125.449 26.855 125.014 27.925 124.144 28.765C123.284 29.595 122.104 30.045 120.604 30.115V31.39H119.074V30.115C117.574 30.055 116.389 29.6 115.519 28.75C114.649 27.9 114.214 26.815 114.214 25.495C114.214 24.175 114.649 23.095 115.519 22.255C116.389 21.405 117.574 20.945 119.074 20.875V19.525H120.604V20.875ZM119.074 22.15C118.094 22.21 117.299 22.535 116.689 23.125C116.079 23.715 115.774 24.515 115.774 25.525C115.774 26.505 116.079 27.29 116.689 27.88C117.299 28.46 118.094 28.78 119.074 28.84V22.15ZM120.604 28.84C121.574 28.78 122.364 28.46 122.974 27.88C123.584 27.29 123.889 26.505 123.889 25.525C123.889 24.525 123.584 23.73 122.974 23.14C122.374 22.55 121.584 22.22 120.604 22.15V28.84ZM135.665 29.62C134.745 30.67 133.51 31.195 131.96 31.195C130.41 31.195 129.17 30.67 128.24 29.62C127.32 28.57 126.86 27.215 126.86 25.555C126.86 23.895 127.32 22.545 128.24 21.505C129.17 20.455 130.41 19.93 131.96 19.93C133.51 19.93 134.745 20.455 135.665 21.505C136.595 22.545 137.06 23.895 137.06 25.555C137.06 27.215 136.595 28.57 135.665 29.62ZM129.41 28.75C130.08 29.52 130.93 29.905 131.96 29.905C132.99 29.905 133.835 29.52 134.495 28.75C135.165 27.98 135.5 26.915 135.5 25.555C135.5 24.195 135.165 23.135 134.495 22.375C133.835 21.605 132.99 21.22 131.96 21.22C130.93 21.22 130.08 21.605 129.41 22.375C128.75 23.135 128.42 24.195 128.42 25.555C128.42 26.915 128.75 27.98 129.41 28.75ZM142.673 20.125C144.143 20.125 145.263 20.36 146.033 20.83C146.803 21.3 147.188 22.16 147.188 23.41C147.188 24.07 147.078 24.62 146.858 25.06C146.648 25.5 146.333 25.84 145.913 26.08C145.493 26.31 145.023 26.47 144.503 26.56C143.993 26.65 143.383 26.695 142.673 26.695H140.798V31H139.268V20.125H142.673ZM140.798 21.415V25.36H142.793C143.153 25.36 143.453 25.35 143.693 25.33C143.943 25.31 144.198 25.265 144.458 25.195C144.728 25.115 144.938 25.01 145.088 24.88C145.248 24.74 145.378 24.55 145.478 24.31C145.578 24.06 145.628 23.76 145.628 23.41C145.628 23.07 145.578 22.775 145.478 22.525C145.378 22.275 145.248 22.08 145.088 21.94C144.938 21.8 144.733 21.69 144.473 21.61C144.213 21.53 143.958 21.48 143.708 21.46C143.458 21.43 143.153 21.415 142.793 21.415H140.798ZM150.948 21.445H147.408V20.125H156.018V21.445H152.478V31H150.948V21.445Z" fill="black"/>
<defs>
<linearGradient id="paint0_linear" x1="80.0002" y1="39.2568" x2="181" y2="39.2568" gradientUnits="userSpaceOnUse">
<stop stop-color="#A0B1FF"/>
<stop offset="1" stop-color="#FFDCD6"/>
</linearGradient>
</defs>
</svg>
