<svg width="40" height="60" viewBox="0 0 40 60" fill="none" xmlns="http://www.w3.org/2000/svg">
<path fill-rule="evenodd" clip-rule="evenodd" d="M20.2462 59.643C40 31.0002 40 31.0002 40 20C40 8.9543 31.0457 0 20 0C8.9543 0 0 8.9543 0 20C0 22.8227 0 24.921 0.333756 26.9649C1.30606 32.9191 5.11089 38.4108 20 60L20.2462 59.643ZM20 29.5C25.5228 29.5 30 25.0228 30 19.5C30 13.9771 25.5228 9.49997 20 9.49997C14.4771 9.49997 9.99996 13.9771 9.99996 19.5C9.99996 25.0228 14.4771 29.5 20 29.5Z" fill="#113EE0"/>
</svg>
