<svg width="180" height="40" viewBox="0 0 180 40" fill="none" xmlns="http://www.w3.org/2000/svg">
<g clip-path="url(#clip0)">
<path d="M81.7968 4.73451V14.0234H80.3107V3.36206H82.8074L85.522 12.2532L88.2367 3.36206H90.7334V14.0234H89.2473V4.73451L86.3146 14.0234H84.7294L81.7968 4.73451Z" fill="#231F20"/>
<path d="M92.8939 8.69224C92.8048 7.98643 92.8663 7.26967 93.0745 6.5896C93.2827 5.90953 93.6328 5.28174 94.1014 4.74798C94.57 4.21421 95.1464 3.7867 95.7923 3.49386C96.4383 3.20102 97.1389 3.04956 97.8477 3.04956C98.5564 3.04956 99.257 3.20102 99.903 3.49386C100.549 3.7867 101.125 4.21421 101.594 4.74798C102.063 5.28174 102.413 5.90953 102.621 6.5896C102.829 7.26967 102.891 7.98643 102.801 8.69224C102.891 9.39805 102.829 10.1148 102.621 10.7949C102.413 11.475 102.063 12.1027 101.594 12.6365C101.125 13.1703 100.549 13.5978 99.903 13.8906C99.257 14.1835 98.5564 14.3349 97.8477 14.3349C97.1389 14.3349 96.4383 14.1835 95.7923 13.8906C95.1464 13.5978 94.57 13.1703 94.1014 12.6365C93.6328 12.1027 93.2827 11.475 93.0745 10.7949C92.8663 10.1148 92.8048 9.39805 92.8939 8.69224ZM101.315 8.69224C101.315 5.94734 99.7895 4.43566 97.8675 4.43566C95.9454 4.43566 94.4196 5.96723 94.4196 8.69224C94.4196 11.4173 95.9256 12.9488 97.8675 12.9488C99.8093 12.9488 101.315 11.4371 101.315 8.69224Z" fill="#231F20"/>
<path d="M108.983 7.57887C111.341 7.57887 112.768 8.55351 112.768 10.7216C112.768 12.8897 111.182 14.0234 108.983 14.0234H105.02V3.36206H112.153V4.65495H106.486V7.57887H108.983ZM111.242 10.7415C111.242 9.30935 110.37 8.75241 108.864 8.75241H106.486V12.7305H108.983C110.449 12.7305 111.301 12.0344 111.301 10.7415" fill="#231F20"/>
<path d="M116.255 14.0234H114.769V3.36206H116.255V11.8156L121.962 3.36206H123.448V14.0234H121.962V5.55003L116.255 14.0234Z" fill="#231F20"/>
<path d="M132.761 4.65495H128.996V6.52467C128.818 11.1393 128.085 14.0234 125.905 14.0234H125.469V12.7305H125.687C127.094 12.7305 127.45 9.70716 127.569 6.06718V3.36206H134.148V14.0234H132.761V4.65495Z" fill="#231F20"/>
<path d="M138.448 3.36206V7.34018H140.013C142.669 7.3004 144.65 7.95679 144.65 10.6619C144.65 13.367 142.669 14.0234 140.113 14.0234H136.962V3.36206H138.448ZM142.986 10.6619C142.986 8.89165 141.698 8.67285 140.073 8.67285H138.448V12.7305H140.073C141.698 12.7305 142.986 12.3924 142.986 10.7415" fill="#231F20"/>
<path d="M154.874 14.0234H153.388V9.19001H147.8V14.0234H146.314V3.36206H147.8V7.89712H153.388V3.36206H154.874V14.0234Z" fill="#231F20"/>
<path d="M157.035 8.69224C156.946 7.98643 157.007 7.26967 157.215 6.5896C157.424 5.90953 157.774 5.28174 158.242 4.74798C158.711 4.21421 159.287 3.7867 159.933 3.49386C160.579 3.20102 161.28 3.04956 161.989 3.04956C162.697 3.04956 163.398 3.20102 164.044 3.49386C164.69 3.7867 165.266 4.21421 165.735 4.74798C166.203 5.28174 166.553 5.90953 166.762 6.5896C166.97 7.26967 167.031 7.98643 166.942 8.69224C167.031 9.39805 166.97 10.1148 166.762 10.7949C166.553 11.475 166.203 12.1027 165.735 12.6365C165.266 13.1703 164.69 13.5978 164.044 13.8906C163.398 14.1835 162.697 14.3349 161.989 14.3349C161.28 14.3349 160.579 14.1835 159.933 13.8906C159.287 13.5978 158.711 13.1703 158.242 12.6365C157.774 12.1027 157.424 11.475 157.215 10.7949C157.007 10.1148 156.946 9.39805 157.035 8.69224ZM165.456 8.69224C165.456 5.94734 163.95 4.43566 162.008 4.43566C160.066 4.43566 158.521 5.96723 158.521 8.69224C158.521 11.4173 160.047 12.9488 161.969 12.9488C163.891 12.9488 165.417 11.4371 165.417 8.69224" fill="#231F20"/>
<path d="M176.355 3.36206V4.65495H170.628V7.89712H176.018V9.19001H170.628V12.7305H176.355V14.0234H169.142V3.36206H176.355Z" fill="#231F20"/>
<path d="M46.4854 0.655686C49.1276 0.610955 51.7523 1.09244 54.208 2.07229C56.6636 3.05214 58.9014 4.51092 60.7919 6.36429C62.6169 8.15268 64.0774 10.2808 65.0917 12.6298C66.1365 15.0593 66.663 17.6814 66.6373 20.3275C66.6654 22.9738 66.1388 25.5964 65.0917 28.0252C64.0784 30.3833 62.6117 32.5176 60.7756 34.3061C58.9396 36.0945 56.7702 37.5019 54.3916 38.4478C51.8837 39.5056 49.1857 40.0338 46.4656 39.9993H31.4854V0.655686H46.4854ZM51.5184 31.6254C52.9567 31.0382 54.2538 30.1499 55.3229 29.0197C56.3803 27.8616 57.2076 26.5113 57.7602 25.0416C58.355 23.5217 58.6511 21.9006 58.632 20.2678C58.6512 18.6221 58.3552 16.9879 57.7602 15.4543C57.2008 14.0176 56.3736 12.7012 55.3229 11.5756C54.2405 10.4612 52.9469 9.57528 51.5184 8.96996C49.9222 8.30732 48.2127 7.96278 46.4854 7.95554H39.4907V32.6199H46.4854C48.2152 32.66 49.9328 32.3205 51.5184 31.6254Z" fill="#231F20"/>
<path d="M11.889 0C9.53761 0 7.23899 0.699938 5.28385 2.0113C3.3287 3.32267 1.80486 5.18656 0.905004 7.36728C0.00515135 9.548 -0.230291 11.9476 0.22845 14.2626C0.687191 16.5777 1.81951 18.7042 3.48222 20.3732C5.14494 22.0423 7.26336 23.1789 9.56961 23.6394C11.8759 24.0999 14.2663 23.8636 16.4388 22.9603C18.6112 22.057 20.468 20.5273 21.7744 18.5647C23.0808 16.6021 23.7781 14.2948 23.7781 11.9344C23.7781 8.76917 22.5255 5.73362 20.2959 3.49549C18.0662 1.25737 15.0422 0 11.889 0V0ZM11.889 16.9468C10.9241 16.931 9.98504 16.6304 9.18917 16.0824C8.39331 15.5344 7.77582 14.7632 7.41374 13.8652C7.05167 12.9671 6.96105 11.982 7.15318 11.0326C7.34531 10.0832 7.81169 9.21155 8.49413 8.52651C9.17658 7.84147 10.0449 7.37331 10.9907 7.18044C11.9365 6.98758 12.9179 7.07855 13.8125 7.442C14.7072 7.80545 15.4754 8.4253 16.0213 9.2242C16.5672 10.0231 16.8667 10.9657 16.8824 11.9344C16.8932 12.5956 16.7713 13.2522 16.5242 13.8652C16.277 14.4782 15.9096 15.035 15.4438 15.5026C14.9779 15.9702 14.4232 16.3391 13.8125 16.5872C13.2019 16.8352 12.5477 16.9575 11.889 16.9468Z" fill="#231F20"/>
<path d="M180 34.7368H80.2912V40H180V34.7368Z" fill="url(#paint0_linear)"/>
<path d="M81.7963 29.3394H82.787C83.0453 29.3595 83.3037 29.3022 83.5295 29.1747C83.7553 29.0472 83.9382 28.8553 84.0552 28.6233L84.2534 28.2454L80.2903 19.772H81.8954L84.9865 26.6939L87.8399 19.772H89.4845L85.5215 28.683C85.3242 29.2523 84.9587 29.7477 84.4737 30.1031C83.9886 30.4585 83.4072 30.6569 82.8069 30.672H81.717L81.7963 29.3394Z" fill="#231F20"/>
<path d="M97.4115 21.0649H92.1011V30.4134H90.6149V19.772H98.8976V30.4134H97.4115V21.0649Z" fill="#231F20"/>
<path d="M109.438 22.9943C109.438 25.6397 107.635 26.2165 105.039 26.2165H103.216V30.4333H101.71V19.772H105.02C107.615 19.772 109.419 20.3488 109.419 22.9943H109.438ZM103.197 24.9833H105.178C106.724 24.9833 107.952 24.8242 107.952 22.9943C107.952 21.1643 106.724 21.0052 105.178 21.0052H103.197V24.9833Z" fill="#231F20"/>
<path d="M114.373 19.772L118.336 30.4333H116.731L115.899 28.126H111.064L110.232 30.4333H108.706L112.669 19.772H114.373ZM115.463 26.8331L113.482 21.2837L111.5 26.8331H115.463Z" fill="#231F20"/>
<path d="M123.686 19.772C125.668 19.772 127.412 20.2891 127.412 22.3975C127.437 22.857 127.342 23.3152 127.137 23.7268C126.932 24.1385 126.624 24.4893 126.242 24.7446C126.743 24.9387 127.17 25.2885 127.458 25.743C127.747 26.1975 127.883 26.7329 127.847 27.2707C127.847 29.5383 126.163 30.4333 124.043 30.4333H119.862V19.772H123.686ZM123.904 24.3269C125.133 24.3269 125.886 23.8495 125.886 22.5964C125.886 21.3433 125.073 21.0251 123.904 21.0251H121.348V24.3269H123.904ZM124.063 29.1603C125.569 29.1603 126.322 28.5039 126.322 27.2906C126.322 26.0773 125.569 25.5204 123.964 25.5204H121.348V29.1603H124.063Z" fill="#231F20"/>
<path d="M136.248 21.0649H132.503V22.9147C132.344 27.5293 131.611 30.4333 129.432 30.4333H128.976V29.1404H129.194C130.601 29.1404 130.977 26.0972 131.175 22.4572V19.772H137.833V30.4333H136.327L136.248 21.0649Z" fill="#231F20"/>
<path d="M147.762 19.772V21.0649H142.055V24.2871H147.425V25.5999H142.055V29.1206H147.762V30.4134H140.569V19.772H147.762Z" fill="#231F20"/>
<path d="M158.461 30.4134H156.975V25.58H151.407V30.4134H149.901V19.772H151.407V24.2871H156.975V19.772H158.461V30.4134Z" fill="#231F20"/>
<path d="M162.781 30.4134H161.275V19.772H162.781V28.2255L168.487 19.772H169.973V30.4134H168.487V21.9599L162.781 30.4134Z" fill="#231F20"/>
<path d="M180.001 19.772V21.0649H174.274V24.2871H179.664V25.5999H174.274V29.1206H180.001V30.4134H172.788V19.772H180.001Z" fill="#231F20"/>
</g>
<defs>
<linearGradient id="paint0_linear" x1="79.4671" y1="36.5336" x2="179.176" y2="36.5336" gradientUnits="userSpaceOnUse">
<stop stop-color="#CFE9DC"/>
<stop offset="0.21" stop-color="#CFE9DC"/>
<stop offset="0.37" stop-color="#C7E3DD"/>
<stop offset="0.61" stop-color="#B0D3DF"/>
<stop offset="0.92" stop-color="#8BBAE2"/>
<stop offset="0.94" stop-color="#87B7E2"/>
<stop offset="1" stop-color="#87B7E2"/>
</linearGradient>
<clipPath id="clip0">
<rect width="180" height="40" fill="white"/>
</clipPath>
</defs>
</svg>
