<?xml version="1.0" encoding="UTF-8"?>
<!DOCTYPE svg PUBLIC "-//W3C//DTD SVG 1.1//EN" "http://www.w3.org/Graphics/SVG/1.1/DTD/svg11.dtd">
<svg xmlns="http://www.w3.org/2000/svg" xmlns:xlink="http://www.w3.org/1999/xlink">
	<defs>
		<clipPath id="clip0">
			<path fill="#fff" d="M0 0h24v24H0z"/>
		</clipPath>
		<clipPath id="clip0">
			<path fill="#fff" d="M0 0h24v24H0z"/>
		</clipPath>
		<clipPath id="clip0">
			<path fill="#fff" d="M0 0h24v24H0z"/>
		</clipPath>
		<linearGradient id="paint0_linear" x1="19.887" x2="19.887" y1=".397" y2="40.172" gradientUnits="userSpaceOnUse">
			<stop stop-color="#71D6C8"/>
			<stop offset=".992" stop-color="#FFDECB"/>
		</linearGradient>
		<linearGradient id="paint0_linear" x1="19.887" x2="19.887" y1=".397" y2="40.172" gradientUnits="userSpaceOnUse">
			<stop stop-color="#7BBAFF"/>
			<stop offset="1" stop-color="#FFDECB"/>
			<stop offset="1" stop-color="#FFDECB"/>
		</linearGradient>
	</defs>
<symbol id="arrow-right" viewBox="0 0 24 24">
	<path d="M12.086 16.5l.707-.707L15.586 13H5v-2h10.586l-2.793-2.793-.707-.707L13.5 6.086l.707.707 4.5 4.5.707.707-.707.707-4.5 4.5-.707.707-1.414-1.414z" clip-rule="evenodd"/>
</symbol>
<symbol id="bookmark" viewBox="0 0 24 24">
	<path fill="currentColor" fill-rule="evenodd" d="M5 3a1 1 0 011-1h12a1 1 0 011 1v18a1 1 0 01-1.555.832L12 18.202l-5.445 3.63A1 1 0 015 21V3zm2 1v15.131l4.445-2.963a1 1 0 011.11 0L17 19.13V4H7z" clip-rule="evenodd"/>
</symbol>
<symbol id="calendar" viewBox="0 0 20 20">
	<path fill="#151515" fill-rule="evenodd" d="M7 1V0H5v2H3a3 3 0 00-3 3v12a3 3 0 003 3h14a3 3 0 003-3V5a3 3 0 00-3-3h-2V0h-2v2H7V1zM5 4v2h2V4h6v2h2V4h2a1 1 0 011 1v3H2V5a1 1 0 011-1h2zm-3 6h16v7a1 1 0 01-1 1H3a1 1 0 01-1-1v-7z" clip-rule="evenodd"/>
</symbol>
<symbol id="callback" viewBox="0 0 16 16">
	<path fill="#151515" fill-rule="evenodd" d="M4 1.5A2.5 2.5 0 001.5 4v5.333a2.5 2.5 0 002.5 2.5h.167V14a.5.5 0 00.777.416l3.874-2.583H12a2.5 2.5 0 002.5-2.5V4A2.5 2.5 0 0012 1.5H4zM2.5 4A1.5 1.5 0 014 2.5h8A1.5 1.5 0 0113.5 4v5.333a1.5 1.5 0 01-1.5 1.5H8.515l-.126.084-3.222 2.149v-2.233H4a1.5 1.5 0 01-1.5-1.5V4zm2.833 3.333a.667.667 0 100-1.333.667.667 0 000 1.333zm3.334-.666a.667.667 0 11-1.334 0 .667.667 0 011.334 0zm2 .666a.667.667 0 100-1.333.667.667 0 000 1.333z" clip-rule="evenodd"/>
</symbol>
<symbol id="check" viewBox="0 0 11 8">
	<path d="M10.178.265a1 1 0 01.057 1.413l-5 5.5a1 1 0 01-1.386.081l-3.5-3a1 1 0 111.302-1.518l2.768 2.372L8.765.322a1 1 0 011.413-.057z" clip-rule="evenodd"/>
</symbol>
<symbol id="climate-online-arrow" viewBox="0 0 34 8">
	<path fill="#94A0B1" d="M.646 3.646a.5.5 0 000 .708l3.182 3.182a.5.5 0 10.708-.708L1.707 4l2.829-2.828a.5.5 0 10-.708-.708L.646 3.646zm32.708.708a.5.5 0 000-.708L30.172.464a.5.5 0 10-.707.708L32.293 4l-2.828 2.828a.5.5 0 10.707.708l3.182-3.182zM1 4.5h32v-1H1v1z"/>
</symbol>
<symbol id="climate-online-arrow2" viewBox="0 0 33 8">
	<path fill="#94A0B1" d="M32.354 4.354a.5.5 0 000-.708L29.172.464a.5.5 0 10-.707.708L31.293 4l-2.828 2.828a.5.5 0 10.707.708l3.182-3.182zM0 4.5h32v-1H0v1z"/>
</symbol>
<symbol id="comment" viewBox="0 0 16 16">
	<path fill="currentColor" fill-rule="evenodd" d="M4 1.5A2.5 2.5 0 001.5 4v5.333a2.5 2.5 0 002.5 2.5h.167V14a.5.5 0 00.777.416l3.874-2.583H12a2.5 2.5 0 002.5-2.5V4A2.5 2.5 0 0012 1.5H4zM2.5 4A1.5 1.5 0 014 2.5h8A1.5 1.5 0 0113.5 4v5.333a1.5 1.5 0 01-1.5 1.5H8.515l-.126.084-3.222 2.149v-2.233H4a1.5 1.5 0 01-1.5-1.5V4zm2.833 3.333a.667.667 0 100-1.333.667.667 0 000 1.333zm3.334-.666a.667.667 0 11-1.334 0 .667.667 0 011.334 0zm2 .666a.667.667 0 100-1.333.667.667 0 000 1.333z" clip-rule="evenodd"/>
</symbol>
<symbol id="d" viewBox="0 0 104 118">
	<path fill="#000" fill-rule="evenodd" d="M.978 117.625V.524l28.655.462c25.824.462 29.222.808 35.338 3.118 23.672 8.777 38.283 29.68 38.283 54.97 0 25.638-14.724 46.425-38.849 54.971-6.682 2.425-9.854 2.656-35.338 3.118l-28.09.462zm75.886-71.254c-3.398-9.354-12.12-18.131-20.5-20.672-3.851-1.155-10.42-1.847-18.236-1.847H25.896v70.676l14.497-.462c12.912-.346 14.951-.693 20.161-3.464 15.29-8.084 22.426-27.486 16.31-44.23z" clip-rule="evenodd"/>
</symbol>
<symbol id="email" viewBox="0 0 24 24">
	<path fill="currentColor" fill-rule="evenodd" d="M4 3a3 3 0 00-3 3v12a3 3 0 003 3h16a3 3 0 003-3V7.016 6a3 3 0 00-3-3H4zm17 3.434V6a1 1 0 00-1-1H4a1 1 0 00-1 1v.434l9 5.4 9-5.4zM3 8.766V18a1 1 0 001 1h16a1 1 0 001-1V8.766l-8.485 5.091a1 1 0 01-1.03 0L3 8.768z" clip-rule="evenodd"/>
</symbol>
<symbol id="eye-off" viewBox="0 0 24 24">
	<g clip-path="url(#clip0)">
		<path fill="#94A0B1" fill-rule="evenodd" d="M4.78 22.624l16-20-1.56-1.249-2.807 3.508a11.661 11.661 0 00-3.21-.82A11.386 11.386 0 0012 4C8.15 4 5.168 5.925 3.193 7.769A18.727 18.727 0 00.93 10.312a16.07 16.07 0 00-.74 1.092l-.04.069-.012.02-.004.007-.001.002c-.001.001-.001.002.867.498l-.868-.496a1 1 0 000 .992L1 12l-.868.496v.002l.002.002.004.006.012.021a6.808 6.808 0 00.203.328c.14.216.344.519.611.878a18.676 18.676 0 002.361 2.62 15.672 15.672 0 002.44 1.84l-2.546 3.182 1.562 1.25zm2.246-6.008a13.536 13.536 0 01-2.352-1.739A16.683 16.683 0 012.186 12 16.727 16.727 0 014.557 9.23C6.332 7.574 8.85 6 12 6a9.387 9.387 0 013.1.524L13.639 8.35a4 4 0 00-4.84 6.05l-1.773 2.216zm3.11-3.888a2 2 0 012.165-2.706l-2.165 2.706zm9.418-6.059l.757.654a18.51 18.51 0 013.311 3.784 11.117 11.117 0 01.226.362l.014.023.004.007.001.003.001.001L23 12l.868.497-.002.003-.004.006-.011.02a7.247 7.247 0 01-.195.315c-.134.208-.33.499-.586.846a18.726 18.726 0 01-2.263 2.544C18.832 18.074 15.85 20 12 20c-.373 0-.738-.018-1.096-.053l-.996-.096.193-1.99.995.095c.295.029.596.044.904.044 3.15 0 5.668-1.575 7.443-3.231a16.734 16.734 0 002.372-2.77 16.51 16.51 0 00-2.81-3.163l-.758-.653 1.307-1.514zM23 12l.868-.495a1 1 0 010 .992L23 12z" clip-rule="evenodd"/>
	</g>
</symbol>
<symbol id="eye" viewBox="0 0 24 24">
	<g clip-path="url(#clip0)">
		<path fill="#151515" fill-rule="evenodd" d="M2.539 12.5c-.14-.189-.257-.357-.354-.5a16.727 16.727 0 012.372-2.769C6.332 7.574 8.85 6 12 6c3.15 0 5.668 1.574 7.443 3.231A16.736 16.736 0 0121.815 12a16.734 16.734 0 01-2.372 2.769C17.668 16.425 15.15 18 12 18c-3.15 0-5.668-1.575-7.443-3.231a16.724 16.724 0 01-2.018-2.27zm21.329-.997L23 12l.868.497-.002.003-.004.006-.011.02a7.247 7.247 0 01-.195.316c-.134.207-.33.498-.586.846a18.726 18.726 0 01-2.263 2.543C18.832 18.074 15.85 20 12 20c-3.85 0-6.832-1.925-8.807-3.769A18.73 18.73 0 01.93 13.688a16.07 16.07 0 01-.74-1.092 6.046 6.046 0 01-.04-.07l-.012-.02-.004-.006-.001-.002v-.001L1 12a107.85 107.85 0 01-.868-.497l.002-.003.004-.006.011-.02.042-.07a16.07 16.07 0 01.739-1.091 18.728 18.728 0 012.263-2.544C5.168 5.926 8.15 4 12 4c3.85 0 6.832 1.926 8.807 3.769.993.926 1.752 1.85 2.263 2.543a16.038 16.038 0 01.74 1.092l.04.07.012.02.004.006.001.002v.001zM23 12l.868-.496a1 1 0 010 .992L23 12zM.132 11.504L1 12l-.868.496a1 1 0 010-.992zM10 12a2 2 0 114 0 2 2 0 01-4 0zm2-4a4 4 0 100 8 4 4 0 000-8z" clip-rule="evenodd"/>
	</g>
</symbol>
<symbol id="file" viewBox="0 0 56 56">
	<path fill="currentColor" fill-rule="evenodd" d="M8.333 2.333a1 1 0 011-1h21a1 1 0 01.707.293L47.374 17.96a1 1 0 01.293.708v35a1 1 0 01-1 1H9.333a1 1 0 01-1-1V2.333zm2 1v49.334h35.334v-33H30.333a1 1 0 01-1-1V3.333h-19zm21 1.415l12.92 12.919h-12.92V4.747zM17.667 31.667h20.666v2H17.667v-2zm1 9.333h-1v2h13.666v-2H18.667z" clip-rule="evenodd"/>
</symbol>
<symbol id="link" viewBox="0 0 24 24">
	<g clip-path="url(#clip0)">
		<path fill="currentColor" fill-rule="evenodd" d="M17 19V8.414L6.707 18.707 6 19.414 4.586 18l.707-.707L15.586 7H5V5h14v14h-2z" clip-rule="evenodd"/>
	</g>
</symbol>
<symbol id="location" viewBox="0 0 16 16">
	<path fill="currentColor" fill-rule="evenodd" d="M3.167 6c0-2.413 1.835-4.833 4.833-4.833S12.833 3.587 12.833 6c0 .896-.3 1.903-.785 2.933-.482 1.024-1.13 2.038-1.786 2.94A29.83 29.83 0 018 14.61a29.826 29.826 0 01-2.262-2.738c-.656-.9-1.303-1.915-1.786-2.939-.484-1.03-.785-2.037-.785-2.933zm4.48 9.687L8 15.333l-.353.354a.5.5 0 00.707 0L8 15.333l.354.354.001-.002.004-.003.012-.013.047-.047.174-.181a30.829 30.829 0 002.48-2.98c.677-.932 1.363-2.002 1.88-3.102.516-1.096.881-2.255.881-3.359C13.833 3.119 11.63.167 8 .167 4.37.167 2.167 3.119 2.167 6c0 1.104.365 2.263.88 3.359.519 1.1 1.204 2.17 1.882 3.102a30.821 30.821 0 002.653 3.16l.047.048.013.013.003.003.001.001zM8 7.333a1.333 1.333 0 100-2.666 1.333 1.333 0 000 2.666z" clip-rule="evenodd"/>
</symbol>
<symbol id="o" viewBox="0 0 68 69">
	<path fill="#000" fill-rule="evenodd" d="M34.25 68.125c18.64 0 33.75-15.11 33.75-33.75S52.89.625 34.25.625.5 15.735.5 34.375s15.11 33.75 33.75 33.75zm0-20.25c-7.456 0-13.5-6.044-13.5-13.5s6.044-13.5 13.5-13.5 13.5 6.044 13.5 13.5-6.044 13.5-13.5 13.5z" clip-rule="evenodd"/>
</symbol>
<symbol id="pdf" viewBox="0 0 24 24">
	<path fill="#151515" fill-rule="evenodd" d="M5 0a2 2 0 00-2 2v3a1 1 0 002 0V2h14v3a1 1 0 102 0V2a2 2 0 00-2-2H5zm0 19a1 1 0 10-2 0v3a2 2 0 002 2h14a2 2 0 002-2v-3a1 1 0 10-2 0v3H5v-3zM2.39 16.066c-.264 0-.473-.077-.627-.231-.154-.154-.23-.363-.23-.627v-6.16c0-.257.069-.455.208-.594.14-.14.338-.209.594-.209h2.761c.844 0 1.5.213 1.97.638.469.425.703 1.02.703 1.782 0 .763-.234 1.357-.704 1.782-.47.425-1.125.638-1.969.638H3.25v2.123c0 .264-.077.473-.23.627-.155.154-.364.231-.628.231zm2.486-4.279c.858 0 1.287-.37 1.287-1.111 0-.748-.429-1.122-1.287-1.122H3.25v2.233h1.628zM9.904 16c-.257 0-.455-.07-.594-.209-.14-.14-.21-.337-.21-.594V9.048c0-.257.07-.455.21-.594.14-.14.337-.209.594-.209h2.21c.844 0 1.57.154 2.179.462a3.226 3.226 0 011.397 1.331c.322.58.484 1.272.484 2.079 0 .807-.162 1.503-.484 2.09a3.161 3.161 0 01-1.386 1.331c-.609.308-1.338.462-2.19.462h-2.21zm2.09-1.386c1.65 0 2.475-.832 2.475-2.497 0-1.657-.825-2.486-2.475-2.486h-1.177v4.983h1.177zm5.948 1.221a.87.87 0 00.627.231c.256 0 .458-.077.605-.231.154-.154.23-.363.23-.627v-2.475h2.674c.278 0 .483-.055.616-.165.132-.11.198-.279.198-.506 0-.235-.066-.407-.198-.517-.133-.11-.338-.165-.616-.165h-2.674V9.598h2.893c.28 0 .485-.055.616-.165.133-.11.198-.279.198-.506 0-.235-.066-.407-.198-.517-.131-.11-.337-.165-.616-.165h-3.784c-.256 0-.454.07-.594.209-.139.14-.209.337-.209.594v6.16a.87.87 0 00.232.627z" clip-rule="evenodd"/>
</symbol>
<symbol id="play" viewBox="0 0 24 24">
	<path fill="#151515" fill-rule="evenodd" d="M7.528 3.118a1 1 0 011.027.05l12 8a1 1 0 010 1.664l-12 8A1 1 0 017 20V4a1 1 0 01.528-.882zM9 5.868v12.263L18.197 12 9 5.869z" clip-rule="evenodd"/>
</symbol>
<symbol id="plus" viewBox="0 0 24 24">
	<path fill="currentColor" fill-rule="evenodd" d="M13 4V3h-2v8H3v2h8v8h2v-8h8v-2h-8V4z" clip-rule="evenodd"/>
</symbol>
<symbol id="pulse-ellipse" viewBox="0 0 40 41">
	<circle cx="19.887" cy="20.285" r="19.387" stroke="url(#paint0_linear)"/>
</symbol>
<symbol id="pulse-ellipse2" viewBox="0 0 40 41">
	<circle cx="19.887" cy="20.285" r="19.387" stroke="url(#paint0_linear)"/>
</symbol>
<symbol id="quotes" viewBox="0 0 58 51">
	<path fill="#D1D8E1" d="M23 27.8h-9.6L23.8 0H12.2L0 26.2v24.6h23v-23zm33.4 0h-9.6L57.2 0H45.6L33.4 26.2v24.6h23v-23z"/>
</symbol>
<symbol id="search" viewBox="0 0 24 24">
	<circle cx="11.5" cy="10.5" r="8" fill="transparent" stroke="currentColor"/>
	<path fill="transparent" stroke="currentColor" d="M17.354 16.646l5 5"/>
</symbol>
<symbol id="triangle" viewBox="0 0 12 8">
	<path fill="#151515" d="M5.2 6.933L1.2 1.6A1 1 0 012 0h8a1 1 0 01.8 1.6l-4 5.333a1 1 0 01-1.6 0z"/>
</symbol>
<symbol id="upload" viewBox="0 0 24 24">
	<path fill="#151515" fill-rule="evenodd" d="M15.793 8.207l.707.707L17.914 7.5l-.707-.707-4.5-4.5L12 1.586l-.707.707-4.5 4.5-.707.707L7.5 8.914l.707-.707L11 5.414V17h2V5.414l2.793 2.793zM4 16v-1H2v5a2 2 0 002 2h16a2 2 0 002-2v-5h-2v5H4v-4z" clip-rule="evenodd"/>
</symbol>
<symbol id="wifi" viewBox="0 0 95 56">
	<path fill="#000" fill-rule="evenodd" d="M45.746 2.047c-8.3 0-15.692 3.903-20.444 9.972h-4.45c-6.981 0-12.662 5.678-12.662 12.66v7.633c0 6.981 5.681 12.662 12.663 12.662h5.265c4.76 5.499 11.79 8.979 19.628 8.979 7.839 0 14.87-3.48 19.63-8.979h5.069c6.984 0 12.666-5.68 12.666-12.662v-7.634c0-6.981-5.682-12.659-12.666-12.659H66.19C61.439 5.95 54.046 2.047 45.746 2.047z" clip-rule="evenodd"/>
	<path fill="#fff" d="M47.379 32.31v-7.63c0-5.637 4.587-10.225 10.225-10.225h12.84c5.638 0 10.228 4.588 10.228 10.225v7.63c0 5.638-4.59 10.226-10.228 10.226H42.172c3.154-2.305 5.207-6.03 5.207-10.225zM30.689 36.271h-4.215l-.754-3.579c-.538-2.54-1.034-5.626-1.128-6.825-.098 1.199-.59 4.285-1.128 6.825l-.758 3.579h-4.165l-3.93-16.482h4.706l.446 2.757c.38 2.332.828 5.204.99 7.157.19-1.931.706-4.782 1.226-7.138l.562-2.776h4.193l.565 2.776c.517 2.356 1.034 5.207 1.226 7.138.162-1.953.611-4.825.987-7.157l.447-2.757h4.663l-3.933 16.482zM38.752 23.017c-1.39 0-2.426-.804-2.426-2.094 0-1.204 1.036-2.05 2.426-2.05 1.459 0 2.47.846 2.47 2.05 0 1.29-1.011 2.094-2.47 2.094zm-2.12 13.254V24.299h4.239V36.27h-4.24z"/>
	<path fill="#000" d="M57.677 23.674v3.684h8.77v3.865h-8.77v5.048h-4.545V19.789H67.38v3.885h-9.702zM72.138 23.017c-1.388 0-2.427-.804-2.427-2.094 0-1.204 1.039-2.05 2.427-2.05 1.458 0 2.47.846 2.47 2.05 0 1.29-1.012 2.094-2.47 2.094zM70.019 36.27V24.299h4.237V36.27h-4.237z"/>
	<path fill="#231F20" d="M84.878 16.695v-2.9h-1.03v-.592h2.764v.592H85.58v2.9h-.7zM87.058 16.695v-3.492h1.06l.626 2.383.616-2.383h1.06v3.492h-.649l-.005-2.748-.684 2.748H88.4l-.687-2.748-.005 2.748h-.65z"/>
</symbol>
<symbol id="world" viewBox="0 0 16 16">
	<path fill="currentColor" fill-rule="evenodd" d="M1.185 7.5H3.18c.165-2.82 1.701-4.864 3.037-6.099A6.838 6.838 0 001.185 7.5zM7.5 1.621c-1.28 1-3.123 2.987-3.317 5.879H7.5V1.621zm0 6.879H4.196c.15 1.405.927 3.904 3.304 5.844V8.5zM6.3 14.62C4.075 12.526 3.328 9.994 3.19 8.5H1.185a6.838 6.838 0 005.114 6.12zm3.426-.006a6.838 6.838 0 005.09-6.114h-2.007c-.086.89-.393 2.057-.983 3.244a10.3 10.3 0 01-2.1 2.87zM11.802 8.5H8.5v5.86a9.156 9.156 0 002.429-3.06c.522-1.051.788-2.058.873-2.8zm.015-1H8.5V1.621c1.28 1 3.123 2.987 3.317 5.879zm1.002 0h1.996a6.838 6.838 0 00-5.033-6.099c1.336 1.235 2.872 3.279 3.037 6.099zM.167 8a7.833 7.833 0 1115.666 0A7.833 7.833 0 01.167 8z" clip-rule="evenodd"/>
</symbol>
</svg>