<svg width="24" height="24" viewBox="0 0 24 24" fill="none" xmlns="http://www.w3.org/2000/svg">
<path fill-rule="evenodd" clip-rule="evenodd" d="M4.5 2C3.11929 2 2 3.11929 2 4.5L2 10L2 15.5C2 16.8807 3.11929 18 4.5 18H6V22.5C6 22.6905 6.10823 22.8644 6.27912 22.9486C6.45002 23.0327 6.65387 23.0125 6.80486 22.8963L13.1701 18H19.5C20.8807 18 22 16.8807 22 15.5V10V4.5C22 3.11929 20.8807 2 19.5 2L12 2L4.5 2ZM3 4.5C3 3.67157 3.67157 3 4.5 3L12 3H19.5C20.3284 3 21 3.67157 21 4.5V10V15.5C21 16.3284 20.3284 17 19.5 17H13H12.8299L12.6951 17.1037L7 21.4846V17.5V17H6.5H4.5C3.67157 17 3 16.3284 3 15.5L3 10L3 4.5ZM8 11C8.55228 11 9 10.5523 9 10C9 9.44772 8.55228 9 8 9C7.44772 9 7 9.44772 7 10C7 10.5523 7.44772 11 8 11ZM12 11C12.5523 11 13 10.5523 13 10C13 9.44772 12.5523 9 12 9C11.4477 9 11 9.44772 11 10C11 10.5523 11.4477 11 12 11ZM17 10C17 10.5523 16.5523 11 16 11C15.4477 11 15 10.5523 15 10C15 9.44772 15.4477 9 16 9C16.5523 9 17 9.44772 17 10Z" fill="currentColor"/>
</svg>
