<svg width="64" height="64" viewBox="0 0 64 64" fill="none" xmlns="http://www.w3.org/2000/svg">
<path fill-rule="evenodd" clip-rule="evenodd" d="M11 6.5C11 6.22386 11.2239 6 11.5 6H34.6667C34.7993 6 34.9264 6.05268 35.0202 6.14645L49.8535 20.9798C49.9473 21.0735 50 21.2007 50 21.3333V57.4987C50 57.7748 49.7761 57.9987 49.5 57.9987H11.5C11.2239 57.9987 11 57.7748 11 57.4987V6.5ZM12 7V56.9987H49V21.9974H34.5C34.2239 21.9974 34 21.7735 34 21.4974V7H12ZM35 7.54046L48.457 20.9974H35V7.54046ZM41.5 39H19.5H19V38H19.5H41.5H42V39H41.5ZM31 47H30.5H19.5H19V46H19.5H30.5H31V47Z" fill="currentColor"/>
</svg>
