<svg width="24" height="24" viewBox="0 0 24 24" fill="none" xmlns="http://www.w3.org/2000/svg">
<path fill-rule="evenodd" clip-rule="evenodd" d="M4 2.5C4 2.22386 4.22386 2 4.5 2L13 2C13.1326 2 13.2598 2.05268 13.3536 2.14645L18.8536 7.64645C18.9473 7.74021 19 7.86739 19 8V21.5C19 21.7761 18.7761 22 18.5 22H4.5C4.22386 22 4 21.7761 4 21.5L4 2.5ZM5 3L5 21H18V9H12.5C12.2239 9 12 8.77614 12 8.5V3L5 3ZM13 3.20711L17.7929 8H13V3.20711ZM16 15H15.5H7.5H7V14H7.5H15.5H16V15ZM12 18H11.5H7.5H7V17H7.5H11.5H12V18Z" fill="currentColor"/>
</svg>
