<svg width="24" height="24" viewBox="0 0 24 24" fill="none" xmlns="http://www.w3.org/2000/svg">
<path fill-rule="evenodd" clip-rule="evenodd" d="M18.536 8.44986C20.1779 9.7506 21.2961 11.2331 21.815 12C21.2961 12.7669 20.1779 14.2494 18.536 15.5501C16.8435 16.8911 14.6459 18 12.0001 18C9.35437 18 7.15681 16.8911 5.46424 15.5501C3.82242 14.2494 2.70414 12.7669 2.18529 12C2.70414 11.2331 3.82242 9.7506 5.46424 8.44986C7.15682 7.1089 9.35437 6 12.0001 6C14.6459 6 16.8435 7.1089 18.536 8.44986ZM22.6962 11.5185C22.8926 11.8131 22.8926 12.1869 22.6962 12.4815C21.6414 14.0634 17.8786 19 12.0001 19C6.12168 19 2.35891 14.0634 1.30407 12.4815C1.10763 12.1869 1.10763 11.8131 1.30407 11.5185C2.35891 9.9366 6.12168 5 12.0001 5C17.8786 5 21.6414 9.9366 22.6962 11.5185ZM15.0001 12C15.0001 13.6569 13.6569 15 12.0001 15C10.3432 15 9.00007 13.6569 9.00007 12C9.00007 10.3431 10.3432 9 12.0001 9C13.6569 9 15.0001 10.3431 15.0001 12ZM16.0001 12C16.0001 14.2091 14.2092 16 12.0001 16C9.79093 16 8.00007 14.2091 8.00007 12C8.00007 9.79086 9.79093 8 12.0001 8C14.2092 8 16.0001 9.79086 16.0001 12Z" fill="currentColor"/>
</svg>
