<svg width="24" height="24" viewBox="0 0 24 24" fill="none" xmlns="http://www.w3.org/2000/svg">
<path fill-rule="evenodd" clip-rule="evenodd" d="M18 9C18 10.0121 17.6264 11.3455 16.9862 12.8484C16.3553 14.3296 15.5061 15.8832 14.6445 17.307C13.7847 18.7277 12.9232 20.0017 12.276 20.9212C12.1789 21.0592 12.0866 21.1892 12 21.3103C11.9134 21.1892 11.8211 21.0592 11.724 20.9212C11.0768 20.0017 10.2153 18.7277 9.35554 17.307C8.49392 15.8832 7.6447 14.3296 7.01376 12.8484C6.37357 11.3455 6 10.0121 6 9C6 5.68629 8.68629 3 12 3C15.3137 3 18 5.68629 18 9ZM19 9C19 12.9735 14.3323 19.793 12.62 22.1609C12.2355 22.6927 12 23 12 23C12 23 11.7645 22.6927 11.38 22.1609C9.66774 19.793 5 12.9735 5 9C5 5.13401 8.13401 2 12 2C15.866 2 19 5.13401 19 9ZM14 9C14 10.1046 13.1046 11 12 11C10.8954 11 10 10.1046 10 9C10 7.89543 10.8954 7 12 7C13.1046 7 14 7.89543 14 9ZM15 9C15 10.6569 13.6569 12 12 12C10.3431 12 9 10.6569 9 9C9 7.34315 10.3431 6 12 6C13.6569 6 15 7.34315 15 9Z" fill="currentColor"/>
</svg>
