<svg width="24" height="24" viewBox="0 0 24 24" fill="none" xmlns="http://www.w3.org/2000/svg">
<path fill-rule="evenodd" clip-rule="evenodd" d="M9 15C12.3137 15 15 12.3137 15 9C15 5.68629 12.3137 3 9 3C5.68629 3 3 5.68629 3 9C3 12.3137 5.68629 15 9 15ZM15.1171 12.4058C15.6795 11.3977 16 10.2363 16 9C16 5.13401 12.866 2 9 2C5.13401 2 2 5.13401 2 9C2 12.866 5.13401 16 9 16C10.2363 16 11.3977 15.6795 12.4058 15.1171L18.6729 21.4843C19.4475 22.2712 20.7149 22.2762 21.4957 21.4955C22.2765 20.7147 22.2714 19.4472 21.4844 18.6727L15.1171 12.4058ZM14.5569 13.2575C14.1825 13.7454 13.7454 14.1825 13.2575 14.5568L19.3856 20.7828C19.7706 21.1739 20.4005 21.1764 20.7886 20.7884C21.1766 20.4003 21.1741 19.7704 20.783 19.3854L14.5569 13.2575Z" fill="currentColor"/>
</svg>
