<svg width="24" height="24" viewBox="0 0 24 24" fill="none" xmlns="http://www.w3.org/2000/svg">
<path d="M16.0809 19.9289C15.2694 19.9289 11.5918 19.7124 7.90388 16.0245C3.89363 12.0143 3.98826 8.01588 4.00238 7.70225C4.00508 7.3754 4.13655 7.0628 4.36826 6.83225L5.95951 5.241C6.07528 5.12461 6.21299 5.03233 6.36466 4.96951C6.51634 4.90669 6.67896 4.87456 6.84313 4.875C7.17701 4.875 7.49088 5.005 7.72701 5.24113L9.84826 7.36238C10.0845 7.59863 10.2145 7.91238 10.2145 8.24638C10.2145 8.58038 10.0845 8.89413 9.84826 9.13025L8.61088 10.3678C8.58763 10.3909 8.56919 10.4184 8.55662 10.4488C8.54404 10.4791 8.53759 10.5116 8.53763 10.5444L8.53613 10.5931C8.53788 10.7074 8.60513 11.776 10.3786 13.5496C12.1651 15.336 13.2364 15.3913 13.3376 15.3921L13.372 15.3864L13.3839 15.3906C13.4739 15.3906 13.5333 15.3448 13.5605 15.3175L14.798 14.08C15.0343 13.8439 15.348 13.7138 15.682 13.7138C16.016 13.7138 16.3298 13.8439 16.5658 14.08L18.6873 16.2013C19.1744 16.6888 19.1744 17.4816 18.6873 17.969L17.0963 19.56C16.8657 19.7918 16.553 19.9233 16.2261 19.926C16.2009 19.927 16.1518 19.9288 16.0809 19.9288V19.9289ZM6.84338 5.875C6.80463 5.875 6.73013 5.8845 6.66651 5.94813L5.07551 7.53925C5.05224 7.56243 5.03379 7.58997 5.02122 7.62031C5.00865 7.65064 5.0022 7.68317 5.00226 7.716L5.00151 7.74388C4.99976 7.78013 4.85651 11.5628 8.61101 15.3174C12.3866 19.0931 16.147 18.9286 16.1845 18.927L16.2124 18.9261C16.3024 18.9261 16.3619 18.8803 16.3893 18.8529L17.9801 17.2619C18.0776 17.1644 18.0776 17.0058 17.9801 16.9084L15.8589 14.7871C15.812 14.7403 15.7484 14.7139 15.6821 14.7139C15.6158 14.7139 15.5522 14.7403 15.5053 14.7871L14.2679 16.0246C14.0388 16.2549 13.7286 16.3863 13.4038 16.3905C13.1393 16.4068 11.7814 16.3664 9.67163 14.2568C7.56213 12.1473 7.52238 10.7898 7.53788 10.5246C7.54211 10.1999 7.67346 9.88967 7.90376 9.66063L9.14126 8.42313C9.23876 8.32563 9.23876 8.167 9.14126 8.06963L7.02001 5.94825C6.99683 5.92499 6.96928 5.90655 6.93895 5.89398C6.90861 5.8814 6.87609 5.87496 6.84326 5.875H6.84338Z" fill="currentColor"/>
</svg>
