<svg width="40" height="41" viewBox="0 0 40 41" fill="none" xmlns="http://www.w3.org/2000/svg">
<path d="M38.5682 32.3084V31.3205C38.4674 31.3003 38.3666 31.3003 38.286 31.3003C37.5199 31.3205 36.9352 31.6632 36.6328 32.2882V31.3205H35.665V36.8447H36.6529V33.9616C36.6529 32.7519 37.1166 32.2681 38.0239 32.2681C38.1852 32.2681 38.3666 32.2882 38.5682 32.3084ZM29.9795 33.5987C30.0602 32.4898 30.8666 32.0463 31.7336 32.0463C32.782 32.0463 33.3868 32.8326 33.407 33.5987H29.9795ZM29.9795 34.4052H34.4755C34.6166 32.6511 33.5279 31.2398 31.7537 31.2398C30.161 31.2398 28.9312 32.3487 28.9312 34.1027C28.9312 35.7358 29.9594 36.9858 31.7941 36.9858C33.2053 36.9858 34.1328 36.1995 34.415 35.2519H33.3868C33.1449 35.7963 32.661 36.1592 31.7941 36.1592C30.907 36.1592 30.0199 35.5947 29.9795 34.4052ZM26.0682 29.9495V31.3406H25.1408V32.0866H26.0682V35.4737C26.0682 36.6229 26.3303 36.8648 27.4392 36.8648H28.165V36.0785H27.661C27.0965 36.0785 27.0562 35.9374 27.0562 35.3527V32.0866H28.165V31.3406H27.0562V29.9495H26.0682ZM24.7981 32.3084V31.3205C24.6973 31.3003 24.5965 31.3003 24.5158 31.3003C23.7497 31.3205 23.165 31.6632 22.8626 32.2882V31.3205H21.8949V36.8447H22.8828V33.9616C22.8828 32.7519 23.3465 32.2681 24.2537 32.2681C24.3949 32.2681 24.5763 32.2882 24.7981 32.3084ZM16.2094 33.5987C16.29 32.4898 17.0965 32.0463 17.9634 32.0463C19.0118 32.0463 19.6166 32.8326 19.6368 33.5987H16.2094ZM16.1892 34.4052H20.6852C20.8062 32.6511 19.7376 31.2398 17.9634 31.2398C16.3707 31.2398 15.1408 32.3487 15.1408 34.1027C15.1408 35.7358 16.1691 36.9858 18.0037 36.9858C19.415 36.9858 20.3424 36.1995 20.6247 35.2519H19.5763C19.3344 35.7963 18.8505 36.1592 17.9836 36.1592C17.1166 36.1592 16.2295 35.5947 16.1892 34.4052ZM12.1973 35.5543L10.6045 31.3205H9.51583L11.7134 36.8447H12.6005L14.7981 31.3205H13.79L12.1973 35.5543ZM5.01986 32.1672V31.3406H4.03196V36.8648H5.01986V33.8608C5.01986 32.6713 5.60454 32.0463 6.55212 32.0463C7.68115 32.0463 7.82228 32.7922 7.82228 33.639V36.8447H8.81018V33.3568C8.81018 32.0866 8.30615 31.2398 6.89486 31.2398C5.92712 31.2398 5.3626 31.6431 5.01986 32.1672ZM2.41906 31.3406H1.43115V36.8648H2.41906V31.3406ZM2.41906 29.4052H1.43115V30.5342H2.41906V29.4052Z" fill="#151515"/>
<path fill-rule="evenodd" clip-rule="evenodd" d="M10.9841 5.86707C9.14153 5.86438 7.1267 7.3237 5.36004 10.6287L2.31586 16.3341L1.43359 15.8633L4.47795 10.1577L4.47813 10.1573C6.30018 6.74866 8.57591 4.86355 10.9855 4.86707C13.3976 4.8706 15.6336 6.76514 17.3787 10.1621L20.4407 15.9675L23.5029 21.5643L23.5052 21.5686L23.5052 21.5686C25.2748 24.8791 27.2522 26.3396 29.0723 26.3396C30.8924 26.3396 32.8698 24.8791 34.6394 21.5686L37.6836 15.8633L38.5659 16.3341L35.5215 22.0397L35.5213 22.04C33.7022 25.4433 31.4659 27.3396 29.0723 27.3396C26.6792 27.3396 24.4434 25.4441 22.6245 22.0423C22.6241 22.0415 22.6237 22.0408 22.6233 22.04L19.5616 16.4442L19.5579 16.4375L19.558 16.4374L16.493 10.6263L16.4904 10.6215L16.4904 10.6214C14.8007 7.33114 12.8235 5.86976 10.9841 5.86707Z" fill="#151515"/>
</svg>
