<svg width="32" height="32" fill="none" xmlns="http://www.w3.org/2000/svg"><path fill-rule="evenodd" clip-rule="evenodd" d="M6.903 13.79l1.468 4.242H3.887l1.452-4.274c.306-.887.532-1.806.742-2.661h.048l.038.145c.214.808.432 1.635.736 2.548zM1.968 24.161L3.5 19.516h5.242l1.564 4.645h2.033L7.306 9.403H5.032L0 24.161h1.968zm14.5-7.355v-2.58h-.694v2.58h-2.483v.662h2.483v2.58h.694v-2.58h2.484v-.662h-2.484zM23 14.226v2.58h2.468v.662H23v2.58h-.694v-2.58h-2.483v-.662h2.483v-2.58H23zm5.822 2.58v-2.58h.71v2.58H32v.662h-2.468v2.58h-.71v-2.58h-2.467v-.662h2.467z" fill="#151515"/></svg>