<svg width="32" height="32" fill="none" xmlns="http://www.w3.org/2000/svg"><path fill-rule="evenodd" clip-rule="evenodd" d="M16 1.1h-.5v11.095a7.719 7.719 0 00-6.726-3.92C4.51 8.274 1.1 11.744 1.1 16v.5h11.095a7.719 7.719 0 00-3.92 6.726c0 4.281 3.47 7.674 7.725 7.674h.5V19.805a7.748 7.748 0 004 3.427v-1.08a6.73 6.73 0 01-3.982-5.652h13.364a6.682 6.682 0 01-4.43 5.849V23.4c3.174-.954 5.448-3.903 5.448-7.4v-.5H19.805a7.719 7.719 0 003.92-6.726c0-4.28-3.453-7.674-7.725-7.674zM8.774 9.274a6.724 6.724 0 016.708 6.226H2.118c.253-3.48 3.121-6.226 6.656-6.226zM15.5 29.882V16.518a6.724 6.724 0 00-6.226 6.708c0 3.55 2.746 6.405 6.226 6.656zm1-27.764v13.364a6.724 6.724 0 006.226-6.708c0-3.551-2.733-6.406-6.226-6.656z" fill="#151515"/><path d="M21.742 27.903l-.807 2.58h-1.032l2.63-8.225h1.193l2.629 8.226H25.29l-.822-2.58h-2.726zm2.532-.822l-.758-2.371c-.177-.533-.29-1.033-.403-1.5h-.016c-.113.467-.226.983-.388 1.483l-.758 2.388h2.323z" fill="#151515"/></svg>