<svg width="32" height="32" fill="none" xmlns="http://www.w3.org/2000/svg"><path fill-rule="evenodd" clip-rule="evenodd" d="M16.5 4.4V.8h-1v3.6h1zm-8.924-.935l2 3.2.848-.53-2-3.2-.848.53zm16-.53l-2 3.2.848.53 2-3.2-.848-.53zM16 5.9c-2.808 0-5.332 1.205-7.158 3.03-1.83 1.831-2.94 4.286-2.94 7.07h1c0-2.506.994-4.71 2.647-6.363C11.208 7.98 13.485 6.9 16 6.9c2.515 0 4.797 1.08 6.455 2.737l.002.002A8.855 8.855 0 0125.1 16h1a9.855 9.855 0 00-2.939-7.07c-1.825-1.826-4.354-3.03-7.16-3.03zM5.848 10.366l-2.8-1.6-.496.868 2.8 1.6.496-.868zm23.104-1.6l-2.8 1.6.496.868 2.8-1.6-.496-.868zM16 17.5H1.6v1h5.228l-2.947 3.073.722.692 3.61-3.765h6.919l-3.41 5.873-5.178 1.435.267.964 4.193-1.162-2.636 4.539.864.502 2.635-4.537 1.084 4.299.97-.245-1.335-5.293 3.402-5.858 3.21 5.854-1.28 5.335.972.233 1.023-4.264 2.449 4.465.877-.48-2.49-4.54 4.32 1.263.281-.96-5.282-1.545-3.224-5.878h6.936l3.578 3.902.737-.675-2.958-3.227H30.4v-1H16z" fill="#151515"/></svg>