<svg width="32" height="32" fill="none" xmlns="http://www.w3.org/2000/svg"><path fill-rule="evenodd" clip-rule="evenodd" d="M2.048 16A12.007 12.007 0 0114.065 3.984c6.036 0 9.819 4.428 11.775 10.363a11.158 11.158 0 00-.677-.56c-1.332-1.014-3.288-2.01-5.69-1.801l.086.996c2.066-.179 3.779.673 4.998 1.601a10.357 10.357 0 011.772 1.73c.04.05.071.09.09.117l.022.029.004.006h.001l.907-.297h.001v-.034l.004-.124c.005-.11.016-.276.04-.486.05-.419.154-1.011.372-1.692a9.072 9.072 0 013.147-4.468l-.61-.793a10.072 10.072 0 00-3.584 5.267C24.68 7.804 20.665 2.984 14.065 2.984 6.869 2.984 1.048 8.804 1.048 16c0 7.195 5.821 13.016 13.017 13.016v-1A12.007 12.007 0 012.048 16z" fill="#151515"/><path d="M23.307 24.532l-.887-2.742c-.194-.613-.323-1.177-.468-1.726h-.016c-.129.549-.258 1.146-.452 1.726l-.87 2.742h2.693zm-2.935.968l-.92 2.984H18.26l3.032-9.5h1.37l3.033 9.5h-1.226l-.951-2.984h-3.145z" fill="#151515"/></svg>