<svg width="32" height="32" fill="none" xmlns="http://www.w3.org/2000/svg"><path fill-rule="evenodd" clip-rule="evenodd" d="M16 1.1c-1.442 0-2.826.286-4.084.81l-.003.001a10.944 10.944 0 00-3.426 2.307 10.646 10.646 0 00-2.326 3.44C5.62 8.936 5.5 10.206 5.5 11.6v2.742a2.49 2.49 0 00-1.35.709 2.16 2.16 0 00-.65 1.527v12.167c0 .586.25 1.149.654 1.532a2.17 2.17 0 001.53.623h20.65a2.18 2.18 0 001.533-.627c.401-.4.633-.945.633-1.528V16.578c0-.587-.25-1.147-.633-1.527a2.528 2.528 0 00-1.367-.709V11.6c0-1.388-.104-2.66-.645-3.942a10.647 10.647 0 00-2.325-3.44 10.726 10.726 0 00-3.463-2.309A10.542 10.542 0 0016 1.1zm9.5 10.5v2.7h-19v-2.7c0-1.338.118-2.454.582-3.554l.001-.001a9.647 9.647 0 012.108-3.117 9.944 9.944 0 013.11-2.096A9.624 9.624 0 0116 2.1c1.308 0 2.546.26 3.684.733h.001a9.725 9.725 0 013.14 2.095 9.644 9.644 0 012.108 3.117v.001c.464 1.097.567 2.21.567 3.554zM4.854 15.76c.188-.186.524-.46 1.146-.46h20c.626 0 .978.277 1.162.46.2.198.338.506.338.818v12.167c0 .316-.125.606-.338.818a1.18 1.18 0 01-.829.337H5.683a1.17 1.17 0 01-.829-.337l-.01-.01a1.134 1.134 0 01-.344-.808V16.578c0-.304.132-.597.354-.818zM16 17.1a3.3 3.3 0 00-2.326.949 3.264 3.264 0 00-.613 3.814c.177.348.48.757.839 1.14v2.61c0 .394 0 .965.537 1.531.125.131.274.281.468.39.21.116.435.166.695.166h.798c.26 0 .486-.05.695-.166a1.99 1.99 0 00.47-.39c.537-.566.537-1.137.537-1.531v-2.614c.352-.383.647-.788.832-1.124l.005-.009c.237-.452.363-.957.363-1.506a3.25 3.25 0 00-.959-2.311l-.005-.006-.006-.005A3.404 3.404 0 0016 17.1zm-1.622 1.659A2.3 2.3 0 0116 18.1a2.4 2.4 0 011.642.664c.41.408.658.976.658 1.596a2.2 2.2 0 01-.247 1.037c-.158.287-.45.682-.811 1.054l-.142.146V25.6c0 .364-.006.585-.263.856-.12.126-.18.176-.23.204-.034.019-.086.04-.21.04H15.6c-.123 0-.174-.021-.208-.04a1.072 1.072 0 01-.23-.204c-.256-.27-.262-.492-.262-.856v-3.007l-.146-.147c-.376-.375-.664-.765-.802-1.037l-.003-.007a2.264 2.264 0 01.43-2.643z" fill="#151515"/></svg>