<svg width="720" height="300" fill="none" xmlns="http://www.w3.org/2000/svg"><g clip-path="url(#clip0_3702_16915)"><path d="M-1.55-3.3h723.1v306.4H-1.55V-3.3z" fill="url(#paint0_linear_3702_16915)"/><path d="M173.55 149.9l-58.1 153.2h89.1l-31-153.2z" fill="url(#paint1_linear_3702_16915)"/><path d="M286.85 149.9l22.3 153.2h47.4V-3.3h-45.2l-24.5 153.2z" fill="url(#paint2_linear_3702_16915)"/><path d="M173.55 149.9l31 153.2 47.8-153.2-44.5-153.2-34.3 153.2z" fill="url(#paint3_linear_3702_16915)"/><path d="M252.35 149.9l-47.8 153.2h104.6l-22.3-153.2 24.5-153.2h-103.5l44.5 153.2z" fill="url(#paint4_linear_3702_16915)"/><path d="M114.55-3.3h-60.4v94.8l34.2 58.4-34.2 58.4v94.8h61.3l-21.8-153.2 20.9-153.2z" fill="#AF2024"/><path d="M173.55 149.9l34.3-153.2h-93.3l59 153.2z" fill="url(#paint5_linear_3702_16915)"/><path d="M54.15 91.5V-3.3h-55.7l55.7 94.8z" fill="#941B1E"/><path d="M54.15 208.3l34.2-58.4-34.2-58.4v116.8z" fill="#B12739"/><path d="M54.15 208.3l-55.7 94.8h55.7v-94.8z" fill="#941B1E"/><path d="M54.15 91.5L-1.55-3.3v306.4l55.7-94.8V91.5z" fill="#952432"/><path d="M114.55-3.3l-20.9 153.2 21.8 153.2 58.1-153.2-59-153.2z" fill="#D42027"/><path d="M640.05 256.3c1.7-25.4 10-54.6 18.8-85.6 1.4-5 2.8-10 4.2-15.1-1.4-5.5-2.8-10.9-4.2-16.2-8.8-33.3-17-64.7-18.8-92-1.4-21.2 1.4-37 8.9-50.6h-45.9c-7.5 18.3-10.3 29.1-8.9 50.3 1.7 27.3 10 58.7 18.8 92 13 49.3 28 106.2 23.2 164.2h12.9c-7.6-12.8-10.4-27.3-9-47z" fill="url(#paint6_linear_3702_16915)"/><path d="M612.95 139c-8.8-33.3-17-64.7-18.8-92-1.4-21.2 1.4-32 8.9-50.3h-35.4c5.7 53.9-3.8 106.7-13.6 166.8-5.7 35-11.7 71.3-13.2 100.6-1.1 21.1.4 32.8 1.8 39h93.5c4.8-57.9-10.3-114.8-23.2-164.1z" fill="url(#paint7_linear_3702_16915)"/><path d="M663.05 155.6c-1.4 5.1-2.8 10.1-4.2 15.1-8.8 31-17 60.2-18.8 85.6-1.4 19.7 1.4 34.2 9 46.9h33c4.2-51.8-7.2-102.3-19-147.6z" fill="#1C9A48"/><path d="M678.95-3.3c10.7 55.3-2.5 110.4-15.9 158.9 11.7 45.3 23.2 95.8 18.9 147.6h39.6V-3.3h-42.6z" fill="url(#paint8_linear_3702_16915)"/><path d="M540.75 264.1c1.5-29.4 7.5-65.6 13.2-100.6 9.8-60.1 19.3-112.8 13.6-166.8h-70.8c-1.4 11.4-2.9 19.2-1.8 41.8 1.5 31.6 7.5 70.5 13.2 108.2 8.4 55.4 16.6 108.8 15.1 156.4h19.2c-1.3-6.2-2.8-17.9-1.7-39z" fill="url(#paint9_linear_3702_16915)"/><path d="M374.15 149.9L356.55-3.3v306.4l17.6-153.2z" fill="#2A3886"/><path d="M640.05 47.3c1.7 27.3 10 58.7 18.8 92 1.4 5.3 2.8 10.7 4.2 16.2 13.5-48.4 26.6-103.5 15.9-158.8h-30c-7.5 13.6-10.3 29.4-8.9 50.6z" fill="url(#paint10_linear_3702_16915)"/><path d="M508.25 146.7c-5.7-37.7-11.7-76.6-13.2-108.2-1.1-22.7.4-30.4 1.8-41.8h-41.5c1.5 40.1-1.5 85.3-7 160.8-3.1 43.5-8 110.5-7 145.7h82.1c1.4-47.7-6.8-101.1-15.2-156.5z" fill="url(#paint11_linear_3702_16915)"/><path d="M356.55 303.1h56.5V-3.3h-56.5l17.6 153.2-17.6 153.2z" fill="url(#paint12_linear_3702_16915)"/><path d="M448.35 157.5c5.5-75.5 8.5-120.6 7-160.8h-42.2l-.1 306.4h28.3c-1-35.1 3.8-102.1 7-145.6z" fill="url(#paint13_linear_3702_16915)"/></g><defs><linearGradient id="paint0_linear_3702_16915" x1="-1.55" y1="149.903" x2="721.55" y2="149.903" gradientUnits="userSpaceOnUse"><stop stop-color="#952331"/><stop offset=".036" stop-color="#921C1D"/><stop offset=".085" stop-color="#B02739"/><stop offset=".124" stop-color="#AD1F24"/><stop offset=".151" stop-color="#C72026"/><stop offset=".17" stop-color="#D42027"/><stop offset=".176" stop-color="#CC2431"/><stop offset=".189" stop-color="#B72B4C"/><stop offset=".207" stop-color="#953371"/><stop offset=".214" stop-color="#88357F"/><stop offset=".244" stop-color="#853681"/><stop offset=".264" stop-color="#6F368B"/><stop offset=".291" stop-color="#39428F"/><stop offset=".324" stop-color="#233D7D"/><stop offset=".418" stop-color="#322C6F"/><stop offset=".494" stop-color="#2A3885"/><stop offset=".558" stop-color="#1D62A1"/><stop offset=".57" stop-color="#276CA5"/><stop offset=".61" stop-color="#438EB3"/><stop offset=".64" stop-color="#55A5BC"/><stop offset=".656" stop-color="#5CAFBF"/><stop offset=".678" stop-color="#56ABBD"/><stop offset=".706" stop-color="#439FB8"/><stop offset=".737" stop-color="#188EAF"/><stop offset=".743" stop-color="#038BAE"/><stop offset=".79" stop-color="#069292"/><stop offset=".887" stop-color="#05A14B"/><stop offset="1" stop-color="#03927E"/></linearGradient><linearGradient id="paint1_linear_3702_16915" x1="204.55" y1="226.5" x2="115.45" y2="226.5" gradientUnits="userSpaceOnUse"><stop stop-color="#893680"/><stop offset=".335" stop-color="#893680"/><stop offset=".502" stop-color="#8D316D"/><stop offset=".84" stop-color="#90294D"/><stop offset="1" stop-color="#902541"/></linearGradient><linearGradient id="paint2_linear_3702_16915" x1="358.4" y1="-3" x2="326.02" y2="199.524" gradientUnits="userSpaceOnUse"><stop stop-color="#322C6F"/><stop offset=".243" stop-color="#322C6F"/><stop offset=".46" stop-color="#302F72"/><stop offset=".716" stop-color="#2A3A7E"/><stop offset=".99" stop-color="#154A93"/><stop offset="1" stop-color="#134B94"/></linearGradient><linearGradient id="paint3_linear_3702_16915" x1="173.55" y1="149.903" x2="252.35" y2="149.903" gradientUnits="userSpaceOnUse"><stop stop-color="#6F378D"/><stop offset="1" stop-color="#3A4291"/></linearGradient><linearGradient id="paint4_linear_3702_16915" x1="311.35" y1="149.903" x2="204.55" y2="149.903" gradientUnits="userSpaceOnUse"><stop stop-color="#233D7D"/><stop offset=".249" stop-color="#293D7D"/><stop offset=".545" stop-color="#3A3C80"/><stop offset=".862" stop-color="#513B84"/><stop offset="1" stop-color="#5D3A86"/></linearGradient><linearGradient id="paint5_linear_3702_16915" x1="208.58" y1="73.303" x2="112.14" y2="73.303" gradientUnits="userSpaceOnUse"><stop stop-color="#893680"/><stop offset=".335" stop-color="#893680"/><stop offset=".502" stop-color="#8D316D"/><stop offset=".84" stop-color="#90294D"/><stop offset="1" stop-color="#902541"/></linearGradient><linearGradient id="paint6_linear_3702_16915" x1="628.43" y1="-3.2" x2="628.43" y2="303.3" gradientUnits="userSpaceOnUse"><stop stop-color="#94BE55"/><stop offset=".044" stop-color="#93BD58"/><stop offset=".389" stop-color="#8BBC6A"/><stop offset=".715" stop-color="#86BC75"/><stop offset="1" stop-color="#84BC79"/></linearGradient><linearGradient id="paint7_linear_3702_16915" x1="533.23" y1="-.05" x2="612.96" y2="301.69" gradientUnits="userSpaceOnUse"><stop stop-color="#08A24B"/><stop offset=".168" stop-color="#0AA14E"/><stop offset=".405" stop-color="#0B9E57"/><stop offset=".683" stop-color="#099A67"/><stop offset=".99" stop-color="#04947D"/><stop offset="1" stop-color="#04937E"/></linearGradient><linearGradient id="paint8_linear_3702_16915" x1="692.3" y1="-3.3" x2="692.3" y2="303.2" gradientUnits="userSpaceOnUse"><stop stop-color="#69A060"/><stop offset=".04" stop-color="#639D5C"/><stop offset=".219" stop-color="#4C944F"/><stop offset=".418" stop-color="#378E47"/><stop offset=".651" stop-color="#298B44"/><stop offset="1" stop-color="#238A43"/></linearGradient><linearGradient id="paint9_linear_3702_16915" x1="531.92" y1="-3.3" x2="531.92" y2="303.1" gradientUnits="userSpaceOnUse"><stop stop-color="#05B5DC"/><stop offset=".22" stop-color="#04B0D7"/><stop offset=".537" stop-color="#05A4C9"/><stop offset=".912" stop-color="#0591B4"/><stop offset="1" stop-color="#058CAE"/></linearGradient><linearGradient id="paint10_linear_3702_16915" x1="630.52" y1="121.568" x2="676.18" y2="40.104" gradientUnits="userSpaceOnUse"><stop stop-color="#62B16E"/><stop offset="1" stop-color="#87B957"/></linearGradient><linearGradient id="paint11_linear_3702_16915" x1="429.87" y1="3.53" x2="511.06" y2="306.52" gradientUnits="userSpaceOnUse"><stop stop-color="#069AD4"/><stop offset=".352" stop-color="#30A0CE"/><stop offset="1" stop-color="#5BB0C0"/></linearGradient><linearGradient id="paint12_linear_3702_16915" x1="384.8" y1="-3.3" x2="384.8" y2="303.1" gradientUnits="userSpaceOnUse"><stop stop-color="#1E458E"/><stop offset=".241" stop-color="#1F4F96"/><stop offset=".729" stop-color="#2B6AAB"/><stop offset="1" stop-color="#337BB9"/></linearGradient><linearGradient id="paint13_linear_3702_16915" x1="434.39" y1="303.1" x2="434.39" y2="-3.3" gradientUnits="userSpaceOnUse"><stop stop-color="#3F9AC9"/><stop offset="1" stop-color="#2062A2"/></linearGradient><clipPath id="clip0_3702_16915"><path fill="#fff" d="M0 0h720v300H0z"/></clipPath></defs></svg>