<svg width="16" height="64" fill="none" xmlns="http://www.w3.org/2000/svg"><path fill="#fff" d="M0 0h16v64H0z"/><path d="M0 22v-9l16 1.44v5.4L0 22z" fill="#05A7C9"/><path d="M0 27.304V21.74L16 19v9l-16-.696z" fill="#2D86B8"/><path d="M0 37V26l16 1.064v8.162L0 37z" fill="#1D3E86"/><path d="M0 42.56v-6.4L16 35v9L0 42.56z" fill="#314385"/><path d="M0 50v-8l16 1.6V48L0 50z" fill="#514699"/><path d="M0 54.875v-6L16 47v9L0 54.875z" fill="#D82228"/><path d="M0 61v-7l16 1.474v3.316L0 61z" fill="#AE1F25"/><path d="M0 64v-3.571L16 58v6H0z" fill="#8F2438"/><path d="M0 11V3l16 3.81v2.666L0 11z" fill="#7FBC77"/><path d="M0 13.714v-3.81L16 8v8L0 13.714z" fill="#04A16D"/><path d="M0 3.15V0h16v7L0 3.15z" fill="#258F47"/></svg>