<svg width="80" height="80" fill="none" xmlns="http://www.w3.org/2000/svg"><path d="M25 35.396h3.855c.907-4.263 1.995-6.53 4.172-8.798 2.177-2.177 4.898-3.265 8.118-3.265 3.084 0 5.578 1.043 7.347 2.993 1.27 1.406 1.996 2.812 2.993 5.714l-3.31.907c-1.678-4.807-3.492-6.485-7.166-6.485-2.993 0-5.26 1.315-6.757 3.946-.771 1.36-1.18 2.585-1.633 4.988h10.068v2.858h-10.34c-.045.543-.045.997-.045 1.813 0 .953 0 1.452.045 1.905h10.34v2.857H32.665c1.224 6.032 3.809 8.708 8.435 8.708 3.9 0 5.986-1.905 7.573-6.849l3.311 1.134c-.998 2.994-1.814 4.445-3.356 5.987-1.95 1.86-4.535 2.857-7.528 2.857-3.492 0-6.35-1.225-8.526-3.673-1.95-2.177-2.857-4.173-3.719-8.164H25v-2.857h3.538a17.644 17.644 0 01-.091-1.814l.045-1.904H25v-2.858zm15 37.937c-18.38 0-33.333-14.954-33.333-33.334C6.667 21.62 21.62 6.666 40 6.666s33.333 14.953 33.333 33.333S58.38 73.333 40 73.333zm0-63.334c-16.542 0-30 13.458-30 30s13.458 30 30 30 30-13.458 30-30-13.458-30-30-30z" fill="#000"/></svg>