<svg width="32" height="32" fill="none" xmlns="http://www.w3.org/2000/svg"><path fill-rule="evenodd" clip-rule="evenodd" d="M11.768 8.8l3.37 5.9H8.2l-3.94-3.754-.69.724 3.18 3.03H1.2v1h29.6v-1h-5.5l3.167-2.858-.67-.742-3.99 3.6h-6.932l3.448-5.848 5.414-1.433-.255-.967-4.437 1.174 2.874-4.875-.861-.507-2.815 4.774L19.12 2.65l-.969.25 1.373 5.339-3.517 5.966-3.433-6.01 1.434-5.323-.965-.26-1.172 4.352-2.749-4.811-.868.496 2.808 4.916-4.424-1.24-.27.963 5.4 1.513zm4.103 15.248c0-3.21 1.854-5.274 4.725-5.274 2.113 0 3.71 1.226 4.178 3.21H23.66c-.403-1.436-1.565-2.29-3.145-2.29-2.113 0-3.468 1.693-3.468 4.338 0 2.661 1.387 4.387 3.516 4.387 1.613 0 2.758-.822 3.162-2.29h1.112c-.483 2.032-2.096 3.226-4.354 3.226-2.807 0-4.613-2.081-4.613-5.307zm-11.032.839h4.29v.92h-4.29v-.92zm7.596-6.113c-1.08 0-1.951.887-1.951 1.968 0 1.08.87 1.967 1.951 1.967a1.98 1.98 0 001.984-1.967c0-1.113-.87-1.968-1.984-1.968zm0 3.274c-.677 0-1.225-.58-1.225-1.306 0-.742.532-1.307 1.225-1.307.726 0 1.275.565 1.275 1.307 0 .726-.565 1.306-1.275 1.306z" fill="#151515"/></svg>