<svg width="32" height="32" fill="none" xmlns="http://www.w3.org/2000/svg"><path fill-rule="evenodd" clip-rule="evenodd" d="M19.962 3.932l.127.593 1.2 5.6.105.489-.978.21-.105-.49-.905-4.225L13.838 16.6l3.392 7.306 9.703-18.288-4.16 1.745-.46.194-.387-.922.461-.194 5.42-2.274.556-.233.126.59 1.2 5.6.105.489-.978.21-.105-.49-.905-4.225-9.775 18.42H31.3v1H.7v-1h7.317L3.147 14.04l-.211-.453.907-.421.21.453L8.83 23.907l3.892-7.335-1.175-2.532-.211-.453.907-.421.21.453.857 1.845 5.218-9.835-4.074 1.734-.46.196-.392-.92.46-.196 5.342-2.274.558-.237zM9.632 24.53h6.785l-3.167-6.82-3.619 6.82z" fill="#151515"/></svg>