<svg width="40" height="41" fill="none" xmlns="http://www.w3.org/2000/svg"><path d="M38.568 32.308v-.988c-.1-.02-.201-.02-.282-.02-.766.02-1.35.363-1.653.988v-.967h-.968v5.524h.988v-2.883c0-1.21.464-1.694 1.37-1.694.162 0 .344.02.545.04zm-8.588 1.29c.08-1.108.887-1.552 1.754-1.552 1.048 0 1.653.787 1.673 1.553H29.98zm0 .807h4.495c.142-1.754-.947-3.165-2.721-3.165-1.593 0-2.823 1.109-2.823 2.863 0 1.633 1.028 2.883 2.863 2.883 1.411 0 2.339-.786 2.621-1.734h-1.028c-.242.544-.726.907-1.593.907-.887 0-1.774-.564-1.814-1.754zm-3.912-4.456v1.392h-.927v.746h.927v3.387c0 1.149.262 1.39 1.371 1.39h.726v-.785h-.504c-.565 0-.605-.142-.605-.726v-3.266h1.109v-.746h-1.109v-1.392h-.988zm-1.27 2.36v-.988c-.1-.02-.201-.02-.282-.02-.766.02-1.351.362-1.653.987v-.967h-.968v5.524h.988v-2.883c0-1.21.463-1.694 1.37-1.694.142 0 .323.02.545.04zm-8.589 1.29c.081-1.11.887-1.553 1.754-1.553 1.049 0 1.654.787 1.674 1.553h-3.428zm-.02.806h4.496c.121-1.754-.947-3.165-2.722-3.165-1.592 0-2.822 1.109-2.822 2.863 0 1.633 1.028 2.883 2.863 2.883 1.411 0 2.338-.786 2.62-1.734h-1.048c-.242.544-.726.907-1.592.907-.867 0-1.755-.564-1.795-1.754zm-3.992 1.15l-1.592-4.235h-1.09l2.198 5.525h.888l2.197-5.524H13.79l-1.593 4.233zM5.02 32.166v-.826h-.988v5.524h.988V33.86c0-1.19.585-1.815 1.532-1.815 1.13 0 1.27.746 1.27 1.593v3.206h.988v-3.488c0-1.27-.504-2.117-1.915-2.117-.968 0-1.532.403-1.875.927zm-2.6-.826h-.99v5.524h.988V31.34zm0-1.936h-.99v1.13h.988v-1.13z" fill="#151515"/><path fill-rule="evenodd" clip-rule="evenodd" d="M10.984 5.867C9.142 5.864 7.127 7.324 5.36 10.63l-3.044 5.705-.882-.47 3.044-5.706c1.822-3.41 4.098-5.294 6.508-5.29 2.412.003 4.648 1.897 6.393 5.294l3.062 5.805 3.062 5.597.002.005c1.77 3.31 3.747 4.77 5.567 4.77 1.82 0 3.798-1.46 5.567-4.77l3.045-5.706.882.471-3.044 5.706c-1.82 3.403-4.056 5.3-6.45 5.3-2.393 0-4.629-1.896-6.447-5.298l-.002-.002-3.061-5.596-.004-.006-3.065-5.812-.003-.005c-1.69-3.29-3.666-4.751-5.506-4.754z" fill="#151515"/></svg>