<svg width="80" height="80" fill="none" xmlns="http://www.w3.org/2000/svg"><path fill-rule="evenodd" clip-rule="evenodd" d="M40 68c-16.016 0-29-12.984-29-29s12.984-29 29-29 29 12.984 29 29-12.984 29-29 29zM10 39C10 22.431 23.431 9 40 9c16.569 0 30 13.431 30 30 0 16.569-13.431 30-30 30-16.569 0-30-13.431-30-30zm25-9h-9v1h9v9h-9v1h-1v9h1v1h9v-1h-9v-9h9v-1h1v-9h-1v-1zm15 1v9h-1v-9h1zm-1 10v-1h-9v-9h-1v9h1v1h9zm0 0h1v9h-1v-9zm4-12v-3h3v3h-3zm0 0v1h3v-1h1v-3h-1v-1h-3v1h-1v3h1z" fill="#000" opacity=".9"/></svg>