<svg width="32" height="32" fill="none" xmlns="http://www.w3.org/2000/svg"><path fill-rule="evenodd" clip-rule="evenodd" d="M16.177 4.532V1.145h-1v3.387h1zM8.405 3.218L10.1 6.153l.866-.5-1.693-2.935-.867.5zm14.871-.178l-1.693 2.936.866.5 1.694-2.936-.867-.5zM16 6.08a9.858 9.858 0 00-7.016 2.906A9.886 9.886 0 006.08 16a9.858 9.858 0 002.906 7.015A9.886 9.886 0 0016 25.92v-1a8.886 8.886 0 01-6.308-2.611l-.002-.002A8.858 8.858 0 017.08 16c0-2.46.993-4.688 2.612-6.308l.002-.001A8.858 8.858 0 0116 7.08c2.46 0 4.705.993 6.324 2.611A8.925 8.925 0 0124.935 16h1a9.925 9.925 0 00-2.904-7.015A9.924 9.924 0 0016 6.081zm-9.847 4.035L3.217 8.422l-.5.866 2.936 1.694.5-.867zm22.63-1.693l-2.936 1.693.5.867 2.935-1.694-.5-.866zm-24.25 7.4H1.144v1h3.387v-1zm26.322 0h-3.387v1h3.387v-1zm-24.88 5.761L3.04 23.277l.5.866 2.936-1.694-.5-.866zm4.124 4.264l-1.694 2.935.867.5 1.693-2.935-.866-.5zm6.078 5.008v-3.387h-1v3.387h1zm5.42-12.555h-.5v6.4H19.6v1h1.496v1.8H19.6v1h1.496v2.3h1v-2.3H25.2v-1h-3.104v-1.8H26.4c.994 0 1.74-.507 2.216-1.223.467-.7.684-1.603.684-2.477 0-.874-.217-1.777-.684-2.477-.477-.715-1.222-1.223-2.216-1.223h-4.803zm4.803 6.4h-4.303v-5.4H26.4c.606 0 1.06.293 1.384.777.333.5.516 1.197.516 1.923s-.183 1.423-.516 1.923c-.323.484-.778.777-1.384.777z" fill="#151515"/></svg>