<svg width="40" height="40" fill="none" xmlns="http://www.w3.org/2000/svg"><path fill-rule="evenodd" clip-rule="evenodd" d="M30 11h7v7h-1v-5.322L22.347 25.86l-.353.341-.348-.347L15 19.207l-.001.001-.02.02-.02.02-.02.02-.02.02-.02.02-.02.02-.021.021-.02.02-.021.021-.021.021-.02.02-.022.022-.02.02-.022.022-.021.021-.022.022-.021.021-.022.022-.021.021-.022.022-.022.022-.022.022-.022.022-.022.022-.022.022-.022.022-.023.023-.022.022-.023.023-.023.023-.022.022-.023.023-.023.023-.023.023-.023.024-.024.023-.023.023-.023.024-.024.023-.023.023-.024.024-.024.024-.024.024-.024.024-.024.024-.024.024-.024.024-.024.024-.024.024-.025.025-.024.024-.025.025-.025.025-.024.024-.025.025-.025.025-.025.025-.025.025-.025.025-.025.025-.026.026-.025.025-.025.025-.026.026-.025.025-.026.026-.026.026-.025.026-.026.025-.026.026-.026.026-.026.026-.026.026-.026.026-.027.027-.026.026-.026.026-.027.027-.026.026-.027.027-.027.027-.026.026-.027.027-.027.027-.027.027-.027.027-.027.027-.027.027-.027.027-.027.027-.027.027-.027.027-.028.028-.027.027-.028.028-.027.027-.028.028-.027.027-.028.028-.028.028-.028.028-.027.027-.028.028-.028.028-.028.028-.028.028-.028.028-.028.029-.029.028-.028.028-.028.028-.028.029-.029.028-.028.028-.029.029-.028.028-.029.029-.028.028-.029.029-.029.029-.028.028-.029.029-.029.029-.028.029-.03.029-.028.028-.03.03-.028.028-.03.03-.028.028-.03.03-.028.028-.03.03-.029.029-.029.029-.03.03-.028.029-.03.029-.03.03-.029.029-.029.029-.03.03-.029.029-.03.03-.029.029-.03.03-.029.029-.03.03-.03.03-.029.029-.03.03-.029.03-.03.029-.03.03-.03.03-.029.03-.03.029-.03.03-.03.03-.03.03-.03.03-.029.03-.03.029-.03.03-.03.03-.03.03-.03.03-.03.03-.03.03-.03.03-.03.03-.03.03-.03.03-.03.03-.03.03-.03.03-.03.03-.03.03-.03.03-.03.03-.03.03-.03.03-.03.03-.03.03-.031.031-.03.03-.03.03-.03.03-.03.03-.03.03-.03.03-.031.031-.03.03-.03.03-.03.03-.03.03-.03.03-.03.031-.031.03-.03.03-.03.03-.03.03-.03.03-.03.03-.03.03-.03.031-.031.03-.03.03-.03.03-.03.03-.03.03-.03.03-.03.03-.03.03-.03.03-.03.03-.03.03-.03.03-.03.03-.03.03-.03.03-.03.03-.03.03-.03.03-.03.03-.03.03-.03.03-.03.03-.029.03-.03.029-.03.03-.03.03-.029.029-.03.03-.03.03-.029.029-.03.03-.029.03-.03.029-.03.03-.029.029-.03.03-.029.029-.029.029-.03.03-.029.029-.029.03-.03.028-.029.03-.029.029-.029.03-.03.028-.028.03-.03.028-.028.03-.03.029-.028.029-.03.029-.028.028-.03.03-.028.028-.029.029-.029.029-.028.029-.03.028-.028.029-.028.028-.029.029-.028.029-.029.028-.028.028-.029.029-.028.028-.028.028-.029.029-.028.028-.028.028-.028.028-.028.028-.028.028-.028.028-.028.028-.028.028-.028.028-.027.027-.028.028-.028.028-.027.027-.028.028-.027.027-.028.028-.027.027-.028.028-.027.027-.027.027-.027.027-.027.027-.027.027-.027.027-.027.027-.027.027-.027.027-.027.027-.026.026-.027.027-.026.026-.027.027-.026.026-.027.027-.026.026-.026.026-.026.026-.026.027-.026.026-.026.025-.026.026-.026.026-.026.026-.025.025-.026.026-.026.026-.025.025-.025.025-.026.026-.025.025-.025.025-.025.025-.025.025-.025.025-.025.025-.025.025-.024.024-.025.025-.025.025-.024.024-.024.024-.025.025-.024.024-.024.024-.024.024-.024.024-.024.024-.024.024-.023.023-.024.024-.024.024-.023.023-.023.024-.024.023-.023.023-.023.023-.023.023-.023.023-.023.023-.023.023-.022.022-.023.023-.022.022-.023.023-.022.022-.022.022-.022.022-.022.022-.022.022-.022.022-.022.022-.021.021-.022.022-.021.021-.021.021-.022.022-.02.02-.022.022-.02.02-.021.021-.021.021-.02.02-.021.021-.02.02-.02.021-.021.02-.02.02-.02.02-.02.02-.02.02-.02.02-.019.019-.02.02-.019.019-.019.019-.019.019-.019.019-.019.019-.018.019-.02.018-.018.019-.018.018-.018.018-.019.019-.018.018-.018.018-.017.017-.018.018-.018.018-.017.017-.017.018-.018.017-.017.017-.017.017-.017.017-.016.017-.017.016-.017.017-.016.016-.016.016-.016.016-.016.016-.016.016-.016.016-.016.016-.015.015-.015.015-.016.016-.015.015-.015.015-.014.015-.015.014-.015.015-.014.014-.015.015-.014.014-.014.014-.014.014-.013.014-.014.013-.014.014-.013.013-.013.013-.013.013-.013.013-.013.013-.013.013-.012.012-.012.013-.013.012-.012.012-.012.012-.012.012-.011.011-.012.012-.011.011-.011.012-.011.01-.011.011-.011.011-.01.01-.011.011-.01.01-.01.011-.01.01-.01.01-.01.01-.01.01-.01.009-.009.009-.009.01-.009.008-.009.009-.008.009-.009.008-.008.008-.009.009-.008.008-.007.008-.008.007-.008.008-.007.007-.007.008-.007.007-.007.007-.007.006-.007.007-.006.006-.006.007-.007.006-.006.006-.005.005-.006.006-.005.006-.006.005-.005.005-.005.005-.004.005-.708-.708.005-.004.005-.005.005-.005.006-.006.005-.005.006-.006.005-.005.006-.006.006-.006.007-.007.006-.006.007-.007.006-.007.007-.007.007-.007.008-.007.007-.007.008-.008.007-.008.008-.007.008-.008.009-.009.008-.008.008-.009.01-.008.008-.009.009-.009.009-.01.01-.008.009-.01.01-.01.01-.01.009-.01.01-.01.01-.01.01-.01.011-.01.01-.01.011-.012.011-.01.011-.012.012-.01.011-.012.012-.012.011-.011.012-.012.012-.012.012-.012.012-.012.013-.013.012-.012.013-.013.013-.013.013-.013.013-.013.013-.013.013-.014.014-.013.014-.014.013-.013.014-.014.014-.014.014-.015.015-.014.014-.014.015-.015.014-.015.015-.014.015-.015.015-.015.016-.016.015-.015.015-.015.016-.016.016-.016.016-.016.016-.016.016-.016.016-.016.016-.017.017-.016.016-.017.017-.016.017-.017.017-.017.017-.017.017-.017.018-.018.017-.017.018-.018.018-.018.017-.017.018-.018.018-.018.019-.019.018-.018.018-.018.019-.019.018-.018.02-.02.018-.018.019-.02.02-.018.018-.02.02-.019.019-.02.02-.019.02-.02.019-.02.02-.019.02-.02.02-.02.02-.02.02-.02.02-.02.021-.021.02-.02.021-.022.021-.02.021-.021.021-.021.021-.021.022-.022.02-.021.022-.021.022-.022.021-.021.022-.022.022-.022.022-.022.022-.022.022-.022.022-.022.022-.022.023-.023.022-.022.023-.023.022-.022.023-.023.023-.023.023-.023.023-.023.023-.023.023-.023.023-.024.024-.023.023-.023.024-.024.023-.024.024-.023.024-.024.024-.024.024-.024.024-.024.024-.024.024-.024.024-.025.025-.024.024-.024.025-.025.024-.025.025-.024.025-.025.025-.025.025-.025.025-.025.025-.025.025-.025.025-.025.026-.026.025-.025.025-.026.026-.025.025-.026.026-.025.026-.026.026-.026.026-.026.026-.026.026-.026.026-.026.026-.026.026-.026.026-.026.027-.027.026-.026.026-.027.027-.026.027-.027.026-.026.027-.027.027-.027.027-.027.027-.027.027-.027.027-.027.027-.027.027-.027.027-.027.027-.027.028-.028.027-.027.027-.028.028-.027.028-.028.027-.027.028-.028.027-.028.028-.027.028-.028.028-.028.028-.028.028-.028.028-.028.028-.028.028-.028.028-.028.028-.028.029-.029.028-.028.028-.028.029-.029.028-.028.029-.029.028-.028.029-.029.028-.028.029-.029.029-.029.028-.028.029-.03.029-.028.029-.029.029-.029.028-.029.03-.028.028-.03.03-.029.028-.029.03-.029.029-.029.029-.029.03-.03.028-.029.03-.029.029-.029.03-.03.029-.029.029-.03.03-.029.029-.029.03-.03.029-.029.03-.03.029-.029.03-.03.029-.03.03-.029.03-.03.029-.03.03-.029.03-.03.03-.03.029-.029.03-.03.03-.03.03-.03.03-.03.029-.03.03-.029.03-.03.03-.03.03-.03.03-.03.03-.03.03-.03.03-.03.03-.03.03-.03.03-.03.03-.03.03-.03.03-.03.03-.03.03-.03.03-.03.03-.03.03-.03.03-.03.03-.03.03-.03.03-.03.03-.03.03-.031.031-.03.03-.03.03-.03.03-.03.03-.03.03-.03.03-.031.031-.03.03-.03.03-.03.03-.03.03-.03.03-.03.03-.031.031-.03.03-.03.03-.03.03-.03.03-.03.03-.03.03-.03.03-.031.03-.03.031-.03.03-.03.03-.03.03-.03.03-.03.03-.03.03-.03.03-.03.03-.03.03-.03.03-.03.03-.03.03-.03.03-.03.03-.03.03-.03.03-.03.03-.03.03-.03.029-.029.03-.03.03-.03.03-.03.029-.029.03-.03.03-.03.029-.029.03-.03.029-.03.03-.029.03-.03.029-.029.03-.03.029-.029.029-.03.03-.029.029-.029.03-.03.028-.029.03-.029.029-.03.03-.028.028-.03.03-.029.029-.029.029-.029.029-.029.029-.029.029-.029.029-.029.029-.029.028-.029.03-.028.028-.03.029-.028.028-.028.03-.03.028-.028.028-.028.029-.029.028-.028.029-.029.028-.028.028-.029.029-.028.028-.028.028-.028.028-.029.029-.028.028-.028.028-.028.028-.028.028-.028.027-.028.028-.027.028-.028.028-.028.027-.028.028-.027.028-.028.027-.027.028-.028.027-.027.027-.028.028-.027.027-.027.027-.027.027-.027.027-.027.027-.027.027-.027.027-.027.027-.027.027-.027.026-.026.027-.027.027-.027.026-.026.026-.027.027-.026.026-.026.027-.027.026-.026.026-.026.026-.026.026-.026.026-.026.026-.026.025-.025.026-.026.026-.026.025-.025.026-.026.025-.025.025-.026.026-.025.025-.025.025-.025.025-.025.025-.025.025-.025.025-.025.024-.024.025-.025.025-.025.024-.024.025-.025.024-.024.024-.024.024-.024.024-.024.024-.024.024-.024.024-.024.024-.024.023-.024.024-.023.024-.024.023-.023.023-.023.024-.024.023-.023.023-.023.023-.023.022-.023.023-.022.023-.023.022-.023.023-.022.022-.023.023-.022.022-.022.022-.022.022-.022.022-.022.022-.022.022-.022.021-.021.022-.022.021-.021.022-.022.02-.021.022-.021.021-.021.021-.021.02-.021.022-.02.02-.021.02-.02.021-.021.02-.02.02-.02.02-.021.02-.02.02-.02.02-.02.02-.02.02-.019.02-.02.019-.019.019-.02.02-.018.018-.02.019-.018.019-.019.018-.019.019-.018.018-.019.019-.018.018-.018.018-.018.018-.018.018-.018.018-.018.017-.018.354-.353.354.353 6.652 6.653L35.262 12H30v-1z" fill="#000"/></svg>