<svg width="80" height="80" fill="none" xmlns="http://www.w3.org/2000/svg"><path fill-rule="evenodd" clip-rule="evenodd" d="M60 22.5h13.5V36h-1V24.178L44.347 51.36l-.353.341-.347-.347L30 37.707l-.01.01-.037.037-.038.038-.038.038-.038.039-.039.038-.039.039-.039.039-.039.039-.04.04-.039.039-.04.04-.04.04-.04.04-.04.04-.04.04-.042.042-.04.04-.042.042-.042.042-.041.041-.042.042-.042.042-.043.043-.042.042-.043.043-.043.043-.043.043-.043.043-.043.044-.044.043-.044.044-.044.044-.044.044-.045.045-.044.044-.045.045-.045.045-.045.045-.046.046-.045.045-.046.046-.046.046-.046.046-.046.046-.047.047-.047.047-.046.046-.047.047-.047.047-.048.048-.047.047-.048.048-.048.048-.048.048-.048.048-.048.048-.049.049-.048.049-.05.048-.048.05-.05.048-.049.05-.05.05-.049.049-.05.05-.05.05-.05.05-.05.05-.05.05-.05.05-.051.051-.051.051-.051.051-.051.051-.051.051-.052.052-.051.051-.052.052-.052.052-.052.052-.052.052-.052.052-.052.053-.053.052-.052.053-.053.052-.053.053-.053.053-.053.053-.053.054-.054.053-.053.053-.054.054-.054.054-.054.054-.054.054-.054.054-.054.054-.054.054-.055.055-.054.054-.055.055-.055.055-.055.055-.055.055-.055.055-.055.055-.056.056-.055.055-.056.056-.055.055-.056.056-.056.056-.056.056-.056.056-.056.056-.056.056-.057.057-.056.056-.057.057-.056.056-.057.057-.057.057-.057.057-.057.057-.057.057-.057.057-.057.057-.057.058-.058.057-.057.057-.058.058-.058.058-.057.057-.058.058-.058.058-.058.058-.058.058-.058.058-.058.058-.058.059-.059.058-.058.058-.058.059-.059.058-.058.059-.06.058-.058.059-.059.059-.058.058-.06.06-.058.058-.059.06-.059.058-.06.06-.058.058-.06.06-.059.059-.059.059-.06.06-.059.059-.059.06-.06.059-.059.06-.06.059-.06.06-.059.059-.06.06-.059.06-.06.059-.06.06-.06.06-.06.06-.06.06-.059.06-.06.059-.06.06-.06.06-.06.06-.06.06-.06.06-.06.06-.06.06-.06.06-.06.06-.06.06-.06.06-.061.061-.06.06-.06.06-.06.06-.06.061-.061.06-.06.06-.06.06-.061.061-.06.06-.06.06-.06.061-.061.06-.06.06-.06.06-.061.061-.06.06-.06.06-.061.061-.06.06-.06.06-.06.06-.061.061-.06.06-.06.06-.06.061-.061.06-.06.06-.06.06-.06.06-.06.06-.06.061-.061.06-.06.06-.06.06-.06.06-.06.06-.06.06-.06.06-.06.06-.06.06-.06.06-.06.06-.06.06-.06.06-.06.06-.059.06-.06.059-.06.06-.059.059-.06.06-.059.06-.06.059-.059.059-.06.06-.059.059-.059.06-.06.058-.058.06-.06.059-.059.059-.059.059-.059.059-.059.059-.059.059-.058.059-.06.058-.058.059-.058.059-.06.058-.058.059-.058.058-.059.059-.058.058-.058.058-.058.058-.058.059-.059.058-.058.058-.057.057-.058.058-.058.058-.058.058-.057.057-.058.058-.057.057-.058.058-.057.057-.057.057-.057.057-.057.057-.057.057-.057.057-.057.057-.056.057-.057.056-.057.057-.056.056-.056.056-.056.057-.057.056-.056.056-.056.056-.055.056-.056.055-.056.056-.055.055-.056.056-.055.055-.055.055-.055.055-.055.055-.055.055-.055.055-.055.055-.054.054-.054.055-.055.054-.054.054-.054.054-.054.054-.054.054-.054.054-.053.053-.054.054-.053.053-.053.053-.053.053-.053.053-.053.053-.053.053-.052.053-.053.052-.052.052-.052.052-.052.052-.052.052-.052.052-.052.052-.051.051-.051.052-.052.05-.05.052-.052.05-.05.051-.05.051-.051.05-.05.05-.05.05-.05.05-.05.05-.05.05-.05.05-.05.05-.048.049-.05.049-.049.049-.048.048-.049.049-.048.048-.049.049-.048.048-.048.048-.047.047-.048.048-.047.047-.048.048-.047.047-.047.047-.046.046-.047.047-.046.047-.047.046-.046.046-.045.045-.046.046-.046.046-.045.045-.045.045-.045.045-.045.045-.044.044-.045.045-.044.044-.044.044-.044.044-.043.043-.044.044-.043.043-.043.043-.043.043-.042.042-.043.043-.042.042-.042.042-.042.042-.041.041-.042.042-.04.041-.042.041-.04.04-.041.041-.04.04-.04.04-.04.04-.04.04-.04.04-.04.04-.038.038-.04.04-.038.038-.038.038-.038.038-.038.038-.038.038-.037.038-.038.037-.037.037-.037.037-.036.036-.037.037-.036.036-.036.036-.035.035-.036.036-.035.035-.035.035-.034.035-.035.034-.034.034-.034.034-.034.034-.033.034-.034.033-.033.033-.032.032-.033.033-.032.032-.032.032-.032.032-.031.031-.032.032-.03.03-.031.031-.03.03-.03.031-.03.03-.03.03-.03.029-.029.03-.029.028-.029.029-.028.028-.028.028-.028.028-.027.027-.028.028-.027.027-.026.026-.027.027-.026.026-.026.026-.025.026-.026.025-.025.025-.024.025-.025.024-.024.024-.024.024-.024.024-.023.023-.023.023-.023.023-.022.022-.022.023-.022.022-.022.021-.021.021-.021.021-.02.021-.021.02-.02.02-.02.02-.02.02-.019.019-.019.019-.018.018-.019.019-.017.018-.018.017-.017.018-.018.017-.016.016-.017.017-.016.016-.015.016-.016.015-.015.015-.015.015-.014.014-.015.015-.013.014-.014.013-.013.013-.013.013-.012.013-.013.012-.012.012-.011.011-.011.012-.011.01-.01.01-.011.011-.01.01-.01.01-.707-.708.01-.01.01-.009.01-.01.01-.01.012-.012.01-.01.012-.012.012-.012.012-.013.013-.012.013-.013.013-.013.014-.014.013-.014.015-.014.014-.014.015-.015.015-.015.015-.016.016-.015.016-.016.017-.017.016-.017.017-.017.018-.017.017-.017.018-.019.019-.018.018-.018.02-.02.018-.018.02-.02.02-.02.02-.02.02-.02.02-.02.022-.022.021-.021.022-.022.021-.021.023-.023.022-.022.023-.023.023-.023.023-.023.024-.024.024-.024.024-.024.024-.024.025-.025.025-.025.026-.026.025-.025.026-.026.026-.026.027-.027.026-.026.027-.027.028-.028.027-.027.028-.028.028-.028.028-.029.029-.028.029-.029.029-.03.03-.029.03-.03.029-.03.03-.03.03-.03.031-.03.031-.032.032-.03.031-.032.032-.032.032-.032.032-.032.033-.033.032-.032.033-.033.034-.034.033-.033.034-.034.034-.034.034-.034.034-.035.035-.034.035-.035.035-.035.036-.036.035-.035.036-.036.036-.036.037-.037.036-.036.037-.037.037-.037.037-.038.038-.037.038-.038.038-.038.038-.038.038-.038.039-.039.039-.039.039-.039.039-.04.04-.039.04-.04.04-.04.04-.04.04-.04.04-.04.041-.041.041-.041.041-.041.042-.042.041-.041.042-.042.042-.042.042-.042.043-.043.042-.042.043-.043.043-.043.043-.043.044-.044.043-.043.044-.044.044-.044.044-.044.045-.045.044-.044.045-.045.045-.045.045-.045.045-.045.046-.046.045-.046.046-.045.046-.046.047-.047.046-.046.046-.047.047-.046.047-.047.047-.047.047-.048.048-.047.047-.048.048-.047.048-.048.048-.048.049-.049.048-.048.049-.049.048-.048.05-.05.048-.048.05-.05.049-.05.05-.049.05-.05.05-.05.05-.05.05-.05.05-.05.05-.05.05-.05.051-.052.051-.05.051-.051.051-.052.052-.051.051-.051.052-.052.052-.052.052-.052.052-.052.052-.052.052-.052.053-.053.052-.052.053-.053.053-.053.053-.053.053-.053.053-.053.053-.053.054-.054.053-.053.054-.054.054-.054.054-.054.054-.054.054-.054.054-.054.055-.055.054-.054.055-.055.055-.055.055-.055.055-.055.055-.055.055-.055.055-.055.056-.056.055-.055.056-.056.056-.056.055-.055.056-.056.056-.056.056-.056.057-.057.056-.056.056-.056.057-.057.056-.056.057-.057.057-.057.057-.057.057-.057.057-.057.057-.057.057-.057.057-.057.058-.058.057-.057.058-.058.057-.057.058-.058.058-.058.058-.058.057-.058.058-.058.059-.058.058-.058.058-.058.058-.058.058-.058.059-.059.058-.058.059-.059.058-.059.059-.058.059-.059.059-.059.058-.058.06-.06.058-.058.06-.06.058-.058.06-.06.058-.059.06-.059.059-.059.06-.06.059-.059.059-.06.06-.059.059-.059.06-.06.059-.06.06-.059.06-.06.059-.059.06-.06.06-.06.06-.06.059-.06.06-.059.06-.06.06-.06.06-.06.06-.06.06-.06.06-.06.06-.06.06-.06.06-.06.06-.06.06-.06.06-.06.06-.06.06-.06.06-.06.061-.061.06-.06.06-.06.06-.06.061-.061.06-.06.06-.06.06-.061.061-.06.06-.06.06-.06.061-.061.06-.06.06-.06.061-.061.06-.06.06-.06.06-.061.061-.06.06-.06.06-.06.061-.061.06-.06.06-.06.06-.06.06-.061.061-.06.06-.06.06-.06.06-.06.06-.06.06-.061.06-.06.061-.06.06-.06.06-.06.06-.06.06-.06.06-.06.06-.06.06-.06.06-.06.06-.06.06-.06.059-.059.06-.06.06-.06.059-.059.06-.06.059-.06.06-.059.059-.059.06-.06.059-.059.059-.06.06-.058.059-.06.059-.059.059-.059.059-.059.059-.059.059-.059.059-.059.059-.059.058-.059.06-.058.058-.059.058-.058.059-.06.059-.058.058-.058.058-.058.058-.059.059-.058.058-.058.058-.058.058-.058.058-.058.058-.058.058-.058.057-.057.058-.058.057-.058.058-.057.057-.058.058-.057.057-.057.057-.057.057-.057.057-.057.057-.057.057-.057.057-.057.056-.056.057-.057.056-.056.057-.057.056-.056.056-.056.056-.056.056-.056.056-.056.056-.056.055-.055.056-.056.055-.055.056-.056.055-.055.055-.055.055-.055.055-.055.055-.055.055-.055.054-.054.055-.055.054-.054.054-.054.054-.054.054-.054.054-.054.054-.054.053-.054.054-.053.053-.054.054-.053.053-.053.053-.053.053-.053.052-.052.053-.053.053-.053.052-.052.052-.052.052-.052.052-.052.052-.052.052-.052.051-.051.052-.052.05-.05.052-.052.05-.051.052-.05.05-.052.05-.05.051-.05.05-.05.05-.05.05-.05.05-.05.05-.05.05-.05.049-.049.049-.049.049-.049.049-.049.048-.048.049-.049.048-.048.048-.048.048-.048.048-.048.048-.048.047-.047.047-.048.048-.047.047-.047.046-.047.047-.046.046-.047.047-.046.046-.046.046-.046.046-.046.045-.045.046-.046.045-.045.045-.045.044-.045.045-.044.045-.045.044-.044.044-.044.044-.044.043-.044.044-.043.043-.043.043-.043.043-.043.043-.043.042-.043.043-.042.042-.042.042-.042.041-.041.042-.042.041-.041.041-.041.041-.041.04-.04.041-.041.04-.04.04-.04.04-.04.04-.04.04-.04.038-.038.04-.04.038-.038.038-.039.039-.038.038-.038.038-.038.037-.037.037-.038.038-.037.037-.037.036-.036.037-.037.036-.036.036-.036.036-.036.035-.035.035-.036.354-.353.354.353L44.006 50.3l27.756-26.8H60v-1z" fill="#000"/></svg>