<svg width="32" height="32" fill="none" xmlns="http://www.w3.org/2000/svg"><path fill-rule="evenodd" clip-rule="evenodd" d="M24.03 2.235c-3.564-.506-8.262-.21-12.857 2.982-4.585 3.197-6.486 7.567-7.242 11.157a21.85 21.85 0 00-.464 4.26 21.944 21.944 0 013.272-4.885C11.054 10.873 17.049 8.3 22.4 8.3h.5v1h-.5c-5.05 0-10.777 2.44-14.913 7.112a21.105 21.105 0 00-3.78 6.136c.003 0 .006.002.008.003.276.123.684.293 1.203.478 1.04.37 2.525.796 4.298 1.022 3.543.452 8.222.103 12.82-3.09 4.588-3.2 6.51-7.517 7.288-11.052.39-1.769.49-3.337.494-4.462a17.402 17.402 0 00-.06-1.526 17.127 17.127 0 00-1.399-.59 21.009 21.009 0 00-4.328-1.096zm6.196 1.362l.495-.067v.003l.002.008.003.027a7.87 7.87 0 01.046.486c.024.33.048.806.046 1.396a22.327 22.327 0 01-.517 4.673c-.816 3.708-2.845 8.277-7.692 11.658h-.001c-4.853 3.371-9.799 3.737-13.518 3.262a21.828 21.828 0 01-4.506-1.072 17.943 17.943 0 01-1.23-.486A22.257 22.257 0 002.1 30.8v.5h-1v-.5c0-2.574.453-5.351 1.46-8.06v-.014c-.01-.09-.024-.221-.037-.39-.027-.336-.054-.82-.057-1.42-.004-1.2.09-2.868.486-4.748.792-3.761 2.798-8.388 7.65-11.772C15.458 1.023 20.429.714 24.17 1.245c1.87.265 3.436.74 4.537 1.149.55.205.985.393 1.284.532a11.587 11.587 0 01.437.212l.024.014.008.003.002.001-.237.44zm0 0l.238-.44.223.12.034.252-.495.068z" fill="#151515"/></svg>