<svg width="80" height="80" fill="none" xmlns="http://www.w3.org/2000/svg"><path fill-rule="evenodd" clip-rule="evenodd" d="M66 40.5C66 55.136 54.136 67 39.5 67S13 55.136 13 40.5 24.864 14 39.5 14 66 25.864 66 40.5zm1 0C67 55.688 54.688 68 39.5 68S12 55.688 12 40.5 24.312 13 39.5 13 67 25.312 67 40.5zm-32.61-2.036A10.995 10.995 0 0129 29c0-5.738 4.394-10.45 10-10.955v16.977c-2.1.19-3.86 1.56-4.61 3.442zM40 18v17.022c.186.017.368.043.548.078A11.996 11.996 0 0151 29c6.29 0 11.45 4.84 11.959 11 .027.33.041.663.041 1H44.978a5.488 5.488 0 01-.078.548A11.996 11.996 0 0151 52c0 6.29-4.84 11.45-11 11.959-.33.027-.663.041-1 .041V45.978a5.488 5.488 0 01-.548-.078A11.996 11.996 0 0128 52c-6.29 0-11.45-4.84-11.959-11A12.16 12.16 0 0116 40h18.022c.017-.186.043-.368.078-.548A11.996 11.996 0 0128 29c0-6.29 4.84-11.45 11-11.959.33-.027.663-.041 1-.041v1zm4.978 22a5.505 5.505 0 00-3.442-4.61A10.995 10.995 0 0151 30c5.738 0 10.45 4.394 10.955 10H44.978zM40 45.978c2.1-.19 3.86-1.56 4.61-3.442A10.995 10.995 0 0150 52c0 5.738-4.394 10.45-10 10.955V45.978zM34.022 41c.19 2.1 1.56 3.86 3.442 4.61A10.995 10.995 0 0128 51c-5.738 0-10.45-4.394-10.955-10h16.977zm5.478 4a4.5 4.5 0 100-9 4.5 4.5 0 000 9z" fill="#000"/></svg>