<svg width="80" height="80" fill="none" xmlns="http://www.w3.org/2000/svg"><path d="M42.375 63.333H10V60h31.75a22.296 22.296 0 01-.083-1.667c0-.541.041-1.125.083-1.666H35v-25h10v16.125a21.123 21.123 0 013.333-3.625v-12.5H55v9.041c1.083-.291 2.208-.5 3.333-.625v-8.416H65v9.041c1.167.334 2.292.75 3.333 1.292V31.667h5v-7.875L40 13.25 6.667 23.625v8.042h5v25h-5v10h37c-.542-1.042-.959-2.167-1.292-3.334zm-20.708-6.666H15v-25h6.667v25zm10 0H25v-25h6.667v25zM10 28.333v-2.25l30-9.333 30 9.458v2.125H10zm65 30.084c0-8.209-6.667-14.917-14.875-15.042h-.25C51.667 43.375 45 50.125 45 58.458c0 8.25 6.708 14.917 15 14.917 8.292-.042 15-6.75 15-14.958zm-3.458-1.75h-4.917c-.167-3.25-.75-6.417-1.75-8.834 3.458 1.667 6.042 4.959 6.667 8.834zM60 70c-.875 0-3-3.5-3.292-10h6.584C63 66.5 60.875 70 60 70zm-3.292-13.333c.292-6.459 2.375-9.917 3.25-10h.084c.916.083 2.958 3.583 3.25 10h-6.584zm-1.541-9c-1.042 2.458-1.667 5.666-1.792 9h-4.917c.584-4 3.167-7.375 6.709-9zM48.458 60h4.917c.167 3.292.75 6.5 1.792 8.958C51.583 67.333 49 64 48.458 60zm16.375 8.958c1.042-2.458 1.625-5.666 1.792-8.958h4.917c-.542 4-3.125 7.333-6.709 8.958z" fill="#000"/></svg>