<svg width="40" height="41" fill="none" xmlns="http://www.w3.org/2000/svg"><path d="M2 35.35h.96v-5.66H2v5.66zm0-6.453h.96v-1.17H2v1.17zm5.283.71c1.358 0 1.859.877 1.859 2.172v3.591h-.96v-3.299c0-.877-.147-1.629-1.254-1.629-.918 0-1.503.648-1.503 1.859v3.07h-.94v-5.66h.96v.857c.335-.564.878-.96 1.838-.96zm6.619.083h.981l-2.13 5.68h-.856l-2.13-5.68h1.065l1.524 4.344m7.184-2.004c-.021-.794-.627-1.608-1.629-1.608-.856 0-1.629.459-1.712 1.607h3.34zm-1.608 2.63c.835 0 1.316-.375 1.545-.94h.982c-.272.982-1.149 1.776-2.527 1.776-1.796 0-2.777-1.295-2.777-2.965 0-1.796 1.19-2.945 2.735-2.945 1.733 0 2.777 1.462 2.652 3.237h-4.364c.042 1.253.919 1.837 1.754 1.837zm6.014-4.009c-.877 0-1.336.501-1.336 1.733v2.965h-.94v-5.658h.94v.981c.292-.647.856-1.002 1.587-1.023.104 0 .188 0 .292.02v1.024c-.209-.02-.376-.042-.543-.042zm2.694-2.381v1.42h1.065v.773H26.64v3.362c0 .585.042.731.585.731h.48v.794h-.689c-1.086 0-1.336-.251-1.336-1.42v-3.467h-.898v-.772h.898v-1.42m7.078 3.759c-.021-.794-.627-1.608-1.63-1.608-.855 0-1.628.459-1.711 1.607h3.34zm-1.608 2.63c.835 0 1.315-.375 1.545-.94h.981c-.271.982-1.148 1.776-2.526 1.776-1.796 0-2.777-1.295-2.777-2.965 0-1.796 1.19-2.945 2.735-2.945 1.733 0 2.777 1.462 2.652 3.237h-4.364c.062 1.253.918 1.837 1.754 1.837zm6.035-4.009c-.877 0-1.337.501-1.337 1.733v2.965h-.96v-5.658h.94v.981c.292-.647.855-1.002 1.586-1.023.084 0 .188 0 .293.02v1.024c-.188-.02-.376-.042-.522-.042zM6.636 19.5v1.483H3.525v1.253h2.923v1.503H3.525v2.966H2.063V19.5m6.473 4.302c0 1.044.21 1.65 1.232 1.65 1.024 0 1.211-.668 1.211-1.733V19.5h1.462v4.072c0 2.213-.73 3.278-2.673 3.278-1.858 0-2.693-.835-2.693-3.216V19.5h1.461m9.354 5.701v1.504h-4.426V19.5h1.462v5.7m7.955.001v1.504h-4.447V19.5h1.461v5.7m6.828-4.28v4.344h.605c1.086 0 2.047-.272 2.047-2.172 0-1.9-.982-2.171-2.047-2.171h-.605zm4.197 2.172c0 2.757-1.608 3.613-3.633 3.613H25.24V19.5h2.047c2.046 0 3.633.835 3.633 3.591zm3.635 3.738c-1.921 0-3.112-1.44-3.112-3.738 0-2.276 1.211-3.717 3.153-3.717 1.567 0 2.652 1.17 2.861 2.82h-1.44c-.168-.982-.794-1.4-1.483-1.4-.877 0-1.545.856-1.545 2.318 0 1.524.668 2.339 1.566 2.339.626 0 1.336-.314 1.503-1.42H37.5c-.209 1.65-1.378 2.798-2.944 2.798z" fill="#1D1D1B"/><path d="M2.271 11.586L5.32 8.58c3.591-3.55 8.415-3.55 12.027 0l6.098 6.013c3.591 3.55 8.415 3.55 12.007 0l3.048-3.007" stroke="#1D1D1B" stroke-miterlimit="10" stroke-linejoin="bevel"/></svg>