<svg width="74" height="44" fill="none" xmlns="http://www.w3.org/2000/svg"><g clip-path="url(#clip0_2722_3488)"><path d="M7.657 43.97h58.33l-29.01-28.692L7.657 43.97z" fill="#7BB51C"/><path d="M6.542 42.56l4.545-4.386-1.514-1.535-2.854 2.755-5.028-5.099L0 35.926l6.542 6.633zm5.542-5.384l4.657-4.495-1.279-1.295-2.957 2.853-1.42-1.44 2.37-2.286-1.338-1.356-2.37 2.285-1.216-1.233 2.86-2.76-1.278-1.295-4.642 4.48 6.613 6.542zM27.325 15.87c-1.877-1.904-5.135-1.676-6.704-.162-1.57 1.514-2.37 4.533-.154 6.78 2.434 2.468 5.33 1.571 6.9.058 2.313-2.233 1.49-5.124-.042-6.676zm-1.38 5.372c-1.039 1.002-2.308.73-3.76-.74-1.219-1.237-1.146-2.479-.259-3.334.61-.589 1.848-1.115 3.322.379 1.68 1.704 1.736 2.693.697 3.695zm6.618-3.791l1.718-1.658-2.585-2.62-1.547-6.366-1.969 1.9 1.024 3.612-3.46-1.26-1.857 1.791 5.9 1.874 2.776 2.727zm-9.16 8.849s-4.18-1.41-4.38-1.377c-.064.01.899-2.523-1.264-3.645 0 0-1.605-.86-3.21.584l-3.423 3.336 6.598 6.572 1.746-1.684-3.57-3.62 5.771 1.506 1.732-1.672zm-6.476-.902c-.97.934-1.1 1.008-1.1 1.008l-1.575-1.596c-.054-.055 1.087-1.023 1.267-1.197.076-.073.787-.532 1.375.064 0 0 1.003.784.033 1.72zM32.03 8.061L30.503 6.54 37.17 0l2.181 2.175-2.401 4.674 4.895-2.186 2.1 2.093-6.666 6.539-1.609-1.604 3.519-3.451-4.814 2.16-.995-.993 2.238-4.756-3.587 3.41zm11.573 11.541l-4.621-4.608 6.665-6.539 4.635 4.622-1.347 1.321-2.903-2.895-1.086 1.065 2.29 2.284-1.402 1.375-2.276-2.27-1.457 1.429 2.876 2.868-1.374 1.348zm15.239 2.012l1.718 1.713-5.044 4.947 2.822 2.813-1.622 1.592-4.54-4.526 6.666-6.54zm-.927 12.262l6.666-6.54 1.677 1.673-6.666 6.538-1.677-1.671zm4.717 4.704l-1.569-1.564 6.666-6.539 2.277 2.27-1.945 6.788 4.413-4.328L74 36.728l-6.665 6.538-1.991-1.984 1.714-7.127-4.427 4.423zM55.83 18.61l-4.048-4.038-6.68 6.526 1.718 1.712 3.641-3.572-1.31 5.897 1.758 1.753s1.386-4.218 1.428-4.394c0 0 1.502.819 3.15-.583 0 0 1.581-1.523.343-3.301zm-2.472 1.912s-.85.565-1.6-.182l-1.172-1.224 1.593-1.564 1.227 1.224c.137.136.996.775-.048 1.746z" fill="#000"/></g><defs><clipPath id="clip0_2722_3488"><path fill="#fff" d="M0 0h74v44H0z"/></clipPath></defs></svg>