<svg width="80" height="80" fill="none" xmlns="http://www.w3.org/2000/svg"><path d="M40 38.333c-5.514 0-10-4.486-10-10s4.486-10 10-10 10 4.486 10 10-4.486 10-10 10zm0-16.667a6.674 6.674 0 00-6.667 6.667A6.674 6.674 0 0040 34.999a6.674 6.674 0 006.667-6.666A6.674 6.674 0 0040 21.666zm0 51.616l-1.436-2.436c-.137-.234-13.746-23.327-16.657-28.319-2.271-3.646-3.574-8.817-3.574-14.194 0-11.947 9.72-21.667 21.667-21.667 11.947 0 21.667 9.72 21.667 21.667 0 5.377-1.302 10.548-3.573 14.194-2.913 4.992-16.521 28.086-16.658 28.319L40 73.282zM40 10c-10.11 0-18.333 8.225-18.333 18.334 0 4.71 1.151 9.364 3.08 12.45l.026.043C27.094 44.805 36.396 60.6 40 66.716c3.604-6.118 12.906-21.911 15.227-25.89l.026-.043c1.93-3.086 3.08-7.74 3.08-12.45 0-10.11-8.224-18.334-18.333-18.334z" fill="#000"/></svg>