<svg width="108" height="25" fill="none" xmlns="http://www.w3.org/2000/svg"><g clip-path="url(#clip0_3113_8186)" fill="#9C9D9E"><path d="M46.044 12.184s2.188-.73 2.188-3.16c0-2.845-2.063-4.255-4.898-4.255h-7.433v15.463h8.08c2.486 0 4.922-1.702 4.922-4.304 0-3.087-2.859-3.72-2.859-3.744zM39.78 7.978h2.884c.895 0 1.492.584 1.492 1.459 0 .68-.547 1.41-1.566 1.41h-2.835V7.978h.025zm2.909 9.02h-2.884V13.96h2.81c1.417 0 2.088.608 2.088 1.507 0 1.119-.846 1.532-2.014 1.532zM57.456 4.38c-4.574 0-7.26 3.574-7.26 8.096 0 4.546 2.686 8.096 7.26 8.096 4.6 0 7.26-3.55 7.26-8.096 0-4.522-2.66-8.096-7.26-8.096zm0 12.496c-2.237 0-3.356-1.969-3.356-4.4s1.119-4.377 3.356-4.377c2.238 0 3.381 1.97 3.381 4.377 0 2.431-1.143 4.4-3.38 4.4zm15.688-6.054l-.548-.121c-1.342-.268-2.41-.608-2.41-1.556 0-1.021 1.019-1.435 1.913-1.435 1.318 0 2.486.632 3.233 1.435l2.461-2.383c-1.12-1.24-2.934-2.431-5.768-2.431-3.332 0-5.843 1.823-5.843 4.862 0 2.772 2.039 4.133 4.525 4.644l.547.122c2.064.413 2.835.729 2.835 1.702 0 .923-.846 1.531-2.139 1.531-1.541 0-2.934-.656-4.002-1.993l-2.511 2.43c1.391 1.63 3.157 2.894 6.563 2.894 2.959 0 6.116-1.653 6.116-5.033.025-3.525-2.71-4.206-4.972-4.668zm13.799 6.055c-1.74 0-3.555-1.41-3.555-4.498 0-2.748 1.69-4.28 3.456-4.28 1.392 0 2.213.633 2.859 1.727l3.182-2.067c-1.592-2.358-3.48-3.355-6.09-3.355-4.775 0-7.36 3.623-7.36 7.999 0 4.595 2.859 8.193 7.309 8.193 3.133 0 4.625-1.07 6.24-3.355l-3.207-2.115c-.646 1.021-1.342 1.75-2.834 1.75zm16.558-12.133v5.689h-4.798v-5.69h-4.152v15.464h4.152v-6.103h4.798v6.103h4.152V4.744h-4.152zM11.983.781C5.37.781 0 6.033 0 12.5s5.37 11.719 11.983 11.719c6.614 0 11.984-5.252 11.984-11.719S18.597.781 11.984.781zm0 22.344C5.992 23.125 1.12 18.359 1.12 12.5c0-5.86 4.873-10.625 10.864-10.625 5.992 0 10.865 4.766 10.865 10.625 0 5.86-4.873 10.625-10.864 10.625z"/><path d="M16.931 5.182h-.82v4.012H7.88V5.182h-.845C4.624 6.762 3.008 9.437 3.008 12.5c0 3.063 1.616 5.738 4.028 7.318h.845v-4.011h8.23v4.011h.82c2.437-1.58 4.028-4.255 4.028-7.318 0-3.063-1.591-5.738-4.028-7.318zM6.738 18.238A7.535 7.535 0 014.102 12.5c0-2.237.97-4.303 2.636-5.738v11.476zm9.373-3.55H7.88v-4.4h8.23v4.4zm1.119 3.525V6.764a7.584 7.584 0 010 11.45z"/></g><defs><clipPath id="clip0_3113_8186"><path fill="#fff" d="M0 0h108v25H0z"/></clipPath></defs></svg>