<svg width="80" height="80" fill="none" xmlns="http://www.w3.org/2000/svg"><path d="M6.667 23.334v33.333h66.666V23.334H6.667zm63.333 30H10V26.667h60v26.667zm-35.32-8.89h-1.625v-3.333h1.14a24.564 24.564 0 01-.028-1.11c0-.387.012-.754.029-1.112h-1.14v-3.333h1.623c1.258-4.727 4.563-5.555 6.71-5.555 2.35 0 5.49.91 7.116 5.248l-3.121 1.17c-.8-2.134-2.032-3.085-3.995-3.085-.667 0-2.277.002-3.203 2.222h4.592v3.333H37.53a19.77 19.77 0 000 2.223h5.248v3.333h-4.592c.926 2.22 2.536 2.222 3.203 2.222 1.198 0 2.916-.322 4.003-3.105l3.105 1.211c-1.686 4.321-4.796 5.228-7.108 5.228-2.148 0-5.452-.829-6.71-5.556z" fill="#000"/></svg>