<svg width="40" height="41" fill="none" xmlns="http://www.w3.org/2000/svg"><circle cx="20" cy="20.704" r="17" stroke="#151515" stroke-width="2"/><path d="M15.678 16.625c.387.008.748-.276.777-.676.136-1.947 1.884-3.439 3.885-3.277.976.067 1.866.5 2.507 1.217a3.45 3.45 0 01.882 2.564c-.083 1.185-.638 1.63-1.477 2.3-1.417 1.133-3.18 2.544-2.981 7.773.014.393.338.7.727.7h.029c.402 0 .715-.353.699-.755-.17-4.497 1.154-5.557 2.437-6.58.93-.745 1.892-1.514 2.02-3.338a4.908 4.908 0 00-1.25-3.635 5.118 5.118 0 00-3.493-1.701c-2.802-.194-5.246 1.883-5.438 4.631-.028.4.274.749.676.777zm3.91 12.277a.684.684 0 00-.218.51c0 .189.072.378.218.524a.739.739 0 001.034-.015.728.728 0 00.204-.51.684.684 0 00-.218-.51c-.262-.276-.743-.276-1.02 0z" fill="#151515"/></svg>