<svg width="40" height="41" fill="none" xmlns="http://www.w3.org/2000/svg"><path fill-rule="evenodd" clip-rule="evenodd" d="M32.43 10.584a11.718 11.718 0 00-7.869-1.412l-.17-.985a12.718 12.718 0 018.54 1.531 12.77 12.77 0 015.602 6.63l-.937.349a11.77 11.77 0 00-5.164-6.112l-.001-.001zm-2.24 3.91a7.217 7.217 0 00-4.486-.923l-.118-.993a8.217 8.217 0 015.11 1.053c1.497.876 2.743 2.206 3.454 3.886l-.92.39c-.62-1.466-1.713-2.636-3.04-3.413zm-20.339.988a9.085 9.085 0 016.016-2.262c1.497 0 2.925.385 4.178 1.022l.006.003a9.315 9.315 0 013.209 2.763 6.486 6.486 0 011.74-.24c1.401 0 2.69.46 3.737 1.201l.001.001a6.396 6.396 0 012.317 3.081c1.598.187 3.02.97 4.034 2.091l.003.005a6.475 6.475 0 011.638 4.282c0 1.773-.723 3.37-1.88 4.527-1.131 1.131-2.545 1.961-4.35 1.961H8c-2.162 0-3.545-.841-4.684-1.98-1.167-1.168-1.816-2.761-1.816-4.52 0-1.578.515-3.077 1.488-4.205h.001a6.477 6.477 0 013.838-2.149c.211-2.386 1.296-3.978 3.014-5.573l.01-.009zm.666.746c-1.623 1.507-2.532 2.898-2.7 4.991v.008l-.001.008a.907.907 0 01-.711.795l-.017.004-.016.003a5.48 5.48 0 00-3.327 1.828c-.8.928-1.245 2.187-1.245 3.552 0 1.507.553 2.842 1.523 3.812.998.998 2.139 1.688 3.977 1.688h22.5c1.462 0 2.636-.661 3.642-1.668a5.381 5.381 0 001.588-3.82c0-1.38-.534-2.655-1.385-3.618a5.462 5.462 0 00-3.451-1.772h-.009l-.008-.002a.914.914 0 01-.74-.581l-.003-.008-.003-.007a5.395 5.395 0 00-1.973-2.656 5.457 5.457 0 00-3.934-.961c-.26.037-.516.092-.75.164l-.013.004-.013.003c-.319.08-.708.006-.951-.335l-.002-.002a8.308 8.308 0 00-2.906-2.526 8.237 8.237 0 00-3.722-.912c-2.05 0-3.927.758-5.35 2.008z" fill="#151515"/></svg>