<svg width="90" height="20" fill="none" xmlns="http://www.w3.org/2000/svg"><g clip-path="url(#clip0_2722_3457)"><path fill-rule="evenodd" clip-rule="evenodd" d="M10.82.055a9.725 9.725 0 00-5.84 1.217A9.938 9.938 0 00.904 5.685a10.134 10.134 0 00-.823 5.993 10.05 10.05 0 002.733 5.378 9.8 9.8 0 005.289 2.791 9.715 9.715 0 005.906-.817 9.908 9.908 0 004.36-4.126 10.123 10.123 0 001.216-5.923 10.048 10.048 0 00-2.82-6.045A9.776 9.776 0 0010.82.055zm-.32 15.233a5.184 5.184 0 01-3.164-.577 5.297 5.297 0 01-2.24-2.34 5.405 5.405 0 01-.479-3.228 5.361 5.361 0 011.465-2.905 5.226 5.226 0 012.857-1.496 5.183 5.183 0 013.18.475 5.29 5.29 0 012.313 2.268 5.4 5.4 0 01.578 3.21 5.363 5.363 0 01-1.488 3.073 5.222 5.222 0 01-3.022 1.52zM24.852.45a2.27 2.27 0 00-.987.229c-.308.15-.58.367-.794.637a2.346 2.346 0 00-.462 1.949c.216 1.099 1.227 1.85 2.329 1.85h6.393L21.38 18.48a.673.673 0 00.177.968.65.65 0 00.345.1h15.606c1.1 0 2.112-.75 2.329-1.85a2.369 2.369 0 00-.462-1.948 2.304 2.304 0 00-.794-.637 2.269 2.269 0 00-.986-.23h-7.79L39.748 1.53a.678.678 0 00-.178-.977.655.655 0 00-.348-.102h-14.37zm62.36.054a2.332 2.332 0 00-1.302.85 2.395 2.395 0 00-.49 1.491v7.766L73.023.597a.656.656 0 00-.97.17.681.681 0 00-.1.356v16.036a2.396 2.396 0 00.49 1.49 2.33 2.33 0 001.303.85 2.264 2.264 0 001.932-.46c.268-.218.483-.495.632-.81.148-.315.225-.66.224-1.008V9.388L88.93 19.402a.656.656 0 00.697.078.662.662 0 00.372-.604V2.782c0-.349-.076-.693-.224-1.008a2.32 2.32 0 00-.632-.81 2.28 2.28 0 00-1.932-.46zM54.936 4.668c5.243 0 9.16 2.813 9.16 5.33 0 2.516-3.917 5.329-9.16 5.329s-9.16-2.813-9.16-5.33c0-2.516 3.917-5.329 9.16-5.329zm0-4.664c-7.59 0-13.741 4.474-13.741 9.993 0 5.52 6.152 9.994 13.741 9.994 7.59 0 13.741-4.474 13.741-9.994 0-5.519-6.152-9.993-13.74-9.993z" fill="#0069FF"/></g><defs><clipPath id="clip0_2722_3457"><path fill="#fff" d="M0 0h90v20H0z"/></clipPath></defs></svg>