<svg width="40" height="40" fill="none" xmlns="http://www.w3.org/2000/svg"><path d="M13.776 25.792h2.197l-2.55-5.257c1.397-.495 2.089-1.502 2.089-2.988 0-2.572-1.69-3.34-4.963-3.34H7v11.585h1.951V20.92h1.89c.2 0 .4 0 .584-.016l2.35 4.89zm-2.95-9.955c1.536 0 2.689.208 2.689 1.726 0 1.39-.953 1.742-2.628 1.742H8.951v-3.467h1.875zm9.967 8.693c-1.444 0-2.197-1.055-2.366-2.333h-1.782c.122 2.045 1.55 3.803 4.117 3.803 2.228 0 4.18-1.15 4.18-3.515 0-1.183-.584-2.317-1.921-2.828.983-.496 1.628-1.455 1.628-2.605 0-2.173-1.843-3.052-3.703-3.052-2.458 0-3.994 1.454-4.163 3.66h1.782c.169-1.36.922-2.206 2.274-2.206 1.03 0 1.936.543 1.936 1.71 0 1.198-.86 1.79-2.581 1.79h-.461v1.581h.537c1.66 0 2.782.512 2.782 1.998 0 1.262-.968 1.997-2.26 1.997zM30.113 14c-2.443 0-4.026 1.582-3.98 3.915h1.829c0-1.806 1.014-2.46 2.074-2.46 1.106 0 1.798.638 1.798 1.773 0 1.917-2.228 3.994-5.947 6.998v1.566H34V24.13h-5.838c3.364-2.428 5.577-4.665 5.577-7.062 0-1.981-1.567-3.068-3.626-3.068z" fill="#000"/></svg>