<svg width="32" height="32" fill="none" xmlns="http://www.w3.org/2000/svg"><path fill-rule="evenodd" clip-rule="evenodd" d="M25.213 1.91l.353.38 5.2 5.6.34.366-.732.68-.34-.366-4.348-4.682c-.167 7.684-1.899 13.976-5.654 18.415C16.059 26.997 9.899 29.53 1.2 29.53H.7v-1h.5c8.501 0 14.34-2.468 18.068-6.873 3.553-4.199 5.256-10.237 5.419-17.807l-4.734 4.733-.353.354-.707-.707.353-.354 5.6-5.6.367-.367z" fill="#151515"/><path fill-rule="evenodd" clip-rule="evenodd" d="M6.5 5.53v8.2h2v7.579l.05-.096 4.596-9.992.003-.008.004-.007c.087-.174.167-.335.23-.476H10.8a.5.5 0 01-.447-.724l2.2-4.4.037-.076H6.5zm2.015 16.392l.001.004-.001-.004zM5.77 4.803a.898.898 0 01.63-.273h6.4c.164 0 .34.034.49.106.108.051.41.226.41.594 0 .124-.025.369-.253.823L11.61 9.73h1.99c.165 0 .34.034.49.106.108.051.41.226.41.594 0 .122-.029.24-.056.33-.03.095-.068.195-.11.292-.08.188-.186.399-.283.593L9.454 21.64l-.003.007-.004.007c-.206.413-.396.696-.61.867a.927.927 0 01-.629.21H8.2a.639.639 0 01-.515-.26.876.876 0 01-.148-.34c-.037-.167-.037-.348-.037-.427V14.73H6.4a.9.9 0 01-.629-.27.9.9 0 01-.271-.63V5.435a.91.91 0 01.27-.632z" fill="#151515"/></svg>