<svg width="144" height="37" fill="none" xmlns="http://www.w3.org/2000/svg"><g clip-path="url(#clip0_2722_3464)"><path d="M57.342 8.439l2.685-2.02h-8.962v12.095h8.962v-2.007h-6.4v-3.1h5.451v-2.02h-5.45V8.439h3.714zm-13.044 2.698h-3.105V8.44h4.963l2.671-2.02H38.63v12.095h5.343c2.996 0 4.718-1.384 4.718-3.806-.013-2.297-1.559-3.57-4.393-3.57zm-.447 5.37H41.18v-3.349h2.67c1.628 0 2.374.568 2.374 1.675.013 1.134-.787 1.674-2.373 1.674zm23.43-10.089H62.4v12.096h2.563v-3.432h2.318c3.12 0 5.044-1.675 5.044-4.346 0-2.657-1.925-4.318-5.044-4.318zm-.054 6.657h-2.264V8.439h2.264c1.64 0 2.536.83 2.536 2.325s-.895 2.311-2.536 2.311zm-32.99 2.823a4.575 4.575 0 01-2.21.568c-2.305 0-3.973-1.675-3.973-4 0-2.311 1.668-4 3.973-4a3.85 3.85 0 012.332.748l1.83-1.384-.121-.11c-1.071-.956-2.509-1.468-4.136-1.468-1.776 0-3.39.61-4.529 1.716-1.152 1.121-1.79 2.685-1.79 4.415 0 1.744.638 3.335 1.79 4.484 1.153 1.149 2.766 1.785 4.53 1.785 1.843 0 3.457-.65 4.542-1.854l-1.655-1.246-.583.346zm-16.583-9.59a9.806 9.806 0 011.18 2.007l-9.004 6.78-3.77-2.407V9.782l3.77 2.408 7.824-5.882z" fill="#21A038"/><path d="M2.237 12.466c0-.124 0-.263.014-.387l-2.278-.111c-.014.166-.014.332-.014.498a10.19 10.19 0 002.902 7.141l1.613-1.647a7.763 7.763 0 01-2.237-5.494z" fill="url(#paint0_linear_2722_3464)"/><path d="M9.83 4.716c.123 0 .258 0 .38.014l.109-2.325c-.163-.014-.326-.014-.489-.014-2.725 0-5.206 1.135-6.996 2.962L4.447 7A7.476 7.476 0 019.83 4.716z" fill="url(#paint1_linear_2722_3464)"/><path d="M9.83 20.23c-.122 0-.257 0-.38-.014l-.108 2.325c.163.014.326.014.488.014 2.726 0 5.207-1.135 6.997-2.962l-1.613-1.647c-1.383 1.412-3.282 2.284-5.384 2.284z" fill="url(#paint2_linear_2722_3464)"/><path d="M14.115 6.059l1.926-1.453a9.72 9.72 0 00-6.21-2.242v2.325a7.75 7.75 0 014.284 1.37z" fill="url(#paint3_linear_2722_3464)"/><path d="M19.715 12.466c0-.622-.054-1.217-.162-1.813l-2.13 1.606v.207a7.797 7.797 0 01-2.508 5.758l1.533 1.73c2.02-1.841 3.267-4.512 3.267-7.488z" fill="#21A038"/><path d="M9.83 20.23c-2.237 0-4.244-.983-5.64-2.56l-1.695 1.563c1.803 2.035 4.42 3.322 7.335 3.322V20.23z" fill="url(#paint4_linear_2722_3464)"/><path d="M4.732 6.723L3.2 4.993A10.165 10.165 0 00-.054 12.48h2.278c.013-2.283.976-4.345 2.508-5.757z" fill="url(#paint5_linear_2722_3464)"/><path d="M36.339 25.517l-3.797 6.421h-1.07L27.58 25.6v8.995h-2.116V22.514h2.672l3.918 6.573 3.892-6.573h2.508v12.081H36.34v-9.078zm12.583 3.847h-5.45v3.252h6.25v1.98h-8.366V22.513h8.19v1.979H43.47v2.878h5.451v1.993zm11.2-4.872h-5.925v10.103H52.08V22.514h8.027v1.979h.014zm10.875 10.103h-2.251l-1.14-2.865h-5.423l-1.112 2.865H58.93l4.8-12.081h2.4l4.868 12.081zm-4.163-4.844l-1.939-4.954-1.939 4.954h3.878zm16.542-4.234l-3.81 6.421h-1.07L74.603 25.6v8.995h-2.116V22.514h2.671l3.919 6.573 3.905-6.573h2.509v12.081h-2.116v-9.078zm15.674 9.078H96.8l-1.14-2.865h-5.422l-1.112 2.865h-2.143l4.8-12.081h2.4l4.868 12.081zm-4.162-4.844l-1.94-4.954-1.938 4.954h3.878zm7.783 1.079v3.765h-2.115V22.514h3.946c1.871 0 3.226.345 4.068 1.024.84.678 1.261 1.702 1.261 3.058 0 1.412-.448 2.477-1.356 3.17-.909.705-2.224 1.05-3.973 1.05l-1.831.015zm0-6.337v4.345h1.98c.99 0 1.735-.18 2.237-.526.501-.346.746-.941.746-1.771 0-.748-.231-1.274-.692-1.592-.461-.304-1.206-.47-2.251-.47l-2.02.014zm11.431 10.102h-2.116V22.514h2.116v5.078h1.776l3.81-5.078h2.576l-4.515 5.743 5.248 6.338h-2.712l-4.299-5.231h-1.871l-.013 5.231zm17.952-5.231h-5.45v3.252h6.25v1.98h-8.366V22.513h8.19v1.979h-6.074v2.878h5.45v1.993zM144 24.492h-3.987v10.103h-2.115V24.493h-3.918v-1.98h10.034l-.014 1.98z" fill="#632895"/></g><defs><linearGradient id="paint0_linear_2722_3464" x1="3.306" y1="19.313" x2=".718" y2="11.984" gradientUnits="userSpaceOnUse"><stop offset=".144" stop-color="#F2E913"/><stop offset=".304" stop-color="#E7E518"/><stop offset=".582" stop-color="#CADB26"/><stop offset=".891" stop-color="#A3CD39"/></linearGradient><linearGradient id="paint1_linear_2722_3464" x1="3.495" y1="5.748" x2="9.955" y2="3.336" gradientUnits="userSpaceOnUse"><stop offset=".059" stop-color="#0FA8E0"/><stop offset=".538" stop-color="#0099F9"/><stop offset=".923" stop-color="#0291EB"/></linearGradient><linearGradient id="paint2_linear_2722_3464" x1="9.189" y1="21.154" x2="16.471" y2="19.542" gradientUnits="userSpaceOnUse"><stop offset=".123" stop-color="#A3CD39"/><stop offset=".285" stop-color="#86C339"/><stop offset=".869" stop-color="#21A038"/></linearGradient><linearGradient id="paint3_linear_2722_3464" x1="9.356" y1="3.161" x2="15.592" y2="5.046" gradientUnits="userSpaceOnUse"><stop offset=".057" stop-color="#0291EB"/><stop offset=".79" stop-color="#0C8ACB"/></linearGradient><linearGradient id="paint4_linear_2722_3464" x1="3.076" y1="18.956" x2="9.873" y2="21.445" gradientUnits="userSpaceOnUse"><stop offset=".132" stop-color="#F2E913"/><stop offset=".298" stop-color="#EBE716"/><stop offset=".531" stop-color="#D9E01F"/><stop offset=".802" stop-color="#BBD62D"/><stop offset=".983" stop-color="#A3CD39"/></linearGradient><linearGradient id="paint5_linear_2722_3464" x1=".799" y1="12.753" x2="3.612" y2="5.583" gradientUnits="userSpaceOnUse"><stop offset=".07" stop-color="#A3CD39"/><stop offset=".26" stop-color="#81C55F"/><stop offset=".922" stop-color="#0FA8E0"/></linearGradient><clipPath id="clip0_2722_3464"><path fill="#fff" d="M0 0h144v37H0z"/></clipPath></defs></svg>