<svg width="48" height="40" fill="none" xmlns="http://www.w3.org/2000/svg"><path fill-rule="evenodd" clip-rule="evenodd" d="M7.591 8a2.5 2.5 0 00-2.5 2.5v10a2.5 2.5 0 002.5 2.5H17.65a8.501 8.501 0 0014.089 5.354l4.5 4.5.353.353.707-.707-.353-.354-4.5-4.5A8.467 8.467 0 0034.533 23h6.058a2.5 2.5 0 002.5-2.5v-10a2.5 2.5 0 00-2.5-2.5h-33zm27 14h6a1.5 1.5 0 001.5-1.5v-10a1.5 1.5 0 00-1.5-1.5h-33a1.5 1.5 0 00-1.5 1.5v10a1.5 1.5 0 001.5 1.5h10c0-.689.082-1.359.237-2H9v-1h9.136a8.503 8.503 0 0115.91 0H39v1h-4.645a8.52 8.52 0 01.236 2zm-1 0a7.5 7.5 0 10-15 0 7.5 7.5 0 0015 0z" fill="#000"/></svg>