<svg width="32" height="32" fill="none" xmlns="http://www.w3.org/2000/svg"><path fill-rule="evenodd" clip-rule="evenodd" d="M9.263 11.463c0-4.947 4.068-8.963 9.118-8.963 5.05 0 9.119 4.016 9.119 8.963 0 4.946-4.069 8.963-9.119 8.963s-9.118-4.017-9.118-8.963zM18.38 1.5c-5.587 0-10.118 4.449-10.118 9.963 0 2.6 1.007 4.962 2.657 6.733l-7.713 9.798-.298.378.367.312 1.526 1.297.39.332.323-.399 7.888-9.773a10.206 10.206 0 004.978 1.285c5.587 0 10.119-4.45 10.119-9.963C28.5 5.949 23.968 1.5 18.38 1.5zM4.291 28.234l7.35-9.337c.288.253.59.49.907.71l-7.49 9.28-.767-.653zM24.7 11.6c0 3.258-2.638 5.9-5.9 5.9v1c3.814 0 6.9-3.09 6.9-6.9h-1z" fill="#151515"/></svg>