<svg width="80" height="80" fill="none" xmlns="http://www.w3.org/2000/svg"><path fill-rule="evenodd" clip-rule="evenodd" d="M40.148 14.12a.5.5 0 01.325-.12H43.5a.5.5 0 01.5.5v51a.5.5 0 01-.5.5h-3.027a.5.5 0 01-.325-.12L24.142 52.12a.5.5 0 00-.326-.12H13.5a1.5 1.5 0 01-1.5-1.5v-21a1.5 1.5 0 011.5-1.5h10.316a.5.5 0 00.326-.12l16.006-13.76zm.51.88L24.795 28.637a1.5 1.5 0 01-.978.363H13.5a.5.5 0 00-.5.5v21a.5.5 0 00.5.5h10.316a1.5 1.5 0 01.978.363L40.659 65H43V15h-2.341zM54.01 46.317l.354-.353L60.327 40l-5.963-5.964-.354-.353.707-.707.354.353 5.963 5.964 5.963-5.964.354-.353.707.707-.354.353L61.741 40l5.963 5.963.354.353-.707.708-.354-.354-5.963-5.963-5.963 5.963-.354.354-.707-.708z" fill="#000"/></svg>