<svg width="40" height="40" fill="none" xmlns="http://www.w3.org/2000/svg"><path fill-rule="evenodd" clip-rule="evenodd" d="M20.928 9.107A.5.5 0 0121.237 9H22.5a.5.5 0 01.5.5v21a.5.5 0 01-.5.5h-1.263a.5.5 0 01-.309-.107l-7.372-5.786a.5.5 0 00-.308-.107h-4.81a1.5 1.5 0 01-1.5-1.5v-7a1.5 1.5 0 011.5-1.5h4.81a.5.5 0 00.308-.107l7.372-5.786zm.482.893l-7.236 5.68a1.5 1.5 0 01-.926.32h-4.81a.5.5 0 00-.5.5v7a.5.5 0 00.5.5h4.81c.336 0 .662.113.926.32L21.41 30H22V10h-.59zm4.741 13.159l.354-.354L29.31 20l-2.805-2.805-.354-.353.708-.707.353.353 2.805 2.805 2.805-2.805.353-.353.708.707-.354.353L30.724 20l2.805 2.805.353.354-.707.707-.353-.354-2.805-2.805-2.805 2.805-.353.354-.708-.707z" fill="#000"/></svg>