<svg xmlns="http://www.w3.org/2000/svg" xmlns:xlink="http://www.w3.org/1999/xlink"><defs>
<clipPath id="clip0_3339_1416">
<rect width="24" height="24" fill="currentColor"/>
</clipPath>
</defs><symbol id="check" viewBox="0 0 10 7">
<path d="M1 3L4 6.00001L9 1" stroke="currentColor" stroke-linecap="square" fill="none"/>
</symbol><symbol id="close" viewBox="0 0 56 56">
<path fill-rule="evenodd" clip-rule="evenodd" d="M19.6465 35.6465L19.293 36.0001L20.0001 36.7072L20.3536 36.3536L28.0001 28.7072L35.6465 36.3536L36.0001 36.7072L36.7072 36.0001L36.3536 35.6465L28.7072 28.0001L36.3536 20.3536L36.7072 20.0001L36.0001 19.293L35.6465 19.6465L28.0001 27.293L20.3536 19.6465L20.0001 19.293L19.293 20.0001L19.6465 20.3536L27.293 28.0001L19.6465 35.6465Z" fill="currentColor"/>
</symbol><symbol id="comment" viewBox="0 0 24 24">
<path fill-rule="evenodd" clip-rule="evenodd" d="M4.5 2C3.11929 2 2 3.11929 2 4.5L2 10L2 15.5C2 16.8807 3.11929 18 4.5 18H6V22.5C6 22.6905 6.10823 22.8644 6.27912 22.9486C6.45002 23.0327 6.65387 23.0125 6.80486 22.8963L13.1701 18H19.5C20.8807 18 22 16.8807 22 15.5V10V4.5C22 3.11929 20.8807 2 19.5 2L12 2L4.5 2ZM3 4.5C3 3.67157 3.67157 3 4.5 3L12 3H19.5C20.3284 3 21 3.67157 21 4.5V10V15.5C21 16.3284 20.3284 17 19.5 17H13H12.8299L12.6951 17.1037L7 21.4846V17.5V17H6.5H4.5C3.67157 17 3 16.3284 3 15.5L3 10L3 4.5ZM8 11C8.55228 11 9 10.5523 9 10C9 9.44772 8.55228 9 8 9C7.44772 9 7 9.44772 7 10C7 10.5523 7.44772 11 8 11ZM12 11C12.5523 11 13 10.5523 13 10C13 9.44772 12.5523 9 12 9C11.4477 9 11 9.44772 11 10C11 10.5523 11.4477 11 12 11ZM17 10C17 10.5523 16.5523 11 16 11C15.4477 11 15 10.5523 15 10C15 9.44772 15.4477 9 16 9C16.5523 9 17 9.44772 17 10Z" fill="currentColor"/>
</symbol><symbol id="doc-big" viewBox="0 0 64 64">
<path fill-rule="evenodd" clip-rule="evenodd" d="M11 6.5C11 6.22386 11.2239 6 11.5 6H34.6667C34.7993 6 34.9264 6.05268 35.0202 6.14645L49.8535 20.9798C49.9473 21.0735 50 21.2007 50 21.3333V57.4987C50 57.7748 49.7761 57.9987 49.5 57.9987H11.5C11.2239 57.9987 11 57.7748 11 57.4987V6.5ZM12 7V56.9987H49V21.9974H34.5C34.2239 21.9974 34 21.7735 34 21.4974V7H12ZM35 7.54046L48.457 20.9974H35V7.54046ZM41.5 39H19.5H19V38H19.5H41.5H42V39H41.5ZM31 47H30.5H19.5H19V46H19.5H30.5H31V47Z" fill="currentColor"/>
</symbol><symbol id="doc" viewBox="0 0 24 24">
<path fill-rule="evenodd" clip-rule="evenodd" d="M4 2.5C4 2.22386 4.22386 2 4.5 2L13 2C13.1326 2 13.2598 2.05268 13.3536 2.14645L18.8536 7.64645C18.9473 7.74021 19 7.86739 19 8V21.5C19 21.7761 18.7761 22 18.5 22H4.5C4.22386 22 4 21.7761 4 21.5L4 2.5ZM5 3L5 21H18V9H12.5C12.2239 9 12 8.77614 12 8.5V3L5 3ZM13 3.20711L17.7929 8H13V3.20711ZM16 15H15.5H7.5H7V14H7.5H15.5H16V15ZM12 18H11.5H7.5H7V17H7.5H11.5H12V18Z" fill="currentColor"/>
</symbol><symbol id="download" viewBox="0 0 24 24">
<path fill-rule="evenodd" clip-rule="evenodd" d="M15.6464 11.6464L16 11.2929L16.7071 12L16.3535 12.3536L11.8535 16.8536L11.5 17.2071L11.1464 16.8536L6.64644 12.3536L6.29289 12L7 11.2929L7.35355 11.6464L11 15.2929L11 4.5V4H12V4.5L12 15.2929L15.6464 11.6464ZM2.5 20H2V21H2.5H20.5H21V20H20.5H2.5Z" fill="currentColor"/>
</symbol><symbol id="drop-down" viewBox="0 0 24 24">
<path fill-rule="evenodd" clip-rule="evenodd" d="M7.99995 10.293L8.35351 10.6465L12 14.293L15.6464 10.6465L16 10.293L16.7071 11.0001L16.3535 11.3536L12.3535 15.3536L12 15.7072L11.6464 15.3536L7.6464 11.3536L7.29285 11.0001L7.99995 10.293Z" fill="currentColor"/>
</symbol><symbol id="external-link" viewBox="0 0 24 24">
<g clip-path="url(#clip0_3339_1416)">
<path fill-rule="evenodd" clip-rule="evenodd" d="M18 17.998L18 17.498L18 6.70513L6.85355 17.8515L6.49999 18.2051L5.79289 17.498L6.14644 17.1444L17.2928 5.99803L6.49999 5.99806L5.99999 5.99806L5.99999 4.99806L6.49999 4.99806L18.5 4.99803C18.6326 4.99803 18.7597 5.0507 18.8535 5.14447C18.9473 5.23824 19 5.36542 19 5.49803L19 17.498V17.998L18 17.998Z" fill="currentColor"/>
</g>

</symbol><symbol id="eye" viewBox="0 0 24 24">
<path fill-rule="evenodd" clip-rule="evenodd" d="M18.536 8.44986C20.1779 9.7506 21.2961 11.2331 21.815 12C21.2961 12.7669 20.1779 14.2494 18.536 15.5501C16.8435 16.8911 14.6459 18 12.0001 18C9.35437 18 7.15681 16.8911 5.46424 15.5501C3.82242 14.2494 2.70414 12.7669 2.18529 12C2.70414 11.2331 3.82242 9.7506 5.46424 8.44986C7.15682 7.1089 9.35437 6 12.0001 6C14.6459 6 16.8435 7.1089 18.536 8.44986ZM22.6962 11.5185C22.8926 11.8131 22.8926 12.1869 22.6962 12.4815C21.6414 14.0634 17.8786 19 12.0001 19C6.12168 19 2.35891 14.0634 1.30407 12.4815C1.10763 12.1869 1.10763 11.8131 1.30407 11.5185C2.35891 9.9366 6.12168 5 12.0001 5C17.8786 5 21.6414 9.9366 22.6962 11.5185ZM15.0001 12C15.0001 13.6569 13.6569 15 12.0001 15C10.3432 15 9.00007 13.6569 9.00007 12C9.00007 10.3431 10.3432 9 12.0001 9C13.6569 9 15.0001 10.3431 15.0001 12ZM16.0001 12C16.0001 14.2091 14.2092 16 12.0001 16C9.79093 16 8.00007 14.2091 8.00007 12C8.00007 9.79086 9.79093 8 12.0001 8C14.2092 8 16.0001 9.79086 16.0001 12Z" fill="currentColor"/>
</symbol><symbol id="location" viewBox="0 0 24 24">
<path fill-rule="evenodd" clip-rule="evenodd" d="M18 9C18 10.0121 17.6264 11.3455 16.9862 12.8484C16.3553 14.3296 15.5061 15.8832 14.6445 17.307C13.7847 18.7277 12.9232 20.0017 12.276 20.9212C12.1789 21.0592 12.0866 21.1892 12 21.3103C11.9134 21.1892 11.8211 21.0592 11.724 20.9212C11.0768 20.0017 10.2153 18.7277 9.35554 17.307C8.49392 15.8832 7.6447 14.3296 7.01376 12.8484C6.37357 11.3455 6 10.0121 6 9C6 5.68629 8.68629 3 12 3C15.3137 3 18 5.68629 18 9ZM19 9C19 12.9735 14.3323 19.793 12.62 22.1609C12.2355 22.6927 12 23 12 23C12 23 11.7645 22.6927 11.38 22.1609C9.66774 19.793 5 12.9735 5 9C5 5.13401 8.13401 2 12 2C15.866 2 19 5.13401 19 9ZM14 9C14 10.1046 13.1046 11 12 11C10.8954 11 10 10.1046 10 9C10 7.89543 10.8954 7 12 7C13.1046 7 14 7.89543 14 9ZM15 9C15 10.6569 13.6569 12 12 12C10.3431 12 9 10.6569 9 9C9 7.34315 10.3431 6 12 6C13.6569 6 15 7.34315 15 9Z" fill="currentColor"/>
</symbol><symbol id="mark" viewBox="0 0 24 11">
<path fill-rule="evenodd" clip-rule="evenodd" d="M23.0703 10.7031L22.6834 10.3865L12 1.64558L1.3166 10.3865L0.929625 10.7031L0.296387 9.92919L0.683367 9.61257L11.6834 0.612567L12 0.353516L12.3166 0.612567L23.3166 9.61257L23.7036 9.92919L23.0703 10.7031Z" fill="currentColor"/>
</symbol><symbol id="search" viewBox="0 0 24 24">
<path fill-rule="evenodd" clip-rule="evenodd" d="M9 15C12.3137 15 15 12.3137 15 9C15 5.68629 12.3137 3 9 3C5.68629 3 3 5.68629 3 9C3 12.3137 5.68629 15 9 15ZM15.1171 12.4058C15.6795 11.3977 16 10.2363 16 9C16 5.13401 12.866 2 9 2C5.13401 2 2 5.13401 2 9C2 12.866 5.13401 16 9 16C10.2363 16 11.3977 15.6795 12.4058 15.1171L18.6729 21.4843C19.4475 22.2712 20.7149 22.2762 21.4957 21.4955C22.2765 20.7147 22.2714 19.4472 21.4844 18.6727L15.1171 12.4058ZM14.5569 13.2575C14.1825 13.7454 13.7454 14.1825 13.2575 14.5568L19.3856 20.7828C19.7706 21.1739 20.4005 21.1764 20.7886 20.7884C21.1766 20.4003 21.1741 19.7704 20.783 19.3854L14.5569 13.2575Z" fill="currentColor"/>
</symbol></svg>