<svg width="88" height="88" fill="none" xmlns="http://www.w3.org/2000/svg"><path fill-rule="evenodd" clip-rule="evenodd" d="M83.333 44c0 21.723-17.61 39.333-39.333 39.333S4.667 65.723 4.667 43.999C4.667 22.276 22.277 4.666 44 4.666s39.333 17.61 39.333 39.333zm1 0c0 22.275-18.057 40.333-40.333 40.333-22.275 0-40.333-18.058-40.333-40.334C3.667 21.724 21.725 3.666 44 3.666c22.276 0 40.333 18.058 40.333 40.333zM59.02 37.02l.354-.354-.707-.707-.354.353-17.98 17.98-10.646-10.646-.354-.354-.707.707.354.354 11 11 .353.353.354-.353L59.02 37.02z" fill="#0DC268"/></svg>