<svg width="80" height="80" fill="none" xmlns="http://www.w3.org/2000/svg"><path d="M44.38 42.322c3.324-1.628 5.62-5.044 5.62-8.988 0-5.514-4.486-10-10-10s-10 4.486-10 10c0 3.944 2.295 7.36 5.62 8.987C29.48 44.202 25 49.92 25 56.668h3.333c0-6.433 5.234-11.666 11.667-11.666s11.667 5.233 11.667 11.666H55c0-6.747-4.48-12.467-10.62-14.346zm-11.047-8.988A6.675 6.675 0 0140 26.667a6.675 6.675 0 016.667 6.667A6.675 6.675 0 0140 40.001a6.675 6.675 0 01-6.667-6.667zm-9.166 6.667a6.674 6.674 0 00-6.667-6.667 6.674 6.674 0 00-6.667 6.667 6.662 6.662 0 003.083 5.612c-4.217 1.483-7.25 5.504-7.25 10.221v.833H10v-.833c0-4.135 3.365-7.5 7.5-7.5 1.967 0 3.853.786 5.245 2.143a18.258 18.258 0 011.476-3.129 10.952 10.952 0 00-3.142-1.732 6.662 6.662 0 003.088-5.615zM17.5 36.667a3.337 3.337 0 013.333 3.334 3.337 3.337 0 01-3.333 3.333 3.337 3.337 0 01-3.333-3.333 3.337 3.337 0 013.333-3.334zm48.584 8.946A6.663 6.663 0 0069.167 40a6.674 6.674 0 00-6.667-6.667A6.674 6.674 0 0055.833 40a6.663 6.663 0 003.088 5.615 10.93 10.93 0 00-3.142 1.732c.59.994 1.084 2.042 1.476 3.13a7.532 7.532 0 015.245-2.144c4.135 0 7.5 3.365 7.5 7.5v.833h3.333v-.833c0-4.718-3.032-8.738-7.249-10.221zM62.5 36.667a3.337 3.337 0 013.333 3.334 3.337 3.337 0 01-3.333 3.333 3.337 3.337 0 01-3.333-3.333 3.337 3.337 0 013.333-3.334z" fill="#000"/></svg>