<svg width="80" height="80" fill="none" xmlns="http://www.w3.org/2000/svg"><path d="M45.404 62.998a8.312 8.312 0 002.929-6.332c0-4.595-3.738-8.333-8.333-8.333-4.596 0-8.334 3.738-8.334 8.333a8.313 8.313 0 002.93 6.332c-3.719 1.952-6.263 5.851-6.263 10.335h3.334c0-4.595 3.738-8.334 8.333-8.334 4.595 0 8.333 3.739 8.333 8.334h3.334c0-4.484-2.544-8.383-6.263-10.335zM35 56.666c0-2.757 2.243-5 5-5 2.756 0 5 2.243 5 5s-2.243 5-5 5c-2.758 0-5-2.243-5-5zm25.404-35.335a8.312 8.312 0 002.929-6.332c0-4.595-3.738-8.333-8.333-8.333-4.596 0-8.334 3.738-8.334 8.333a8.313 8.313 0 002.93 6.332c-3.719 1.953-6.263 5.852-6.263 10.335h3.334c0-4.595 3.738-8.333 8.333-8.333 4.595 0 8.333 3.738 8.333 8.333h3.334c0-4.484-2.544-8.383-6.263-10.335zM50 14.999c0-2.757 2.243-5 5-5 2.756 0 5 2.243 5 5s-2.243 5-5 5c-2.758 0-5-2.243-5-5zm-19.596 6.332a8.312 8.312 0 002.93-6.332c0-4.595-3.738-8.333-8.334-8.333s-8.333 3.738-8.333 8.333a8.313 8.313 0 002.93 6.332c-3.72 1.953-6.264 5.852-6.264 10.335h3.334c0-4.595 3.738-8.333 8.333-8.333 4.595 0 8.333 3.738 8.333 8.333h3.334c0-4.484-2.544-8.383-6.263-10.335zM20 14.999c0-2.757 2.243-5 5-5 2.756 0 5 2.243 5 5s-2.243 5-5 5c-2.758 0-5-2.243-5-5zm47.07 34.665A8.312 8.312 0 0070 43.333c0-4.595-3.738-8.334-8.334-8.334s-8.333 3.739-8.333 8.334a8.313 8.313 0 002.93 6.331 11.756 11.756 0 00-4.438 4.087l2.369 2.584c1.359-2.76 4.194-4.669 7.473-4.669 4.595 0 8.333 3.738 8.333 8.333h3.333c0-4.483-2.544-8.382-6.263-10.335zm-5.404-1.331c-2.756 0-5-2.243-5-5s2.244-5 5-5c2.757 0 5 2.243 5 5s-2.242 5-5 5zM28.22 53.817a11.757 11.757 0 00-4.483-4.153 8.311 8.311 0 002.93-6.331c0-4.595-3.739-8.334-8.334-8.334S10 38.738 10 43.333a8.312 8.312 0 002.93 6.331C9.21 51.617 6.667 55.516 6.667 60H10c0-4.595 3.738-8.333 8.333-8.333 3.31 0 6.165 1.943 7.51 4.744l2.377-2.593zm-9.887-5.484c-2.757 0-5-2.243-5-5s2.243-5 5-5 5 2.243 5 5-2.243 5-5 5z" fill="#1D1D1B"/></svg>