<svg width="32" height="32" fill="none" xmlns="http://www.w3.org/2000/svg"><path fill-rule="evenodd" clip-rule="evenodd" d="M16 2.1C8.32 2.1 2.1 8.32 2.1 16c0 7.68 6.22 13.9 13.9 13.9 7.68 0 13.9-6.22 13.9-13.9 0-7.68-6.22-13.9-13.9-13.9zM1.1 16C1.1 7.768 7.77 1.1 16 1.1c8.232 0 14.9 6.668 14.9 14.9S24.232 30.9 16 30.9C7.77 30.9 1.1 24.232 1.1 16zm14.4-9.37V3.754h1V6.63h-1zm4.744 1.003l1.447-2.491.865.502-1.447 2.491-.865-.502zm3.621 3.258l2.491-1.447.502.865-2.49 1.447-.503-.865zm-6.026 4.328a2.372 2.372 0 00-3.214-.994 2.372 2.372 0 00-.996 3.212c.144.264.544.7 1.138 1.24a35.796 35.796 0 001.97 1.64c.685.537 1.348 1.03 1.84 1.39a71.428 71.428 0 00-.107-2.3 35.062 35.062 0 00-.243-2.548c-.113-.797-.248-1.373-.388-1.64zm1.263 7.483l.5-.007v-.019l-.001-.054-.004-.204a73.297 73.297 0 00-.129-3.075 36.063 36.063 0 00-.25-2.623c-.111-.782-.262-1.524-.493-1.964a3.372 3.372 0 00-4.564-1.417 3.372 3.372 0 00-1.416 4.564l.003.006c.235.435.762.976 1.346 1.508a36.78 36.78 0 002.026 1.688 73.78 73.78 0 002.634 1.963l.044.032.012.008.003.002.289-.408zm0 0l-.288.409a.5.5 0 00.788-.416l-.5.007zM25.37 15.5h2.877v1H25.37v-1zm-1.003 4.744l2.491 1.447-.502.865-2.49-1.447.501-.865zm-3.258 3.621l1.447 2.491-.865.502-1.447-2.49.865-.503z" fill="#1D1D1B"/></svg>