<svg width="80" height="80" fill="none" xmlns="http://www.w3.org/2000/svg"><path fill-rule="evenodd" clip-rule="evenodd" d="M50.312 21.775c-2.378.253-4.917 1.273-6.776 3.132l4.95 4.95 7.044-7.044c-1.157-.863-3.071-1.267-5.218-1.038zm-.106-.995c-2.567.273-5.331 1.374-7.377 3.42a12.15 12.15 0 00-.679.736c-2.862 3.377-3.558 7.964-2.088 11.93L20.908 56.02a5 5 0 107.071 7.07l19.154-19.154c3.966 1.47 8.552.775 11.93-2.088.252-.213.497-.44.735-.677h.001c2.046-2.046 3.147-4.81 3.42-7.378.27-2.543-.262-5.02-1.652-6.41l-.354-.354-.353.354-7.425 7.424-4.242-4.243 7.424-7.424.354-.354-.354-.353c-1.39-1.39-3.867-1.923-6.41-1.653zm3.937 14.734l4.949 4.95c1.86-1.86 2.88-4.398 3.133-6.776.228-2.147-.176-4.061-1.038-5.218l-7.044 7.044zM42.86 25.646A11.007 11.007 0 0041 36.518l.223.6-.454.454-19.154 19.155a4 4 0 105.657 5.656L46.426 43.23l.454-.453.601.223a11.007 11.007 0 0010.872-1.86L42.86 25.645z" fill="#000" opacity=".9"/></svg>