<svg width="32" height="32" fill="none" xmlns="http://www.w3.org/2000/svg"><path fill-rule="evenodd" clip-rule="evenodd" d="M16 .469l.365.39 6 6.4.342.364-.73.684-.342-.365L16.5 2.464V31.3h-1V2.464l-5.135 5.478-.342.365-.73-.684.342-.365 6-6.4L16 .47zM6 10.093l.354.354 4 4 .353.353-.707.707-.353-.353L6.5 12.007V31.3h-1V12.007l-3.146 3.147-.354.353-.707-.707.354-.354 4-4L6 10.094zm20 0l.354.354 4 4 .353.353-.707.707-.354-.353-3.146-3.147V31.3h-1V12.007l-3.146 3.147-.354.353-.707-.707.354-.354 4-4 .353-.353z" fill="#151515"/></svg>