<svg width="40" height="41" fill="none" xmlns="http://www.w3.org/2000/svg"><path fill-rule="evenodd" clip-rule="evenodd" d="M12.785 5.246c-.11.256-.235.525-.377.802-.844 1.635-2.314 3.557-4.798 4.585l-.382-.924c2.193-.907 3.513-2.612 4.29-4.12.389-.752.637-1.447.788-1.954a9.272 9.272 0 00.192-.754l.007-.039.002-.008.94-.137h.001l.003.004a2.194 2.194 0 00.077.141c.06.102.15.252.278.437.254.37.65.879 1.209 1.419 1.115 1.077 2.88 2.281 5.479 2.764l-.183.983c-2.824-.525-4.76-1.84-5.991-3.028-.22-.213-.417-.42-.593-.62.282 1.868.72 3.486 1.378 4.965.873 1.961 2.143 3.704 3.99 5.471v.001c3.973 3.816 9.49 5.183 13.905 5.183v1c-4.415 0-9.912 1.368-13.884 5.183v.001c-1.858 1.779-3.134 3.521-4.009 5.48-.66 1.476-1.098 3.09-1.38 4.956.176-.199.373-.407.593-.62 1.23-1.188 3.167-2.503 5.991-3.028l.183.984c-2.599.483-4.364 1.686-5.48 2.764a9.379 9.379 0 00-1.208 1.418 6.667 6.667 0 00-.355.578l-.003.005-.94-.137h-.001l-.002-.01-.007-.038a9.274 9.274 0 00-.191-.755c-.152-.505-.4-1.2-.788-1.953-.778-1.508-2.098-3.212-4.291-4.12l.382-.924c2.484 1.028 3.954 2.95 4.798 4.586.142.276.267.546.377.802.294-1.811.741-3.421 1.41-4.916.937-2.098 2.296-3.944 4.228-5.794 2.83-2.718 6.366-4.25 9.773-4.961-3.414-.712-6.961-2.243-9.793-4.962-1.923-1.841-3.277-3.687-4.212-5.788-.666-1.496-1.113-3.11-1.406-4.922z" fill="#151515"/></svg>