<svg width="32" height="32" fill="none" xmlns="http://www.w3.org/2000/svg"><path fill-rule="evenodd" clip-rule="evenodd" d="M15.5 26.4v-3.08l-6.6-.01v3.09h-1v-3.09l-6.7-.01v-1l6.7.01V16.1H4.8c-2.316 0-3.7-1.866-3.7-3.7s1.384-3.7 3.7-3.7h3.1V5.6h1v3.1h6.6V5.6h1v3.1h6.6V5.6h1v3.1h6.3v1h-6.3v5.4h2.7c1.184 0 2.119.596 2.743 1.391.618.787.957 1.795.957 2.709 0 .914-.339 1.922-.956 2.712-.623.798-1.555 1.402-2.735 1.423h-.01l-2.699-.003V26.4h-1v-3.07l-6.6-.009V26.4h-1zm8.6-4.068l2.696.003c.817-.016 1.484-.428 1.96-1.038.483-.619.744-1.41.744-2.097 0-.686-.261-1.478-.743-2.091-.476-.605-1.14-1.009-1.957-1.009h-2.7v6.232zm-1-6.232v6.23l-6.6-.009V16.1h6.6zm0-1V9.7h-6.6v5.4h6.6zm-7.6 7.22V16.1H8.9v6.21l6.6.01zM8.9 9.7h6.6v5.4H8.9V9.7zm-1 0H4.8c-1.684 0-2.7 1.334-2.7 2.7s1.016 2.7 2.7 2.7h3.1V9.7z" fill="#151515"/></svg>