<svg width="138" height="18" fill="none" xmlns="http://www.w3.org/2000/svg"><g clip-path="url(#clip0_2722_3460)"><path d="M67.362 17.357c4.869 0 8.816-3.885 8.816-8.678C76.178 3.886 72.23 0 67.362 0s-8.815 3.886-8.815 8.679 3.947 8.678 8.815 8.678z" fill="#FED104"/><path fill-rule="evenodd" clip-rule="evenodd" d="M76.173 8.978a8.533 8.533 0 00-.617-3.508.037.037 0 00-.013-.001c-.04.002-.734.552-1.542 1.221-.808.67-1.486 1.2-1.507 1.18-.022-.019.17-.923.425-2.009.255-1.085.437-2.044.403-2.131-.049-.124-3.009-1.373-3.254-1.373-.03 0-1.179 1.539-2.551 3.42-1.372 1.88-2.512 3.402-2.533 3.381-.035-.034.468-2.546.594-2.967.044-.145-.223-.32-1.28-.842-.871-.43-1.383-.627-1.474-.567-.299.199-3.631 4.251-4.196 5.078a8.537 8.537 0 001.16 3.263c.158-.174.62-.76 1.14-1.452.622-.825 1.15-1.48 1.175-1.456.024.024-.17.888-.434 1.92l-.478 1.874 1.534.599c.845.33 1.613.626 1.706.66.13.046.744-.786 2.494-3.372 1.277-1.888 2.337-3.42 2.353-3.403.017.017-.186.873-.45 1.902-.264 1.03-.482 1.884-.484 1.899-.008.084 2.656 1.318 2.758 1.277.068-.028 1.25-1.05 2.627-2.274 1.444-1.283 2.194-1.993 2.444-2.319zM3.738 2.356c-1.49.384-2.33 1.001-2.89 2.12-.343.686-.358.77-.357 1.95C.493 7.48.53 7.74.74 8.193c.362.778 1.013 1.576 1.75 2.146l.65.503-1.443 2.106a184.72 184.72 0 00-1.523 2.24c-.06.104.204.135 1.18.135H2.61l1.705-2.519c.938-1.385 1.685-2.535 1.66-2.555a52.294 52.294 0 00-1.026-.682c-1.555-1.022-2.062-1.698-2.191-2.92-.116-1.1.297-1.922 1.2-2.386.349-.18.697-.24 1.563-.275l1.115-.045.028 5.664.028 5.664H8.98l.028-6.563.028-6.562-2.26.006c-1.845.005-2.4.042-3.037.207zm77.343 6.373v6.593h1.85l.013-4.045c.008-2.225.044-4.377.082-4.783l.068-.738.632 2.345c.348 1.29.936 3.43 1.306 4.756l.674 2.41.947.032.947.03.15-.512c.083-.283.685-2.454 1.339-4.825l1.188-4.312.054 4.794.054 4.794 1.061.03 1.062.031V2.143h-1.497l-1.496.002-1.293 4.633c-.712 2.548-1.327 4.695-1.368 4.77-.04.077-.662-1.997-1.38-4.606l-1.307-4.746-1.543-.03-1.543-.029v6.592zM32.354 5.72c-1.446.467-2.31 1.47-2.709 3.144-.24 1.011-.164 3.061.146 3.904.665 1.804 2.043 2.663 4.27 2.659 1.03-.002 2.071-.206 2.728-.536l.432-.217v-.908c0-.5-.026-.909-.058-.909s-.167.069-.3.153c-.538.341-1.659.623-2.526.635-1.202.017-1.78-.257-2.17-1.03-.154-.302-.279-.71-.279-.904v-.354h5.442v-1.11c0-1.392-.13-2.086-.549-2.928-.35-.706-.843-1.169-1.574-1.479-.585-.248-2.24-.318-2.853-.12zm17.82.023c-1.206.32-2.065 1.049-2.622 2.226-.805 1.702-.636 4.516.352 5.86.468.636.68.805 1.506 1.204.685.331.752.342 2.122.342 1.227 0 1.484-.031 1.932-.235l.517-.235v-.926c0-.509-.037-.907-.082-.884-1.318.668-2.647.756-3.462.23-.61-.394-1.029-1.559-1.025-2.857.003-1.426.477-2.468 1.312-2.887.553-.278 1.662-.25 2.545.066l.712.255v-.938c0-.923-.005-.94-.3-1.056-.917-.36-2.488-.434-3.506-.165zm47.232-.11c-.984.165-1.547.314-2.096.552l-.626.273V8.32l.626-.305c.666-.323 1.882-.618 2.561-.621.536-.003 1.107.237 1.315.551.09.138.198.496.238.796l.073.545-1.127.07c-2.45.148-3.863.872-4.232 2.167-.202.711-.098 1.84.227 2.466.728 1.403 2.938 1.852 4.477.91.296-.18.558-.329.584-.329.026 0 .048.109.049.242.003.475.114.519 1.241.486l1.061-.031-.014-3.339c-.007-1.836-.056-3.604-.11-3.928-.192-1.16-.778-1.865-1.806-2.17-.535-.158-1.98-.275-2.441-.198zm10.114.034c-.494.159-.8.35-1.26.785l-.451.427-.077-.547-.076-.546h-2.047V18h2.285v-3.665l.403.348c.685.592 1.252.778 2.204.724 2.235-.127 3.485-1.887 3.485-4.907 0-3.008-1.25-4.792-3.426-4.889-.418-.019-.886.006-1.04.056zm17.194.05c-1.454.387-2.368 1.422-2.779 3.148-.214.9-.156 3.025.105 3.836.366 1.137 1.175 1.984 2.337 2.447 1.134.452 3.553.32 4.701-.256l.433-.218v-1.822l-.305.155c-.714.364-1.835.638-2.638.645-1.428.013-2.134-.52-2.375-1.79l-.095-.505h5.547l-.053-1.42c-.032-.868-.121-1.63-.228-1.96-.237-.733-.748-1.465-1.253-1.794-.872-.568-2.281-.761-3.397-.465zm-113.805 4.81l.029 4.74h2.285l.03-1.954.03-1.956h3.042v3.972l1.116-.03 1.115-.031.028-4.741.029-4.741H16.33l-.03 1.848-.03 1.848-1.496.03-1.496.03V5.786H10.88l.028 4.74zm10.273-2.803c-.1 2.641-.356 4.389-.795 5.428-.126.3-.2.348-.529.348h-.382l.03 1.955.03 1.956 1.06.03 1.062.031v-2.15h5.115v2.15l1.061-.03 1.061-.031.03-1.956.03-1.955H27.86V5.786h-6.605l-.074 1.938zm17.697 2.803l.029 4.74h2.285l.055-2.245.054-2.246 1.633 2.246 1.633 2.246 1.278.03c.703.017 1.279 0 1.279-.037s-.812-1.199-1.805-2.581l-1.804-2.514.185-.278c.102-.152.707-.981 1.345-1.842.638-.86 1.272-1.72 1.41-1.912l.248-.348-1.177.006-1.178.006-1.523 2.092-1.524 2.092-.03-2.098-.029-2.098h-2.392l.028 4.74zm74.66 0l.028 4.74h2.286l.029-2.289.029-2.29 1.662 2.29 1.662 2.29 1.275.03c.7.017 1.274 0 1.274-.038s-.712-1.064-1.584-2.28a145.25 145.25 0 01-1.793-2.54l-.21-.328 1.572-2.136 1.571-2.137-1.049-.03c-.577-.018-1.104-.01-1.171.015-.068.025-.806.972-1.64 2.105l-1.518 2.058-.03-2.1-.03-2.101h-2.391l.028 4.74zm16.516-3.884V7.5h2.718l.029 3.884.029 3.884 1.115.03 1.116.031V7.5h2.72V5.786h-7.727v.857zm-95.824.878c.374.168.683.779.772 1.525l.071.597h-3.262l.083-.517c.126-.786.377-1.277.775-1.516.407-.244 1.124-.285 1.561-.089zm74.473.09c.713.427 1.09 2.028.888 3.77-.184 1.583-.767 2.272-1.922 2.272-.717 0-1.079-.24-1.449-.962-.253-.493-.272-.64-.272-2.084 0-1.684.095-2.134.572-2.691.35-.411.591-.508 1.278-.516.364-.004.664.066.905.21zm17.911.006c.395.306.574.684.667 1.41l.077.616h-3.257l.096-.601c.123-.775.341-1.179.775-1.44.477-.286 1.262-.279 1.642.015zM25.575 10.5v3h-1.577c-.868 0-1.578-.013-1.578-.03 0-.015.12-.495.267-1.065.266-1.034.491-2.965.493-4.235l.001-.67h2.395v3zm73.898 1.43c0 1.21-.022 1.258-.73 1.61-.433.217-1.357.226-1.765.018-.31-.158-.661-.817-.661-1.242 0-.119.07-.38.155-.58.244-.576 1.033-.883 2.32-.904l.68-.01v1.108z" fill="#000"/></g><defs><clipPath id="clip0_2722_3460"><path fill="#fff" d="M0 0h138v18H0z"/></clipPath></defs></svg>